*
G04 Mass Parameters ***
*
G04 Image ***
*
%INC:\USERS\RAFEL\DOCUMENTS\PROJECTES\SOC\T3\DISENO\HARDWARE\VERSION1_0\LAYOUT\CAMERABOARD\CAMERABOARD.SMB*%
%ICAS*%
%MOIN*%
%IPPOS*%
%ASAXBY*%
G74*%FSLAN2X34Y34*%
*
G04 Aperture Definitions ***
*
%ADD10C,0.1100*%
%ADD11C,0.1378*%
%ADD12R,0.0748X0.0315*%
%ADD13R,0.0866X0.0315*%
%ADD14R,0.0320X0.0380*%
%ADD15R,0.0380X0.0320*%
%ADD16R,0.0480X0.0760*%
%ADD17C,0.0620*%
%ADD18R,0.0620X0.0620*%
%ADD19O,0.0787X0.0472*%
%ADD20R,0.0504X0.0504*%
%ADD21R,0.0504X0.0779*%
%ADD22R,0.0220X0.0220*%
%ADD23R,0.1181X0.0866*%
%ADD24R,0.0394X0.0866*%
%ADD25R,0.0118X0.0630*%
%ADD26C,0.0300*%
%ADD27C,0.0020*%
%ADD28C,0.0004*%
%ADD29C,0.0000*%
%ADD30C,0.0300*%
%ADD31C,0.0100*%
%ADD32C,0.0300*%
%ADD33C,0.0138*%
%ADD34C,0.0098*%
%ADD35C,0.0059*%
%ADD36C,0.0079*%
%ADD37C,0.1000*%
%ADD38C,0.0551*%
%ADD39R,0.0138X0.0630*%
%ADD40R,0.0197X0.0787*%
%ADD41O,0.0197X0.0590*%
%ADD42O,0.0590X0.0197*%
%ADD43R,0.0590X0.0197*%
%ADD44R,0.0197X0.0590*%
%ADD45C,0.1050*%
%ADD46C,0.0670*%
%ADD47R,0.0670X0.0670*%
%ADD48R,0.0512X0.0512*%
%ADD49R,0.0512X0.0787*%
%ADD50C,0.0350*%
%ADD51C,0.0350*%
%ADD52C,0.0630*%
*
G04 Plot Data ***
*
G54D14*
X0010492Y0009862D03*
X0011052D03*
X0010453Y0010709D03*
X0011013D03*
X0005713Y0007052D03*
X0005153D03*
G54D15*
X0016398Y0007835D03*
Y0007275D03*
X0017224Y0007835D03*
Y0007275D03*
X0017303Y0004626D03*
Y0004066D03*
X0016496Y0004615D03*
Y0004055D03*
X0013917Y0002087D03*
Y0001527D03*
X0013110Y0002087D03*
Y0001527D03*
X0012008Y0002087D03*
Y0001527D03*
X0011220Y0002087D03*
Y0001527D03*
X0008563Y0004654D03*
Y0004094D03*
X0007756Y0004674D03*
Y0004114D03*
X0008543Y0007235D03*
Y0007795D03*
X0007756Y0007235D03*
Y0007795D03*
X0002539Y0003622D03*
Y0003062D03*
G54D19*
X0001831Y0004724D03*
Y0005512D03*
Y0006299D03*
Y0007087D03*
G54D39*
X0005177Y0003760D03*
X0004921D03*
X0004665D03*
X0004409D03*
X0004154D03*
X0003898D03*
X0003642D03*
Y0005965D03*
X0003898D03*
X0004153D03*
X0004409D03*
X0004665D03*
X0004921D03*
X0005177D03*
G54D40*
X0012594Y0008032D03*
G54D41*
X0010705Y0008134D03*
X0014173D03*
X0010705Y0003801D03*
X0014173D03*
G54D42*
X0010272Y0007699D03*
X0014602D03*
X0010272Y0004234D03*
X0014602D03*
G54D43*
Y0004551D03*
Y0004866D03*
Y0005179D03*
Y0005494D03*
Y0005809D03*
Y0006124D03*
Y0006439D03*
Y0006754D03*
Y0007069D03*
Y0007384D03*
X0010272Y0004549D03*
Y0004864D03*
Y0005179D03*
Y0005494D03*
Y0005809D03*
Y0006124D03*
Y0006439D03*
Y0006754D03*
Y0007069D03*
Y0007384D03*
G54D44*
X0011020Y0003801D03*
X0011335D03*
X0011654D03*
X0011965D03*
X0012279D03*
X0012594D03*
X0012913D03*
X0013224D03*
X0013539D03*
X0013854D03*
X0011020Y0008134D03*
X0011335D03*
X0011654D03*
X0011965D03*
X0012279D03*
X0012913D03*
X0013224D03*
X0013539D03*
X0013854D03*
G54D45*
X0000787Y0011024D03*
X0018898D03*
Y0000787D03*
X0000787D03*
G54D46*
X0009843Y0000850D03*
X0008843Y0001850D03*
Y0000850D03*
X0007843Y0001850D03*
Y0000850D03*
X0006843Y0001850D03*
Y0000850D03*
X0005843Y0001850D03*
Y0000850D03*
X0004921Y0011000D03*
X0005921Y0010000D03*
Y0011000D03*
X0006921Y0010000D03*
Y0011000D03*
X0007921Y0010000D03*
Y0011000D03*
X0008921Y0010000D03*
Y0011000D03*
X0012402D03*
X0013402Y0010000D03*
Y0011000D03*
X0014402Y0010000D03*
Y0011000D03*
X0015402Y0010000D03*
Y0011000D03*
X0016402Y0010000D03*
Y0011000D03*
G54D47*
X0009843Y0001850D03*
X0004921Y0010000D03*
X0012402D03*
G54D50*
X0004488Y0006673D03*
X0010335Y0011457D03*
G54D51*
X0008232Y0008923D03*
X0003335Y0002683D03*
X0007681Y0008522D03*
X0012257Y0002808D03*
X0003130Y0005610D03*
X0018130Y0008794D03*
X0012950Y0002745D03*
X0005498Y0007804D03*
X0003091Y0003760D03*
X0003699Y0011432D03*
X0004020Y0008644D03*
X0010442Y0001181D03*
X0017652Y0006813D03*
X0018583Y0006634D03*
X0013992Y0000647D03*
X0005138Y0002008D03*
X0012386Y0007389D03*
X0011634Y0010984D03*
X0009301Y0007816D03*
X0008562Y0009448D03*
X0003640Y0010481D03*
X0003425Y0000531D03*
X0012883Y0005504D03*
X0006433Y0003283D03*
X0016831Y0002126D03*
X0005380Y0002904D03*
X0011575Y0007323D03*
X0009659Y0008820D03*
X0001831Y0003130D03*
X0003477Y0001248D03*
X0013539Y0005533D03*
X0009339Y0003519D03*
X0007352Y0002301D03*
X0012283Y0004665D03*
X0017836Y0000578D03*
X0017590Y0011367D03*
X0001028Y0005492D03*
X0009861Y0003747D03*
X0006193Y0006754D03*
X0011539Y0005996D03*
X0004485Y0000545D03*
X0006728Y0006500D03*
X0011830Y0006556D03*
X0005515Y0008467D03*
X0018970Y0008036D03*
X0009954Y0009271D03*
X0015552Y0006905D03*
X0006311Y0002348D03*
X0012328Y0005272D03*
X0000945Y0007087D03*
X0011288Y0011434D03*
X0007421Y0009473D03*
X0010904Y0006754D03*
X0013111Y0009149D03*
X0007352Y0005948D03*
X0010984Y0000706D03*
X0011098Y0002690D03*
G54D52*
X0016358Y0005965D03*
X0008524D03*
M02*
