*
G04 Mass Parameters ***
*
G04 Image ***
*
%INC:\USERS\RAFEL\DOCUMENTS\PROJECTES\SOC\T3\DISENO\HARDWARE\VERSION1_0\LAYOUT\CAMERABOARD\CAMERABOARD.DRD*%
%ICAS*%
%MOIN*%
%IPPOS*%
%ASAXBY*%
G74*%FSLAN2X34Y34*%
*
G04 Aperture Definitions ***
*
%ADD10C,0.1100*%
%ADD11C,0.1378*%
%ADD12R,0.0748X0.0315*%
%ADD13R,0.0866X0.0315*%
%ADD14R,0.0320X0.0380*%
%ADD15R,0.0380X0.0320*%
%ADD16R,0.0480X0.0760*%
%ADD17C,0.0620*%
%ADD18R,0.0620X0.0620*%
%ADD19O,0.0787X0.0472*%
%ADD20R,0.0504X0.0504*%
%ADD21R,0.0504X0.0779*%
%ADD22R,0.0220X0.0220*%
%ADD23R,0.1181X0.0866*%
%ADD24R,0.0394X0.0866*%
%ADD25R,0.0118X0.0630*%
%ADD26C,0.0300*%
%ADD27C,0.0020*%
%ADD28C,0.0004*%
%ADD29C,0.0000*%
%ADD30C,0.0300*%
%ADD31C,0.0100*%
%ADD32C,0.0300*%
%ADD33C,0.0138*%
%ADD34C,0.0098*%
%ADD35C,0.0059*%
%ADD36C,0.0079*%
%ADD37C,0.1000*%
%ADD38C,0.0551*%
%ADD39R,0.0138X0.0630*%
%ADD40R,0.0197X0.0787*%
%ADD41O,0.0197X0.0590*%
%ADD42O,0.0590X0.0197*%
%ADD43R,0.0590X0.0197*%
%ADD44R,0.0197X0.0590*%
%ADD45C,0.1050*%
%ADD46C,0.0670*%
%ADD47R,0.0670X0.0670*%
%ADD48R,0.0512X0.0512*%
%ADD49R,0.0512X0.0787*%
%ADD50C,0.0350*%
%ADD51C,0.0350*%
%ADD52C,0.0630*%
%ADD53C,0.0060*%
%ADD54C,0.0039*%
%ADD55C,0.0197*%
%ADD56C,0.0118*%
%ADD57C,0.0010*%
*
G04 Plot Data ***
*
G54D31*
G01X0034625Y-0026833D02*
X0034125D01*
X0034042Y-0026667D01*
Y-0026500D01*
X0034125Y-0026333D01*
X0034625D01*
X0034708Y-0026500D01*
Y-0026667D01*
X0034375Y-0027333D01*
X0033675Y-0026833D02*
X0033175D01*
X0033092Y-0026667D01*
Y-0026500D01*
X0033175Y-0026333D01*
X0033675D01*
X0033758Y-0026500D01*
Y-0026667D01*
X0033425Y-0027333D01*
X0022312D02*
X0021729D01*
Y-0026333D01*
X0021446Y-0027000D02*
X0020779D01*
X0021446Y-0027333D02*
Y-0026833D01*
X0021196Y-0026333D01*
X0021029D01*
X0020779Y-0026833D01*
Y-0027333D01*
X0020162D02*
Y-0026333D01*
X0020496D02*
X0019829D01*
X0018962Y-0027333D02*
X0018879Y-0027167D01*
Y-0026500D01*
X0018962Y-0026333D01*
X0019462D01*
X0019546Y-0026500D01*
Y-0027167D01*
X0019462Y-0027333D01*
X0018962D01*
X0018262D02*
Y-0026333D01*
X0018596D02*
X0017929D01*
X0034708Y-0025250D02*
X0034264D01*
X0034486Y-0024806D01*
X0034597D01*
Y-0025472D01*
X0020869D02*
Y-0025139D01*
X0021092Y-0025472D02*
Y-0025139D01*
X0021036Y-0025028D01*
X0020925D01*
X0020869Y-0025139D01*
X0020814Y-0025028D01*
X0020703D01*
X0020647Y-0025139D01*
Y-0025472D01*
X0020169D02*
Y-0025139D01*
X0020392Y-0025472D02*
Y-0025139D01*
X0020336Y-0025028D01*
X0020225D01*
X0020169Y-0025139D01*
X0020114Y-0025028D01*
X0020003D01*
X0019947Y-0025139D01*
Y-0025472D01*
X0018742Y-0025250D02*
X0018297D01*
X0018519Y-0024806D01*
X0018631D01*
Y-0025472D01*
X0017986Y-0025139D02*
X0017653D01*
X0017597Y-0025028D01*
Y-0024917D01*
X0017653Y-0024806D01*
X0017986D01*
X0018042Y-0024917D01*
Y-0025028D01*
X0017819Y-0025472D01*
X0017008D02*
X0017342Y-0024806D01*
X0016897D01*
X0016531Y-0025472D02*
X0016642D01*
Y-0025361D01*
X0016531D01*
Y-0025472D01*
X0016164D02*
X0015719D01*
X0016164Y-0025028D01*
Y-0024917D01*
X0016108Y-0024806D01*
X0015775D01*
X0015719Y-0024917D01*
X0034708Y-0023972D02*
X0034264D01*
X0034708Y-0023528D01*
Y-0023417D01*
X0034653Y-0023306D01*
X0034319D01*
X0034264Y-0023417D01*
X0020869Y-0023972D02*
Y-0023639D01*
X0021092Y-0023972D02*
Y-0023639D01*
X0021036Y-0023528D01*
X0020925D01*
X0020869Y-0023639D01*
X0020814Y-0023528D01*
X0020703D01*
X0020647Y-0023639D01*
Y-0023972D01*
X0020169D02*
Y-0023639D01*
X0020392Y-0023972D02*
Y-0023639D01*
X0020336Y-0023528D01*
X0020225D01*
X0020169Y-0023639D01*
X0020114Y-0023528D01*
X0020003D01*
X0019947Y-0023639D01*
Y-0023972D01*
X0018464D02*
X0018353Y-0023861D01*
X0018297Y-0023750D01*
Y-0023528D01*
X0018353Y-0023417D01*
X0018464Y-0023306D01*
X0018575D01*
X0018686Y-0023417D01*
X0018742Y-0023528D01*
Y-0023750D01*
X0018686Y-0023861D01*
X0018575Y-0023972D01*
X0018464D01*
X0017764D02*
X0017653Y-0023861D01*
X0017597Y-0023750D01*
Y-0023528D01*
X0017653Y-0023417D01*
X0017764Y-0023306D01*
X0017875D01*
X0017986Y-0023417D01*
X0018042Y-0023528D01*
Y-0023750D01*
X0017986Y-0023861D01*
X0017875Y-0023972D01*
X0017764D01*
X0017342Y-0023750D02*
X0016897D01*
X0017119Y-0023306D01*
X0017231D01*
Y-0023972D01*
X0016531D02*
X0016642D01*
Y-0023861D01*
X0016531D01*
Y-0023972D01*
X0016164D02*
X0015942D01*
X0016053D02*
Y-0023306D01*
X0015942Y-0023417D01*
X0034431Y-0022472D02*
X0034319Y-0022361D01*
X0034264Y-0022250D01*
Y-0022028D01*
X0034319Y-0021917D01*
X0034431Y-0021806D01*
X0034542D01*
X0034653Y-0021917D01*
X0034708Y-0022028D01*
Y-0022250D01*
X0034653Y-0022361D01*
X0034542Y-0022472D01*
X0034431D01*
X0033564Y-0022361D02*
X0033675Y-0022472D01*
X0033897D01*
X0034008Y-0022361D01*
Y-0022250D01*
X0033786Y-0022028D01*
X0034008Y-0021806D01*
X0033564D01*
X0020869Y-0022472D02*
Y-0022139D01*
X0021092Y-0022472D02*
Y-0022139D01*
X0021036Y-0022028D01*
X0020925D01*
X0020869Y-0022139D01*
X0020814Y-0022028D01*
X0020703D01*
X0020647Y-0022139D01*
Y-0022472D01*
X0020169D02*
Y-0022139D01*
X0020392Y-0022472D02*
Y-0022139D01*
X0020336Y-0022028D01*
X0020225D01*
X0020169Y-0022139D01*
X0020114Y-0022028D01*
X0020003D01*
X0019947Y-0022139D01*
Y-0022472D01*
X0018297Y-0022361D02*
X0018353Y-0022472D01*
X0018686D01*
X0018742Y-0022361D01*
Y-0022139D01*
X0018631Y-0022028D01*
X0018297D01*
Y-0021806D01*
X0018742D01*
X0017653Y-0022139D02*
X0017986D01*
X0018042Y-0022250D01*
Y-0022361D01*
X0017986Y-0022472D01*
X0017653D01*
X0017597Y-0022361D01*
Y-0022250D01*
X0017819Y-0021806D01*
X0017286Y-0022139D02*
X0016953D01*
X0016897Y-0022028D01*
Y-0021917D01*
X0016953Y-0021806D01*
X0017286D01*
X0017342Y-0021917D01*
Y-0022028D01*
X0017119Y-0022472D01*
X0016531D02*
X0016642D01*
Y-0022361D01*
X0016531D01*
Y-0022472D01*
X0015886D02*
X0015775Y-0022361D01*
X0015719Y-0022250D01*
Y-0022028D01*
X0015775Y-0021917D01*
X0015886Y-0021806D01*
X0015997D01*
X0016108Y-0021917D01*
X0016164Y-0022028D01*
Y-0022250D01*
X0016108Y-0022361D01*
X0015997Y-0022472D01*
X0015886D01*
X0034708Y-0020750D02*
X0034264D01*
X0034486Y-0020306D01*
X0034597D01*
Y-0020972D01*
X0020869D02*
Y-0020639D01*
X0021092Y-0020972D02*
Y-0020639D01*
X0021036Y-0020528D01*
X0020925D01*
X0020869Y-0020639D01*
X0020814Y-0020528D01*
X0020703D01*
X0020647Y-0020639D01*
Y-0020972D01*
X0020169D02*
Y-0020639D01*
X0020392Y-0020972D02*
Y-0020639D01*
X0020336Y-0020528D01*
X0020225D01*
X0020169Y-0020639D01*
X0020114Y-0020528D01*
X0020003D01*
X0019947Y-0020639D01*
Y-0020972D01*
X0018686Y-0020639D02*
X0018353D01*
X0018297Y-0020528D01*
Y-0020417D01*
X0018353Y-0020306D01*
X0018686D01*
X0018742Y-0020417D01*
Y-0020528D01*
X0018519Y-0020972D01*
X0017986Y-0020639D02*
X0017653D01*
X0017597Y-0020528D01*
Y-0020417D01*
X0017653Y-0020306D01*
X0017986D01*
X0018042Y-0020417D01*
Y-0020528D01*
X0017819Y-0020972D01*
X0016953Y-0020639D02*
X0017286D01*
X0017342Y-0020750D01*
Y-0020861D01*
X0017286Y-0020972D01*
X0016953D01*
X0016897Y-0020861D01*
Y-0020750D01*
X0017119Y-0020306D01*
X0016531Y-0020972D02*
X0016642D01*
Y-0020861D01*
X0016531D01*
Y-0020972D01*
X0015886D02*
X0015775Y-0020861D01*
X0015719Y-0020750D01*
Y-0020528D01*
X0015775Y-0020417D01*
X0015886Y-0020306D01*
X0015997D01*
X0016108Y-0020417D01*
X0016164Y-0020528D01*
Y-0020750D01*
X0016108Y-0020861D01*
X0015997Y-0020972D01*
X0015886D01*
X0034653Y-0019139D02*
X0034319D01*
X0034264Y-0019028D01*
Y-0018917D01*
X0034319Y-0018806D01*
X0034653D01*
X0034708Y-0018917D01*
Y-0019028D01*
X0034486Y-0019472D01*
X0033564Y-0019361D02*
X0033619Y-0019472D01*
X0033953D01*
X0034008Y-0019361D01*
Y-0019139D01*
X0033897Y-0019028D01*
X0033564D01*
Y-0018806D01*
X0034008D01*
X0020869Y-0019472D02*
Y-0019139D01*
X0021092Y-0019472D02*
Y-0019139D01*
X0021036Y-0019028D01*
X0020925D01*
X0020869Y-0019139D01*
X0020814Y-0019028D01*
X0020703D01*
X0020647Y-0019139D01*
Y-0019472D01*
X0020169D02*
Y-0019139D01*
X0020392Y-0019472D02*
Y-0019139D01*
X0020336Y-0019028D01*
X0020225D01*
X0020169Y-0019139D01*
X0020114Y-0019028D01*
X0020003D01*
X0019947Y-0019139D01*
Y-0019472D01*
X0018742D02*
X0018519D01*
X0018631D02*
Y-0018806D01*
X0018519Y-0018917D01*
X0018097Y-0019139D02*
X0018153Y-0019028D01*
Y-0018917D01*
X0018097Y-0018806D01*
X0017764D01*
X0017708Y-0018917D01*
Y-0019028D01*
X0017764Y-0019139D01*
X0018097D01*
X0018153Y-0019250D01*
Y-0019361D01*
X0018097Y-0019472D01*
X0017764D01*
X0017708Y-0019361D01*
Y-0019250D01*
X0017764Y-0019139D01*
X0017008Y-0019361D02*
X0017119Y-0019472D01*
X0017342D01*
X0017453Y-0019361D01*
Y-0019250D01*
X0017231Y-0019028D01*
X0017453Y-0018806D01*
X0017008D01*
X0016642Y-0019472D02*
X0016753D01*
Y-0019361D01*
X0016642D01*
Y-0019472D01*
X0015997D02*
X0015886Y-0019361D01*
X0015831Y-0019250D01*
Y-0019028D01*
X0015886Y-0018917D01*
X0015997Y-0018806D01*
X0016108D01*
X0016219Y-0018917D01*
X0016275Y-0019028D01*
Y-0019250D01*
X0016219Y-0019361D01*
X0016108Y-0019472D01*
X0015997D01*
X0043112Y-0017333D02*
X0042612D01*
X0043279Y-0017833D02*
X0042612D01*
Y-0016833D01*
X0043279D01*
X0041996Y-0017833D02*
Y-0016833D01*
X0042329D02*
X0041662D01*
X0040796Y-0017833D02*
X0040712Y-0017667D01*
Y-0017000D01*
X0040796Y-0016833D01*
X0041296D01*
X0041379Y-0017000D01*
Y-0017667D01*
X0041296Y-0017833D01*
X0040796D01*
X0040429Y-0016833D02*
Y-0017833D01*
X0040262Y-0017667D01*
X0039929Y-0017000D01*
X0039762Y-0016833D01*
Y-0017833D01*
X0033925D02*
Y-0017333D01*
X0034258Y-0016833D02*
X0034008Y-0017333D01*
X0033842D01*
X0033592Y-0016833D01*
X0032975Y-0017833D02*
Y-0016833D01*
X0033308D02*
X0032642D01*
X0032025Y-0017500D02*
X0032358Y-0017833D01*
X0031692Y-0017667D02*
X0031775Y-0017833D01*
X0032108D01*
X0032192Y-0017667D01*
X0032358Y-0017500D01*
Y-0017000D01*
X0032275Y-0016833D01*
X0031775D01*
X0031692Y-0017000D01*
Y-0017667D01*
X0027408Y-0017833D02*
X0026825D01*
Y-0016833D01*
X0025958Y-0017833D02*
X0025875Y-0017667D01*
Y-0017000D01*
X0025958Y-0016833D01*
X0026458D01*
X0026542Y-0017000D01*
Y-0017667D01*
X0026458Y-0017833D01*
X0025958D01*
X0025258D02*
Y-0016833D01*
X0025592D02*
X0024925D01*
X0019587Y-0017833D02*
Y-0016833D01*
X0019421Y-0017000D01*
X0019254Y-0017333D01*
X0019087Y-0017000D01*
X0018921Y-0016833D01*
Y-0017833D01*
X0018637Y-0017500D02*
X0017971D01*
X0018637Y-0017833D02*
Y-0017333D01*
X0018387Y-0016833D01*
X0018221D01*
X0017971Y-0017333D01*
Y-0017833D01*
X0017687D02*
X0017354D01*
X0017521D02*
Y-0016833D01*
X0017687D02*
X0017354D01*
X0016321Y-0017833D02*
Y-0016833D01*
X0016237Y-0017833D02*
X0016737D01*
X0016904Y-0017500D01*
Y-0017167D01*
X0016737Y-0016833D01*
X0016237D01*
X0013150Y-0017833D02*
Y-0016833D01*
X0012983Y-0017000D01*
X0012817Y-0017333D01*
X0012650Y-0017000D01*
X0012483Y-0016833D01*
Y-0017833D01*
X0011867D02*
Y-0017333D01*
X0012200Y-0016833D02*
X0011950Y-0017333D01*
X0011783D01*
X0011533Y-0016833D01*
X0011250Y-0017000D02*
X0011167Y-0016833D01*
X0010667D01*
X0010583Y-0017000D01*
Y-0017167D01*
X0010667Y-0017333D01*
X0011167D01*
X0011250Y-0017500D01*
Y-0017667D01*
X0011167Y-0017833D01*
X0010667D01*
X0010583Y-0017667D01*
X0033437Y-0015833D02*
Y-0014833D01*
X0033771D02*
X0033104D01*
X0032571Y-0015333D02*
X0032821Y-0015833D01*
X0032154Y-0015333D02*
X0032654D01*
X0032821Y-0015167D01*
Y-0015000D01*
X0032654Y-0014833D01*
X0032154D01*
Y-0015833D01*
X0031871Y-0015500D02*
X0031204D01*
X0031871Y-0015833D02*
Y-0015333D01*
X0031621Y-0014833D01*
X0031454D01*
X0031204Y-0015333D01*
Y-0015833D01*
X0030921Y-0015333D02*
X0030254D01*
X0030921Y-0015833D02*
Y-0014833D01*
X0030254Y-0015833D02*
Y-0014833D01*
X0029971Y-0015667D02*
X0029887Y-0015833D01*
X0029387D01*
X0029304Y-0015667D01*
Y-0015000D01*
X0029387Y-0014833D01*
X0029887D01*
X0029971Y-0015000D01*
X0027696Y-0015833D02*
X0027112D01*
Y-0014833D01*
X0026829Y-0015833D02*
X0026246D01*
Y-0014833D01*
X0025962Y-0015833D02*
X0025629D01*
X0025796D02*
Y-0014833D01*
X0025962D02*
X0025629D01*
X0024929Y-0015333D02*
X0025179Y-0015833D01*
X0024512Y-0015333D02*
X0025012D01*
X0025179Y-0015167D01*
Y-0015000D01*
X0025012Y-0014833D01*
X0024512D01*
Y-0015833D01*
X0023646D02*
Y-0014833D01*
X0023562Y-0015833D02*
X0024062D01*
X0024229Y-0015500D01*
Y-0015167D01*
X0024062Y-0014833D01*
X0023562D01*
X0008482Y0008923D02*
X0007982D01*
X0008232Y0009173D02*
Y0008673D01*
X0003585Y0002683D02*
X0003085D01*
X0003335Y0002933D02*
Y0002433D01*
X0007931Y0008522D02*
X0007431D01*
X0007681Y0008772D02*
Y0008272D01*
X0003341Y0003760D02*
X0002841D01*
X0003091Y0004010D02*
Y0003510D01*
X0004270Y0008644D02*
X0003770D01*
X0004020Y0008894D02*
Y0008394D01*
X0004270Y0008644D02*
X0003770D01*
X0004020Y0008894D02*
Y0008394D01*
X0013200Y0002745D02*
X0012700D01*
X0012950Y0002995D02*
Y0002495D01*
X0012507Y0002808D02*
X0012007D01*
X0012257Y0003058D02*
Y0002558D01*
X0003380Y0005610D02*
X0002880D01*
X0003130Y0005860D02*
Y0005360D01*
X0013200Y0002745D02*
X0012700D01*
X0012950Y0002995D02*
Y0002495D01*
X0018380Y0008794D02*
X0017880D01*
X0018130Y0009044D02*
Y0008544D01*
X0018380Y0008794D02*
X0017880D01*
X0018130Y0009044D02*
Y0008544D01*
X0013200Y0002745D02*
X0012700D01*
X0012950Y0002995D02*
Y0002495D01*
X0005748Y0007804D02*
X0005248D01*
X0005498Y0008054D02*
Y0007554D01*
X0003341Y0003760D02*
X0002841D01*
X0003091Y0004010D02*
Y0003510D01*
X0004270Y0008644D02*
X0003770D01*
X0004020Y0008894D02*
Y0008394D01*
X0003949Y0011432D02*
X0003449D01*
X0003699Y0011682D02*
Y0011182D01*
X0004270Y0008644D02*
X0003770D01*
X0004020Y0008894D02*
Y0008394D01*
X0010692Y0001181D02*
X0010192D01*
X0010442Y0001431D02*
Y0000931D01*
X0017902Y0006813D02*
X0017402D01*
X0017652Y0007063D02*
Y0006563D01*
X0018833Y0006634D02*
X0018333D01*
X0018583Y0006884D02*
Y0006384D01*
X0014242Y0000647D02*
X0013742D01*
X0013992Y0000897D02*
Y0000397D01*
X0005388Y0002008D02*
X0004888D01*
X0005138Y0002258D02*
Y0001758D01*
X0012636Y0007389D02*
X0012136D01*
X0012386Y0007639D02*
Y0007139D01*
X0011884Y0010984D02*
X0011384D01*
X0011634Y0011234D02*
Y0010734D01*
X0009551Y0007816D02*
X0009051D01*
X0009301Y0008066D02*
Y0007566D01*
X0008812Y0009448D02*
X0008312D01*
X0008562Y0009698D02*
Y0009198D01*
X0003890Y0010481D02*
X0003390D01*
X0003640Y0010731D02*
Y0010231D01*
X0003675Y0000531D02*
X0003175D01*
X0003425Y0000781D02*
Y0000281D01*
X0013133Y0005504D02*
X0012633D01*
X0012883Y0005754D02*
Y0005254D01*
X0006683Y0003283D02*
X0006183D01*
X0006433Y0003533D02*
Y0003033D01*
X0017081Y0002126D02*
X0016581D01*
X0016831Y0002376D02*
Y0001876D01*
X0005630Y0002904D02*
X0005130D01*
X0005380Y0003154D02*
Y0002654D01*
X0011825Y0007323D02*
X0011325D01*
X0011575Y0007573D02*
Y0007073D01*
X0009909Y0008820D02*
X0009409D01*
X0009659Y0009070D02*
Y0008570D01*
X0002081Y0003130D02*
X0001581D01*
X0001831Y0003380D02*
Y0002880D01*
X0003727Y0001248D02*
X0003227D01*
X0003477Y0001498D02*
Y0000998D01*
X0013789Y0005533D02*
X0013289D01*
X0013539Y0005783D02*
Y0005283D01*
X0009589Y0003519D02*
X0009089D01*
X0009339Y0003769D02*
Y0003269D01*
X0007602Y0002301D02*
X0007102D01*
X0007352Y0002551D02*
Y0002051D01*
X0012533Y0004665D02*
X0012033D01*
X0012283Y0004915D02*
Y0004415D01*
X0018086Y0000578D02*
X0017586D01*
X0017836Y0000828D02*
Y0000328D01*
X0017840Y0011367D02*
X0017340D01*
X0017590Y0011617D02*
Y0011117D01*
X0011538Y0011434D02*
X0011038D01*
X0011288Y0011684D02*
Y0011184D01*
X0001278Y0005492D02*
X0000778D01*
X0001028Y0005742D02*
Y0005242D01*
X0011538Y0011434D02*
X0011038D01*
X0011288Y0011684D02*
Y0011184D01*
X0010111Y0003747D02*
X0009611D01*
X0009861Y0003997D02*
Y0003497D01*
X0006443Y0006754D02*
X0005943D01*
X0006193Y0007004D02*
Y0006504D01*
X0011789Y0005996D02*
X0011289D01*
X0011539Y0006246D02*
Y0005746D01*
X0004735Y0000545D02*
X0004235D01*
X0004485Y0000795D02*
Y0000295D01*
X0006978Y0006500D02*
X0006478D01*
X0006728Y0006750D02*
Y0006250D01*
X0012080Y0006556D02*
X0011580D01*
X0011830Y0006806D02*
Y0006306D01*
X0005765Y0008467D02*
X0005265D01*
X0005515Y0008717D02*
Y0008217D01*
X0019220Y0008036D02*
X0018720D01*
X0018970Y0008286D02*
Y0007786D01*
X0010204Y0009271D02*
X0009704D01*
X0009954Y0009521D02*
Y0009021D01*
X0015802Y0006905D02*
X0015302D01*
X0015552Y0007155D02*
Y0006655D01*
X0006561Y0002348D02*
X0006061D01*
X0006311Y0002598D02*
Y0002098D01*
X0012578Y0005272D02*
X0012078D01*
X0012328Y0005522D02*
Y0005022D01*
X0001195Y0007087D02*
X0000695D01*
X0000945Y0007337D02*
Y0006837D01*
X0011538Y0011434D02*
X0011038D01*
X0011288Y0011684D02*
Y0011184D01*
X0007671Y0009473D02*
X0007171D01*
X0007421Y0009723D02*
Y0009223D01*
X0011154Y0006754D02*
X0010654D01*
X0010904Y0007004D02*
Y0006504D01*
X0013361Y0009149D02*
X0012861D01*
X0013111Y0009399D02*
Y0008899D01*
X0007602Y0005948D02*
X0007102D01*
X0007352Y0006198D02*
Y0005698D01*
X0011234Y0000706D02*
X0010734D01*
X0010984Y0000956D02*
Y0000456D01*
X0011348Y0002690D02*
X0010848D01*
X0011098Y0002940D02*
Y0002440D01*
X0011575Y-0025000D02*
Y-0025250D01*
X0011825Y-0025000D02*
X0011575D01*
X0011825Y-0025500D02*
Y-0025000D01*
X0012075Y-0025500D02*
X0011825D01*
X0012075Y-0025250D02*
Y-0025500D01*
X0011575Y-0025250D02*
X0012075D01*
X0011575Y-0023500D02*
Y-0024000D01*
X0012075Y-0023500D02*
X0011575D01*
X0012075Y-0024000D02*
Y-0023500D01*
X0011575Y-0024000D02*
X0012075D01*
Y-0023500D02*
X0011575Y-0024000D01*
X0012075D02*
X0011575Y-0023500D01*
X0012075Y-0022000D02*
X0011575Y-0022500D01*
X0012075D02*
X0011575Y-0022000D01*
X0011825Y-0020500D02*
X0011575Y-0020750D01*
X0012075D02*
X0011825Y-0020500D01*
Y-0021000D02*
X0012075Y-0020750D01*
X0011575D02*
X0011825Y-0021000D01*
X0012075Y-0019250D02*
X0011575D01*
X0011825Y-0019000D02*
Y-0019500D01*
X0047300Y-0028050D02*
X0009950D01*
X0047250Y-0028000D02*
X0010000D01*
X0047250Y-0026000D02*
X0010000D01*
X0047250Y-0024500D02*
X0010000D01*
X0047250Y-0023000D02*
X0010000D01*
X0047250Y-0021500D02*
X0010000D01*
X0047250Y-0020000D02*
X0010000D01*
X0047250Y-0018500D02*
X0010000D01*
X0047250Y-0018450D02*
X0010000D01*
X0047250Y-0016500D02*
X0010000D01*
X0047250Y-0016450D02*
X0010000D01*
X0047250Y-0014500D02*
X0010000D01*
X0047300Y-0014450D02*
X0009950D01*
X0047300Y-0028000D02*
Y-0014500D01*
X0047250Y-0028000D02*
Y-0014500D01*
X0035708Y-0028000D02*
Y-0016500D01*
X0030158Y-0028000D02*
Y-0016500D01*
X0022092Y-0026000D02*
Y-0016500D01*
X0013700Y-0026000D02*
Y-0016500D01*
X0013650Y-0026000D02*
Y-0016500D01*
X0009950Y-0028000D02*
Y-0014500D01*
X0010000Y-0028000D02*
Y-0014500D01*
X0004738Y0006673D02*
X0004238D01*
X0004488Y0006923D02*
Y0006423D01*
X0010585Y0011457D02*
X0010085D01*
X0010335Y0011707D02*
Y0011207D01*
X0001831Y0004974D02*
X0001581Y0004724D01*
X0002081D02*
X0001831Y0004974D01*
Y0004474D02*
X0002081Y0004724D01*
X0001581D02*
X0001831Y0004474D01*
Y0005762D02*
X0001581Y0005512D01*
X0002081D02*
X0001831Y0005762D01*
Y0005262D02*
X0002081Y0005512D01*
X0001581D02*
X0001831Y0005262D01*
Y0006549D02*
X0001581Y0006299D01*
X0002081D02*
X0001831Y0006549D01*
Y0006049D02*
X0002081Y0006299D01*
X0001581D02*
X0001831Y0006049D01*
Y0007337D02*
X0001581Y0007087D01*
X0002081D02*
X0001831Y0007337D01*
Y0006837D02*
X0002081Y0007087D01*
X0001581D02*
X0001831Y0006837D01*
X0010093Y0002100D02*
X0009593Y0001600D01*
X0010093D02*
X0009593Y0002100D01*
X0010093Y0001100D02*
X0009593Y0000600D01*
X0010093D02*
X0009593Y0001100D01*
X0009093Y0002100D02*
X0008593Y0001600D01*
X0009093D02*
X0008593Y0002100D01*
X0009093Y0001100D02*
X0008593Y0000600D01*
X0009093D02*
X0008593Y0001100D01*
X0008093Y0002100D02*
X0007593Y0001600D01*
X0008093D02*
X0007593Y0002100D01*
X0008093Y0001100D02*
X0007593Y0000600D01*
X0008093D02*
X0007593Y0001100D01*
X0007093Y0002100D02*
X0006593Y0001600D01*
X0007093D02*
X0006593Y0002100D01*
X0007093Y0001100D02*
X0006593Y0000600D01*
X0007093D02*
X0006593Y0001100D01*
X0006093Y0002100D02*
X0005593Y0001600D01*
X0006093D02*
X0005593Y0002100D01*
X0006093Y0001100D02*
X0005593Y0000600D01*
X0006093D02*
X0005593Y0001100D01*
X0005171Y0010250D02*
X0004671Y0009750D01*
X0005171D02*
X0004671Y0010250D01*
X0005171Y0011250D02*
X0004671Y0010750D01*
X0005171D02*
X0004671Y0011250D01*
X0006171Y0010250D02*
X0005671Y0009750D01*
X0006171D02*
X0005671Y0010250D01*
X0006171Y0011250D02*
X0005671Y0010750D01*
X0006171D02*
X0005671Y0011250D01*
X0007171Y0010250D02*
X0006671Y0009750D01*
X0007171D02*
X0006671Y0010250D01*
X0007171Y0011250D02*
X0006671Y0010750D01*
X0007171D02*
X0006671Y0011250D01*
X0008171Y0010250D02*
X0007671Y0009750D01*
X0008171D02*
X0007671Y0010250D01*
X0008171Y0011250D02*
X0007671Y0010750D01*
X0008171D02*
X0007671Y0011250D01*
X0009171Y0010250D02*
X0008671Y0009750D01*
X0009171D02*
X0008671Y0010250D01*
X0009171Y0011250D02*
X0008671Y0010750D01*
X0009171D02*
X0008671Y0011250D01*
X0012652Y0010250D02*
X0012152Y0009750D01*
X0012652D02*
X0012152Y0010250D01*
X0012652Y0011250D02*
X0012152Y0010750D01*
X0012652D02*
X0012152Y0011250D01*
X0013652Y0010250D02*
X0013152Y0009750D01*
X0013652D02*
X0013152Y0010250D01*
X0013652Y0011250D02*
X0013152Y0010750D01*
X0013652D02*
X0013152Y0011250D01*
X0014652Y0010250D02*
X0014152Y0009750D01*
X0014652D02*
X0014152Y0010250D01*
X0014652Y0011250D02*
X0014152Y0010750D01*
X0014652D02*
X0014152Y0011250D01*
X0015652Y0010250D02*
X0015152Y0009750D01*
X0015652D02*
X0015152Y0010250D01*
X0015652Y0011250D02*
X0015152Y0010750D01*
X0015652D02*
X0015152Y0011250D01*
X0016652Y0010250D02*
X0016152Y0009750D01*
X0016652D02*
X0016152Y0010250D01*
X0016652Y0011250D02*
X0016152Y0010750D01*
X0016652D02*
X0016152Y0011250D01*
X0016108Y0006215D02*
Y0005715D01*
X0016608Y0006215D02*
X0016108D01*
X0016608Y0005715D02*
Y0006215D01*
X0016108Y0005715D02*
X0016608D01*
Y0006215D02*
X0016108Y0005715D01*
X0016608D02*
X0016108Y0006215D01*
X0008274D02*
Y0005715D01*
X0008774Y0006215D02*
X0008274D01*
X0008774Y0005715D02*
Y0006215D01*
X0008274Y0005715D02*
X0008774D01*
Y0006215D02*
X0008274Y0005715D01*
X0008774D02*
X0008274Y0006215D01*
X0000537Y0011274D02*
Y0011024D01*
X0000787Y0011274D02*
X0000537D01*
X0000787Y0010774D02*
Y0011274D01*
X0001037Y0010774D02*
X0000787D01*
X0001037Y0011024D02*
Y0010774D01*
X0000537Y0011024D02*
X0001037D01*
X0018648Y0011274D02*
Y0011024D01*
X0018898Y0011274D02*
X0018648D01*
X0018898Y0010774D02*
Y0011274D01*
X0019148Y0010774D02*
X0018898D01*
X0019148Y0011024D02*
Y0010774D01*
X0018648Y0011024D02*
X0019148D01*
X0018648Y0001037D02*
Y0000787D01*
X0018898Y0001037D02*
X0018648D01*
X0018898Y0000537D02*
Y0001037D01*
X0019148Y0000537D02*
X0018898D01*
X0019148Y0000787D02*
Y0000537D01*
X0018648Y0000787D02*
X0019148D01*
X0000537Y0001037D02*
Y0000787D01*
X0000787Y0001037D02*
X0000537D01*
X0000787Y0000537D02*
Y0001037D01*
X0001037Y0000537D02*
X0000787D01*
X0001037Y0000787D02*
Y0000537D01*
X0000537Y0000787D02*
X0001037D01*
G54D53*
G01X0000000Y0000000D02*
X0019685D01*
Y0011811D01*
X0000000D01*
Y0000000D01*
M02*
