%
T1C0.0150F200S100
X000945Y007087
X001028Y005492
X001831Y003130
X003091Y003760
X003130Y005610
X003335Y002683
X003425Y000531
X003477Y001248
X003640Y010481
X003699Y011432
X004020Y008644
X004485Y000545
X004488Y006673
X005138Y002008
X005380Y002904
X005498Y007804
X005515Y008467
X006193Y006754
X006311Y002348
X006433Y003283
X006728Y006500
X007352Y005948
X007352Y002301
X007421Y009473
X007681Y008522
X008232Y008923
X008562Y009448
X009301Y007816
X009339Y003519
X009659Y008820
X009861Y003747
X009954Y009271
X010335Y011457
X010442Y001181
X010904Y006754
X010984Y000706
X011098Y002690
X011288Y011434
X011539Y005996
X011575Y007323
X011634Y010984
X011830Y006556
X012257Y002808
X012283Y004665
X012328Y005272
X012386Y007389
X012883Y005504
X012950Y002745
X013111Y009149
X013539Y005533
X013992Y000647
X015552Y006905
X016831Y002126
X017590Y011367
X017652Y006813
X017836Y000578
X018130Y008794
X018583Y006634
X018970Y008036
T3C0.0380F200S100
X004921Y010000
X004921Y011000
X005843Y000850
X005843Y001850
X005921Y010000
X005921Y011000
X006843Y000850
X006843Y001850
X006921Y010000
X006921Y011000
X007843Y000850
X007843Y001850
X007921Y010000
X007921Y011000
X008843Y000850
X008843Y001850
X008921Y010000
X008921Y011000
X009843Y000850
X009843Y001850
X012402Y010000
X012402Y011000
X013402Y010000
X013402Y011000
X014402Y010000
X014402Y011000
X015402Y010000
X015402Y011000
X016402Y010000
X016402Y011000
T4C0.0551F200S100
X008524Y005965
X016358Y005965
T2C0.0275F200S100
X001831Y004724
X001831Y005512
X001831Y006299
X001831Y007087
T5C0.1100F200S100
X000787Y000787
X000787Y011024
X018898Y000787
X018898Y011024
M30
