G75*
G70*
%OFA0B0*%
%FSLAX24Y24*%
%IPPOS*%
%LPD*%
%AMOC8*
5,1,8,0,0,1.08239X$1,22.5*
%
%ADD10C,0.0000*%
%ADD11R,0.0512X0.0591*%
%ADD12C,0.0557*%
%ADD13R,0.0790X0.0590*%
%ADD14R,0.0790X0.1500*%
%ADD15R,0.0600X0.0900*%
%ADD16R,0.0866X0.0236*%
%ADD17R,0.0394X0.0433*%
%ADD18R,0.2100X0.0760*%
%ADD19R,0.0433X0.0394*%
%ADD20R,0.0600X0.0200*%
%ADD21R,0.0480X0.0200*%
%ADD22R,0.1181X0.1417*%
%ADD23R,0.1181X0.1607*%
%ADD24C,0.0394*%
%ADD25C,0.0600*%
%ADD26C,0.0374*%
%ADD27C,0.0433*%
%ADD28R,0.0433X0.0433*%
%ADD29C,0.0560*%
%ADD30R,0.0394X0.0394*%
%ADD31C,0.0150*%
%ADD32C,0.0307*%
%ADD33C,0.0100*%
%ADD34C,0.0277*%
%ADD35C,0.0120*%
%ADD36C,0.0059*%
%ADD37C,0.0080*%
D10*
X000100Y000100D02*
X000100Y016832D01*
X027620Y016832D01*
X027620Y000100D01*
X000100Y000100D01*
X000685Y000980D02*
X000687Y001014D01*
X000693Y001048D01*
X000703Y001081D01*
X000716Y001112D01*
X000734Y001142D01*
X000754Y001170D01*
X000778Y001195D01*
X000804Y001217D01*
X000832Y001235D01*
X000863Y001251D01*
X000895Y001263D01*
X000929Y001271D01*
X000963Y001275D01*
X000997Y001275D01*
X001031Y001271D01*
X001065Y001263D01*
X001097Y001251D01*
X001127Y001235D01*
X001156Y001217D01*
X001182Y001195D01*
X001206Y001170D01*
X001226Y001142D01*
X001244Y001112D01*
X001257Y001081D01*
X001267Y001048D01*
X001273Y001014D01*
X001275Y000980D01*
X001273Y000946D01*
X001267Y000912D01*
X001257Y000879D01*
X001244Y000848D01*
X001226Y000818D01*
X001206Y000790D01*
X001182Y000765D01*
X001156Y000743D01*
X001128Y000725D01*
X001097Y000709D01*
X001065Y000697D01*
X001031Y000689D01*
X000997Y000685D01*
X000963Y000685D01*
X000929Y000689D01*
X000895Y000697D01*
X000863Y000709D01*
X000832Y000725D01*
X000804Y000743D01*
X000778Y000765D01*
X000754Y000790D01*
X000734Y000818D01*
X000716Y000848D01*
X000703Y000879D01*
X000693Y000912D01*
X000687Y000946D01*
X000685Y000980D01*
X020605Y015940D02*
X020607Y015974D01*
X020613Y016008D01*
X020623Y016041D01*
X020636Y016072D01*
X020654Y016102D01*
X020674Y016130D01*
X020698Y016155D01*
X020724Y016177D01*
X020752Y016195D01*
X020783Y016211D01*
X020815Y016223D01*
X020849Y016231D01*
X020883Y016235D01*
X020917Y016235D01*
X020951Y016231D01*
X020985Y016223D01*
X021017Y016211D01*
X021047Y016195D01*
X021076Y016177D01*
X021102Y016155D01*
X021126Y016130D01*
X021146Y016102D01*
X021164Y016072D01*
X021177Y016041D01*
X021187Y016008D01*
X021193Y015974D01*
X021195Y015940D01*
X021193Y015906D01*
X021187Y015872D01*
X021177Y015839D01*
X021164Y015808D01*
X021146Y015778D01*
X021126Y015750D01*
X021102Y015725D01*
X021076Y015703D01*
X021048Y015685D01*
X021017Y015669D01*
X020985Y015657D01*
X020951Y015649D01*
X020917Y015645D01*
X020883Y015645D01*
X020849Y015649D01*
X020815Y015657D01*
X020783Y015669D01*
X020752Y015685D01*
X020724Y015703D01*
X020698Y015725D01*
X020674Y015750D01*
X020654Y015778D01*
X020636Y015808D01*
X020623Y015839D01*
X020613Y015872D01*
X020607Y015906D01*
X020605Y015940D01*
D11*
X011974Y013100D03*
X011226Y013100D03*
X009324Y013600D03*
X008576Y013600D03*
X007474Y013600D03*
X006726Y013600D03*
D12*
X007100Y015021D02*
X007100Y015579D01*
X008100Y015579D02*
X008100Y015021D01*
X009100Y015021D02*
X009100Y015579D01*
D13*
X017250Y016010D03*
X017250Y015110D03*
X017250Y014210D03*
D14*
X019730Y015100D03*
D15*
X017700Y012870D03*
X016340Y012870D03*
X015280Y012850D03*
X013920Y012850D03*
D16*
X004624Y006350D03*
X004624Y005850D03*
X004624Y005350D03*
X004624Y004850D03*
X002576Y004850D03*
X002576Y005350D03*
X002576Y005850D03*
X002576Y006350D03*
D17*
X005520Y005245D03*
X005520Y004575D03*
X020760Y014255D03*
X020760Y014925D03*
D18*
X015000Y001600D03*
X011200Y001600D03*
D19*
X011775Y003350D03*
X012445Y003350D03*
X014115Y003350D03*
X014785Y003350D03*
X007580Y001435D03*
X007580Y000765D03*
X002460Y000705D03*
X002460Y001375D03*
D20*
X006630Y002350D03*
D21*
X006690Y001850D03*
X006690Y001350D03*
X006690Y000850D03*
X003667Y000850D03*
X003667Y001350D03*
X003667Y001850D03*
X003667Y002350D03*
D22*
X012550Y014850D03*
X014150Y014850D03*
X015750Y014850D03*
D23*
X010950Y014850D03*
D24*
X016903Y008850D02*
X017297Y008850D01*
X017903Y008850D02*
X018297Y008850D01*
X018297Y008350D02*
X017903Y008350D01*
X017297Y008350D02*
X016903Y008350D01*
X016903Y007850D02*
X017297Y007850D01*
X017903Y007850D02*
X018297Y007850D01*
X018297Y007350D02*
X017903Y007350D01*
X017297Y007350D02*
X016903Y007350D01*
X016903Y006850D02*
X017297Y006850D01*
X017903Y006850D02*
X018297Y006850D01*
X018297Y006350D02*
X017903Y006350D01*
X017297Y006350D02*
X016903Y006350D01*
X016903Y005850D02*
X017297Y005850D01*
X017903Y005850D02*
X018297Y005850D01*
X018297Y005350D02*
X017903Y005350D01*
X017297Y005350D02*
X016903Y005350D01*
X016903Y004850D02*
X017297Y004850D01*
X017903Y004850D02*
X018297Y004850D01*
X018297Y004350D02*
X017903Y004350D01*
X017297Y004350D02*
X016903Y004350D01*
X016903Y003850D02*
X017297Y003850D01*
X017903Y003850D02*
X018297Y003850D01*
X018297Y003350D02*
X017903Y003350D01*
X017297Y003350D02*
X016903Y003350D01*
X016903Y002850D02*
X017297Y002850D01*
X017903Y002850D02*
X018297Y002850D01*
X018297Y002350D02*
X017903Y002350D01*
X017297Y002350D02*
X016903Y002350D01*
X016903Y001850D02*
X017297Y001850D01*
X017903Y001850D02*
X018297Y001850D01*
D25*
X019710Y002350D03*
X019710Y008350D03*
D26*
X019447Y010720D02*
X019073Y010720D01*
X019073Y011220D02*
X019447Y011220D01*
X020073Y011220D02*
X020447Y011220D01*
X020447Y010720D02*
X020073Y010720D01*
X020073Y011720D02*
X020447Y011720D01*
X020447Y012220D02*
X020073Y012220D01*
X019447Y012220D02*
X019073Y012220D01*
X019073Y011720D02*
X019447Y011720D01*
X019447Y012720D02*
X019073Y012720D01*
X019073Y013220D02*
X019447Y013220D01*
X020073Y013220D02*
X020447Y013220D01*
X020447Y012720D02*
X020073Y012720D01*
X003047Y009620D02*
X002673Y009620D01*
X002047Y009620D02*
X001673Y009620D01*
X001673Y009120D02*
X002047Y009120D01*
X002673Y009120D02*
X003047Y009120D01*
X003047Y008620D02*
X002673Y008620D01*
X002047Y008620D02*
X001673Y008620D01*
X001673Y008120D02*
X002047Y008120D01*
X002673Y008120D02*
X003047Y008120D01*
X003047Y007620D02*
X002673Y007620D01*
X002047Y007620D02*
X001673Y007620D01*
D27*
X000940Y005952D03*
X000940Y005361D03*
X000940Y004771D03*
X000940Y004180D03*
X000940Y003589D03*
X000940Y002999D03*
X026020Y012279D03*
X026020Y012869D03*
X026020Y013460D03*
X026020Y014051D03*
X026020Y014641D03*
X026020Y015232D03*
D28*
X026020Y011688D03*
X000940Y002408D03*
D29*
X022960Y011540D03*
X022960Y012540D03*
X023960Y012540D03*
X023960Y013540D03*
X022960Y013540D03*
X022960Y014540D03*
X023960Y014540D03*
X023960Y015540D03*
X022960Y015540D03*
D30*
X023960Y011540D03*
D31*
X021140Y008979D02*
X020930Y008980D01*
X021088Y008841D01*
X021140Y008900D01*
X021140Y008979D01*
X021140Y008900D02*
X021060Y008980D01*
X020930Y008980D01*
X018900Y008980D01*
X018770Y008850D01*
X018100Y008850D01*
X013920Y012850D02*
X013365Y012850D01*
X013164Y012785D01*
X013140Y012860D01*
X013171Y012932D01*
X013365Y012850D01*
X013150Y012850D01*
X014100Y013100D02*
X014375Y013100D01*
X014572Y013174D01*
X014600Y013100D01*
X014572Y013026D01*
X014375Y013100D01*
X014600Y013100D01*
X011975Y013140D02*
X011974Y013100D01*
X010660Y014260D02*
X010950Y014550D01*
X010950Y014850D01*
X009780Y014100D02*
X009620Y014260D01*
X009300Y014260D01*
X009100Y014460D01*
X009100Y015300D01*
X009100Y015600D01*
X008600Y016100D01*
X005825Y016100D01*
X005628Y016026D01*
X005600Y016100D01*
X005628Y016174D01*
X005825Y016100D01*
X005600Y016100D01*
X007060Y015260D02*
X007100Y015300D01*
X007060Y015260D02*
X007060Y014565D01*
X007134Y014368D01*
X007060Y014340D01*
X006986Y014368D01*
X007060Y014565D01*
X007060Y014340D01*
X007600Y013600D02*
X007880Y013600D01*
X007940Y013540D01*
X007940Y013100D01*
X009700Y013100D01*
X009934Y013334D01*
X009983Y013539D01*
X010060Y013520D01*
X010106Y013456D01*
X009934Y013334D01*
X010060Y013460D01*
X010060Y013520D01*
X009780Y013700D02*
X009780Y014100D01*
X009780Y013700D02*
X009704Y013624D01*
X009300Y013624D01*
X007940Y013100D02*
X004325Y013100D01*
X004128Y013026D01*
X004100Y013100D01*
X004128Y013174D01*
X004325Y013100D01*
X004100Y013100D01*
X014567Y016028D02*
X014600Y016100D01*
X014672Y016133D01*
X014759Y015941D01*
X014567Y016028D01*
X014600Y016100D02*
X014759Y015941D01*
X014760Y015940D01*
X015780Y015940D01*
X015780Y015380D01*
X015600Y015200D01*
X015600Y015100D01*
X015780Y014880D02*
X015780Y015380D01*
X015780Y015940D02*
X015780Y016115D01*
X015706Y016312D01*
X015780Y016340D01*
X015854Y016312D01*
X015780Y016115D01*
X015780Y016340D01*
X014085Y003380D02*
X013700Y003380D01*
X013620Y003300D01*
X013620Y003140D01*
X014660Y002100D01*
X014660Y001680D01*
X014740Y001600D01*
X014115Y003350D02*
X014085Y003380D01*
D32*
X014400Y003800D03*
X012800Y004000D03*
X012820Y004500D03*
X012660Y005020D03*
X012980Y005540D03*
X013540Y005060D03*
X011780Y004340D03*
X011220Y004180D03*
X010500Y004500D03*
X010500Y005060D03*
X011540Y005260D03*
X013300Y006580D03*
X013380Y007300D03*
X011800Y008600D03*
X012420Y008740D03*
X013220Y008820D03*
X010740Y008700D03*
X010420Y009060D03*
X009900Y009100D03*
X009140Y009300D03*
X009460Y009700D03*
X009540Y010260D03*
X010180Y010580D03*
X010700Y010980D03*
X008640Y010800D03*
X008300Y011000D03*
X007700Y011200D03*
X007140Y010800D03*
X007700Y010680D03*
X008760Y010060D03*
X006900Y009300D03*
X006900Y008900D03*
X006900Y008500D03*
X007700Y007860D03*
X008660Y007860D03*
X006660Y006420D03*
X006740Y006020D03*
X007300Y005940D03*
X008340Y005380D03*
X008660Y004740D03*
X007220Y004320D03*
X006200Y003600D03*
X006260Y003060D03*
X005360Y002600D03*
X004580Y002180D03*
X004980Y001940D03*
X004020Y003380D03*
X002500Y004500D03*
X001860Y005860D03*
X000980Y006660D03*
X001300Y006980D03*
X001700Y006980D03*
X002460Y007020D03*
X003780Y007940D03*
X004500Y007980D03*
X003940Y006980D03*
X001180Y008300D03*
X003940Y009620D03*
X004820Y010900D03*
X006980Y012340D03*
X007860Y012500D03*
X008560Y012540D03*
X010060Y013520D03*
X007060Y014340D03*
X005600Y016100D03*
X004100Y013100D03*
X001020Y012340D03*
X013140Y012860D03*
X014600Y013100D03*
X013940Y011780D03*
X014740Y011460D03*
X017140Y011940D03*
X018380Y012100D03*
X018380Y011620D03*
X018380Y011100D03*
X020500Y009700D03*
X020980Y009620D03*
X021140Y008900D03*
X020820Y006500D03*
X021140Y002500D03*
X019200Y001600D03*
X016100Y002260D03*
X015540Y002420D03*
X013340Y002840D03*
X008700Y001800D03*
X008420Y001220D03*
X002420Y002020D03*
X001800Y002360D03*
X018380Y012620D03*
X021060Y012580D03*
X015780Y016340D03*
X014600Y016100D03*
D33*
X014786Y016289D02*
X014809Y016280D01*
X014809Y016280D01*
X014821Y016253D01*
X014824Y016250D01*
X014843Y016206D01*
X014845Y016200D01*
X014879Y016126D01*
X015577Y016126D01*
X015538Y016231D01*
X015534Y016243D01*
X015515Y016287D01*
X015515Y016292D01*
X015505Y016320D01*
X015515Y016342D01*
X015515Y016393D01*
X015556Y016490D01*
X015630Y016564D01*
X015727Y016605D01*
X015833Y016605D01*
X015930Y016564D01*
X016004Y016490D01*
X016045Y016393D01*
X016045Y016342D01*
X016055Y016320D01*
X016055Y016320D01*
X016055Y016320D01*
X016045Y016292D01*
X016045Y016287D01*
X016026Y016243D01*
X016020Y016226D01*
X015979Y016115D01*
X015981Y016108D01*
X015966Y016075D01*
X015966Y015670D01*
X016387Y015670D01*
X016452Y015605D01*
X016452Y014095D01*
X016387Y014030D01*
X015113Y014030D01*
X015048Y014095D01*
X015048Y015605D01*
X015113Y015670D01*
X015594Y015670D01*
X015594Y015754D01*
X014798Y015754D01*
X014766Y015740D01*
X014759Y015742D01*
X014752Y015740D01*
X014721Y015754D01*
X014683Y015754D01*
X014682Y015755D01*
X014656Y015781D01*
X014622Y015794D01*
X014619Y015800D01*
X014494Y015857D01*
X014450Y015876D01*
X014447Y015879D01*
X014420Y015891D01*
X014411Y015914D01*
X014376Y015950D01*
X014335Y016047D01*
X014335Y016153D01*
X014376Y016250D01*
X014450Y016324D01*
X014547Y016365D01*
X014653Y016365D01*
X014750Y016324D01*
X014786Y016289D01*
X014809Y016280D02*
X014809Y016280D01*
X014821Y016254D02*
X015529Y016254D01*
X015515Y016353D02*
X014682Y016353D01*
X014518Y016353D02*
X005682Y016353D01*
X005697Y016346D02*
X005653Y016365D01*
X005648Y016365D01*
X005620Y016375D01*
X005598Y016365D01*
X005547Y016365D01*
X005450Y016324D01*
X005376Y016250D01*
X005335Y016153D01*
X005335Y016047D01*
X005376Y015950D01*
X005450Y015876D01*
X005547Y015835D01*
X005598Y015835D01*
X005620Y015825D01*
X005620Y015825D01*
X005648Y015835D01*
X005653Y015835D01*
X005697Y015854D01*
X005765Y015879D01*
X005825Y015901D01*
X005832Y015899D01*
X005865Y015914D01*
X006891Y015914D01*
X006879Y015909D01*
X006770Y015800D01*
X006710Y015656D01*
X006710Y014944D01*
X006770Y014800D01*
X006874Y014696D01*
X006874Y014605D01*
X006859Y014572D01*
X006861Y014565D01*
X006839Y014505D01*
X006814Y014437D01*
X006795Y014393D01*
X006795Y014388D01*
X006785Y014360D01*
X006795Y014338D01*
X006795Y014287D01*
X006836Y014190D01*
X006910Y014116D01*
X007007Y014075D01*
X007113Y014075D01*
X007210Y014116D01*
X007284Y014190D01*
X007325Y014287D01*
X007325Y014338D01*
X007335Y014360D01*
X007335Y014360D01*
X007325Y014388D01*
X007325Y014393D01*
X007306Y014437D01*
X007259Y014565D01*
X007261Y014572D01*
X007246Y014605D01*
X007246Y014660D01*
X007321Y014691D01*
X007430Y014800D01*
X007490Y014944D01*
X007490Y015656D01*
X007430Y015800D01*
X007321Y015909D01*
X007309Y015914D01*
X007868Y015914D01*
X007835Y015890D01*
X007789Y015844D01*
X007751Y015792D01*
X007722Y015735D01*
X007703Y015674D01*
X007693Y015611D01*
X007693Y015350D01*
X008050Y015350D01*
X008050Y015250D01*
X008150Y015250D01*
X008150Y015350D01*
X008507Y015350D01*
X008507Y015611D01*
X008497Y015674D01*
X008478Y015735D01*
X008449Y015792D01*
X008411Y015844D01*
X008365Y015890D01*
X008332Y015914D01*
X008523Y015914D01*
X008731Y015706D01*
X008710Y015656D01*
X008710Y014944D01*
X008770Y014800D01*
X008879Y014691D01*
X008914Y014676D01*
X008914Y014383D01*
X009223Y014074D01*
X009543Y014074D01*
X009594Y014023D01*
X009594Y014006D01*
X009022Y014006D01*
X008957Y013941D01*
X008957Y013925D01*
X008952Y013945D01*
X008935Y013974D01*
X008911Y013998D01*
X008882Y014015D01*
X008849Y014024D01*
X008626Y014024D01*
X008626Y013650D01*
X008526Y013650D01*
X008526Y014024D01*
X008303Y014024D01*
X008270Y014015D01*
X008241Y013998D01*
X008217Y013974D01*
X008200Y013945D01*
X008191Y013912D01*
X008191Y013650D01*
X008526Y013650D01*
X008526Y013550D01*
X008191Y013550D01*
X008191Y013288D01*
X008192Y013286D01*
X008126Y013286D01*
X008126Y013617D01*
X008017Y013726D01*
X007957Y013786D01*
X007841Y013786D01*
X007841Y013941D01*
X007776Y014006D01*
X007172Y014006D01*
X007107Y013941D01*
X007107Y013925D01*
X007102Y013945D01*
X007085Y013974D01*
X007061Y013998D01*
X007032Y014015D01*
X006999Y014024D01*
X006776Y014024D01*
X006776Y013650D01*
X006676Y013650D01*
X006676Y014024D01*
X006453Y014024D01*
X006420Y014015D01*
X006391Y013998D01*
X006367Y013974D01*
X006350Y013945D01*
X006341Y013912D01*
X006341Y013650D01*
X006676Y013650D01*
X006676Y013550D01*
X006341Y013550D01*
X006341Y013288D01*
X006342Y013286D01*
X004365Y013286D01*
X004332Y013301D01*
X004325Y013299D01*
X004197Y013346D01*
X004153Y013365D01*
X004148Y013365D01*
X004120Y013375D01*
X004098Y013365D01*
X004047Y013365D01*
X003950Y013324D01*
X003876Y013250D01*
X003835Y013153D01*
X003835Y013047D01*
X003863Y012981D01*
X001433Y012981D01*
X001093Y012641D01*
X000979Y012605D01*
X000967Y012605D01*
X000929Y012589D01*
X000881Y012574D01*
X000877Y012572D01*
X000873Y012566D01*
X000870Y012564D01*
X000796Y012490D01*
X000755Y012393D01*
X000755Y012287D01*
X000796Y012190D01*
X000870Y012116D01*
X000967Y012075D01*
X001073Y012075D01*
X001170Y012116D01*
X001244Y012190D01*
X001246Y012193D01*
X001252Y012197D01*
X001254Y012201D01*
X001269Y012249D01*
X001285Y012287D01*
X001285Y012299D01*
X001321Y012413D01*
X001567Y012659D01*
X007645Y012659D01*
X007636Y012650D01*
X007634Y012647D01*
X007628Y012643D01*
X007628Y012643D01*
X007628Y012643D01*
X007611Y012592D01*
X007611Y012591D01*
X007595Y012553D01*
X007595Y012541D01*
X007559Y012427D01*
X007540Y012408D01*
X007539Y012407D01*
X007539Y012379D01*
X007527Y012356D01*
X007532Y012341D01*
X007527Y012326D01*
X007539Y012303D01*
X007539Y012087D01*
X006193Y010741D01*
X005035Y010741D01*
X005044Y010750D01*
X005085Y010847D01*
X005085Y010953D01*
X005044Y011050D01*
X004970Y011124D01*
X004873Y011165D01*
X004767Y011165D01*
X004750Y011158D01*
X004740Y011160D01*
X004703Y011138D01*
X004702Y011138D01*
X004670Y011124D01*
X004657Y011111D01*
X004554Y011051D01*
X001317Y011051D01*
X001229Y010963D01*
X000491Y010225D01*
X000491Y010837D01*
X001843Y012189D01*
X006714Y012189D01*
X006817Y012129D01*
X006830Y012116D01*
X006862Y012102D01*
X006900Y012080D01*
X006900Y012080D01*
X006910Y012082D01*
X006927Y012075D01*
X007033Y012075D01*
X007130Y012116D01*
X007204Y012190D01*
X007245Y012287D01*
X007245Y012393D01*
X007204Y012490D01*
X007130Y012564D01*
X007033Y012605D01*
X006927Y012605D01*
X006910Y012598D01*
X006900Y012600D01*
X006863Y012578D01*
X006862Y012578D01*
X006830Y012564D01*
X006817Y012551D01*
X006714Y012491D01*
X001717Y012491D01*
X001629Y012403D01*
X000327Y011101D01*
X000327Y016605D01*
X021700Y016605D01*
X021700Y000327D01*
X008009Y000327D01*
X008191Y000509D01*
X008191Y001081D01*
X008196Y001070D01*
X008270Y000996D01*
X008273Y000994D01*
X008277Y000988D01*
X008329Y000971D01*
X008367Y000955D01*
X008379Y000955D01*
X008404Y000947D01*
X008493Y000919D01*
X008512Y000900D01*
X008899Y000513D01*
X008993Y000419D01*
X019287Y000419D01*
X021048Y002180D01*
X021067Y002199D01*
X021181Y002235D01*
X021193Y002235D01*
X021231Y002251D01*
X021232Y002251D01*
X021283Y002268D01*
X021283Y002268D01*
X021283Y002268D01*
X021287Y002274D01*
X021290Y002276D01*
X021364Y002350D01*
X021405Y002447D01*
X021405Y002553D01*
X021364Y002650D01*
X021290Y002724D01*
X021193Y002765D01*
X021087Y002765D01*
X020990Y002724D01*
X020916Y002650D01*
X020914Y002647D01*
X020908Y002643D01*
X020908Y002643D01*
X020908Y002643D01*
X020891Y002592D01*
X020891Y002591D01*
X020875Y002553D01*
X020875Y002541D01*
X020839Y002427D01*
X020820Y002408D01*
X019461Y001049D01*
X019461Y001346D01*
X019469Y001357D01*
X019461Y001409D01*
X019462Y001453D01*
X019470Y001499D01*
X019463Y001509D01*
X019464Y001545D01*
X019465Y001547D01*
X019465Y001598D01*
X019466Y001662D01*
X019457Y001671D01*
X019424Y001750D01*
X019350Y001824D01*
X019253Y001865D01*
X019147Y001865D01*
X019050Y001824D01*
X018981Y001755D01*
X018981Y002727D01*
X018887Y002821D01*
X018697Y003011D01*
X018563Y003011D01*
X018558Y003024D01*
X018482Y003100D01*
X018558Y003176D01*
X018605Y003289D01*
X018605Y003411D01*
X018558Y003524D01*
X018482Y003600D01*
X018558Y003676D01*
X018605Y003789D01*
X018605Y003911D01*
X018558Y004024D01*
X018482Y004100D01*
X018558Y004176D01*
X018605Y004289D01*
X018605Y004411D01*
X018558Y004524D01*
X018482Y004600D01*
X018558Y004676D01*
X018563Y004689D01*
X020517Y004689D01*
X020611Y004783D01*
X020981Y005153D01*
X020981Y006236D01*
X021036Y006342D01*
X021044Y006350D01*
X021060Y006388D01*
X021086Y006437D01*
X021086Y006437D01*
X021083Y006444D01*
X021085Y006447D01*
X021085Y006553D01*
X021044Y006650D01*
X020970Y006724D01*
X020873Y006765D01*
X020767Y006765D01*
X020670Y006724D01*
X020596Y006650D01*
X020555Y006553D01*
X020555Y006447D01*
X020557Y006444D01*
X020554Y006437D01*
X020580Y006388D01*
X020596Y006350D01*
X020604Y006342D01*
X020659Y006236D01*
X020659Y005287D01*
X020383Y005011D01*
X018563Y005011D01*
X018558Y005024D01*
X018482Y005100D01*
X018558Y005176D01*
X018605Y005289D01*
X018605Y005411D01*
X018558Y005524D01*
X018482Y005600D01*
X018558Y005676D01*
X018605Y005789D01*
X018605Y005911D01*
X018558Y006024D01*
X018482Y006100D01*
X018558Y006176D01*
X018605Y006289D01*
X018605Y006411D01*
X018558Y006524D01*
X018482Y006600D01*
X018558Y006676D01*
X018605Y006789D01*
X018605Y006911D01*
X018558Y007024D01*
X018482Y007100D01*
X018558Y007176D01*
X018605Y007289D01*
X018605Y007411D01*
X018558Y007524D01*
X018482Y007600D01*
X018558Y007676D01*
X018605Y007789D01*
X018605Y007911D01*
X018558Y008024D01*
X018482Y008100D01*
X018558Y008176D01*
X018605Y008289D01*
X018605Y008411D01*
X018558Y008524D01*
X018482Y008600D01*
X018546Y008664D01*
X018847Y008664D01*
X018977Y008794D01*
X020860Y008794D01*
X020959Y008707D01*
X020990Y008676D01*
X020998Y008672D01*
X021023Y008650D01*
X021047Y008652D01*
X021087Y008635D01*
X021193Y008635D01*
X021290Y008676D01*
X021364Y008750D01*
X021405Y008847D01*
X021405Y008953D01*
X021364Y009050D01*
X021290Y009124D01*
X021236Y009147D01*
X021225Y009158D01*
X021581Y009513D01*
X021581Y012527D01*
X021487Y012621D01*
X021461Y012647D01*
X021420Y012688D01*
X021418Y012692D01*
X021413Y012695D01*
X021400Y012708D01*
X021700Y012708D01*
X021700Y012610D02*
X021498Y012610D01*
X021581Y012511D02*
X021700Y012511D01*
X021700Y012413D02*
X021581Y012413D01*
X021581Y012314D02*
X021700Y012314D01*
X021700Y012216D02*
X021581Y012216D01*
X021581Y012117D02*
X021700Y012117D01*
X021700Y012019D02*
X021581Y012019D01*
X021581Y011920D02*
X021700Y011920D01*
X021700Y011822D02*
X021581Y011822D01*
X021581Y011723D02*
X021700Y011723D01*
X021700Y011625D02*
X021581Y011625D01*
X021581Y011526D02*
X021700Y011526D01*
X021700Y011428D02*
X021581Y011428D01*
X021581Y011329D02*
X021700Y011329D01*
X021700Y011231D02*
X021581Y011231D01*
X021581Y011132D02*
X021700Y011132D01*
X021700Y011034D02*
X021581Y011034D01*
X021581Y010935D02*
X021700Y010935D01*
X021700Y010837D02*
X021581Y010837D01*
X021581Y010738D02*
X021700Y010738D01*
X021700Y010640D02*
X021581Y010640D01*
X021581Y010541D02*
X021700Y010541D01*
X021700Y010443D02*
X021581Y010443D01*
X021581Y010344D02*
X021700Y010344D01*
X021700Y010246D02*
X021581Y010246D01*
X021581Y010147D02*
X021700Y010147D01*
X021700Y010049D02*
X021581Y010049D01*
X021581Y009950D02*
X021700Y009950D01*
X021700Y009852D02*
X021581Y009852D01*
X021581Y009753D02*
X021700Y009753D01*
X021700Y009655D02*
X021581Y009655D01*
X021581Y009556D02*
X021700Y009556D01*
X021700Y009458D02*
X021525Y009458D01*
X021427Y009359D02*
X021700Y009359D01*
X021700Y009261D02*
X021328Y009261D01*
X021230Y009162D02*
X021700Y009162D01*
X021700Y009064D02*
X021351Y009064D01*
X021400Y008965D02*
X021700Y008965D01*
X021700Y008867D02*
X021405Y008867D01*
X021372Y008768D02*
X021700Y008768D01*
X021700Y008670D02*
X021275Y008670D01*
X021023Y008650D02*
X021023Y008650D01*
X021001Y008670D02*
X019972Y008670D01*
X019943Y008698D02*
X020058Y008583D01*
X020121Y008432D01*
X020121Y008268D01*
X020058Y008117D01*
X019943Y008002D01*
X019792Y007939D01*
X019628Y007939D01*
X019477Y008002D01*
X019362Y008117D01*
X019299Y008268D01*
X019299Y008432D01*
X019362Y008583D01*
X019477Y008698D01*
X019628Y008761D01*
X019792Y008761D01*
X019943Y008698D01*
X020063Y008571D02*
X021700Y008571D01*
X021700Y008473D02*
X020104Y008473D01*
X020121Y008374D02*
X021700Y008374D01*
X021700Y008276D02*
X020121Y008276D01*
X020083Y008177D02*
X021700Y008177D01*
X021700Y008079D02*
X020020Y008079D01*
X019891Y007980D02*
X021700Y007980D01*
X021700Y007882D02*
X018605Y007882D01*
X018602Y007783D02*
X021700Y007783D01*
X021700Y007685D02*
X018562Y007685D01*
X018496Y007586D02*
X021700Y007586D01*
X021700Y007488D02*
X018573Y007488D01*
X018605Y007389D02*
X021700Y007389D01*
X021700Y007291D02*
X018605Y007291D01*
X018565Y007192D02*
X021700Y007192D01*
X021700Y007094D02*
X018489Y007094D01*
X018570Y006995D02*
X021700Y006995D01*
X021700Y006897D02*
X018605Y006897D01*
X018605Y006798D02*
X021700Y006798D01*
X021700Y006700D02*
X020995Y006700D01*
X021065Y006601D02*
X021700Y006601D01*
X021700Y006503D02*
X021085Y006503D01*
X021086Y006437D02*
X021086Y006437D01*
X021068Y006404D02*
X021700Y006404D01*
X021700Y006306D02*
X021017Y006306D01*
X020981Y006207D02*
X021700Y006207D01*
X021700Y006109D02*
X020981Y006109D01*
X020981Y006010D02*
X021700Y006010D01*
X021700Y005912D02*
X020981Y005912D01*
X020981Y005813D02*
X021700Y005813D01*
X021700Y005715D02*
X020981Y005715D01*
X020981Y005616D02*
X021700Y005616D01*
X021700Y005518D02*
X020981Y005518D01*
X020981Y005419D02*
X021700Y005419D01*
X021700Y005321D02*
X020981Y005321D01*
X020981Y005222D02*
X021700Y005222D01*
X021700Y005124D02*
X020951Y005124D01*
X020853Y005025D02*
X021700Y005025D01*
X021700Y004927D02*
X020754Y004927D01*
X020656Y004828D02*
X021700Y004828D01*
X021700Y004730D02*
X020557Y004730D01*
X020450Y004850D02*
X018100Y004850D01*
X018513Y004631D02*
X021700Y004631D01*
X021700Y004533D02*
X018550Y004533D01*
X018595Y004434D02*
X021700Y004434D01*
X021700Y004336D02*
X018605Y004336D01*
X018583Y004237D02*
X021700Y004237D01*
X021700Y004139D02*
X018521Y004139D01*
X018542Y004040D02*
X021700Y004040D01*
X021700Y003942D02*
X018592Y003942D01*
X018605Y003843D02*
X021700Y003843D01*
X021700Y003745D02*
X018586Y003745D01*
X018528Y003646D02*
X021700Y003646D01*
X021700Y003548D02*
X018535Y003548D01*
X018589Y003449D02*
X021700Y003449D01*
X021700Y003351D02*
X018605Y003351D01*
X018589Y003252D02*
X021700Y003252D01*
X021700Y003154D02*
X018536Y003154D01*
X018527Y003055D02*
X021700Y003055D01*
X021700Y002957D02*
X018751Y002957D01*
X018850Y002858D02*
X021700Y002858D01*
X021700Y002760D02*
X021205Y002760D01*
X021075Y002760D02*
X019795Y002760D01*
X019792Y002761D02*
X019628Y002761D01*
X019477Y002698D01*
X019362Y002583D01*
X019299Y002432D01*
X019299Y002268D01*
X019362Y002117D01*
X019477Y002002D01*
X019628Y001939D01*
X019792Y001939D01*
X019943Y002002D01*
X020058Y002117D01*
X020121Y002268D01*
X020121Y002432D01*
X020058Y002583D01*
X019943Y002698D01*
X019792Y002761D01*
X019625Y002760D02*
X018948Y002760D01*
X018981Y002661D02*
X019440Y002661D01*
X019353Y002563D02*
X018981Y002563D01*
X018981Y002464D02*
X019312Y002464D01*
X019299Y002366D02*
X018981Y002366D01*
X018981Y002267D02*
X019299Y002267D01*
X019340Y002169D02*
X018981Y002169D01*
X018981Y002070D02*
X019409Y002070D01*
X019550Y001972D02*
X018981Y001972D01*
X018981Y001873D02*
X020285Y001873D01*
X020187Y001775D02*
X019400Y001775D01*
X019455Y001676D02*
X020088Y001676D01*
X019990Y001578D02*
X019465Y001578D01*
X019466Y001662D02*
X019466Y001662D01*
X019466Y001662D01*
X019304Y001598D02*
X019300Y001398D01*
X019139Y001516D01*
X019200Y001600D01*
X019304Y001598D01*
X019200Y001600D02*
X019300Y001460D01*
X019300Y001398D01*
X019300Y001060D01*
X019240Y001000D01*
X009500Y001000D01*
X008859Y001641D01*
X008669Y001701D01*
X008700Y001800D01*
X008799Y001831D01*
X008859Y001641D01*
X008700Y001800D01*
X008949Y001891D02*
X008932Y001943D01*
X008926Y001947D01*
X008924Y001950D01*
X008850Y002024D01*
X008753Y002065D01*
X008647Y002065D01*
X008550Y002024D01*
X008476Y001950D01*
X008435Y001853D01*
X008435Y001747D01*
X008476Y001650D01*
X008550Y001576D01*
X008553Y001574D01*
X008557Y001568D01*
X008609Y001551D01*
X008647Y001535D01*
X008659Y001535D01*
X008684Y001527D01*
X008773Y001499D01*
X008792Y001480D01*
X009339Y000933D01*
X009433Y000839D01*
X019251Y000839D01*
X019153Y000741D01*
X009127Y000741D01*
X008740Y001128D01*
X008721Y001147D01*
X008689Y001247D01*
X008685Y001261D01*
X008685Y001273D01*
X008669Y001311D01*
X008652Y001363D01*
X008646Y001367D01*
X008644Y001370D01*
X008570Y001444D01*
X008473Y001485D01*
X008367Y001485D01*
X008270Y001444D01*
X008196Y001370D01*
X008191Y001359D01*
X008191Y002189D01*
X008251Y002249D01*
X011051Y002249D01*
X011131Y002329D01*
X011231Y002429D01*
X011231Y003149D01*
X011480Y003398D01*
X011727Y003398D01*
X011727Y003302D01*
X011430Y003302D01*
X011430Y003136D01*
X011439Y003103D01*
X011456Y003074D01*
X011480Y003050D01*
X011509Y003033D01*
X011542Y003024D01*
X011727Y003024D01*
X011727Y003302D01*
X011824Y003302D01*
X011824Y003024D01*
X012009Y003024D01*
X012042Y003033D01*
X012071Y003050D01*
X012095Y003074D01*
X012112Y003103D01*
X012117Y003123D01*
X012117Y003107D01*
X012182Y003042D01*
X012654Y003042D01*
X012113Y002501D01*
X011313Y002501D01*
X011039Y002227D01*
X011039Y002091D01*
X010104Y002091D01*
X010039Y002026D01*
X010039Y001174D01*
X010052Y001161D01*
X009567Y001161D01*
X009020Y001708D01*
X009001Y001727D01*
X008969Y001827D01*
X008965Y001841D01*
X008965Y001853D01*
X008949Y001891D01*
X008956Y001873D02*
X010039Y001873D01*
X010039Y001775D02*
X008986Y001775D01*
X009052Y001676D02*
X010039Y001676D01*
X010039Y001578D02*
X009150Y001578D01*
X009249Y001479D02*
X010039Y001479D01*
X010039Y001381D02*
X009347Y001381D01*
X009446Y001282D02*
X010039Y001282D01*
X010039Y001184D02*
X009544Y001184D01*
X009339Y000933D02*
X009339Y000933D01*
X009384Y000888D02*
X008980Y000888D01*
X009078Y000790D02*
X019202Y000790D01*
X019220Y000580D02*
X020981Y002341D01*
X021041Y002531D01*
X021140Y002500D01*
X021171Y002401D01*
X020981Y002341D01*
X021140Y002500D01*
X021371Y002366D02*
X021700Y002366D01*
X021700Y002464D02*
X021405Y002464D01*
X021401Y002563D02*
X021700Y002563D01*
X021700Y002661D02*
X021353Y002661D01*
X021281Y002267D02*
X021700Y002267D01*
X021700Y002169D02*
X021036Y002169D01*
X020938Y002070D02*
X021700Y002070D01*
X021700Y001972D02*
X020839Y001972D01*
X020741Y001873D02*
X021700Y001873D01*
X021700Y001775D02*
X020642Y001775D01*
X020544Y001676D02*
X021700Y001676D01*
X021700Y001578D02*
X020445Y001578D01*
X020347Y001479D02*
X021700Y001479D01*
X021700Y001381D02*
X020248Y001381D01*
X020150Y001282D02*
X021700Y001282D01*
X021700Y001184D02*
X020051Y001184D01*
X019953Y001085D02*
X021700Y001085D01*
X021700Y000987D02*
X019854Y000987D01*
X019756Y000888D02*
X021700Y000888D01*
X021700Y000790D02*
X019657Y000790D01*
X019559Y000691D02*
X021700Y000691D01*
X021700Y000593D02*
X019460Y000593D01*
X019362Y000494D02*
X021700Y000494D01*
X021700Y000396D02*
X008077Y000396D01*
X008176Y000494D02*
X008918Y000494D01*
X008899Y000513D02*
X008899Y000513D01*
X008820Y000593D02*
X008191Y000593D01*
X008191Y000691D02*
X008721Y000691D01*
X008623Y000790D02*
X008191Y000790D01*
X008191Y000888D02*
X008524Y000888D01*
X008512Y000900D02*
X008512Y000900D01*
X008579Y001061D02*
X008389Y001121D01*
X008420Y001220D01*
X008519Y001251D01*
X008579Y001061D01*
X008420Y001220D01*
X008579Y001061D02*
X009060Y000580D01*
X019220Y000580D01*
X019461Y001085D02*
X019497Y001085D01*
X019461Y001184D02*
X019596Y001184D01*
X019694Y001282D02*
X019461Y001282D01*
X019466Y001381D02*
X019793Y001381D01*
X019891Y001479D02*
X019466Y001479D01*
X019000Y001775D02*
X018981Y001775D01*
X018820Y001540D02*
X018740Y001460D01*
X016780Y001460D01*
X016580Y001660D01*
X016580Y002260D01*
X016180Y002660D01*
X016180Y002900D01*
X015820Y003260D01*
X015820Y005020D01*
X014940Y005900D01*
X007521Y005900D01*
X007331Y005841D01*
X007300Y005940D01*
X007363Y006022D01*
X007521Y005900D01*
X007340Y005900D01*
X007300Y005940D01*
X006940Y006220D02*
X006899Y006179D01*
X006839Y005989D01*
X006740Y006020D01*
X006709Y006119D01*
X006899Y006179D01*
X006740Y006020D01*
X006940Y006220D02*
X012300Y006220D01*
X012420Y006100D01*
X015140Y006100D01*
X016020Y005220D01*
X016020Y003300D01*
X016420Y002900D01*
X016420Y002740D01*
X016740Y002420D01*
X017030Y002420D01*
X017100Y002350D01*
X017070Y002820D02*
X016820Y002820D01*
X016220Y003420D01*
X016220Y005420D01*
X015340Y006300D01*
X012540Y006300D01*
X012420Y006420D01*
X006885Y006420D01*
X006708Y006328D01*
X006660Y006420D01*
X006708Y006512D01*
X006885Y006420D01*
X006660Y006420D01*
X005940Y005940D02*
X006260Y005620D01*
X008020Y005620D01*
X008100Y005700D01*
X012340Y005700D01*
X012660Y005380D01*
X012660Y005245D01*
X012752Y005068D01*
X012660Y005020D01*
X012568Y005068D01*
X012660Y005245D01*
X012660Y005020D01*
X012925Y005025D02*
X013275Y005025D01*
X013275Y005007D02*
X013316Y004910D01*
X013390Y004836D01*
X013487Y004795D01*
X013497Y004795D01*
X013504Y004789D01*
X013504Y004789D01*
X013519Y004791D01*
X013555Y004795D01*
X013593Y004795D01*
X013607Y004801D01*
X013637Y004805D01*
X013755Y004818D01*
X013808Y004815D01*
X013812Y004819D01*
X015233Y004819D01*
X015259Y004793D01*
X015259Y003033D01*
X015379Y002913D01*
X015379Y002684D01*
X015324Y002578D01*
X015316Y002570D01*
X015300Y002532D01*
X015275Y002484D01*
X015274Y002483D01*
X015276Y002479D01*
X015277Y002476D01*
X015275Y002473D01*
X015275Y002367D01*
X015316Y002270D01*
X015390Y002196D01*
X015487Y002155D01*
X015593Y002155D01*
X015690Y002196D01*
X015764Y002270D01*
X015805Y002367D01*
X015805Y002473D01*
X015803Y002476D01*
X015806Y002483D01*
X015780Y002532D01*
X015764Y002570D01*
X015756Y002578D01*
X015701Y002684D01*
X015701Y002871D01*
X015819Y002753D01*
X015819Y002509D01*
X015814Y002503D01*
X015815Y002488D01*
X015807Y002474D01*
X015819Y002430D01*
X015819Y002313D01*
X015831Y002301D01*
X015835Y002249D01*
X015835Y002207D01*
X015840Y002197D01*
X015842Y002171D01*
X015843Y002170D01*
X015855Y002161D01*
X015876Y002110D01*
X015895Y002091D01*
X014846Y002091D01*
X014846Y002177D01*
X014737Y002286D01*
X013981Y003042D01*
X014378Y003042D01*
X014443Y003107D01*
X014443Y003123D01*
X014448Y003103D01*
X014465Y003074D01*
X014489Y003050D01*
X014518Y003033D01*
X014551Y003024D01*
X014736Y003024D01*
X014736Y003302D01*
X014833Y003302D01*
X014833Y003398D01*
X015130Y003398D01*
X015130Y003564D01*
X015121Y003597D01*
X015104Y003626D01*
X015080Y003650D01*
X015051Y003667D01*
X015018Y003676D01*
X014833Y003676D01*
X014833Y003398D01*
X014736Y003398D01*
X014736Y003676D01*
X014635Y003676D01*
X014665Y003747D01*
X014665Y003853D01*
X014624Y003950D01*
X014550Y004024D01*
X014547Y004026D01*
X014543Y004032D01*
X014491Y004049D01*
X014453Y004065D01*
X014441Y004065D01*
X014427Y004069D01*
X014327Y004101D01*
X014267Y004161D01*
X013064Y004161D01*
X012958Y004216D01*
X012950Y004224D01*
X012912Y004240D01*
X012900Y004246D01*
X012911Y004251D01*
X012912Y004251D01*
X012963Y004268D01*
X012963Y004268D01*
X012963Y004268D01*
X012967Y004274D01*
X012970Y004276D01*
X013044Y004350D01*
X013085Y004447D01*
X013085Y004553D01*
X013044Y004650D01*
X012970Y004724D01*
X012873Y004765D01*
X012767Y004765D01*
X012670Y004724D01*
X012596Y004650D01*
X012594Y004647D01*
X012588Y004643D01*
X012588Y004643D01*
X012588Y004643D01*
X012571Y004592D01*
X012571Y004591D01*
X012555Y004553D01*
X012555Y004541D01*
X012519Y004427D01*
X012500Y004408D01*
X012500Y004408D01*
X012353Y004261D01*
X012259Y004167D01*
X012259Y003713D01*
X012314Y003658D01*
X012182Y003658D01*
X012117Y003593D01*
X012117Y003577D01*
X012112Y003597D01*
X012095Y003626D01*
X012071Y003650D01*
X012042Y003667D01*
X012009Y003676D01*
X011824Y003676D01*
X011824Y003398D01*
X011727Y003398D01*
X011727Y003645D01*
X012251Y004169D01*
X012351Y004269D01*
X012351Y004651D01*
X012151Y004851D01*
X012051Y004951D01*
X011711Y004951D01*
X011711Y004998D01*
X011761Y005106D01*
X011764Y005110D01*
X011783Y005154D01*
X011787Y005163D01*
X011810Y005214D01*
X011810Y005214D01*
X011810Y005214D01*
X011805Y005229D01*
X011805Y005313D01*
X011764Y005410D01*
X011690Y005484D01*
X011593Y005525D01*
X011487Y005525D01*
X011390Y005484D01*
X011316Y005410D01*
X011275Y005313D01*
X011275Y005229D01*
X011270Y005214D01*
X011270Y005214D01*
X011270Y005214D01*
X011297Y005154D01*
X011316Y005110D01*
X011319Y005106D01*
X011369Y004998D01*
X011369Y004951D01*
X010741Y004951D01*
X010765Y005007D01*
X010765Y005113D01*
X010724Y005210D01*
X010650Y005284D01*
X010553Y005325D01*
X010447Y005325D01*
X010444Y005323D01*
X010437Y005326D01*
X010388Y005300D01*
X010350Y005284D01*
X010342Y005276D01*
X010236Y005221D01*
X008555Y005221D01*
X008564Y005230D01*
X008605Y005327D01*
X008605Y005433D01*
X008564Y005530D01*
X008555Y005539D01*
X012273Y005539D01*
X012499Y005313D01*
X012499Y005284D01*
X012444Y005178D01*
X012436Y005170D01*
X012420Y005132D01*
X012395Y005084D01*
X012394Y005083D01*
X012396Y005079D01*
X012397Y005076D01*
X012395Y005073D01*
X012395Y004967D01*
X012436Y004870D01*
X012510Y004796D01*
X012607Y004755D01*
X012713Y004755D01*
X012810Y004796D01*
X012884Y004870D01*
X012925Y004967D01*
X012925Y005073D01*
X012923Y005076D01*
X012926Y005083D01*
X012900Y005132D01*
X012884Y005170D01*
X012876Y005178D01*
X012821Y005284D01*
X012821Y005325D01*
X012830Y005316D01*
X012927Y005275D01*
X013033Y005275D01*
X013036Y005277D01*
X013039Y005276D01*
X013043Y005274D01*
X013044Y005275D01*
X013092Y005300D01*
X013130Y005316D01*
X013138Y005324D01*
X013244Y005379D01*
X014993Y005379D01*
X015231Y005141D01*
X013822Y005141D01*
X013767Y005203D01*
X013764Y005210D01*
X013733Y005242D01*
X013702Y005276D01*
X013693Y005286D01*
X013685Y005286D01*
X013593Y005325D01*
X013487Y005325D01*
X013390Y005284D01*
X013316Y005210D01*
X013275Y005113D01*
X013275Y005007D01*
X013309Y004927D02*
X012908Y004927D01*
X012842Y004828D02*
X013408Y004828D01*
X013552Y004957D02*
X013540Y005060D01*
X013617Y005129D01*
X013750Y004980D01*
X013552Y004957D01*
X013620Y004980D02*
X013540Y005060D01*
X013620Y004980D02*
X013750Y004980D01*
X015300Y004980D01*
X015420Y004860D01*
X015420Y003100D01*
X015540Y002980D01*
X015540Y002645D01*
X015632Y002468D01*
X015540Y002420D01*
X015448Y002468D01*
X015540Y002645D01*
X015540Y002420D01*
X015805Y002464D02*
X015810Y002464D01*
X015806Y002483D02*
X015806Y002483D01*
X015806Y002483D01*
X015819Y002563D02*
X015768Y002563D01*
X015819Y002661D02*
X015713Y002661D01*
X015701Y002760D02*
X015813Y002760D01*
X015714Y002858D02*
X015701Y002858D01*
X015980Y002820D02*
X015980Y002450D01*
X016152Y002350D01*
X016100Y002260D01*
X015997Y002251D01*
X015980Y002450D01*
X015980Y002380D01*
X016100Y002260D01*
X015834Y002267D02*
X015761Y002267D01*
X015804Y002366D02*
X015819Y002366D01*
X015845Y002169D02*
X015625Y002169D01*
X015455Y002169D02*
X014846Y002169D01*
X014756Y002267D02*
X015319Y002267D01*
X015276Y002366D02*
X014658Y002366D01*
X014559Y002464D02*
X015275Y002464D01*
X015312Y002563D02*
X014461Y002563D01*
X014362Y002661D02*
X015367Y002661D01*
X015379Y002760D02*
X014264Y002760D01*
X014165Y002858D02*
X015379Y002858D01*
X015336Y002957D02*
X014067Y002957D01*
X014391Y003055D02*
X014484Y003055D01*
X014736Y003055D02*
X014833Y003055D01*
X014833Y003024D02*
X015018Y003024D01*
X015051Y003033D01*
X015080Y003050D01*
X015104Y003074D01*
X015121Y003103D01*
X015130Y003136D01*
X015130Y003302D01*
X014833Y003302D01*
X014833Y003024D01*
X014833Y003154D02*
X014736Y003154D01*
X014736Y003252D02*
X014833Y003252D01*
X014833Y003351D02*
X015259Y003351D01*
X015259Y003449D02*
X015130Y003449D01*
X015130Y003548D02*
X015259Y003548D01*
X015259Y003646D02*
X015084Y003646D01*
X015259Y003745D02*
X014664Y003745D01*
X014665Y003843D02*
X015259Y003843D01*
X015259Y003942D02*
X014628Y003942D01*
X014519Y004040D02*
X015259Y004040D01*
X015259Y004139D02*
X014289Y004139D01*
X014200Y004000D02*
X013025Y004000D01*
X012848Y003908D01*
X012800Y004000D01*
X012848Y004092D01*
X013025Y004000D01*
X012800Y004000D01*
X012920Y004237D02*
X015259Y004237D01*
X015259Y004336D02*
X013030Y004336D01*
X013079Y004434D02*
X015259Y004434D01*
X015259Y004533D02*
X013085Y004533D01*
X013052Y004631D02*
X015259Y004631D01*
X015259Y004730D02*
X012958Y004730D01*
X012820Y004500D02*
X012721Y004531D01*
X012661Y004341D01*
X012851Y004401D01*
X012820Y004500D01*
X012661Y004341D01*
X012420Y004100D01*
X012420Y003780D01*
X012500Y003700D01*
X012900Y003700D01*
X012980Y003620D01*
X012980Y003300D01*
X012900Y003380D01*
X012475Y003380D01*
X012445Y003350D01*
X012169Y003055D02*
X012076Y003055D01*
X011824Y003055D02*
X011727Y003055D01*
X011727Y003154D02*
X011824Y003154D01*
X011824Y003252D02*
X011727Y003252D01*
X011727Y003351D02*
X011432Y003351D01*
X011430Y003252D02*
X011334Y003252D01*
X011430Y003154D02*
X011235Y003154D01*
X011231Y003055D02*
X011475Y003055D01*
X011231Y002957D02*
X012569Y002957D01*
X012470Y002858D02*
X011231Y002858D01*
X011231Y002760D02*
X012372Y002760D01*
X012273Y002661D02*
X011231Y002661D01*
X011231Y002563D02*
X012175Y002563D01*
X012180Y002340D02*
X011380Y002340D01*
X011200Y002160D01*
X011200Y001600D01*
X011039Y002169D02*
X008191Y002169D01*
X008191Y002070D02*
X010083Y002070D01*
X010039Y001972D02*
X008903Y001972D01*
X008497Y001972D02*
X008191Y001972D01*
X008191Y001873D02*
X008444Y001873D01*
X008435Y001775D02*
X008191Y001775D01*
X008191Y001676D02*
X008465Y001676D01*
X008548Y001578D02*
X008191Y001578D01*
X008191Y001479D02*
X008353Y001479D01*
X008487Y001479D02*
X008793Y001479D01*
X008892Y001381D02*
X008634Y001381D01*
X008681Y001282D02*
X008990Y001282D01*
X009089Y001184D02*
X008709Y001184D01*
X008740Y001128D02*
X008740Y001128D01*
X008783Y001085D02*
X009187Y001085D01*
X009286Y000987D02*
X008881Y000987D01*
X008280Y000987D02*
X008191Y000987D01*
X007580Y000765D02*
X007500Y000460D01*
X007460Y000420D01*
X004740Y000420D01*
X004580Y000580D01*
X004580Y001955D01*
X004488Y002132D01*
X004580Y002180D01*
X004672Y002132D01*
X004580Y001955D01*
X004580Y002180D01*
X004391Y002366D02*
X004273Y002366D01*
X004327Y002419D02*
X004097Y002189D01*
X004003Y002189D01*
X003953Y002139D01*
X003381Y002139D01*
X003316Y002204D01*
X003316Y002496D01*
X003381Y002561D01*
X003953Y002561D01*
X003983Y002531D01*
X004099Y002647D01*
X004193Y002741D01*
X004513Y002741D01*
X004991Y003219D01*
X004284Y003219D01*
X004178Y003164D01*
X004170Y003156D01*
X004132Y003140D01*
X004084Y003115D01*
X004083Y003114D01*
X004079Y003116D01*
X004076Y003117D01*
X004073Y003115D01*
X003967Y003115D01*
X003870Y003156D01*
X003796Y003230D01*
X003755Y003327D01*
X003755Y003433D01*
X003796Y003530D01*
X003870Y003604D01*
X003967Y003645D01*
X004073Y003645D01*
X004076Y003643D01*
X004083Y003646D01*
X004083Y003646D01*
X004083Y003646D01*
X004132Y003620D01*
X004170Y003604D01*
X004178Y003596D01*
X004284Y003541D01*
X004913Y003541D01*
X004979Y003607D01*
X004979Y004087D01*
X005073Y004181D01*
X005153Y004261D01*
X005239Y004261D01*
X005220Y004280D01*
X005203Y004309D01*
X005194Y004342D01*
X005194Y004527D01*
X005472Y004527D01*
X005472Y004624D01*
X005194Y004624D01*
X005194Y004809D01*
X005203Y004842D01*
X005220Y004871D01*
X005244Y004895D01*
X005273Y004912D01*
X005293Y004917D01*
X005277Y004917D01*
X005212Y004982D01*
X005212Y005299D01*
X005168Y005299D01*
X005168Y005186D01*
X005103Y005121D01*
X004145Y005121D01*
X004086Y005179D01*
X003767Y005179D01*
X003527Y004939D01*
X003120Y004939D01*
X003120Y004686D01*
X003096Y004661D01*
X003473Y004661D01*
X003729Y004917D01*
X003823Y005011D01*
X004080Y005011D01*
X004080Y005014D01*
X004145Y005079D01*
X005103Y005079D01*
X005168Y005014D01*
X005168Y004686D01*
X005103Y004621D01*
X004145Y004621D01*
X004080Y004686D01*
X004080Y004689D01*
X003957Y004689D01*
X003701Y004433D01*
X003607Y004339D01*
X002764Y004339D01*
X002658Y004284D01*
X002650Y004276D01*
X002612Y004260D01*
X002564Y004235D01*
X002563Y004234D01*
X002559Y004236D01*
X002556Y004237D01*
X002553Y004235D01*
X002447Y004235D01*
X002350Y004276D01*
X002276Y004350D01*
X002235Y004447D01*
X002235Y004553D01*
X002263Y004621D01*
X002097Y004621D01*
X002032Y004686D01*
X002032Y004805D01*
X001961Y004733D01*
X001961Y002624D01*
X002016Y002518D01*
X002024Y002510D01*
X002040Y002472D01*
X002066Y002423D01*
X002066Y002423D01*
X002066Y002423D01*
X002063Y002416D01*
X002065Y002413D01*
X002065Y002307D01*
X002024Y002210D01*
X001995Y002181D01*
X002156Y002181D01*
X002262Y002236D01*
X002270Y002244D01*
X002308Y002260D01*
X002357Y002286D01*
X002357Y002286D01*
X002357Y002286D01*
X002364Y002283D01*
X002367Y002285D01*
X002473Y002285D01*
X002570Y002244D01*
X002644Y002170D01*
X002685Y002073D01*
X002685Y001967D01*
X002644Y001870D01*
X002570Y001796D01*
X002473Y001755D01*
X002367Y001755D01*
X002364Y001757D01*
X002357Y001754D01*
X002357Y001754D01*
X002357Y001754D01*
X002308Y001780D01*
X002308Y001780D01*
X002270Y001796D01*
X002262Y001804D01*
X002156Y001859D01*
X001734Y001859D01*
X001752Y001841D01*
X001784Y001764D01*
X001793Y001754D01*
X001793Y001754D01*
X001790Y001694D01*
X001790Y001650D01*
X001787Y001644D01*
X001785Y001603D01*
X001852Y001536D01*
X002132Y001536D01*
X002132Y001617D01*
X002197Y001683D01*
X002723Y001683D01*
X002788Y001617D01*
X002788Y001511D01*
X002883Y001511D01*
X002952Y001546D01*
X002959Y001552D01*
X002997Y001568D01*
X003049Y001593D01*
X003049Y001593D01*
X003049Y001593D01*
X003060Y001590D01*
X003140Y001590D01*
X003151Y001593D01*
X003151Y001593D01*
X003151Y001593D01*
X003203Y001568D01*
X003241Y001552D01*
X003248Y001546D01*
X003317Y001511D01*
X003331Y001511D01*
X003381Y001561D01*
X003953Y001561D01*
X004018Y001496D01*
X004018Y001204D01*
X003953Y001139D01*
X003381Y001139D01*
X003331Y001189D01*
X003327Y001189D01*
X003258Y001144D01*
X003241Y001128D01*
X003216Y001118D01*
X003179Y001094D01*
X003165Y001097D01*
X003150Y001090D01*
X003050Y001090D01*
X003035Y001097D01*
X003021Y001094D01*
X003021Y001094D01*
X003021Y001094D01*
X002984Y001118D01*
X002959Y001128D01*
X002942Y001144D01*
X002873Y001189D01*
X002788Y001189D01*
X002788Y001132D01*
X002723Y001067D01*
X002197Y001067D01*
X002132Y001132D01*
X002132Y001214D01*
X001719Y001214D01*
X001554Y001378D01*
X001551Y001381D01*
X001546Y001382D01*
X001515Y001416D01*
X001457Y001455D01*
X001457Y001455D01*
X001440Y001466D01*
X001593Y001275D01*
X001593Y001275D01*
X001660Y000980D01*
X001660Y000980D01*
X001593Y000685D01*
X001593Y000685D01*
X001404Y000448D01*
X001404Y000448D01*
X001404Y000448D01*
X001152Y000327D01*
X004605Y000327D01*
X004513Y000419D01*
X004419Y000513D01*
X004419Y001916D01*
X004364Y002022D01*
X004356Y002030D01*
X004340Y002068D01*
X004340Y002068D01*
X004314Y002117D01*
X004314Y002117D01*
X004317Y002124D01*
X004315Y002127D01*
X004315Y002233D01*
X004356Y002330D01*
X004430Y002404D01*
X004465Y002419D01*
X004327Y002419D01*
X004329Y002267D02*
X004175Y002267D01*
X004030Y002350D02*
X004260Y002580D01*
X004580Y002580D01*
X005380Y003380D01*
X005380Y003780D01*
X005460Y003860D01*
X005700Y003860D01*
X006260Y004420D01*
X006260Y004980D01*
X006340Y005060D01*
X010275Y005060D01*
X010452Y005152D01*
X010500Y005060D01*
X010452Y004968D01*
X010275Y005060D01*
X010500Y005060D01*
X010765Y005025D02*
X011356Y005025D01*
X011310Y005124D02*
X010760Y005124D01*
X010712Y005222D02*
X011273Y005222D01*
X011278Y005321D02*
X010563Y005321D01*
X010437Y005326D02*
X010437Y005326D01*
X010437Y005326D01*
X010427Y005321D02*
X008602Y005321D01*
X008605Y005419D02*
X011325Y005419D01*
X011470Y005518D02*
X008570Y005518D01*
X008340Y005380D02*
X008292Y005288D01*
X008115Y005380D01*
X008292Y005472D01*
X008340Y005380D01*
X008115Y005380D01*
X006260Y005380D01*
X006020Y005140D01*
X006020Y004420D01*
X005700Y004100D01*
X005220Y004100D01*
X005140Y004020D01*
X005140Y003540D01*
X004980Y003380D01*
X004245Y003380D01*
X004068Y003288D01*
X004020Y003380D01*
X004068Y003472D01*
X004245Y003380D01*
X004020Y003380D01*
X003813Y003548D02*
X001961Y003548D01*
X001961Y003646D02*
X004979Y003646D01*
X004979Y003745D02*
X001961Y003745D01*
X001961Y003843D02*
X004979Y003843D01*
X004979Y003942D02*
X001961Y003942D01*
X001961Y004040D02*
X004979Y004040D01*
X005031Y004139D02*
X001961Y004139D01*
X001961Y004237D02*
X002443Y004237D01*
X002568Y004237D02*
X005129Y004237D01*
X005196Y004336D02*
X002758Y004336D01*
X002725Y004500D02*
X002548Y004408D01*
X002500Y004500D01*
X002548Y004592D01*
X002725Y004500D01*
X002500Y004500D01*
X002725Y004500D02*
X003540Y004500D01*
X003890Y004850D01*
X004624Y004850D01*
X005113Y004631D02*
X005194Y004631D01*
X005194Y004730D02*
X005168Y004730D01*
X005168Y004828D02*
X005200Y004828D01*
X005168Y004927D02*
X005268Y004927D01*
X005212Y005025D02*
X005157Y005025D01*
X005105Y005124D02*
X005212Y005124D01*
X005212Y005222D02*
X005168Y005222D01*
X004950Y005350D02*
X004624Y005350D01*
X004614Y005340D01*
X003700Y005340D01*
X003460Y005100D01*
X002100Y005100D01*
X001800Y004800D01*
X001800Y002585D01*
X001892Y002408D01*
X001800Y002360D01*
X001708Y002408D01*
X001800Y002585D01*
X001800Y002360D01*
X002065Y002366D02*
X003316Y002366D01*
X003316Y002464D02*
X002044Y002464D01*
X001993Y002563D02*
X004015Y002563D01*
X004113Y002661D02*
X001961Y002661D01*
X001961Y002760D02*
X004532Y002760D01*
X004630Y002858D02*
X001961Y002858D01*
X001961Y002957D02*
X004729Y002957D01*
X004827Y003055D02*
X001961Y003055D01*
X001961Y003154D02*
X003875Y003154D01*
X003786Y003252D02*
X001961Y003252D01*
X001961Y003351D02*
X003755Y003351D01*
X003762Y003449D02*
X001961Y003449D01*
X000940Y004180D02*
X000500Y003740D01*
X000500Y002100D01*
X000580Y002020D01*
X002195Y002020D01*
X002372Y002112D01*
X002420Y002020D01*
X002372Y001928D01*
X002195Y002020D01*
X002420Y002020D01*
X002519Y001775D02*
X003298Y001775D01*
X003298Y001733D02*
X003307Y001700D01*
X003324Y001671D01*
X003348Y001647D01*
X003377Y001630D01*
X003410Y001621D01*
X003667Y001621D01*
X003924Y001621D01*
X003956Y001630D01*
X003986Y001647D01*
X004010Y001671D01*
X004027Y001700D01*
X004035Y001733D01*
X004035Y001850D01*
X003667Y001850D01*
X004035Y001850D01*
X004035Y001967D01*
X004027Y002000D01*
X004010Y002029D01*
X003986Y002053D01*
X003956Y002070D01*
X004339Y002070D01*
X004315Y002169D02*
X003982Y002169D01*
X003956Y002070D02*
X003924Y002079D01*
X003667Y002079D01*
X003667Y001850D01*
X003667Y001850D01*
X003667Y001850D01*
X003667Y001621D01*
X003667Y001850D01*
X003667Y001850D01*
X003667Y002079D01*
X003410Y002079D01*
X003377Y002070D01*
X003348Y002053D01*
X003324Y002029D01*
X003307Y002000D01*
X003298Y001967D01*
X003298Y001850D01*
X003667Y001850D01*
X003298Y001850D01*
X003298Y001733D01*
X003321Y001676D02*
X002729Y001676D01*
X002788Y001578D02*
X003017Y001578D01*
X003061Y001420D02*
X003100Y001340D01*
X003148Y001265D01*
X003280Y001350D01*
X003139Y001420D01*
X003100Y001340D01*
X003052Y001265D01*
X002920Y001350D01*
X003061Y001420D01*
X003100Y001340D02*
X003130Y001340D01*
X003140Y001350D01*
X003280Y001350D01*
X003667Y001350D01*
X004018Y001381D02*
X004419Y001381D01*
X004419Y001479D02*
X004018Y001479D01*
X004018Y001282D02*
X004419Y001282D01*
X004419Y001184D02*
X003997Y001184D01*
X003953Y001061D02*
X003381Y001061D01*
X003331Y001011D01*
X003023Y001011D01*
X002929Y000917D01*
X002913Y000901D01*
X002788Y000901D01*
X002788Y000948D01*
X002723Y001013D01*
X002197Y001013D01*
X002132Y000948D01*
X002132Y000463D01*
X002197Y000397D01*
X002723Y000397D01*
X002788Y000463D01*
X002788Y000579D01*
X003047Y000579D01*
X003157Y000689D01*
X003331Y000689D01*
X003381Y000639D01*
X003953Y000639D01*
X004018Y000704D01*
X004018Y000996D01*
X003953Y001061D01*
X004018Y000987D02*
X004419Y000987D01*
X004419Y001085D02*
X002741Y001085D01*
X002749Y000987D02*
X002999Y000987D01*
X003090Y000850D02*
X002980Y000740D01*
X002495Y000740D01*
X002460Y000705D01*
X002132Y000691D02*
X001594Y000691D01*
X001617Y000790D02*
X002132Y000790D01*
X002132Y000888D02*
X001639Y000888D01*
X001659Y000987D02*
X002171Y000987D01*
X002179Y001085D02*
X001636Y001085D01*
X001614Y001184D02*
X002132Y001184D01*
X002460Y001375D02*
X002485Y001350D01*
X002920Y001350D01*
X003140Y001350D01*
X003318Y001184D02*
X003336Y001184D01*
X003090Y000850D02*
X003667Y000850D01*
X004018Y000888D02*
X004419Y000888D01*
X004419Y000790D02*
X004018Y000790D01*
X004005Y000691D02*
X004419Y000691D01*
X004419Y000593D02*
X003060Y000593D01*
X002788Y000494D02*
X004438Y000494D01*
X004537Y000396D02*
X001294Y000396D01*
X001440Y000494D02*
X002132Y000494D01*
X002132Y000593D02*
X001519Y000593D01*
X001587Y001282D02*
X001650Y001282D01*
X001552Y001381D02*
X001509Y001381D01*
X001621Y001539D02*
X001491Y001626D01*
X001540Y001700D01*
X001629Y001696D01*
X001621Y001539D01*
X001540Y001620D01*
X001540Y001700D01*
X001621Y001539D02*
X001785Y001375D01*
X002460Y001375D01*
X002132Y001578D02*
X001810Y001578D01*
X001790Y001676D02*
X002191Y001676D01*
X002318Y001775D02*
X001779Y001775D01*
X001793Y001754D02*
X001793Y001754D01*
X002048Y002267D02*
X002321Y002267D01*
X002516Y002267D02*
X003316Y002267D01*
X003351Y002169D02*
X002645Y002169D01*
X002685Y002070D02*
X003377Y002070D01*
X003299Y001972D02*
X002685Y001972D01*
X002646Y001873D02*
X003298Y001873D01*
X003183Y001578D02*
X004419Y001578D01*
X004419Y001676D02*
X004013Y001676D01*
X004035Y001775D02*
X004419Y001775D01*
X004419Y001873D02*
X004035Y001873D01*
X004034Y001972D02*
X004390Y001972D01*
X004030Y002350D02*
X003667Y002350D01*
X003667Y002070D02*
X003667Y002070D01*
X003667Y001972D02*
X003667Y001972D01*
X003667Y001873D02*
X003667Y001873D01*
X003667Y001850D02*
X003667Y001850D01*
X003667Y001775D02*
X003667Y001775D01*
X003667Y001676D02*
X003667Y001676D01*
X002882Y001184D02*
X002788Y001184D01*
X004949Y001841D02*
X004980Y001940D01*
X005079Y001971D01*
X005139Y001781D01*
X004949Y001841D01*
X004980Y001940D02*
X005139Y001781D01*
X005570Y001350D01*
X006690Y001350D01*
X007180Y001020D02*
X007180Y001820D01*
X007300Y001940D01*
X007580Y001940D01*
X007580Y002300D01*
X008420Y003140D01*
X008420Y003700D01*
X008580Y003860D01*
X011300Y003860D01*
X011621Y004181D01*
X011681Y004371D01*
X011780Y004340D01*
X011811Y004241D01*
X011621Y004181D01*
X011780Y004340D01*
X012122Y004040D02*
X012259Y004040D01*
X012259Y003942D02*
X012023Y003942D01*
X011925Y003843D02*
X012259Y003843D01*
X012259Y003745D02*
X011826Y003745D01*
X011824Y003646D02*
X011728Y003646D01*
X011727Y003548D02*
X011824Y003548D01*
X011824Y003449D02*
X011727Y003449D01*
X012075Y003646D02*
X012170Y003646D01*
X012220Y004139D02*
X012259Y004139D01*
X012319Y004237D02*
X012329Y004237D01*
X012353Y004261D02*
X012353Y004261D01*
X012351Y004336D02*
X012428Y004336D01*
X012351Y004434D02*
X012521Y004434D01*
X012553Y004533D02*
X012351Y004533D01*
X012351Y004631D02*
X012584Y004631D01*
X012682Y004730D02*
X012272Y004730D01*
X012174Y004828D02*
X012478Y004828D01*
X012412Y004927D02*
X012075Y004927D01*
X012395Y005025D02*
X011724Y005025D01*
X011770Y005124D02*
X012415Y005124D01*
X012467Y005222D02*
X011807Y005222D01*
X011802Y005321D02*
X012492Y005321D01*
X012393Y005419D02*
X011755Y005419D01*
X011610Y005518D02*
X012295Y005518D01*
X012821Y005321D02*
X012825Y005321D01*
X012853Y005222D02*
X013328Y005222D01*
X013280Y005124D02*
X012905Y005124D01*
X012926Y005083D02*
X012926Y005083D01*
X012926Y005083D01*
X013135Y005321D02*
X013477Y005321D01*
X013603Y005321D02*
X015052Y005321D01*
X015150Y005222D02*
X013752Y005222D01*
X013637Y004805D02*
X013637Y004805D01*
X013205Y005540D02*
X013028Y005448D01*
X012980Y005540D01*
X013028Y005632D01*
X013205Y005540D01*
X012980Y005540D01*
X013205Y005540D02*
X015060Y005540D01*
X015620Y004980D01*
X015620Y003180D01*
X015980Y002820D01*
X015259Y003055D02*
X015085Y003055D01*
X015130Y003154D02*
X015259Y003154D01*
X015259Y003252D02*
X015130Y003252D01*
X014833Y003449D02*
X014736Y003449D01*
X014736Y003548D02*
X014833Y003548D01*
X014833Y003646D02*
X014736Y003646D01*
X014400Y003800D02*
X014431Y003899D01*
X014241Y003959D01*
X014301Y003769D01*
X014400Y003800D01*
X014241Y003959D01*
X014200Y004000D01*
X012980Y003300D02*
X012980Y003140D01*
X012180Y002340D01*
X011276Y002464D02*
X011231Y002464D01*
X011178Y002366D02*
X011167Y002366D01*
X011079Y002267D02*
X011069Y002267D01*
X013248Y002792D02*
X013340Y002840D01*
X013432Y002792D01*
X013340Y002615D01*
X013248Y002792D01*
X013340Y002840D02*
X013340Y002615D01*
X013340Y002060D01*
X013700Y001700D01*
X014240Y001700D01*
X014340Y001600D01*
X014100Y001600D01*
X013970Y001730D01*
X014340Y001600D02*
X014740Y001600D01*
X015000Y001600D01*
X017070Y002820D02*
X017100Y002850D01*
X017100Y003350D02*
X016530Y003350D01*
X016420Y003460D01*
X016420Y007220D01*
X015860Y007780D01*
X012500Y007780D01*
X011887Y008393D01*
X011734Y008520D01*
X011800Y008600D01*
X011903Y008592D01*
X011887Y008393D01*
X011800Y008480D01*
X011800Y008600D01*
X012065Y008589D02*
X012069Y008645D01*
X012069Y008645D01*
X012069Y008645D01*
X012065Y008650D01*
X012065Y008653D01*
X012024Y008750D01*
X011950Y008824D01*
X011853Y008865D01*
X011747Y008865D01*
X011650Y008824D01*
X011576Y008750D01*
X011535Y008653D01*
X011535Y008547D01*
X011576Y008450D01*
X011579Y008447D01*
X011579Y008440D01*
X011580Y008439D01*
X011621Y008404D01*
X011650Y008376D01*
X011662Y008371D01*
X011682Y008354D01*
X011682Y008354D01*
X011774Y008278D01*
X011808Y008238D01*
X011815Y008237D01*
X011821Y008232D01*
X012433Y007619D01*
X015793Y007619D01*
X016259Y007153D01*
X016259Y005609D01*
X015501Y006367D01*
X015407Y006461D01*
X013537Y006461D01*
X013565Y006527D01*
X013565Y006633D01*
X013524Y006730D01*
X013450Y006804D01*
X013353Y006845D01*
X013247Y006845D01*
X013244Y006843D01*
X013237Y006846D01*
X013188Y006820D01*
X013150Y006804D01*
X013142Y006796D01*
X013036Y006741D01*
X012934Y006741D01*
X012952Y006759D01*
X012990Y006850D01*
X012990Y006950D01*
X012952Y007041D01*
X012881Y007112D01*
X012816Y007139D01*
X013116Y007139D01*
X013222Y007084D01*
X013230Y007076D01*
X013268Y007060D01*
X013288Y007050D01*
X013317Y007034D01*
X013324Y007037D01*
X013327Y007035D01*
X013433Y007035D01*
X013530Y007076D01*
X013604Y007150D01*
X013645Y007247D01*
X013645Y007353D01*
X013604Y007450D01*
X013530Y007524D01*
X013433Y007565D01*
X013327Y007565D01*
X013324Y007563D01*
X013317Y007566D01*
X013268Y007540D01*
X013230Y007524D01*
X013222Y007516D01*
X013116Y007461D01*
X008567Y007461D01*
X008541Y007487D01*
X008541Y007623D01*
X008607Y007595D01*
X008713Y007595D01*
X008810Y007636D01*
X008884Y007710D01*
X008925Y007807D01*
X008925Y007913D01*
X008923Y007916D01*
X008926Y007923D01*
X008900Y007972D01*
X008884Y008010D01*
X008876Y008018D01*
X008821Y008124D01*
X008821Y009527D01*
X008727Y009621D01*
X008581Y009767D01*
X008581Y009865D01*
X008610Y009836D01*
X008707Y009795D01*
X008813Y009795D01*
X008899Y009831D01*
X008899Y009572D01*
X008895Y009568D01*
X008898Y009515D01*
X008885Y009397D01*
X008881Y009367D01*
X008875Y009353D01*
X008875Y009315D01*
X008871Y009279D01*
X008869Y009264D01*
X008875Y009257D01*
X008875Y009247D01*
X008916Y009150D01*
X008990Y009076D01*
X009087Y009035D01*
X009193Y009035D01*
X009290Y009076D01*
X009364Y009150D01*
X009405Y009247D01*
X009405Y009353D01*
X009366Y009445D01*
X009366Y009452D01*
X009407Y009435D01*
X009513Y009435D01*
X009516Y009437D01*
X009519Y009436D01*
X009523Y009434D01*
X009524Y009435D01*
X009572Y009460D01*
X009610Y009476D01*
X009618Y009484D01*
X009724Y009539D01*
X010007Y009539D01*
X010087Y009619D01*
X010191Y009619D01*
X009973Y009401D01*
X009859Y009365D01*
X009847Y009365D01*
X009809Y009349D01*
X009761Y009334D01*
X009757Y009332D01*
X009753Y009326D01*
X009750Y009324D01*
X009676Y009250D01*
X009635Y009153D01*
X009635Y009047D01*
X009676Y008950D01*
X009750Y008876D01*
X009847Y008835D01*
X009953Y008835D01*
X010050Y008876D01*
X010124Y008950D01*
X010126Y008953D01*
X010132Y008957D01*
X010134Y008961D01*
X010149Y009009D01*
X010155Y009024D01*
X010155Y009007D01*
X010196Y008910D01*
X010270Y008836D01*
X010367Y008795D01*
X010473Y008795D01*
X010497Y008805D01*
X010475Y008753D01*
X010475Y008647D01*
X010516Y008550D01*
X010590Y008476D01*
X010687Y008435D01*
X010793Y008435D01*
X010890Y008476D01*
X010964Y008550D01*
X010972Y008567D01*
X010980Y008573D01*
X010992Y008615D01*
X011005Y008647D01*
X011005Y008666D01*
X011012Y008694D01*
X011035Y008781D01*
X011050Y008797D01*
X011273Y009019D01*
X016624Y009019D01*
X016615Y009004D01*
X016590Y008945D01*
X016578Y008882D01*
X016578Y008859D01*
X017091Y008859D01*
X017091Y008841D01*
X016578Y008841D01*
X016578Y008818D01*
X016590Y008755D01*
X016615Y008696D01*
X016650Y008642D01*
X016696Y008597D01*
X016707Y008589D01*
X016642Y008524D01*
X016595Y008411D01*
X016595Y008289D01*
X016642Y008176D01*
X016718Y008100D01*
X016642Y008024D01*
X016595Y007911D01*
X016595Y007789D01*
X016642Y007676D01*
X016718Y007600D01*
X016642Y007524D01*
X016595Y007411D01*
X016595Y007289D01*
X016642Y007176D01*
X016718Y007100D01*
X016642Y007024D01*
X016595Y006911D01*
X016595Y006789D01*
X016642Y006676D01*
X016718Y006600D01*
X016642Y006524D01*
X016595Y006411D01*
X016595Y006289D01*
X016642Y006176D01*
X016718Y006100D01*
X016642Y006024D01*
X016595Y005911D01*
X016595Y005789D01*
X016642Y005676D01*
X016718Y005600D01*
X016642Y005524D01*
X016595Y005411D01*
X016595Y005289D01*
X016642Y005176D01*
X016718Y005100D01*
X016642Y005024D01*
X016595Y004911D01*
X016595Y004789D01*
X016642Y004676D01*
X016718Y004600D01*
X016642Y004524D01*
X016595Y004411D01*
X016595Y004289D01*
X016642Y004176D01*
X016718Y004100D01*
X016642Y004024D01*
X016595Y003911D01*
X016595Y003789D01*
X016642Y003676D01*
X016718Y003600D01*
X016642Y003524D01*
X016637Y003511D01*
X016597Y003511D01*
X016581Y003527D01*
X016581Y007287D01*
X016487Y007381D01*
X015927Y007941D01*
X012567Y007941D01*
X012054Y008454D01*
X012061Y008537D01*
X012065Y008547D01*
X012065Y008589D01*
X012065Y008571D02*
X016689Y008571D01*
X016632Y008670D02*
X012058Y008670D01*
X012006Y008768D02*
X016587Y008768D01*
X016578Y008867D02*
X011120Y008867D01*
X011031Y008768D02*
X011594Y008768D01*
X011542Y008670D02*
X011006Y008670D01*
X010978Y008571D02*
X011535Y008571D01*
X011566Y008473D02*
X010883Y008473D01*
X010597Y008473D02*
X008821Y008473D01*
X008821Y008571D02*
X010507Y008571D01*
X010475Y008670D02*
X008821Y008670D01*
X008821Y008768D02*
X010482Y008768D01*
X010239Y008867D02*
X010028Y008867D01*
X010135Y008965D02*
X010173Y008965D01*
X009999Y009069D02*
X009900Y009100D01*
X009869Y009199D01*
X010059Y009259D01*
X009999Y009069D01*
X009900Y009100D02*
X010059Y009259D01*
X010380Y009580D01*
X020310Y009580D01*
X020410Y009752D01*
X020500Y009700D01*
X020509Y009597D01*
X020310Y009580D01*
X020380Y009580D01*
X020500Y009700D01*
X020615Y009939D02*
X020967Y009939D01*
X021127Y010099D01*
X021221Y010193D01*
X021221Y011087D01*
X020927Y011381D01*
X020703Y011381D01*
X020700Y011389D01*
X020618Y011470D01*
X020700Y011551D01*
X020745Y011661D01*
X020745Y011779D01*
X020700Y011889D01*
X020618Y011970D01*
X020700Y012051D01*
X020745Y012161D01*
X020745Y012279D01*
X020700Y012389D01*
X020618Y012470D01*
X020700Y012551D01*
X020745Y012661D01*
X020745Y012779D01*
X020700Y012889D01*
X020618Y012970D01*
X020700Y013051D01*
X020745Y013161D01*
X020745Y013279D01*
X020700Y013389D01*
X020616Y013473D01*
X020506Y013518D01*
X020014Y013518D01*
X019904Y013473D01*
X019820Y013389D01*
X019775Y013279D01*
X019775Y013161D01*
X019820Y013051D01*
X019902Y012970D01*
X019820Y012889D01*
X019775Y012779D01*
X019775Y012661D01*
X019820Y012551D01*
X019902Y012470D01*
X019820Y012389D01*
X019775Y012279D01*
X019775Y012161D01*
X019820Y012051D01*
X019902Y011970D01*
X019820Y011889D01*
X019775Y011779D01*
X019775Y011661D01*
X019820Y011551D01*
X019902Y011470D01*
X019820Y011389D01*
X019775Y011279D01*
X019775Y011161D01*
X019820Y011051D01*
X019902Y010970D01*
X019820Y010889D01*
X019775Y010779D01*
X019775Y010661D01*
X019820Y010551D01*
X019904Y010467D01*
X020014Y010422D01*
X020506Y010422D01*
X020616Y010467D01*
X020700Y010551D01*
X020745Y010661D01*
X020745Y010779D01*
X020700Y010889D01*
X020618Y010970D01*
X020700Y011051D01*
X020703Y011059D01*
X020793Y011059D01*
X020899Y010953D01*
X020899Y010327D01*
X020833Y010261D01*
X020273Y010261D01*
X019953Y009941D01*
X017769Y009941D01*
X018541Y010713D01*
X018541Y010836D01*
X018596Y010942D01*
X018604Y010950D01*
X018610Y010963D01*
X018780Y010792D01*
X018775Y010779D01*
X018775Y010661D01*
X018820Y010551D01*
X018904Y010467D01*
X019014Y010422D01*
X019506Y010422D01*
X019616Y010467D01*
X019700Y010551D01*
X019745Y010661D01*
X019745Y010779D01*
X019700Y010889D01*
X019618Y010970D01*
X019700Y011051D01*
X019745Y011161D01*
X019745Y011279D01*
X019700Y011389D01*
X019618Y011470D01*
X019700Y011551D01*
X019745Y011661D01*
X019745Y011779D01*
X019700Y011889D01*
X019618Y011970D01*
X019700Y012051D01*
X019745Y012161D01*
X019745Y012279D01*
X019700Y012389D01*
X019618Y012470D01*
X019700Y012551D01*
X019745Y012661D01*
X019745Y012779D01*
X019700Y012889D01*
X019628Y012961D01*
X019648Y012975D01*
X019692Y013019D01*
X019727Y013070D01*
X019751Y013128D01*
X019763Y013189D01*
X019763Y013216D01*
X019264Y013216D01*
X019264Y013224D01*
X019256Y013224D01*
X019256Y013216D01*
X018757Y013216D01*
X018757Y013189D01*
X018769Y013128D01*
X018790Y013077D01*
X018727Y013141D01*
X018569Y013141D01*
X018581Y013153D01*
X018581Y014739D01*
X019224Y014739D01*
X019224Y014304D01*
X019289Y014239D01*
X020171Y014239D01*
X020236Y014304D01*
X020236Y014754D01*
X020452Y014754D01*
X020452Y014662D01*
X020517Y014597D01*
X021003Y014597D01*
X021068Y014662D01*
X021068Y015187D01*
X021003Y015252D01*
X020517Y015252D01*
X020452Y015187D01*
X020452Y015096D01*
X020236Y015096D01*
X020236Y015870D01*
X020287Y015645D01*
X020287Y015645D01*
X020476Y015408D01*
X020749Y015277D01*
X021051Y015277D01*
X021324Y015408D01*
X021324Y015408D01*
X021324Y015408D01*
X021513Y015645D01*
X021580Y015940D01*
X021513Y016235D01*
X021324Y016472D01*
X021051Y016603D01*
X020749Y016603D01*
X020476Y016472D01*
X020476Y016472D01*
X020476Y016472D01*
X020287Y016235D01*
X020220Y015940D01*
X020220Y015940D01*
X020228Y015904D01*
X020171Y015961D01*
X019289Y015961D01*
X019224Y015896D01*
X019224Y015061D01*
X018407Y015061D01*
X018197Y015271D01*
X017756Y015271D01*
X017756Y015451D01*
X017691Y015516D01*
X016809Y015516D01*
X016744Y015451D01*
X016744Y014769D01*
X016809Y014704D01*
X017691Y014704D01*
X017756Y014769D01*
X017756Y014949D01*
X018063Y014949D01*
X018179Y014833D01*
X018259Y014753D01*
X018259Y013287D01*
X018113Y013141D01*
X018111Y013141D01*
X018111Y013366D01*
X018046Y013431D01*
X017354Y013431D01*
X017289Y013366D01*
X017289Y012557D01*
X017032Y012300D01*
X017028Y012298D01*
X017025Y012293D01*
X017012Y012280D01*
X017007Y012277D01*
X017005Y012273D01*
X016979Y012247D01*
X016979Y012204D01*
X016924Y012098D01*
X016916Y012090D01*
X016900Y012052D01*
X016875Y012004D01*
X016874Y012003D01*
X016876Y011999D01*
X016877Y011996D01*
X016875Y011993D01*
X016875Y011887D01*
X016916Y011790D01*
X016990Y011716D01*
X017087Y011675D01*
X017193Y011675D01*
X017218Y011686D01*
X016753Y011221D01*
X014855Y011221D01*
X014890Y011236D01*
X014964Y011310D01*
X015005Y011407D01*
X015005Y011513D01*
X014964Y011610D01*
X014890Y011684D01*
X014793Y011725D01*
X014687Y011725D01*
X014684Y011723D01*
X014677Y011726D01*
X014628Y011700D01*
X014590Y011684D01*
X014582Y011676D01*
X014476Y011621D01*
X014327Y011621D01*
X014241Y011707D01*
X014209Y011807D01*
X014205Y011821D01*
X014205Y011833D01*
X014189Y011871D01*
X014172Y011923D01*
X014166Y011927D01*
X014164Y011930D01*
X014090Y012004D01*
X013993Y012045D01*
X013887Y012045D01*
X013790Y012004D01*
X013716Y011930D01*
X013675Y011833D01*
X013675Y011727D01*
X013716Y011630D01*
X013790Y011556D01*
X013793Y011554D01*
X013797Y011548D01*
X013849Y011531D01*
X013887Y011515D01*
X013899Y011515D01*
X013924Y011507D01*
X014013Y011479D01*
X014193Y011299D01*
X014476Y011299D01*
X014582Y011244D01*
X014590Y011236D01*
X014625Y011221D01*
X010972Y011221D01*
X010968Y011225D01*
X010915Y011222D01*
X010767Y011239D01*
X010753Y011245D01*
X010715Y011245D01*
X010666Y011251D01*
X010664Y011251D01*
X010663Y011249D01*
X010657Y011245D01*
X010647Y011245D01*
X010550Y011204D01*
X010476Y011130D01*
X010435Y011033D01*
X010435Y010927D01*
X010476Y010830D01*
X010550Y010756D01*
X010647Y010715D01*
X010753Y010715D01*
X010845Y010754D01*
X010853Y010754D01*
X010853Y010754D01*
X010860Y010762D01*
X010893Y010798D01*
X010924Y010830D01*
X010927Y010837D01*
X011409Y010837D01*
X011433Y010861D02*
X011233Y010661D01*
X010462Y010661D01*
X010407Y010723D01*
X010404Y010730D01*
X010373Y010762D01*
X010342Y010796D01*
X010333Y010806D01*
X010325Y010806D01*
X010233Y010845D01*
X010127Y010845D01*
X010030Y010804D01*
X009956Y010730D01*
X009915Y010633D01*
X009915Y010527D01*
X009956Y010430D01*
X009965Y010421D01*
X009804Y010421D01*
X009698Y010476D01*
X009690Y010484D01*
X009652Y010500D01*
X009603Y010526D01*
X009596Y010523D01*
X009593Y010525D01*
X009487Y010525D01*
X009428Y010500D01*
X010687Y011759D01*
X012287Y011759D01*
X012381Y011853D01*
X012381Y011853D01*
X013081Y012553D01*
X013189Y012595D01*
X013193Y012595D01*
X013232Y012611D01*
X013356Y012652D01*
X013363Y012649D01*
X013401Y012664D01*
X013509Y012664D01*
X013509Y012354D01*
X013574Y012289D01*
X014266Y012289D01*
X014331Y012354D01*
X014331Y012914D01*
X014335Y012914D01*
X014368Y012899D01*
X014375Y012901D01*
X014503Y012854D01*
X014547Y012835D01*
X014552Y012835D01*
X014580Y012825D01*
X014602Y012835D01*
X014653Y012835D01*
X014750Y012876D01*
X014824Y012950D01*
X014851Y013015D01*
X014851Y012900D01*
X015230Y012900D01*
X015230Y013429D01*
X014963Y013429D01*
X014930Y013420D01*
X014901Y013403D01*
X014877Y013379D01*
X014860Y013350D01*
X014851Y013317D01*
X014851Y013185D01*
X014824Y013250D01*
X014750Y013324D01*
X014653Y013365D01*
X014602Y013365D01*
X014580Y013375D01*
X014580Y013375D01*
X014580Y013375D01*
X014552Y013365D01*
X014547Y013365D01*
X014503Y013346D01*
X014486Y013340D01*
X014375Y013299D01*
X014368Y013301D01*
X014335Y013286D01*
X014331Y013286D01*
X014331Y013346D01*
X014266Y013411D01*
X013574Y013411D01*
X013509Y013346D01*
X013509Y013036D01*
X013410Y013036D01*
X013381Y013051D01*
X013374Y013048D01*
X013291Y013084D01*
X013290Y013084D01*
X013242Y013104D01*
X013223Y013112D01*
X013173Y013134D01*
X013173Y013134D01*
X013150Y013125D01*
X013087Y013125D01*
X012990Y013084D01*
X012916Y013010D01*
X012909Y012995D01*
X012899Y012989D01*
X012899Y012989D01*
X012888Y012943D01*
X012875Y012913D01*
X012875Y012892D01*
X012846Y012773D01*
X012153Y012081D01*
X010553Y012081D01*
X010459Y011987D01*
X010459Y011987D01*
X009141Y010669D01*
X009141Y012113D01*
X009287Y012259D01*
X012247Y012259D01*
X012581Y012593D01*
X012581Y013127D01*
X012568Y013140D01*
X012761Y013333D01*
X012761Y014030D01*
X013187Y014030D01*
X013252Y014095D01*
X013252Y015605D01*
X013187Y015670D01*
X011913Y015670D01*
X011848Y015605D01*
X011848Y014095D01*
X011913Y014030D01*
X012439Y014030D01*
X012439Y013467D01*
X012341Y013369D01*
X012341Y013441D01*
X012276Y013506D01*
X011672Y013506D01*
X011607Y013441D01*
X011607Y012759D01*
X011672Y012694D01*
X012226Y012694D01*
X012113Y012581D01*
X009153Y012581D01*
X009059Y012487D01*
X008913Y012341D01*
X008819Y012247D01*
X008819Y010995D01*
X008790Y011024D01*
X008693Y011065D01*
X008587Y011065D01*
X008564Y011055D01*
X008524Y011150D01*
X008450Y011224D01*
X008353Y011265D01*
X008247Y011265D01*
X008244Y011263D01*
X008237Y011266D01*
X008188Y011240D01*
X008150Y011224D01*
X008142Y011216D01*
X008036Y011161D01*
X007990Y011161D01*
X007969Y011227D01*
X007965Y011241D01*
X007965Y011253D01*
X007949Y011291D01*
X007932Y011343D01*
X007926Y011347D01*
X007924Y011350D01*
X007850Y011424D01*
X007753Y011465D01*
X007712Y011465D01*
X008487Y012239D01*
X008601Y012275D01*
X008613Y012275D01*
X008651Y012291D01*
X008652Y012291D01*
X008703Y012308D01*
X008703Y012308D01*
X008703Y012308D01*
X008707Y012314D01*
X008886Y012314D01*
X008913Y012341D02*
X008913Y012341D01*
X008985Y012413D02*
X008794Y012413D01*
X008784Y012390D02*
X008825Y012487D01*
X008825Y012593D01*
X008797Y012659D01*
X010567Y012659D01*
X010661Y012753D01*
X010661Y012753D01*
X010847Y012939D01*
X010859Y012939D01*
X010859Y012759D01*
X010924Y012694D01*
X011528Y012694D01*
X011593Y012759D01*
X011593Y013441D01*
X011528Y013506D01*
X010924Y013506D01*
X010859Y013441D01*
X010859Y013329D01*
X010821Y013367D01*
X010821Y013935D01*
X011587Y013935D01*
X011652Y014000D01*
X011652Y015700D01*
X011587Y015765D01*
X010313Y015765D01*
X010248Y015700D01*
X010248Y014000D01*
X010313Y013935D01*
X010499Y013935D01*
X010499Y013233D01*
X010592Y013140D01*
X010433Y012981D01*
X009844Y012981D01*
X010050Y013186D01*
X010096Y013215D01*
X010098Y013222D01*
X010187Y013285D01*
X010189Y013287D01*
X010210Y013296D01*
X010231Y013317D01*
X010276Y013349D01*
X010276Y013349D01*
X010276Y013349D01*
X010279Y013364D01*
X010284Y013370D01*
X010325Y013467D01*
X010325Y013573D01*
X010284Y013670D01*
X010210Y013744D01*
X010113Y013785D01*
X010007Y013785D01*
X009966Y013768D01*
X009966Y014177D01*
X009806Y014337D01*
X009697Y014446D01*
X009377Y014446D01*
X009286Y014537D01*
X009286Y014676D01*
X009321Y014691D01*
X009430Y014800D01*
X009490Y014944D01*
X009490Y015656D01*
X009430Y015800D01*
X009321Y015909D01*
X009178Y015969D01*
X009022Y015969D01*
X009003Y015960D01*
X008786Y016177D01*
X008677Y016286D01*
X005865Y016286D01*
X005832Y016301D01*
X005825Y016299D01*
X005697Y016346D01*
X005620Y016375D02*
X005620Y016375D01*
X005620Y016375D01*
X005518Y016353D02*
X000327Y016353D01*
X000327Y016451D02*
X015539Y016451D01*
X015615Y016550D02*
X000327Y016550D01*
X000327Y016254D02*
X005380Y016254D01*
X005336Y016156D02*
X000327Y016156D01*
X000327Y016057D02*
X005335Y016057D01*
X005372Y015959D02*
X000327Y015959D01*
X000327Y015860D02*
X005487Y015860D01*
X005714Y015860D02*
X006830Y015860D01*
X006754Y015762D02*
X000327Y015762D01*
X000327Y015663D02*
X006713Y015663D01*
X006710Y015565D02*
X000327Y015565D01*
X000327Y015466D02*
X006710Y015466D01*
X006710Y015368D02*
X000327Y015368D01*
X000327Y015269D02*
X006710Y015269D01*
X006710Y015171D02*
X000327Y015171D01*
X000327Y015072D02*
X006710Y015072D01*
X006710Y014974D02*
X000327Y014974D01*
X000327Y014875D02*
X006739Y014875D01*
X006794Y014777D02*
X000327Y014777D01*
X000327Y014678D02*
X006874Y014678D01*
X006862Y014580D02*
X000327Y014580D01*
X000327Y014481D02*
X006830Y014481D01*
X006839Y014505D02*
X006839Y014505D01*
X006793Y014383D02*
X000327Y014383D01*
X000327Y014284D02*
X006797Y014284D01*
X006785Y014360D02*
X006785Y014360D01*
X006785Y014360D01*
X006840Y014186D02*
X000327Y014186D01*
X000327Y014087D02*
X006979Y014087D01*
X007071Y013989D02*
X007154Y013989D01*
X007141Y014087D02*
X009210Y014087D01*
X009111Y014186D02*
X007280Y014186D01*
X007323Y014284D02*
X009013Y014284D01*
X008914Y014383D02*
X007327Y014383D01*
X007335Y014360D02*
X007335Y014360D01*
X007290Y014481D02*
X008914Y014481D01*
X008914Y014580D02*
X007258Y014580D01*
X007290Y014678D02*
X007879Y014678D01*
X007886Y014673D02*
X007944Y014644D01*
X008005Y014624D01*
X008050Y014617D01*
X008050Y015250D01*
X007693Y015250D01*
X007693Y014989D01*
X007703Y014926D01*
X007722Y014865D01*
X007751Y014808D01*
X007789Y014756D01*
X007835Y014710D01*
X007886Y014673D01*
X007774Y014777D02*
X007406Y014777D01*
X007461Y014875D02*
X007719Y014875D01*
X007695Y014974D02*
X007490Y014974D01*
X007490Y015072D02*
X007693Y015072D01*
X007693Y015171D02*
X007490Y015171D01*
X007490Y015269D02*
X008050Y015269D01*
X008050Y015171D02*
X008150Y015171D01*
X008150Y015250D02*
X008150Y014617D01*
X008195Y014624D01*
X008256Y014644D01*
X008314Y014673D01*
X008365Y014710D01*
X008411Y014756D01*
X008449Y014808D01*
X008478Y014865D01*
X008497Y014926D01*
X008507Y014989D01*
X008507Y015250D01*
X008150Y015250D01*
X008150Y015269D02*
X008710Y015269D01*
X008710Y015171D02*
X008507Y015171D01*
X008507Y015072D02*
X008710Y015072D01*
X008710Y014974D02*
X008505Y014974D01*
X008481Y014875D02*
X008739Y014875D01*
X008794Y014777D02*
X008426Y014777D01*
X008321Y014678D02*
X008910Y014678D01*
X009290Y014678D02*
X010248Y014678D01*
X010248Y014580D02*
X009286Y014580D01*
X009342Y014481D02*
X010248Y014481D01*
X010248Y014383D02*
X009761Y014383D01*
X009859Y014284D02*
X010248Y014284D01*
X010248Y014186D02*
X009958Y014186D01*
X009966Y014087D02*
X010248Y014087D01*
X010260Y013989D02*
X009966Y013989D01*
X009966Y013890D02*
X010499Y013890D01*
X010499Y013792D02*
X009966Y013792D01*
X010261Y013693D02*
X010499Y013693D01*
X010499Y013595D02*
X010316Y013595D01*
X010325Y013496D02*
X010499Y013496D01*
X010499Y013398D02*
X010296Y013398D01*
X010213Y013299D02*
X010499Y013299D01*
X010532Y013201D02*
X010073Y013201D01*
X009965Y013102D02*
X010554Y013102D01*
X010456Y013004D02*
X009867Y013004D01*
X010500Y012820D02*
X010780Y013100D01*
X010860Y013100D01*
X010660Y013300D01*
X010660Y014260D01*
X010821Y013890D02*
X012439Y013890D01*
X012439Y013792D02*
X010821Y013792D01*
X010821Y013693D02*
X012439Y013693D01*
X012439Y013595D02*
X010821Y013595D01*
X010821Y013496D02*
X010914Y013496D01*
X010859Y013398D02*
X010821Y013398D01*
X010860Y013100D02*
X011226Y013100D01*
X011593Y013102D02*
X011607Y013102D01*
X011593Y013004D02*
X011607Y013004D01*
X011593Y012905D02*
X011607Y012905D01*
X011593Y012807D02*
X011607Y012807D01*
X011658Y012708D02*
X011542Y012708D01*
X012142Y012610D02*
X008818Y012610D01*
X008825Y012511D02*
X009083Y012511D01*
X009220Y012420D02*
X012180Y012420D01*
X012420Y012660D01*
X012420Y013060D01*
X012340Y013140D01*
X011975Y013140D01*
X012340Y013140D02*
X012600Y013400D01*
X012600Y014600D01*
X012550Y014850D01*
X013252Y014875D02*
X014100Y014875D01*
X014100Y014900D02*
X014100Y014800D01*
X014200Y014800D01*
X014200Y014900D01*
X014100Y014900D01*
X014100Y015687D01*
X013543Y015687D01*
X013510Y015679D01*
X013480Y015662D01*
X013456Y015638D01*
X013439Y015608D01*
X013431Y015576D01*
X013431Y014900D01*
X014100Y014900D01*
X014100Y014974D02*
X014200Y014974D01*
X014200Y014900D02*
X014200Y015687D01*
X014757Y015687D01*
X014790Y015679D01*
X014820Y015662D01*
X014844Y015638D01*
X014861Y015608D01*
X014869Y015576D01*
X014869Y014900D01*
X014200Y014900D01*
X014200Y014875D02*
X015048Y014875D01*
X015048Y014777D02*
X014869Y014777D01*
X014869Y014800D02*
X014200Y014800D01*
X014200Y014013D01*
X014757Y014013D01*
X014790Y014021D01*
X014820Y014038D01*
X014844Y014062D01*
X014861Y014092D01*
X014869Y014124D01*
X014869Y014800D01*
X014869Y014678D02*
X015048Y014678D01*
X015048Y014580D02*
X014869Y014580D01*
X014869Y014481D02*
X015048Y014481D01*
X015048Y014383D02*
X014869Y014383D01*
X014869Y014284D02*
X015048Y014284D01*
X015048Y014186D02*
X014869Y014186D01*
X014858Y014087D02*
X015057Y014087D01*
X014200Y014087D02*
X014100Y014087D01*
X014100Y014013D02*
X014100Y014800D01*
X013431Y014800D01*
X013431Y014124D01*
X013439Y014092D01*
X013456Y014062D01*
X013480Y014038D01*
X013510Y014021D01*
X013543Y014013D01*
X014100Y014013D01*
X014100Y014186D02*
X014200Y014186D01*
X014200Y014284D02*
X014100Y014284D01*
X014100Y014383D02*
X014200Y014383D01*
X014200Y014481D02*
X014100Y014481D01*
X014100Y014580D02*
X014200Y014580D01*
X014200Y014678D02*
X014100Y014678D01*
X014100Y014777D02*
X014200Y014777D01*
X014200Y015072D02*
X014100Y015072D01*
X014100Y015171D02*
X014200Y015171D01*
X014200Y015269D02*
X014100Y015269D01*
X014100Y015368D02*
X014200Y015368D01*
X014200Y015466D02*
X014100Y015466D01*
X014100Y015565D02*
X014200Y015565D01*
X014200Y015663D02*
X014100Y015663D01*
X014372Y015959D02*
X009202Y015959D01*
X009370Y015860D02*
X014487Y015860D01*
X014675Y015762D02*
X011590Y015762D01*
X011652Y015663D02*
X011907Y015663D01*
X011848Y015565D02*
X011652Y015565D01*
X011652Y015466D02*
X011848Y015466D01*
X011848Y015368D02*
X011652Y015368D01*
X011652Y015269D02*
X011848Y015269D01*
X011848Y015171D02*
X011652Y015171D01*
X011652Y015072D02*
X011848Y015072D01*
X011848Y014974D02*
X011652Y014974D01*
X011652Y014875D02*
X011848Y014875D01*
X011848Y014777D02*
X011652Y014777D01*
X011652Y014678D02*
X011848Y014678D01*
X011848Y014580D02*
X011652Y014580D01*
X011652Y014481D02*
X011848Y014481D01*
X011848Y014383D02*
X011652Y014383D01*
X011652Y014284D02*
X011848Y014284D01*
X011848Y014186D02*
X011652Y014186D01*
X011652Y014087D02*
X011857Y014087D01*
X011640Y013989D02*
X012439Y013989D01*
X012761Y013989D02*
X016726Y013989D01*
X016726Y013898D02*
X016735Y013865D01*
X016752Y013836D01*
X016776Y013812D01*
X016805Y013795D01*
X016838Y013786D01*
X017200Y013786D01*
X017200Y014160D01*
X017300Y014160D01*
X017300Y014260D01*
X017200Y014260D01*
X017200Y014634D01*
X016838Y014634D01*
X016805Y014625D01*
X016776Y014608D01*
X016752Y014584D01*
X016735Y014555D01*
X016726Y014522D01*
X016726Y014260D01*
X017200Y014260D01*
X017200Y014160D01*
X016726Y014160D01*
X016726Y013898D01*
X016728Y013890D02*
X012761Y013890D01*
X012761Y013792D02*
X016818Y013792D01*
X016726Y014087D02*
X016443Y014087D01*
X016452Y014186D02*
X017200Y014186D01*
X017200Y014284D02*
X017300Y014284D01*
X017300Y014260D02*
X017300Y014634D01*
X017662Y014634D01*
X017695Y014625D01*
X017724Y014608D01*
X017748Y014584D01*
X017765Y014555D01*
X017774Y014522D01*
X017774Y014260D01*
X017300Y014260D01*
X017300Y014186D02*
X018259Y014186D01*
X018259Y014284D02*
X017774Y014284D01*
X017774Y014383D02*
X018259Y014383D01*
X018259Y014481D02*
X017774Y014481D01*
X017751Y014580D02*
X018259Y014580D01*
X018259Y014678D02*
X016452Y014678D01*
X016452Y014580D02*
X016749Y014580D01*
X016726Y014481D02*
X016452Y014481D01*
X016452Y014383D02*
X016726Y014383D01*
X016726Y014284D02*
X016452Y014284D01*
X016452Y014777D02*
X016744Y014777D01*
X016744Y014875D02*
X016452Y014875D01*
X016452Y014974D02*
X016744Y014974D01*
X016744Y015072D02*
X016452Y015072D01*
X016452Y015171D02*
X016744Y015171D01*
X016744Y015269D02*
X016452Y015269D01*
X016452Y015368D02*
X016744Y015368D01*
X016759Y015466D02*
X016452Y015466D01*
X016452Y015565D02*
X019224Y015565D01*
X019224Y015663D02*
X017750Y015663D01*
X017756Y015669D02*
X017756Y016351D01*
X017691Y016416D01*
X016809Y016416D01*
X016744Y016351D01*
X016744Y016181D01*
X016724Y016181D01*
X016652Y016221D01*
X016641Y016232D01*
X016609Y016245D01*
X016560Y016273D01*
X016560Y016273D01*
X016549Y016270D01*
X016450Y016270D01*
X016359Y016232D01*
X016288Y016161D01*
X016250Y016070D01*
X016250Y015970D01*
X016288Y015879D01*
X016359Y015808D01*
X016450Y015770D01*
X016512Y015770D01*
X016531Y015762D01*
X016578Y015782D01*
X016596Y015790D01*
X016641Y015808D01*
X016642Y015809D01*
X016662Y015817D01*
X016662Y015817D01*
X016714Y015839D01*
X016744Y015839D01*
X016744Y015669D01*
X016809Y015604D01*
X017691Y015604D01*
X017756Y015669D01*
X017756Y015762D02*
X019224Y015762D01*
X019224Y015860D02*
X017756Y015860D01*
X017756Y015959D02*
X019287Y015959D01*
X019224Y015466D02*
X017741Y015466D01*
X017756Y015368D02*
X019224Y015368D01*
X019224Y015269D02*
X018199Y015269D01*
X018297Y015171D02*
X019224Y015171D01*
X019224Y015072D02*
X018396Y015072D01*
X018420Y014900D02*
X018420Y013220D01*
X018180Y012980D01*
X017810Y012980D01*
X017700Y012870D01*
X017620Y012660D02*
X017140Y012180D01*
X017140Y012165D01*
X017232Y011988D01*
X017140Y011940D01*
X017048Y011988D01*
X017140Y012165D01*
X017140Y011940D01*
X016902Y011822D02*
X014205Y011822D01*
X014173Y011920D02*
X016875Y011920D01*
X016882Y012019D02*
X014056Y012019D01*
X014039Y011811D02*
X013940Y011780D01*
X013909Y011681D01*
X014099Y011621D01*
X014039Y011811D01*
X013940Y011780D02*
X014099Y011621D01*
X014260Y011460D01*
X014515Y011460D01*
X014692Y011552D01*
X014740Y011460D01*
X014692Y011368D01*
X014515Y011460D01*
X014740Y011460D01*
X014950Y011625D02*
X017157Y011625D01*
X017058Y011526D02*
X014999Y011526D01*
X015005Y011428D02*
X016960Y011428D01*
X016861Y011329D02*
X014972Y011329D01*
X014878Y011231D02*
X016763Y011231D01*
X016820Y011060D02*
X018221Y012461D01*
X018281Y012651D01*
X018380Y012620D01*
X018411Y012521D01*
X018221Y012461D01*
X018380Y012620D01*
X018180Y012980D02*
X018660Y012980D01*
X018740Y012900D01*
X018740Y011060D01*
X019080Y010720D01*
X019260Y010720D01*
X019653Y010935D02*
X019867Y010935D01*
X019838Y011034D02*
X019682Y011034D01*
X019733Y011132D02*
X019787Y011132D01*
X019775Y011231D02*
X019745Y011231D01*
X019724Y011329D02*
X019796Y011329D01*
X019859Y011428D02*
X019661Y011428D01*
X019675Y011526D02*
X019845Y011526D01*
X019790Y011625D02*
X019730Y011625D01*
X019745Y011723D02*
X019775Y011723D01*
X019792Y011822D02*
X019728Y011822D01*
X019668Y011920D02*
X019852Y011920D01*
X019853Y012019D02*
X019667Y012019D01*
X019727Y012117D02*
X019793Y012117D01*
X019775Y012216D02*
X019745Y012216D01*
X019731Y012314D02*
X019789Y012314D01*
X019844Y012413D02*
X019676Y012413D01*
X019660Y012511D02*
X019860Y012511D01*
X019796Y012610D02*
X019724Y012610D01*
X019745Y012708D02*
X019775Y012708D01*
X019786Y012807D02*
X019734Y012807D01*
X019683Y012905D02*
X019837Y012905D01*
X019868Y013004D02*
X019677Y013004D01*
X019740Y013102D02*
X019799Y013102D01*
X019775Y013201D02*
X019763Y013201D01*
X019763Y013224D02*
X019763Y013251D01*
X019751Y013312D01*
X019727Y013370D01*
X019692Y013421D01*
X019648Y013465D01*
X019597Y013500D01*
X019539Y013524D01*
X019478Y013536D01*
X019264Y013536D01*
X019264Y013224D01*
X019763Y013224D01*
X019753Y013299D02*
X019783Y013299D01*
X019829Y013398D02*
X019708Y013398D01*
X019602Y013496D02*
X019961Y013496D01*
X019976Y013689D02*
X019930Y013698D01*
X019860Y013694D01*
X019836Y013693D01*
X019830Y013690D01*
X019787Y013690D01*
X019727Y013687D01*
X019718Y013696D01*
X019639Y013728D01*
X019568Y013799D01*
X019530Y013890D01*
X018581Y013890D01*
X018581Y013792D02*
X019575Y013792D01*
X019530Y013890D02*
X019530Y013990D01*
X019568Y014081D01*
X019639Y014152D01*
X019730Y014190D01*
X019830Y014190D01*
X019921Y014152D01*
X019935Y014138D01*
X019950Y014135D01*
X019950Y014135D01*
X019970Y014105D01*
X019973Y014100D01*
X019992Y014081D01*
X020001Y014059D01*
X020027Y014021D01*
X020452Y014021D01*
X020452Y014518D01*
X020517Y014583D01*
X021003Y014583D01*
X021068Y014518D01*
X021068Y013993D01*
X021003Y013928D01*
X020901Y013928D01*
X020901Y013873D01*
X020821Y013793D01*
X020727Y013699D01*
X019991Y013699D01*
X019976Y013689D01*
X019982Y013693D02*
X021700Y013693D01*
X021700Y013595D02*
X018581Y013595D01*
X018581Y013693D02*
X019720Y013693D01*
X019838Y013693D02*
X019957Y013693D01*
X019941Y013860D02*
X019785Y013851D01*
X019780Y013940D01*
X019854Y013990D01*
X019941Y013860D01*
X019860Y013860D01*
X019780Y013940D01*
X019941Y013860D02*
X020660Y013860D01*
X020740Y013940D01*
X020740Y014235D01*
X020452Y014284D02*
X020216Y014284D01*
X020236Y014383D02*
X020452Y014383D01*
X020452Y014481D02*
X020236Y014481D01*
X020236Y014580D02*
X020514Y014580D01*
X020452Y014678D02*
X020236Y014678D01*
X021006Y014580D02*
X021700Y014580D01*
X021700Y014678D02*
X021068Y014678D01*
X021068Y014777D02*
X021700Y014777D01*
X021700Y014875D02*
X021068Y014875D01*
X021068Y014974D02*
X021700Y014974D01*
X021700Y015072D02*
X021068Y015072D01*
X021068Y015171D02*
X021700Y015171D01*
X021700Y015269D02*
X020236Y015269D01*
X020236Y015171D02*
X020452Y015171D01*
X020561Y015368D02*
X020236Y015368D01*
X020236Y015466D02*
X020430Y015466D01*
X020476Y015408D02*
X020476Y015408D01*
X020351Y015565D02*
X020236Y015565D01*
X020236Y015663D02*
X020283Y015663D01*
X020261Y015762D02*
X020236Y015762D01*
X020236Y015860D02*
X020238Y015860D01*
X020224Y015959D02*
X020173Y015959D01*
X020247Y016057D02*
X017756Y016057D01*
X017756Y016156D02*
X020269Y016156D01*
X020287Y016235D02*
X020287Y016235D01*
X020302Y016254D02*
X017756Y016254D01*
X017754Y016353D02*
X020381Y016353D01*
X020460Y016451D02*
X016021Y016451D01*
X016045Y016353D02*
X016746Y016353D01*
X016744Y016254D02*
X016593Y016254D01*
X016560Y016273D02*
X016560Y016273D01*
X016412Y016254D02*
X016031Y016254D01*
X015994Y016156D02*
X016286Y016156D01*
X016250Y016057D02*
X015966Y016057D01*
X015966Y015959D02*
X016255Y015959D01*
X016307Y015860D02*
X015966Y015860D01*
X015966Y015762D02*
X016744Y015762D01*
X016750Y015663D02*
X016393Y015663D01*
X016531Y015762D02*
X016531Y015762D01*
X017250Y015110D02*
X018130Y015110D01*
X018340Y014900D01*
X018420Y014900D01*
X019530Y014900D01*
X019224Y014678D02*
X018581Y014678D01*
X018581Y014580D02*
X019224Y014580D01*
X019224Y014481D02*
X018581Y014481D01*
X018581Y014383D02*
X019224Y014383D01*
X019244Y014284D02*
X018581Y014284D01*
X018581Y014186D02*
X019720Y014186D01*
X019840Y014186D02*
X020452Y014186D01*
X020452Y014087D02*
X019986Y014087D01*
X019950Y014135D02*
X019950Y014135D01*
X019574Y014087D02*
X018581Y014087D01*
X018581Y013989D02*
X019530Y013989D01*
X019256Y013536D02*
X019042Y013536D01*
X018981Y013524D01*
X018923Y013500D01*
X018872Y013465D01*
X018828Y013421D01*
X018793Y013370D01*
X018769Y013312D01*
X018757Y013251D01*
X018757Y013224D01*
X019256Y013224D01*
X019256Y013536D01*
X019256Y013496D02*
X019264Y013496D01*
X019256Y013398D02*
X019264Y013398D01*
X019256Y013299D02*
X019264Y013299D01*
X018918Y013496D02*
X018581Y013496D01*
X018581Y013398D02*
X018812Y013398D01*
X018767Y013299D02*
X018581Y013299D01*
X018581Y013201D02*
X018757Y013201D01*
X018766Y013102D02*
X018780Y013102D01*
X018259Y013299D02*
X018111Y013299D01*
X018111Y013201D02*
X018173Y013201D01*
X018259Y013398D02*
X018079Y013398D01*
X018259Y013496D02*
X012761Y013496D01*
X012761Y013398D02*
X013561Y013398D01*
X013509Y013299D02*
X012727Y013299D01*
X012628Y013201D02*
X013509Y013201D01*
X013509Y013102D02*
X013248Y013102D01*
X013173Y013134D02*
X013173Y013134D01*
X013032Y013102D02*
X012581Y013102D01*
X012581Y013004D02*
X012913Y013004D01*
X012899Y012989D02*
X012899Y012989D01*
X012875Y012905D02*
X012581Y012905D01*
X012581Y012807D02*
X012854Y012807D01*
X012780Y012708D02*
X012581Y012708D01*
X012581Y012610D02*
X012682Y012610D01*
X012583Y012511D02*
X012499Y012511D01*
X012485Y012413D02*
X012400Y012413D01*
X012386Y012314D02*
X012302Y012314D01*
X012288Y012216D02*
X009243Y012216D01*
X009145Y012117D02*
X012189Y012117D01*
X012220Y011920D02*
X010620Y011920D01*
X008919Y010219D01*
X008859Y010029D01*
X008760Y010060D01*
X008729Y010159D01*
X008919Y010219D01*
X008760Y010060D01*
X008594Y009852D02*
X008581Y009852D01*
X008595Y009753D02*
X008899Y009753D01*
X008899Y009655D02*
X008693Y009655D01*
X008792Y009556D02*
X008896Y009556D01*
X008892Y009458D02*
X008821Y009458D01*
X008885Y009397D02*
X008885Y009397D01*
X008878Y009359D02*
X008821Y009359D01*
X008821Y009261D02*
X008872Y009261D01*
X008869Y009264D02*
X008869Y009264D01*
X008869Y009264D01*
X008911Y009162D02*
X008821Y009162D01*
X008821Y009064D02*
X009019Y009064D01*
X008821Y008965D02*
X009669Y008965D01*
X009635Y009064D02*
X009261Y009064D01*
X009369Y009162D02*
X009639Y009162D01*
X009686Y009261D02*
X009405Y009261D01*
X009402Y009359D02*
X009833Y009359D01*
X010030Y009458D02*
X009568Y009458D01*
X009508Y009608D02*
X009460Y009700D01*
X009508Y009792D01*
X009685Y009700D01*
X009508Y009608D01*
X009460Y009700D02*
X009685Y009700D01*
X009940Y009700D01*
X010020Y009780D01*
X020020Y009780D01*
X020340Y010100D01*
X020900Y010100D01*
X021060Y010260D01*
X021060Y011020D01*
X020860Y011220D01*
X020260Y011220D01*
X020661Y011428D02*
X021259Y011428D01*
X021259Y011526D02*
X020675Y011526D01*
X020730Y011625D02*
X021259Y011625D01*
X021259Y011723D02*
X020745Y011723D01*
X020728Y011822D02*
X021259Y011822D01*
X021259Y011920D02*
X020668Y011920D01*
X020667Y012019D02*
X021259Y012019D01*
X021259Y012117D02*
X020727Y012117D01*
X020745Y012216D02*
X021259Y012216D01*
X021259Y012314D02*
X020731Y012314D01*
X020676Y012413D02*
X020853Y012413D01*
X020836Y012430D02*
X020910Y012356D01*
X021007Y012315D01*
X021113Y012315D01*
X021116Y012317D01*
X021119Y012316D01*
X021123Y012314D01*
X021124Y012315D01*
X021172Y012340D01*
X021210Y012356D01*
X021218Y012364D01*
X021259Y012385D01*
X021259Y009647D01*
X021245Y009632D01*
X021245Y009673D01*
X021204Y009770D01*
X021130Y009844D01*
X021033Y009885D01*
X020927Y009885D01*
X020830Y009844D01*
X020757Y009771D01*
X020724Y009850D01*
X020650Y009924D01*
X020615Y009939D01*
X020723Y009852D02*
X020847Y009852D01*
X020978Y009950D02*
X021259Y009950D01*
X021259Y009852D02*
X021113Y009852D01*
X021211Y009753D02*
X021259Y009753D01*
X021245Y009655D02*
X021259Y009655D01*
X021420Y009580D02*
X021020Y009180D01*
X011220Y009180D01*
X011219Y008965D02*
X016598Y008965D01*
X016621Y008473D02*
X012055Y008473D01*
X012134Y008374D02*
X016595Y008374D01*
X016601Y008276D02*
X012232Y008276D01*
X012331Y008177D02*
X016642Y008177D01*
X016696Y008079D02*
X012429Y008079D01*
X012528Y007980D02*
X016624Y007980D01*
X016595Y007882D02*
X015986Y007882D01*
X016085Y007783D02*
X016598Y007783D01*
X016638Y007685D02*
X016183Y007685D01*
X016282Y007586D02*
X016704Y007586D01*
X016627Y007488D02*
X016380Y007488D01*
X016479Y007389D02*
X016595Y007389D01*
X016595Y007291D02*
X016577Y007291D01*
X016581Y007192D02*
X016635Y007192D01*
X016581Y007094D02*
X016711Y007094D01*
X016630Y006995D02*
X016581Y006995D01*
X016581Y006897D02*
X016595Y006897D01*
X016581Y006798D02*
X016595Y006798D01*
X016581Y006700D02*
X016632Y006700D01*
X016581Y006601D02*
X016717Y006601D01*
X016633Y006503D02*
X016581Y006503D01*
X016581Y006404D02*
X016595Y006404D01*
X016581Y006306D02*
X016595Y006306D01*
X016581Y006207D02*
X016629Y006207D01*
X016581Y006109D02*
X016709Y006109D01*
X016636Y006010D02*
X016581Y006010D01*
X016581Y005912D02*
X016595Y005912D01*
X016581Y005813D02*
X016595Y005813D01*
X016581Y005715D02*
X016626Y005715D01*
X016581Y005616D02*
X016702Y005616D01*
X016639Y005518D02*
X016581Y005518D01*
X016581Y005419D02*
X016598Y005419D01*
X016595Y005321D02*
X016581Y005321D01*
X016581Y005222D02*
X016623Y005222D01*
X016581Y005124D02*
X016694Y005124D01*
X016643Y005025D02*
X016581Y005025D01*
X016581Y004927D02*
X016602Y004927D01*
X016595Y004828D02*
X016581Y004828D01*
X016581Y004730D02*
X016620Y004730D01*
X016581Y004631D02*
X016687Y004631D01*
X016650Y004533D02*
X016581Y004533D01*
X016581Y004434D02*
X016605Y004434D01*
X016595Y004336D02*
X016581Y004336D01*
X016581Y004237D02*
X016617Y004237D01*
X016581Y004139D02*
X016679Y004139D01*
X016658Y004040D02*
X016581Y004040D01*
X016581Y003942D02*
X016608Y003942D01*
X016595Y003843D02*
X016581Y003843D01*
X016581Y003745D02*
X016614Y003745D01*
X016581Y003646D02*
X016672Y003646D01*
X016665Y003548D02*
X016581Y003548D01*
X018100Y002850D02*
X018630Y002850D01*
X018820Y002660D01*
X018820Y001540D01*
X019870Y001972D02*
X020384Y001972D01*
X020482Y002070D02*
X020011Y002070D01*
X020080Y002169D02*
X020581Y002169D01*
X020679Y002267D02*
X020121Y002267D01*
X020121Y002366D02*
X020778Y002366D01*
X020851Y002464D02*
X020108Y002464D01*
X020067Y002563D02*
X020879Y002563D01*
X020927Y002661D02*
X019980Y002661D01*
X020450Y004850D02*
X020820Y005220D01*
X020820Y006275D01*
X020728Y006452D01*
X020820Y006500D01*
X020912Y006452D01*
X020820Y006275D01*
X020820Y006500D01*
X020575Y006601D02*
X018483Y006601D01*
X018567Y006503D02*
X020555Y006503D01*
X020554Y006437D02*
X020554Y006437D01*
X020554Y006437D01*
X020571Y006404D02*
X018605Y006404D01*
X018605Y006306D02*
X020623Y006306D01*
X020580Y006388D02*
X020580Y006388D01*
X020659Y006207D02*
X018571Y006207D01*
X018491Y006109D02*
X020659Y006109D01*
X020659Y006010D02*
X018564Y006010D01*
X018605Y005912D02*
X020659Y005912D01*
X020659Y005813D02*
X018605Y005813D01*
X018574Y005715D02*
X020659Y005715D01*
X020659Y005616D02*
X018498Y005616D01*
X018561Y005518D02*
X020659Y005518D01*
X020659Y005419D02*
X018602Y005419D01*
X018605Y005321D02*
X020659Y005321D01*
X020594Y005222D02*
X018577Y005222D01*
X018506Y005124D02*
X020496Y005124D01*
X020397Y005025D02*
X018557Y005025D01*
X016259Y005616D02*
X016252Y005616D01*
X016259Y005715D02*
X016153Y005715D01*
X016055Y005813D02*
X016259Y005813D01*
X016259Y005912D02*
X015956Y005912D01*
X015858Y006010D02*
X016259Y006010D01*
X016259Y006109D02*
X015759Y006109D01*
X015661Y006207D02*
X016259Y006207D01*
X016259Y006306D02*
X015562Y006306D01*
X015501Y006367D02*
X015501Y006367D01*
X015464Y006404D02*
X016259Y006404D01*
X016259Y006503D02*
X013554Y006503D01*
X013565Y006601D02*
X016259Y006601D01*
X016259Y006700D02*
X013537Y006700D01*
X013456Y006798D02*
X016259Y006798D01*
X016259Y006897D02*
X012990Y006897D01*
X012971Y006995D02*
X016259Y006995D01*
X016259Y007094D02*
X013548Y007094D01*
X013622Y007192D02*
X016220Y007192D01*
X016122Y007291D02*
X013645Y007291D01*
X013630Y007389D02*
X016023Y007389D01*
X015925Y007488D02*
X013567Y007488D01*
X013332Y007392D02*
X013155Y007300D01*
X013332Y007208D01*
X013380Y007300D01*
X013332Y007392D01*
X013380Y007300D02*
X013155Y007300D01*
X008500Y007300D01*
X008380Y007420D01*
X008380Y009420D01*
X007460Y010340D01*
X001460Y010340D01*
X001220Y010100D01*
X001220Y009220D01*
X001320Y009120D01*
X001860Y009120D01*
X001860Y008620D02*
X001840Y008600D01*
X001120Y008600D01*
X000900Y008820D01*
X000900Y010100D01*
X001380Y010580D01*
X006260Y010580D01*
X007700Y012020D01*
X007700Y012340D01*
X007701Y012341D01*
X007761Y012531D01*
X007860Y012500D01*
X007891Y012401D01*
X007701Y012341D01*
X007860Y012500D01*
X007617Y012610D02*
X001517Y012610D01*
X001419Y012511D02*
X006748Y012511D01*
X006900Y012600D02*
X006900Y012600D01*
X006900Y012600D01*
X007183Y012511D02*
X007586Y012511D01*
X007545Y012413D02*
X007237Y012413D01*
X007245Y012314D02*
X007533Y012314D01*
X007539Y012216D02*
X007215Y012216D01*
X007131Y012117D02*
X007539Y012117D01*
X007471Y012019D02*
X001672Y012019D01*
X001771Y012117D02*
X006829Y012117D01*
X006900Y012080D02*
X006900Y012080D01*
X007175Y011723D02*
X001377Y011723D01*
X001475Y011822D02*
X007274Y011822D01*
X007372Y011920D02*
X001574Y011920D01*
X001343Y012117D02*
X001171Y012117D01*
X001245Y012019D02*
X000327Y012019D01*
X000327Y012117D02*
X000869Y012117D01*
X000785Y012216D02*
X000327Y012216D01*
X000327Y012314D02*
X000755Y012314D01*
X000763Y012413D02*
X000327Y012413D01*
X000327Y012511D02*
X000817Y012511D01*
X000989Y012439D02*
X001020Y012340D01*
X001119Y012309D01*
X001179Y012499D01*
X000989Y012439D01*
X001020Y012340D02*
X001179Y012499D01*
X001500Y012820D01*
X010500Y012820D01*
X010616Y012708D02*
X010910Y012708D01*
X010859Y012807D02*
X010714Y012807D01*
X010813Y012905D02*
X010859Y012905D01*
X011593Y013201D02*
X011607Y013201D01*
X011593Y013299D02*
X011607Y013299D01*
X011593Y013398D02*
X011607Y013398D01*
X011662Y013496D02*
X011538Y013496D01*
X012286Y013496D02*
X012439Y013496D01*
X012370Y013398D02*
X012341Y013398D01*
X012761Y013595D02*
X018259Y013595D01*
X018259Y013693D02*
X012761Y013693D01*
X013243Y014087D02*
X013442Y014087D01*
X013431Y014186D02*
X013252Y014186D01*
X013252Y014284D02*
X013431Y014284D01*
X013431Y014383D02*
X013252Y014383D01*
X013252Y014481D02*
X013431Y014481D01*
X013431Y014580D02*
X013252Y014580D01*
X013252Y014678D02*
X013431Y014678D01*
X013431Y014777D02*
X013252Y014777D01*
X013252Y014974D02*
X013431Y014974D01*
X013431Y015072D02*
X013252Y015072D01*
X013252Y015171D02*
X013431Y015171D01*
X013431Y015269D02*
X013252Y015269D01*
X013252Y015368D02*
X013431Y015368D01*
X013431Y015466D02*
X013252Y015466D01*
X013252Y015565D02*
X013431Y015565D01*
X013483Y015663D02*
X013193Y015663D01*
X014335Y016057D02*
X008906Y016057D01*
X008808Y016156D02*
X014336Y016156D01*
X014380Y016254D02*
X008709Y016254D01*
X008577Y015860D02*
X008395Y015860D01*
X008464Y015762D02*
X008675Y015762D01*
X008713Y015663D02*
X008499Y015663D01*
X008507Y015565D02*
X008710Y015565D01*
X008710Y015466D02*
X008507Y015466D01*
X008507Y015368D02*
X008710Y015368D01*
X008150Y015072D02*
X008050Y015072D01*
X008050Y014974D02*
X008150Y014974D01*
X008150Y014875D02*
X008050Y014875D01*
X008050Y014777D02*
X008150Y014777D01*
X008150Y014678D02*
X008050Y014678D01*
X008231Y013989D02*
X007794Y013989D01*
X007841Y013890D02*
X008191Y013890D01*
X008191Y013792D02*
X007841Y013792D01*
X008050Y013693D02*
X008191Y013693D01*
X008126Y013595D02*
X008526Y013595D01*
X008526Y013693D02*
X008626Y013693D01*
X008626Y013792D02*
X008526Y013792D01*
X008526Y013890D02*
X008626Y013890D01*
X008626Y013989D02*
X008526Y013989D01*
X008921Y013989D02*
X009004Y013989D01*
X009300Y013624D02*
X009324Y013600D01*
X008191Y013496D02*
X008126Y013496D01*
X008126Y013398D02*
X008191Y013398D01*
X008191Y013299D02*
X008126Y013299D01*
X007600Y013600D02*
X007474Y013600D01*
X006776Y013693D02*
X006676Y013693D01*
X006676Y013595D02*
X000327Y013595D01*
X000327Y013693D02*
X006341Y013693D01*
X006341Y013792D02*
X000327Y013792D01*
X000327Y013890D02*
X006341Y013890D01*
X006381Y013989D02*
X000327Y013989D01*
X000327Y013496D02*
X006341Y013496D01*
X006341Y013398D02*
X000327Y013398D01*
X000327Y013299D02*
X003925Y013299D01*
X003855Y013201D02*
X000327Y013201D01*
X000327Y013102D02*
X003835Y013102D01*
X003853Y013004D02*
X000327Y013004D01*
X000327Y012905D02*
X001357Y012905D01*
X001259Y012807D02*
X000327Y012807D01*
X000327Y012708D02*
X001160Y012708D01*
X000994Y012610D02*
X000327Y012610D01*
X001289Y012314D02*
X001540Y012314D01*
X001442Y012216D02*
X001258Y012216D01*
X001321Y012413D02*
X001639Y012413D01*
X001146Y011920D02*
X000327Y011920D01*
X000327Y011822D02*
X001048Y011822D01*
X000949Y011723D02*
X000327Y011723D01*
X000327Y011625D02*
X000851Y011625D01*
X000752Y011526D02*
X000327Y011526D01*
X000327Y011428D02*
X000654Y011428D01*
X000555Y011329D02*
X000327Y011329D01*
X000327Y011231D02*
X000457Y011231D01*
X000358Y011132D02*
X000327Y011132D01*
X000589Y010935D02*
X001201Y010935D01*
X001103Y010837D02*
X000491Y010837D01*
X000491Y010738D02*
X001004Y010738D01*
X000906Y010640D02*
X000491Y010640D01*
X000491Y010541D02*
X000807Y010541D01*
X000709Y010443D02*
X000491Y010443D01*
X000491Y010344D02*
X000610Y010344D01*
X000512Y010246D02*
X000491Y010246D01*
X000739Y010045D02*
X000739Y008753D01*
X000833Y008659D01*
X000959Y008533D01*
X001053Y008439D01*
X001433Y008439D01*
X001502Y008370D01*
X001420Y008289D01*
X001409Y008261D01*
X001393Y008261D01*
X001299Y008167D01*
X001139Y008007D01*
X001139Y007433D01*
X001233Y007339D01*
X001328Y007245D01*
X001247Y007245D01*
X001150Y007204D01*
X001076Y007130D01*
X001035Y007033D01*
X001035Y006927D01*
X001037Y006923D01*
X001033Y006925D01*
X000927Y006925D01*
X000830Y006884D01*
X000756Y006810D01*
X000715Y006713D01*
X000715Y006607D01*
X000756Y006510D01*
X000830Y006436D01*
X000847Y006428D01*
X000853Y006420D01*
X000896Y006408D01*
X000927Y006395D01*
X000946Y006395D01*
X000974Y006388D01*
X001061Y006365D01*
X001077Y006350D01*
X001109Y006317D01*
X001109Y006254D01*
X001104Y006258D01*
X001041Y006284D01*
X000974Y006297D01*
X000959Y006297D01*
X000959Y005971D01*
X000921Y005971D01*
X000921Y006297D01*
X000906Y006297D01*
X000839Y006284D01*
X000776Y006258D01*
X000720Y006220D01*
X000672Y006172D01*
X000651Y006141D01*
X000651Y009957D01*
X000739Y010045D01*
X000739Y009950D02*
X000651Y009950D01*
X000651Y009852D02*
X000739Y009852D01*
X000739Y009753D02*
X000651Y009753D01*
X000651Y009655D02*
X000739Y009655D01*
X000739Y009556D02*
X000651Y009556D01*
X000651Y009458D02*
X000739Y009458D01*
X000739Y009359D02*
X000651Y009359D01*
X000651Y009261D02*
X000739Y009261D01*
X000739Y009162D02*
X000651Y009162D01*
X000651Y009064D02*
X000739Y009064D01*
X000739Y008965D02*
X000651Y008965D01*
X000651Y008867D02*
X000739Y008867D01*
X000739Y008768D02*
X000651Y008768D01*
X000651Y008670D02*
X000823Y008670D01*
X000921Y008571D02*
X000651Y008571D01*
X000651Y008473D02*
X001020Y008473D01*
X000959Y008533D02*
X000959Y008533D01*
X000651Y008374D02*
X001497Y008374D01*
X001415Y008276D02*
X000651Y008276D01*
X000651Y008177D02*
X001309Y008177D01*
X001211Y008079D02*
X000651Y008079D01*
X000651Y007980D02*
X001139Y007980D01*
X001139Y007882D02*
X000651Y007882D01*
X000651Y007783D02*
X001139Y007783D01*
X001139Y007685D02*
X000651Y007685D01*
X000651Y007586D02*
X001139Y007586D01*
X001139Y007488D02*
X000651Y007488D01*
X000651Y007389D02*
X001183Y007389D01*
X001282Y007291D02*
X000651Y007291D01*
X000651Y007192D02*
X001138Y007192D01*
X001060Y007094D02*
X000651Y007094D01*
X000651Y006995D02*
X001035Y006995D01*
X000859Y006897D02*
X000651Y006897D01*
X000651Y006798D02*
X000751Y006798D01*
X000715Y006700D02*
X000651Y006700D01*
X000651Y006601D02*
X000718Y006601D01*
X000763Y006503D02*
X000651Y006503D01*
X000651Y006404D02*
X000906Y006404D01*
X000974Y006388D02*
X000974Y006388D01*
X001109Y006306D02*
X000651Y006306D01*
X000651Y006207D02*
X000707Y006207D01*
X000921Y006207D02*
X000959Y006207D01*
X000959Y006109D02*
X000921Y006109D01*
X000921Y006010D02*
X000959Y006010D01*
X001731Y006093D02*
X001731Y006237D01*
X001763Y006269D01*
X001851Y006357D01*
X001851Y006714D01*
X001911Y006817D01*
X001924Y006830D01*
X001938Y006862D01*
X001938Y006863D01*
X001960Y006900D01*
X001960Y006900D01*
X001960Y006900D01*
X001958Y006910D01*
X001965Y006927D01*
X001965Y007033D01*
X001924Y007130D01*
X001915Y007139D01*
X003725Y007139D01*
X003716Y007130D01*
X003714Y007127D01*
X003708Y007123D01*
X003708Y007123D01*
X003708Y007123D01*
X003691Y007072D01*
X003691Y007071D01*
X003675Y007033D01*
X003675Y007021D01*
X003639Y006907D01*
X003553Y006821D01*
X003459Y006727D01*
X003459Y005767D01*
X003233Y005541D01*
X003094Y005541D01*
X003055Y005579D01*
X002097Y005579D01*
X002032Y005514D01*
X002032Y005260D01*
X001939Y005167D01*
X001939Y005167D01*
X001733Y004961D01*
X001731Y004959D01*
X001731Y005627D01*
X001807Y005595D01*
X001913Y005595D01*
X001916Y005597D01*
X001919Y005596D01*
X001923Y005594D01*
X001924Y005595D01*
X001972Y005620D01*
X002010Y005636D01*
X002018Y005644D01*
X002055Y005663D01*
X002097Y005621D01*
X003055Y005621D01*
X003120Y005686D01*
X003120Y006014D01*
X003055Y006079D01*
X002097Y006079D01*
X002068Y006050D01*
X002018Y006076D01*
X002010Y006084D01*
X001972Y006100D01*
X001923Y006126D01*
X001916Y006123D01*
X001913Y006125D01*
X001807Y006125D01*
X001731Y006093D01*
X001731Y006109D02*
X001768Y006109D01*
X001731Y006207D02*
X002017Y006207D01*
X002015Y006215D02*
X002023Y006182D01*
X002040Y006153D01*
X002064Y006129D01*
X002094Y006112D01*
X002126Y006103D01*
X002567Y006103D01*
X002567Y006341D01*
X002015Y006341D01*
X002015Y006215D01*
X002015Y006306D02*
X001799Y006306D01*
X001851Y006404D02*
X002015Y006404D01*
X002015Y006359D02*
X002567Y006359D01*
X002567Y006341D01*
X002585Y006341D01*
X002585Y006103D01*
X003026Y006103D01*
X003059Y006112D01*
X003088Y006129D01*
X003112Y006153D01*
X003129Y006182D01*
X003138Y006215D01*
X003138Y006341D01*
X002585Y006341D01*
X002585Y006359D01*
X002567Y006359D01*
X002567Y006597D01*
X002126Y006597D01*
X002094Y006588D01*
X002064Y006571D01*
X002040Y006547D01*
X002023Y006518D01*
X002015Y006485D01*
X002015Y006359D01*
X002019Y006503D02*
X001851Y006503D01*
X001851Y006601D02*
X003459Y006601D01*
X003459Y006503D02*
X003134Y006503D01*
X003129Y006518D02*
X003112Y006547D01*
X003088Y006571D01*
X003059Y006588D01*
X003026Y006597D01*
X002585Y006597D01*
X002585Y006359D01*
X003138Y006359D01*
X003138Y006485D01*
X003129Y006518D01*
X003138Y006404D02*
X003459Y006404D01*
X003459Y006306D02*
X003138Y006306D01*
X003136Y006207D02*
X003459Y006207D01*
X003459Y006109D02*
X003046Y006109D01*
X003120Y006010D02*
X003459Y006010D01*
X003459Y005912D02*
X003120Y005912D01*
X003120Y005813D02*
X003459Y005813D01*
X003407Y005715D02*
X003120Y005715D01*
X003308Y005616D02*
X001965Y005616D01*
X002036Y005518D02*
X001731Y005518D01*
X001731Y005616D02*
X001757Y005616D01*
X001908Y005768D02*
X001860Y005860D01*
X001908Y005952D01*
X002085Y005860D01*
X001908Y005768D01*
X001860Y005860D02*
X002085Y005860D01*
X002566Y005860D01*
X002567Y006109D02*
X002585Y006109D01*
X002585Y006207D02*
X002567Y006207D01*
X002567Y006306D02*
X002585Y006306D01*
X002585Y006404D02*
X002567Y006404D01*
X002567Y006503D02*
X002585Y006503D01*
X002106Y006109D02*
X001956Y006109D01*
X001923Y006126D02*
X001923Y006126D01*
X001923Y006126D01*
X001851Y006700D02*
X003459Y006700D01*
X003530Y006798D02*
X001900Y006798D01*
X001958Y006897D02*
X003629Y006897D01*
X003667Y006995D02*
X001965Y006995D01*
X001940Y007094D02*
X003698Y007094D01*
X003841Y007011D02*
X003940Y006980D01*
X003971Y006881D01*
X003781Y006821D01*
X003841Y007011D01*
X003940Y006980D02*
X003781Y006821D01*
X003620Y006660D01*
X003620Y005700D01*
X003300Y005380D01*
X002606Y005380D01*
X002032Y005419D02*
X001731Y005419D01*
X001731Y005321D02*
X002032Y005321D01*
X001994Y005222D02*
X001731Y005222D01*
X001731Y005124D02*
X001896Y005124D01*
X001797Y005025D02*
X001731Y005025D01*
X001733Y004961D02*
X001733Y004961D01*
X001961Y004730D02*
X002032Y004730D01*
X002087Y004631D02*
X001961Y004631D01*
X001961Y004533D02*
X002235Y004533D01*
X002241Y004434D02*
X001961Y004434D01*
X001961Y004336D02*
X002290Y004336D01*
X003120Y004730D02*
X003542Y004730D01*
X003640Y004828D02*
X003120Y004828D01*
X003120Y004927D02*
X003739Y004927D01*
X003613Y005025D02*
X004090Y005025D01*
X004142Y005124D02*
X003711Y005124D01*
X003649Y005501D02*
X003781Y005633D01*
X003781Y006593D01*
X003867Y006679D01*
X003981Y006715D01*
X003993Y006715D01*
X004031Y006731D01*
X004032Y006731D01*
X004083Y006748D01*
X004083Y006748D01*
X004083Y006748D01*
X004087Y006754D01*
X004090Y006756D01*
X004164Y006830D01*
X004205Y006927D01*
X004205Y006979D01*
X004579Y006979D01*
X004550Y006910D01*
X004550Y006810D01*
X004588Y006719D01*
X004659Y006648D01*
X004750Y006610D01*
X004792Y006610D01*
X004808Y006602D01*
X004808Y006602D01*
X004808Y006602D01*
X004837Y006610D01*
X004850Y006610D01*
X004884Y006624D01*
X004899Y006629D01*
X004936Y006640D01*
X004999Y006659D01*
X005059Y006659D01*
X005059Y006579D01*
X004145Y006579D01*
X004080Y006514D01*
X004080Y006186D01*
X004145Y006121D01*
X005070Y006121D01*
X005070Y006097D01*
X004633Y006097D01*
X004633Y005859D01*
X005185Y005859D01*
X005185Y005885D01*
X005270Y005850D01*
X005370Y005850D01*
X005416Y005869D01*
X005433Y005868D01*
X005434Y005868D01*
X005454Y005885D01*
X005461Y005888D01*
X005491Y005917D01*
X005515Y005939D01*
X005527Y005939D01*
X005563Y005975D01*
X005592Y006005D01*
X005629Y006023D01*
X005636Y006044D01*
X005653Y006059D01*
X005653Y006065D01*
X005701Y006113D01*
X005701Y006907D01*
X005307Y007301D01*
X004327Y007301D01*
X004167Y007461D01*
X003304Y007461D01*
X003345Y007561D01*
X003345Y007679D01*
X003300Y007789D01*
X003218Y007870D01*
X003287Y007939D01*
X003347Y007939D01*
X003687Y008279D01*
X006666Y008279D01*
X006780Y008255D01*
X006821Y008246D01*
X006847Y008235D01*
X006872Y008235D01*
X006910Y008227D01*
X006910Y008227D01*
X006910Y008227D01*
X006923Y008235D01*
X006953Y008235D01*
X007050Y008276D01*
X007124Y008350D01*
X007165Y008447D01*
X007165Y008553D01*
X007124Y008650D01*
X007074Y008700D01*
X007124Y008750D01*
X007165Y008847D01*
X007165Y008953D01*
X007124Y009050D01*
X007074Y009100D01*
X007124Y009150D01*
X007165Y009247D01*
X007165Y009353D01*
X007124Y009450D01*
X007115Y009459D01*
X007313Y009459D01*
X007819Y008953D01*
X007819Y008097D01*
X007799Y008105D01*
X007789Y008118D01*
X007789Y008118D01*
X007763Y008120D01*
X007753Y008125D01*
X007711Y008125D01*
X007659Y008129D01*
X007647Y008141D01*
X007530Y008141D01*
X007486Y008153D01*
X007472Y008145D01*
X007457Y008146D01*
X007451Y008141D01*
X004764Y008141D01*
X004658Y008196D01*
X004650Y008204D01*
X004612Y008220D01*
X004563Y008246D01*
X004556Y008243D01*
X004553Y008245D01*
X004447Y008245D01*
X004350Y008204D01*
X004276Y008130D01*
X004235Y008033D01*
X004235Y007927D01*
X004274Y007834D01*
X004155Y007952D01*
X004155Y007957D01*
X004143Y007967D01*
X004140Y007983D01*
X004099Y008009D01*
X004064Y008043D01*
X004007Y008101D01*
X003996Y008101D01*
X003963Y008132D01*
X003930Y008164D01*
X003924Y008167D01*
X003909Y008181D01*
X003909Y008181D01*
X003892Y008180D01*
X003833Y008205D01*
X003727Y008205D01*
X003630Y008164D01*
X003556Y008090D01*
X003515Y007993D01*
X003515Y007887D01*
X003556Y007790D01*
X003630Y007716D01*
X003727Y007675D01*
X003760Y007675D01*
X003773Y007667D01*
X003796Y007672D01*
X003809Y007675D01*
X003833Y007675D01*
X003860Y007687D01*
X003903Y007696D01*
X003903Y007696D01*
X003946Y007706D01*
X004179Y007473D01*
X004273Y007379D01*
X005393Y007379D01*
X005779Y006993D01*
X005779Y005873D01*
X006099Y005553D01*
X006152Y005500D01*
X005953Y005301D01*
X005859Y005207D01*
X005859Y004487D01*
X005846Y004473D01*
X005846Y004527D01*
X005568Y004527D01*
X005568Y004624D01*
X005846Y004624D01*
X005846Y004809D01*
X005837Y004842D01*
X005820Y004871D01*
X005796Y004895D01*
X005767Y004912D01*
X005747Y004917D01*
X005763Y004917D01*
X005828Y004982D01*
X005828Y005507D01*
X005763Y005572D01*
X005420Y005572D01*
X005371Y005621D01*
X005122Y005621D01*
X005136Y005629D01*
X005160Y005653D01*
X005177Y005682D01*
X005185Y005715D01*
X005185Y005841D01*
X004633Y005841D01*
X004633Y005859D01*
X004615Y005859D01*
X004615Y006097D01*
X004174Y006097D01*
X004141Y006088D01*
X004112Y006071D01*
X004088Y006047D01*
X004071Y006018D01*
X004062Y005985D01*
X004062Y005859D01*
X004615Y005859D01*
X004615Y005841D01*
X004633Y005841D01*
X004633Y005603D01*
X004975Y005603D01*
X004951Y005579D01*
X004145Y005579D01*
X004080Y005514D01*
X004080Y005501D01*
X003649Y005501D01*
X003665Y005518D02*
X004083Y005518D01*
X004141Y005612D02*
X004174Y005603D01*
X004615Y005603D01*
X004615Y005841D01*
X004062Y005841D01*
X004062Y005715D01*
X004071Y005682D01*
X004088Y005653D01*
X004112Y005629D01*
X004141Y005612D01*
X004134Y005616D02*
X003764Y005616D01*
X003781Y005715D02*
X004062Y005715D01*
X004062Y005813D02*
X003781Y005813D01*
X003781Y005912D02*
X004062Y005912D01*
X004068Y006010D02*
X003781Y006010D01*
X003781Y006109D02*
X005070Y006109D01*
X005140Y006340D02*
X004900Y006340D01*
X004840Y006400D01*
X004700Y006400D01*
X004607Y006700D02*
X003931Y006700D01*
X003789Y006601D02*
X005059Y006601D01*
X004936Y006640D02*
X004936Y006640D01*
X004825Y006775D02*
X004800Y006860D01*
X004860Y006926D01*
X004975Y006820D01*
X004825Y006775D01*
X004840Y006820D02*
X004800Y006860D01*
X004840Y006820D02*
X004975Y006820D01*
X005140Y006820D01*
X005220Y006740D01*
X005220Y006420D01*
X005140Y006340D01*
X005347Y006184D02*
X005320Y006100D01*
X005378Y006033D01*
X005496Y006136D01*
X005347Y006184D01*
X005320Y006100D02*
X005460Y006100D01*
X005496Y006136D01*
X005540Y006180D01*
X005540Y006840D01*
X005240Y007140D01*
X004260Y007140D01*
X004100Y007300D01*
X001500Y007300D01*
X001300Y007500D01*
X001300Y007940D01*
X001460Y008100D01*
X001840Y008100D01*
X001860Y008120D01*
X002860Y008120D02*
X002980Y008120D01*
X003000Y008100D01*
X003280Y008100D01*
X003620Y008440D01*
X006683Y008440D01*
X006829Y008576D01*
X006900Y008500D01*
X006878Y008399D01*
X006683Y008440D01*
X006800Y008440D01*
X006683Y008276D02*
X003683Y008276D01*
X003660Y008177D02*
X003585Y008177D01*
X003551Y008079D02*
X003486Y008079D01*
X003515Y007980D02*
X003388Y007980D01*
X003518Y007882D02*
X003230Y007882D01*
X003302Y007783D02*
X003563Y007783D01*
X003705Y007685D02*
X003343Y007685D01*
X003345Y007586D02*
X004066Y007586D01*
X003968Y007685D02*
X003855Y007685D01*
X003773Y007667D02*
X003773Y007667D01*
X003803Y007839D02*
X003780Y007940D01*
X003850Y008017D01*
X003998Y007882D01*
X003803Y007839D01*
X003780Y007940D02*
X003940Y007940D01*
X003998Y007882D01*
X004340Y007540D01*
X005460Y007540D01*
X005940Y007060D01*
X005940Y005940D01*
X005839Y005813D02*
X005185Y005813D01*
X005185Y005715D02*
X005938Y005715D01*
X006036Y005616D02*
X005376Y005616D01*
X005305Y005460D02*
X005060Y005460D01*
X004950Y005350D01*
X005305Y005460D02*
X005520Y005245D01*
X005772Y004927D02*
X005859Y004927D01*
X005859Y005025D02*
X005828Y005025D01*
X005828Y005124D02*
X005859Y005124D01*
X005874Y005222D02*
X005828Y005222D01*
X005828Y005321D02*
X005973Y005321D01*
X006071Y005419D02*
X005828Y005419D01*
X005818Y005518D02*
X006135Y005518D01*
X005779Y005912D02*
X005485Y005912D01*
X005603Y006010D02*
X005779Y006010D01*
X005779Y006109D02*
X005696Y006109D01*
X005701Y006207D02*
X005779Y006207D01*
X005779Y006306D02*
X005701Y006306D01*
X005701Y006404D02*
X005779Y006404D01*
X005779Y006503D02*
X005701Y006503D01*
X005701Y006601D02*
X005779Y006601D01*
X005779Y006700D02*
X005701Y006700D01*
X005701Y006798D02*
X005779Y006798D01*
X005779Y006897D02*
X005701Y006897D01*
X005777Y006995D02*
X005613Y006995D01*
X005679Y007094D02*
X005514Y007094D01*
X005580Y007192D02*
X005416Y007192D01*
X005482Y007291D02*
X005317Y007291D01*
X004550Y006897D02*
X004192Y006897D01*
X004132Y006798D02*
X004555Y006798D01*
X004080Y006503D02*
X003781Y006503D01*
X003781Y006404D02*
X004080Y006404D01*
X004080Y006306D02*
X003781Y006306D01*
X003781Y006207D02*
X004080Y006207D01*
X004615Y006010D02*
X004633Y006010D01*
X004633Y005912D02*
X004615Y005912D01*
X004615Y005813D02*
X004633Y005813D01*
X004633Y005715D02*
X004615Y005715D01*
X004615Y005616D02*
X004633Y005616D01*
X005840Y004828D02*
X005859Y004828D01*
X005846Y004730D02*
X005859Y004730D01*
X005846Y004631D02*
X005859Y004631D01*
X005859Y004533D02*
X005568Y004533D01*
X005472Y004533D02*
X003800Y004533D01*
X003899Y004631D02*
X004134Y004631D01*
X003702Y004434D02*
X005194Y004434D01*
X005827Y003627D02*
X006100Y003900D01*
X006800Y003900D01*
X007061Y004161D01*
X007121Y004351D01*
X007220Y004320D01*
X007251Y004221D01*
X007061Y004161D01*
X007220Y004320D01*
X007940Y004100D02*
X007940Y003300D01*
X006990Y002350D01*
X006630Y002350D01*
X006690Y001850D02*
X006970Y001850D01*
X007220Y002100D01*
X007220Y002260D01*
X008180Y003220D01*
X008180Y003940D01*
X008420Y004180D01*
X010995Y004180D01*
X011172Y004272D01*
X011220Y004180D01*
X011172Y004088D01*
X010995Y004180D01*
X011220Y004180D01*
X010488Y004397D02*
X010500Y004500D01*
X010423Y004569D01*
X010290Y004420D01*
X010488Y004397D01*
X010500Y004500D02*
X010420Y004500D01*
X010340Y004420D01*
X010290Y004420D01*
X008260Y004420D01*
X007940Y004100D01*
X008180Y004740D02*
X006500Y003060D01*
X006485Y003060D01*
X006308Y002968D01*
X006260Y003060D01*
X006308Y003152D01*
X006485Y003060D01*
X006260Y003060D01*
X006062Y003422D02*
X006098Y003619D01*
X006200Y003600D01*
X006243Y003506D01*
X006062Y003422D01*
X005540Y002900D01*
X005540Y002780D01*
X005519Y002759D01*
X005459Y002569D01*
X005360Y002600D01*
X005329Y002699D01*
X005519Y002759D01*
X005360Y002600D01*
X004926Y003154D02*
X004165Y003154D01*
X004272Y003548D02*
X004920Y003548D01*
X005676Y003586D02*
X005700Y003500D01*
X005786Y003476D01*
X005827Y003627D01*
X005676Y003586D01*
X005700Y003500D02*
X005827Y003627D01*
X006062Y003422D02*
X006200Y003560D01*
X006200Y003600D01*
X008180Y004740D02*
X008435Y004740D01*
X008612Y004832D01*
X008660Y004740D01*
X008612Y004648D01*
X008435Y004740D01*
X008660Y004740D01*
X008556Y005222D02*
X010238Y005222D01*
X008580Y006660D02*
X012660Y006660D01*
X012740Y006580D01*
X013075Y006580D01*
X013252Y006672D01*
X013300Y006580D01*
X013252Y006488D01*
X013075Y006580D01*
X013300Y006580D01*
X013144Y006798D02*
X012968Y006798D01*
X012740Y006900D02*
X012696Y006977D01*
X012560Y006900D01*
X012696Y006823D01*
X012740Y006900D01*
X012560Y006900D01*
X008620Y006900D01*
X008180Y007340D01*
X008180Y009340D01*
X007580Y009940D01*
X002420Y009940D01*
X002340Y009860D01*
X002340Y009700D01*
X002260Y009620D01*
X001860Y009620D01*
X002860Y009120D02*
X006720Y009120D01*
X006741Y009141D01*
X006801Y009331D01*
X006900Y009300D01*
X006931Y009201D01*
X006741Y009141D01*
X006900Y009300D01*
X007165Y009261D02*
X007512Y009261D01*
X007413Y009359D02*
X007162Y009359D01*
X007117Y009458D02*
X007315Y009458D01*
X007380Y009620D02*
X007980Y009020D01*
X007980Y007260D01*
X008580Y006660D01*
X008541Y007488D02*
X013167Y007488D01*
X013317Y007566D02*
X013317Y007566D01*
X013317Y007566D01*
X013203Y007094D02*
X012900Y007094D01*
X013237Y006846D02*
X013237Y006846D01*
X013237Y006846D01*
X013317Y007034D02*
X013317Y007034D01*
X013317Y007034D01*
X012368Y007685D02*
X008859Y007685D01*
X008915Y007783D02*
X012269Y007783D01*
X012171Y007882D02*
X008925Y007882D01*
X008926Y007923D02*
X008926Y007923D01*
X008926Y007923D01*
X008897Y007980D02*
X012072Y007980D01*
X011974Y008079D02*
X008845Y008079D01*
X008821Y008177D02*
X011875Y008177D01*
X011776Y008276D02*
X008821Y008276D01*
X008821Y008374D02*
X011654Y008374D01*
X010519Y009029D02*
X010579Y009219D01*
X010389Y009159D01*
X010420Y009060D01*
X010519Y009029D01*
X010420Y009060D02*
X010579Y009219D01*
X010740Y009380D01*
X020740Y009380D01*
X020821Y009461D01*
X020881Y009651D01*
X020980Y009620D01*
X021011Y009521D01*
X020821Y009461D01*
X020980Y009620D01*
X021420Y009580D02*
X021420Y012460D01*
X021300Y012580D01*
X021285Y012580D01*
X021108Y012488D01*
X021060Y012580D01*
X021108Y012672D01*
X021285Y012580D01*
X021060Y012580D01*
X021172Y012820D02*
X021123Y012846D01*
X021116Y012843D01*
X021113Y012845D01*
X021007Y012845D01*
X020910Y012804D01*
X020836Y012730D01*
X020795Y012633D01*
X020795Y012527D01*
X020836Y012430D01*
X020802Y012511D02*
X020660Y012511D01*
X020724Y012610D02*
X020795Y012610D01*
X020826Y012708D02*
X020745Y012708D01*
X020734Y012807D02*
X020915Y012807D01*
X021123Y012846D02*
X021123Y012846D01*
X021123Y012846D01*
X021172Y012820D02*
X021210Y012804D01*
X021218Y012796D01*
X021324Y012741D01*
X021367Y012741D01*
X021393Y012715D01*
X021397Y012713D01*
X021400Y012708D01*
X021205Y012807D02*
X021700Y012807D01*
X021700Y012905D02*
X020683Y012905D01*
X020652Y013004D02*
X021700Y013004D01*
X021700Y013102D02*
X020721Y013102D01*
X020745Y013201D02*
X021700Y013201D01*
X021700Y013299D02*
X020737Y013299D01*
X020691Y013398D02*
X021700Y013398D01*
X021700Y013496D02*
X020559Y013496D01*
X020819Y013792D02*
X021700Y013792D01*
X021700Y013890D02*
X020901Y013890D01*
X021064Y013989D02*
X021700Y013989D01*
X021700Y014087D02*
X021068Y014087D01*
X021068Y014186D02*
X021700Y014186D01*
X021700Y014284D02*
X021068Y014284D01*
X021068Y014383D02*
X021700Y014383D01*
X021700Y014481D02*
X021068Y014481D01*
X021239Y015368D02*
X021700Y015368D01*
X021700Y015466D02*
X021370Y015466D01*
X021449Y015565D02*
X021700Y015565D01*
X021700Y015663D02*
X021517Y015663D01*
X021513Y015645D02*
X021513Y015645D01*
X021539Y015762D02*
X021700Y015762D01*
X021700Y015860D02*
X021562Y015860D01*
X021576Y015959D02*
X021700Y015959D01*
X021700Y016057D02*
X021553Y016057D01*
X021531Y016156D02*
X021700Y016156D01*
X021700Y016254D02*
X021498Y016254D01*
X021513Y016235D02*
X021513Y016235D01*
X021419Y016353D02*
X021700Y016353D01*
X021700Y016451D02*
X021340Y016451D01*
X021324Y016472D02*
X021324Y016472D01*
X021162Y016550D02*
X021700Y016550D01*
X020638Y016550D02*
X015945Y016550D01*
X015566Y016156D02*
X014866Y016156D01*
X014817Y015663D02*
X015107Y015663D01*
X015048Y015565D02*
X014869Y015565D01*
X014869Y015466D02*
X015048Y015466D01*
X015048Y015368D02*
X014869Y015368D01*
X014869Y015269D02*
X015048Y015269D01*
X015048Y015171D02*
X014869Y015171D01*
X014869Y015072D02*
X015048Y015072D01*
X015048Y014974D02*
X014869Y014974D01*
X015330Y013429D02*
X015330Y012900D01*
X015230Y012900D01*
X015230Y012800D01*
X015330Y012800D01*
X015330Y012900D01*
X015709Y012900D01*
X015709Y013317D01*
X015700Y013350D01*
X015683Y013379D01*
X015659Y013403D01*
X015630Y013420D01*
X015597Y013429D01*
X015330Y013429D01*
X015330Y013398D02*
X015230Y013398D01*
X015230Y013299D02*
X015330Y013299D01*
X015330Y013201D02*
X015230Y013201D01*
X015230Y013102D02*
X015330Y013102D01*
X015330Y013004D02*
X015230Y013004D01*
X015230Y012905D02*
X015330Y012905D01*
X015330Y012807D02*
X015911Y012807D01*
X015911Y012820D02*
X015911Y012403D01*
X015920Y012370D01*
X015937Y012341D01*
X015961Y012317D01*
X015990Y012300D01*
X016023Y012291D01*
X016290Y012291D01*
X016290Y012820D01*
X016390Y012820D01*
X016390Y012920D01*
X016769Y012920D01*
X016769Y013337D01*
X016760Y013370D01*
X016743Y013399D01*
X016719Y013423D01*
X016690Y013440D01*
X016657Y013449D01*
X016390Y013449D01*
X016390Y012920D01*
X016290Y012920D01*
X016290Y013449D01*
X016023Y013449D01*
X015990Y013440D01*
X015961Y013423D01*
X015937Y013399D01*
X015920Y013370D01*
X015911Y013337D01*
X015911Y012920D01*
X016290Y012920D01*
X016290Y012820D01*
X015911Y012820D01*
X015911Y012708D02*
X015709Y012708D01*
X015709Y012800D02*
X015330Y012800D01*
X015330Y012271D01*
X015597Y012271D01*
X015630Y012280D01*
X015659Y012297D01*
X015683Y012321D01*
X015700Y012350D01*
X015709Y012383D01*
X015709Y012800D01*
X015709Y012905D02*
X016290Y012905D01*
X016290Y012807D02*
X016390Y012807D01*
X016390Y012820D02*
X016390Y012291D01*
X016657Y012291D01*
X016690Y012300D01*
X016719Y012317D01*
X016743Y012341D01*
X016760Y012370D01*
X016769Y012403D01*
X016769Y012820D01*
X016390Y012820D01*
X016390Y012905D02*
X017289Y012905D01*
X017289Y012807D02*
X016769Y012807D01*
X016769Y012708D02*
X017289Y012708D01*
X017289Y012610D02*
X016769Y012610D01*
X016769Y012511D02*
X017243Y012511D01*
X017145Y012413D02*
X016769Y012413D01*
X016714Y012314D02*
X017046Y012314D01*
X016979Y012216D02*
X012743Y012216D01*
X012842Y012314D02*
X013549Y012314D01*
X013509Y012413D02*
X012940Y012413D01*
X013039Y012511D02*
X013509Y012511D01*
X013509Y012610D02*
X013227Y012610D01*
X013177Y012763D02*
X013140Y012860D01*
X013039Y012885D01*
X012991Y012691D01*
X013177Y012763D01*
X013100Y012800D02*
X012991Y012691D01*
X012220Y011920D01*
X012349Y011822D02*
X013675Y011822D01*
X013677Y011723D02*
X010651Y011723D01*
X010552Y011625D02*
X013721Y011625D01*
X013861Y011526D02*
X010454Y011526D01*
X010355Y011428D02*
X014065Y011428D01*
X014163Y011329D02*
X010257Y011329D01*
X010158Y011231D02*
X010613Y011231D01*
X010478Y011132D02*
X010060Y011132D01*
X009961Y011034D02*
X010436Y011034D01*
X010435Y010935D02*
X009863Y010935D01*
X009764Y010837D02*
X010107Y010837D01*
X010253Y010837D02*
X010473Y010837D01*
X010396Y010738D02*
X010592Y010738D01*
X010808Y010738D02*
X011310Y010738D01*
X011433Y010861D02*
X016913Y010861D01*
X018060Y012008D01*
X018079Y012027D01*
X018109Y012121D01*
X016887Y010899D01*
X010982Y010899D01*
X010942Y010854D01*
X010942Y010854D01*
X010927Y010837D01*
X010777Y010911D02*
X010700Y010980D01*
X010712Y011083D01*
X010910Y011060D01*
X010777Y010911D01*
X010700Y010980D02*
X010780Y011060D01*
X010910Y011060D01*
X016820Y011060D01*
X016923Y010935D02*
X016987Y010935D01*
X017021Y011034D02*
X017086Y011034D01*
X017120Y011132D02*
X017184Y011132D01*
X017218Y011231D02*
X017283Y011231D01*
X017317Y011329D02*
X017381Y011329D01*
X017415Y011428D02*
X017480Y011428D01*
X017514Y011526D02*
X017578Y011526D01*
X017612Y011625D02*
X017677Y011625D01*
X017711Y011723D02*
X017775Y011723D01*
X017809Y011822D02*
X017874Y011822D01*
X017908Y011920D02*
X017972Y011920D01*
X018006Y012019D02*
X018071Y012019D01*
X018105Y012117D02*
X018108Y012117D01*
X018281Y012131D02*
X018380Y012100D01*
X018411Y012001D01*
X018221Y011941D01*
X018281Y012131D01*
X018380Y012100D02*
X018221Y011941D01*
X016980Y010700D01*
X011500Y010700D01*
X011300Y010500D01*
X010390Y010500D01*
X010192Y010477D01*
X010180Y010580D01*
X010257Y010649D01*
X010390Y010500D01*
X010260Y010500D01*
X010180Y010580D01*
X009915Y010541D02*
X009469Y010541D01*
X009603Y010526D02*
X009603Y010526D01*
X009603Y010526D01*
X009567Y010640D02*
X009918Y010640D01*
X009964Y010738D02*
X009666Y010738D01*
X009407Y010935D02*
X009141Y010935D01*
X009141Y010837D02*
X009309Y010837D01*
X009210Y010738D02*
X009141Y010738D01*
X008980Y010660D02*
X008420Y010100D01*
X008420Y009700D01*
X008660Y009460D01*
X008660Y008085D01*
X008752Y007908D01*
X008660Y007860D01*
X008568Y007908D01*
X008660Y008085D01*
X008660Y007860D01*
X008541Y007586D02*
X015826Y007586D01*
X018504Y008079D02*
X019400Y008079D01*
X019337Y008177D02*
X018558Y008177D01*
X018599Y008276D02*
X019299Y008276D01*
X019299Y008374D02*
X018605Y008374D01*
X018579Y008473D02*
X019316Y008473D01*
X019357Y008571D02*
X018511Y008571D01*
X018853Y008670D02*
X019448Y008670D01*
X018951Y008768D02*
X020889Y008768D01*
X019529Y007980D02*
X018576Y007980D01*
X018568Y006700D02*
X020645Y006700D01*
X019962Y009950D02*
X017778Y009950D01*
X017876Y010049D02*
X020061Y010049D01*
X020159Y010147D02*
X017975Y010147D01*
X018073Y010246D02*
X020258Y010246D01*
X019964Y010443D02*
X019556Y010443D01*
X019690Y010541D02*
X019830Y010541D01*
X019784Y010640D02*
X019736Y010640D01*
X019745Y010738D02*
X019775Y010738D01*
X019799Y010837D02*
X019721Y010837D01*
X018964Y010443D02*
X018270Y010443D01*
X018369Y010541D02*
X018830Y010541D01*
X018784Y010640D02*
X018467Y010640D01*
X018541Y010738D02*
X018775Y010738D01*
X018736Y010837D02*
X018541Y010837D01*
X018593Y010935D02*
X018637Y010935D01*
X018472Y011052D02*
X018380Y011100D01*
X018288Y011052D01*
X018380Y010875D01*
X018472Y011052D01*
X018380Y011100D02*
X018380Y010875D01*
X018380Y010780D01*
X017580Y009980D01*
X009180Y009980D01*
X009060Y009860D01*
X009060Y009510D01*
X009209Y009377D01*
X009140Y009300D01*
X009037Y009312D01*
X009060Y009510D01*
X009060Y009380D01*
X009140Y009300D01*
X008821Y008867D02*
X009772Y008867D01*
X010024Y009556D02*
X010128Y009556D01*
X009765Y010260D02*
X009588Y010168D01*
X009540Y010260D01*
X009588Y010352D01*
X009765Y010260D01*
X017020Y010260D01*
X018221Y011461D01*
X018281Y011651D01*
X018380Y011620D01*
X018411Y011521D01*
X018221Y011461D01*
X018380Y011620D01*
X016983Y011723D02*
X014797Y011723D01*
X014677Y011726D02*
X014677Y011726D01*
X014677Y011726D01*
X014672Y011723D02*
X014236Y011723D01*
X014323Y011625D02*
X014482Y011625D01*
X014602Y011231D02*
X010838Y011231D01*
X010294Y011822D02*
X009141Y011822D01*
X009141Y011920D02*
X010392Y011920D01*
X010491Y012019D02*
X009141Y012019D01*
X008980Y012180D02*
X009220Y012420D01*
X008980Y012180D02*
X008980Y010660D01*
X008649Y010697D02*
X008640Y010800D01*
X008550Y010852D01*
X008450Y010680D01*
X008649Y010697D01*
X008640Y010800D02*
X008520Y010680D01*
X008450Y010680D01*
X007925Y010680D01*
X007748Y010588D01*
X007700Y010680D01*
X007748Y010772D01*
X007925Y010680D01*
X007700Y010680D01*
X007232Y010848D02*
X007140Y010800D01*
X007048Y010848D01*
X007140Y011025D01*
X007232Y010848D01*
X007140Y010800D02*
X007140Y011025D01*
X007140Y011120D01*
X008401Y012381D01*
X008461Y012571D01*
X008560Y012540D01*
X008591Y012441D01*
X008401Y012381D01*
X008560Y012540D01*
X008707Y012314D02*
X008710Y012316D01*
X008784Y012390D01*
X008819Y012216D02*
X008463Y012216D01*
X008365Y012117D02*
X008819Y012117D01*
X008819Y012019D02*
X008266Y012019D01*
X008168Y011920D02*
X008819Y011920D01*
X008819Y011822D02*
X008069Y011822D01*
X007971Y011723D02*
X008819Y011723D01*
X008819Y011625D02*
X007872Y011625D01*
X007774Y011526D02*
X008819Y011526D01*
X008819Y011428D02*
X007843Y011428D01*
X007937Y011329D02*
X008819Y011329D01*
X008819Y011231D02*
X008435Y011231D01*
X008532Y011132D02*
X008819Y011132D01*
X008819Y011034D02*
X008768Y011034D01*
X009141Y011034D02*
X009506Y011034D01*
X009604Y011132D02*
X009141Y011132D01*
X009141Y011231D02*
X009703Y011231D01*
X009801Y011329D02*
X009141Y011329D01*
X009141Y011428D02*
X009900Y011428D01*
X009998Y011526D02*
X009141Y011526D01*
X009141Y011625D02*
X010097Y011625D01*
X010195Y011723D02*
X009141Y011723D01*
X008237Y011266D02*
X008237Y011266D01*
X008237Y011266D01*
X008165Y011231D02*
X007968Y011231D01*
X007799Y011231D02*
X007700Y011200D01*
X007669Y011101D01*
X007859Y011041D01*
X007799Y011231D01*
X007700Y011200D02*
X007859Y011041D01*
X007900Y011000D01*
X008075Y011000D01*
X008252Y011092D01*
X008300Y011000D01*
X008252Y010908D01*
X008075Y011000D01*
X008300Y011000D01*
X007077Y011625D02*
X001278Y011625D01*
X001180Y011526D02*
X006978Y011526D01*
X006880Y011428D02*
X001081Y011428D01*
X000983Y011329D02*
X006781Y011329D01*
X006683Y011231D02*
X000884Y011231D01*
X000786Y011132D02*
X004688Y011132D01*
X004740Y011160D02*
X004740Y011160D01*
X004740Y011160D01*
X004952Y011132D02*
X006584Y011132D01*
X006486Y011034D02*
X005051Y011034D01*
X005085Y010935D02*
X006387Y010935D01*
X006289Y010837D02*
X005080Y010837D01*
X004165Y009620D02*
X003988Y009712D01*
X003940Y009620D01*
X003988Y009528D01*
X004165Y009620D01*
X007380Y009620D01*
X007610Y009162D02*
X007129Y009162D01*
X007111Y009064D02*
X007709Y009064D01*
X007807Y008965D02*
X007160Y008965D01*
X007165Y008867D02*
X007819Y008867D01*
X007819Y008768D02*
X007132Y008768D01*
X007105Y008670D02*
X007819Y008670D01*
X007819Y008571D02*
X007157Y008571D01*
X007165Y008473D02*
X007819Y008473D01*
X007819Y008374D02*
X007134Y008374D01*
X007050Y008276D02*
X007819Y008276D01*
X007819Y008177D02*
X004695Y008177D01*
X004563Y008246D02*
X004563Y008246D01*
X004563Y008246D01*
X004548Y008072D02*
X004500Y007980D01*
X004548Y007888D01*
X004725Y007980D01*
X004548Y008072D01*
X004500Y007980D02*
X004725Y007980D01*
X007510Y007980D01*
X007709Y007963D01*
X007700Y007860D01*
X007610Y007808D01*
X007510Y007980D01*
X007580Y007980D01*
X007700Y007860D01*
X007789Y008118D02*
X007789Y008118D01*
X006931Y008801D02*
X006741Y008741D01*
X006801Y008931D01*
X006900Y008900D01*
X006931Y008801D01*
X006900Y008900D02*
X006741Y008741D01*
X006620Y008620D01*
X002860Y008620D01*
X003913Y008177D02*
X004323Y008177D01*
X004254Y008079D02*
X004029Y008079D01*
X004141Y007980D02*
X004235Y007980D01*
X004226Y007882D02*
X004254Y007882D01*
X004165Y007488D02*
X003315Y007488D01*
X004239Y007389D02*
X004263Y007389D01*
X004165Y009620D02*
X003940Y009620D01*
X001300Y011034D02*
X000687Y011034D01*
X004120Y013375D02*
X004120Y013375D01*
X004120Y013375D01*
X004324Y013299D02*
X004326Y013299D01*
X004337Y013299D02*
X006341Y013299D01*
X006676Y013792D02*
X006776Y013792D01*
X006776Y013890D02*
X006676Y013890D01*
X006676Y013989D02*
X006776Y013989D01*
X007490Y015368D02*
X007693Y015368D01*
X007693Y015466D02*
X007490Y015466D01*
X007490Y015565D02*
X007693Y015565D01*
X007701Y015663D02*
X007487Y015663D01*
X007446Y015762D02*
X007736Y015762D01*
X007805Y015860D02*
X007370Y015860D01*
X005765Y015879D02*
X005765Y015879D01*
X009406Y014777D02*
X010248Y014777D01*
X010248Y014875D02*
X009461Y014875D01*
X009490Y014974D02*
X010248Y014974D01*
X010248Y015072D02*
X009490Y015072D01*
X009490Y015171D02*
X010248Y015171D01*
X010248Y015269D02*
X009490Y015269D01*
X009490Y015368D02*
X010248Y015368D01*
X010248Y015466D02*
X009490Y015466D01*
X009490Y015565D02*
X010248Y015565D01*
X010248Y015663D02*
X009487Y015663D01*
X009446Y015762D02*
X010310Y015762D01*
X014279Y013398D02*
X014895Y013398D01*
X014851Y013299D02*
X014775Y013299D01*
X014845Y013201D02*
X014851Y013201D01*
X014847Y013004D02*
X014851Y013004D01*
X014851Y012905D02*
X014779Y012905D01*
X014851Y012800D02*
X014851Y012383D01*
X014860Y012350D01*
X014877Y012321D01*
X014901Y012297D01*
X014930Y012280D01*
X014963Y012271D01*
X015230Y012271D01*
X015230Y012800D01*
X014851Y012800D01*
X014851Y012708D02*
X014331Y012708D01*
X014331Y012610D02*
X014851Y012610D01*
X014851Y012511D02*
X014331Y012511D01*
X014331Y012413D02*
X014851Y012413D01*
X014884Y012314D02*
X014291Y012314D01*
X014100Y012600D02*
X013920Y012850D01*
X014100Y013100D01*
X014331Y012905D02*
X014354Y012905D01*
X014331Y012807D02*
X015230Y012807D01*
X015230Y012708D02*
X015330Y012708D01*
X015330Y012610D02*
X015230Y012610D01*
X015230Y012511D02*
X015330Y012511D01*
X015330Y012413D02*
X015230Y012413D01*
X015230Y012314D02*
X015330Y012314D01*
X015676Y012314D02*
X015966Y012314D01*
X015911Y012413D02*
X015709Y012413D01*
X015709Y012511D02*
X015911Y012511D01*
X015911Y012610D02*
X015709Y012610D01*
X015709Y013004D02*
X015911Y013004D01*
X015911Y013102D02*
X015709Y013102D01*
X015709Y013201D02*
X015911Y013201D01*
X015911Y013299D02*
X015709Y013299D01*
X015665Y013398D02*
X015936Y013398D01*
X016290Y013398D02*
X016390Y013398D01*
X016390Y013299D02*
X016290Y013299D01*
X016290Y013201D02*
X016390Y013201D01*
X016390Y013102D02*
X016290Y013102D01*
X016290Y013004D02*
X016390Y013004D01*
X016769Y013004D02*
X017289Y013004D01*
X017289Y013102D02*
X016769Y013102D01*
X016769Y013201D02*
X017289Y013201D01*
X017289Y013299D02*
X016769Y013299D01*
X016744Y013398D02*
X017321Y013398D01*
X017300Y013786D02*
X017662Y013786D01*
X017695Y013795D01*
X017724Y013812D01*
X017748Y013836D01*
X017765Y013865D01*
X017774Y013898D01*
X017774Y014160D01*
X017300Y014160D01*
X017300Y013786D01*
X017300Y013792D02*
X017200Y013792D01*
X017200Y013890D02*
X017300Y013890D01*
X017300Y013989D02*
X017200Y013989D01*
X017200Y014087D02*
X017300Y014087D01*
X017300Y014383D02*
X017200Y014383D01*
X017200Y014481D02*
X017300Y014481D01*
X017300Y014580D02*
X017200Y014580D01*
X017756Y014777D02*
X018236Y014777D01*
X018137Y014875D02*
X017756Y014875D01*
X017774Y014087D02*
X018259Y014087D01*
X018259Y013989D02*
X017774Y013989D01*
X017772Y013890D02*
X018259Y013890D01*
X018259Y013792D02*
X017682Y013792D01*
X016390Y012708D02*
X016290Y012708D01*
X016290Y012610D02*
X016390Y012610D01*
X016390Y012511D02*
X016290Y012511D01*
X016290Y012413D02*
X016390Y012413D01*
X016390Y012314D02*
X016290Y012314D01*
X016934Y012117D02*
X012645Y012117D01*
X012546Y012019D02*
X013824Y012019D01*
X013711Y011920D02*
X012448Y011920D01*
X014580Y012825D02*
X014580Y012825D01*
X014580Y012825D01*
X014374Y013299D02*
X014376Y013299D01*
X014363Y013299D02*
X014331Y013299D01*
X009950Y010443D02*
X009763Y010443D01*
X009765Y010260D02*
X009540Y010260D01*
X018172Y010344D02*
X020899Y010344D01*
X020899Y010443D02*
X020556Y010443D01*
X020690Y010541D02*
X020899Y010541D01*
X020899Y010640D02*
X020736Y010640D01*
X020745Y010738D02*
X020899Y010738D01*
X020899Y010837D02*
X020721Y010837D01*
X020653Y010935D02*
X020899Y010935D01*
X020819Y011034D02*
X020682Y011034D01*
X020979Y011329D02*
X021259Y011329D01*
X021259Y011231D02*
X021077Y011231D01*
X021176Y011132D02*
X021259Y011132D01*
X021259Y011034D02*
X021221Y011034D01*
X021221Y010935D02*
X021259Y010935D01*
X021259Y010837D02*
X021221Y010837D01*
X021221Y010738D02*
X021259Y010738D01*
X021259Y010640D02*
X021221Y010640D01*
X021221Y010541D02*
X021259Y010541D01*
X021259Y010443D02*
X021221Y010443D01*
X021221Y010344D02*
X021259Y010344D01*
X021259Y010246D02*
X021221Y010246D01*
X021259Y010147D02*
X021175Y010147D01*
X021259Y010049D02*
X021076Y010049D01*
X007580Y001940D02*
X007580Y001435D01*
X007180Y001020D02*
X007010Y000850D01*
X006690Y000850D01*
X007540Y000725D02*
X007540Y000500D01*
X007620Y000420D01*
X007860Y000420D01*
X007540Y000725D02*
X007580Y000765D01*
X008191Y001381D02*
X008206Y001381D01*
D34*
X005700Y003500D03*
X003860Y004180D03*
X005320Y006100D03*
X004800Y006860D03*
X003300Y006860D03*
X010000Y004760D03*
X012740Y006900D03*
X010820Y007940D03*
X014820Y003940D03*
X003100Y001340D03*
X001540Y001700D03*
X019780Y013940D03*
X016500Y016020D03*
D35*
X016530Y015947D01*
X016680Y016010D01*
X016538Y016089D01*
X016500Y016020D01*
X016510Y016010D01*
X016680Y016010D01*
X017250Y016010D01*
X015780Y014880D02*
X015750Y014850D01*
X017700Y012870D02*
X017620Y012790D01*
X017620Y012660D01*
X020740Y014235D02*
X020760Y014255D01*
X020760Y014925D02*
X019905Y014925D01*
X019730Y015100D01*
X019530Y014900D01*
X022100Y014913D02*
X022159Y014913D01*
X022159Y015031D02*
X022100Y015031D01*
X022100Y015150D02*
X022159Y015150D01*
X022159Y015268D02*
X022100Y015268D01*
X022100Y015387D02*
X022159Y015387D01*
X022159Y015505D02*
X022100Y015505D01*
X022100Y015624D02*
X022159Y015624D01*
X022159Y015742D02*
X022100Y015742D01*
X022100Y015861D02*
X022159Y015861D01*
X022159Y015979D02*
X022100Y015979D01*
X022100Y016098D02*
X022159Y016098D01*
X022159Y016175D02*
X022159Y012665D01*
X022319Y012505D01*
X022425Y012399D01*
X022584Y012399D01*
X022620Y012313D01*
X022733Y012200D01*
X022880Y012139D01*
X023040Y012139D01*
X023187Y012200D01*
X023300Y012313D01*
X023361Y012460D01*
X023361Y012620D01*
X023300Y012767D01*
X023187Y012880D01*
X023040Y012941D01*
X022880Y012941D01*
X022733Y012880D01*
X022620Y012767D01*
X022617Y012761D01*
X022575Y012761D01*
X022521Y012815D01*
X022521Y016025D01*
X022575Y016079D01*
X025545Y016079D01*
X025839Y015785D01*
X025839Y015522D01*
X025829Y015518D01*
X025734Y015423D01*
X025682Y015299D01*
X025682Y015165D01*
X025734Y015040D01*
X025829Y014945D01*
X025833Y014944D01*
X025794Y014917D01*
X025744Y014868D01*
X025705Y014809D01*
X025678Y014745D01*
X025665Y014676D01*
X025665Y014650D01*
X026011Y014650D01*
X026011Y014632D01*
X025665Y014632D01*
X025665Y014606D01*
X025678Y014537D01*
X025705Y014473D01*
X025744Y014415D01*
X025794Y014365D01*
X025833Y014339D01*
X025829Y014337D01*
X025734Y014242D01*
X025730Y014232D01*
X025504Y014232D01*
X025481Y014255D01*
X025481Y015455D01*
X025215Y015721D01*
X024319Y015721D01*
X024300Y015767D01*
X024187Y015880D01*
X024040Y015941D01*
X023880Y015941D01*
X023733Y015880D01*
X023620Y015767D01*
X023559Y015620D01*
X023559Y015460D01*
X023620Y015313D01*
X023733Y015200D01*
X023880Y015139D01*
X024040Y015139D01*
X024187Y015200D01*
X024300Y015313D01*
X024319Y015359D01*
X025065Y015359D01*
X025119Y015305D01*
X025119Y014137D01*
X025055Y014201D01*
X024188Y014201D01*
X024300Y014313D01*
X024361Y014460D01*
X024361Y014620D01*
X024300Y014767D01*
X024187Y014880D01*
X024040Y014941D01*
X023880Y014941D01*
X023733Y014880D01*
X023620Y014767D01*
X023559Y014620D01*
X023559Y014460D01*
X023620Y014313D01*
X023732Y014201D01*
X023365Y014201D01*
X023086Y013922D01*
X023040Y013941D01*
X022880Y013941D01*
X022733Y013880D01*
X022620Y013767D01*
X022559Y013620D01*
X022559Y013460D01*
X022620Y013313D01*
X022733Y013200D01*
X022880Y013139D01*
X023040Y013139D01*
X023187Y013200D01*
X023300Y013313D01*
X023361Y013460D01*
X023361Y013620D01*
X023342Y013666D01*
X023515Y013839D01*
X023692Y013839D01*
X023620Y013767D01*
X023559Y013620D01*
X023559Y013460D01*
X023620Y013313D01*
X023733Y013200D01*
X023880Y013139D01*
X024040Y013139D01*
X024187Y013200D01*
X024300Y013313D01*
X024319Y013359D01*
X024985Y013359D01*
X025039Y013305D01*
X025039Y012537D01*
X025001Y012575D01*
X024895Y012681D01*
X024336Y012681D01*
X024300Y012767D01*
X024187Y012880D01*
X024040Y012941D01*
X023880Y012941D01*
X023733Y012880D01*
X023620Y012767D01*
X023559Y012620D01*
X023559Y012460D01*
X023620Y012313D01*
X023733Y012200D01*
X023880Y012139D01*
X024040Y012139D01*
X024187Y012200D01*
X024300Y012313D01*
X024303Y012319D01*
X024745Y012319D01*
X024799Y012265D01*
X024799Y011497D01*
X024681Y011615D01*
X024575Y011721D01*
X024278Y011721D01*
X024278Y011787D01*
X024207Y011858D01*
X023713Y011858D01*
X023642Y011787D01*
X023642Y011293D01*
X023713Y011222D01*
X024207Y011222D01*
X024278Y011293D01*
X024278Y011359D01*
X024425Y011359D01*
X024985Y010799D01*
X026655Y010799D01*
X026761Y010905D01*
X027001Y011145D01*
X027001Y012815D01*
X026895Y012921D01*
X026766Y013050D01*
X026310Y013050D01*
X026306Y013061D01*
X026211Y013156D01*
X026189Y013165D01*
X026211Y013174D01*
X026306Y013269D01*
X026358Y013393D01*
X026358Y013527D01*
X026306Y013651D01*
X026211Y013746D01*
X026189Y013755D01*
X026211Y013764D01*
X026306Y013859D01*
X026358Y013983D01*
X026358Y014118D01*
X026306Y014242D01*
X026211Y014337D01*
X026207Y014339D01*
X026246Y014365D01*
X026296Y014415D01*
X026335Y014473D01*
X026362Y014537D01*
X026375Y014606D01*
X026375Y014632D01*
X026029Y014632D01*
X026029Y014650D01*
X026375Y014650D01*
X026375Y014676D01*
X026362Y014745D01*
X026335Y014809D01*
X026296Y014868D01*
X026246Y014917D01*
X026207Y014944D01*
X026211Y014945D01*
X026306Y015040D01*
X026358Y015165D01*
X026358Y015299D01*
X026306Y015423D01*
X026211Y015518D01*
X026201Y015522D01*
X026201Y015935D01*
X025695Y016441D01*
X022425Y016441D01*
X022159Y016175D01*
X022200Y016216D02*
X022100Y016216D01*
X022100Y016335D02*
X022319Y016335D01*
X022500Y016260D02*
X022340Y016100D01*
X022340Y012740D01*
X022500Y012580D01*
X022920Y012580D01*
X022960Y012540D01*
X022627Y012306D02*
X022100Y012306D01*
X022100Y012424D02*
X022400Y012424D01*
X022281Y012543D02*
X022100Y012543D01*
X022100Y012661D02*
X022163Y012661D01*
X022159Y012780D02*
X022100Y012780D01*
X022100Y012898D02*
X022159Y012898D01*
X022159Y013017D02*
X022100Y013017D01*
X022100Y013135D02*
X022159Y013135D01*
X022159Y013254D02*
X022100Y013254D01*
X022100Y013372D02*
X022159Y013372D01*
X022159Y013491D02*
X022100Y013491D01*
X022100Y013609D02*
X022159Y013609D01*
X022159Y013728D02*
X022100Y013728D01*
X022100Y013846D02*
X022159Y013846D01*
X022159Y013965D02*
X022100Y013965D01*
X022100Y014083D02*
X022159Y014083D01*
X022159Y014202D02*
X022100Y014202D01*
X022100Y014320D02*
X022159Y014320D01*
X022159Y014439D02*
X022100Y014439D01*
X022100Y014557D02*
X022159Y014557D01*
X022159Y014676D02*
X022100Y014676D01*
X022100Y014794D02*
X022159Y014794D01*
X022521Y014794D02*
X022647Y014794D01*
X022620Y014767D02*
X022559Y014620D01*
X022559Y014460D01*
X022620Y014313D01*
X022733Y014200D01*
X022880Y014139D01*
X023040Y014139D01*
X023187Y014200D01*
X023300Y014313D01*
X023361Y014460D01*
X023361Y014620D01*
X023300Y014767D01*
X023187Y014880D01*
X023040Y014941D01*
X022880Y014941D01*
X022733Y014880D01*
X022620Y014767D01*
X022582Y014676D02*
X022521Y014676D01*
X022521Y014557D02*
X022559Y014557D01*
X022568Y014439D02*
X022521Y014439D01*
X022521Y014320D02*
X022617Y014320D01*
X022521Y014202D02*
X022731Y014202D01*
X022521Y014083D02*
X023247Y014083D01*
X023189Y014202D02*
X023731Y014202D01*
X023617Y014320D02*
X023303Y014320D01*
X023352Y014439D02*
X023568Y014439D01*
X023559Y014557D02*
X023361Y014557D01*
X023338Y014676D02*
X023582Y014676D01*
X023647Y014794D02*
X023273Y014794D01*
X023109Y014913D02*
X023811Y014913D01*
X024109Y014913D02*
X025119Y014913D01*
X025119Y015031D02*
X022521Y015031D01*
X022521Y014913D02*
X022811Y014913D01*
X022862Y015132D02*
X022927Y015121D01*
X022960Y015121D01*
X022960Y015540D01*
X023379Y015540D01*
X023379Y015573D01*
X023368Y015638D01*
X023348Y015701D01*
X023318Y015759D01*
X023279Y015813D01*
X023233Y015859D01*
X023179Y015898D01*
X023121Y015928D01*
X023058Y015948D01*
X022993Y015959D01*
X022960Y015959D01*
X022927Y015959D01*
X022862Y015948D01*
X022799Y015928D01*
X022741Y015898D01*
X022687Y015859D01*
X022641Y015813D01*
X022602Y015759D01*
X022572Y015701D01*
X022552Y015638D01*
X022541Y015573D01*
X022541Y015540D01*
X022541Y015507D01*
X022552Y015442D01*
X022572Y015379D01*
X022602Y015321D01*
X022641Y015267D01*
X022687Y015221D01*
X022741Y015182D01*
X022799Y015152D01*
X022862Y015132D01*
X022807Y015150D02*
X022521Y015150D01*
X022521Y015268D02*
X022640Y015268D01*
X022570Y015387D02*
X022521Y015387D01*
X022521Y015505D02*
X022542Y015505D01*
X022541Y015540D02*
X022960Y015540D01*
X022960Y015540D01*
X022960Y015540D01*
X022960Y015959D01*
X022960Y015540D01*
X023379Y015540D01*
X023379Y015507D01*
X023368Y015442D01*
X023348Y015379D01*
X023318Y015321D01*
X023279Y015267D01*
X023233Y015221D01*
X023179Y015182D01*
X023121Y015152D01*
X023058Y015132D01*
X022993Y015121D01*
X022960Y015121D01*
X022960Y015540D01*
X022960Y015540D01*
X022960Y015540D01*
X022541Y015540D01*
X022549Y015624D02*
X022521Y015624D01*
X022521Y015742D02*
X022593Y015742D01*
X022521Y015861D02*
X022689Y015861D01*
X022521Y015979D02*
X025645Y015979D01*
X025763Y015861D02*
X024207Y015861D01*
X024310Y015742D02*
X025839Y015742D01*
X025839Y015624D02*
X025312Y015624D01*
X025431Y015505D02*
X025816Y015505D01*
X025719Y015387D02*
X025481Y015387D01*
X025481Y015268D02*
X025682Y015268D01*
X025689Y015150D02*
X025481Y015150D01*
X025481Y015031D02*
X025743Y015031D01*
X025789Y014913D02*
X025481Y014913D01*
X025481Y014794D02*
X025699Y014794D01*
X025665Y014676D02*
X025481Y014676D01*
X025481Y014557D02*
X025674Y014557D01*
X025728Y014439D02*
X025481Y014439D01*
X025481Y014320D02*
X025812Y014320D01*
X026228Y014320D02*
X027300Y014320D01*
X027300Y014202D02*
X026323Y014202D01*
X026358Y014083D02*
X027300Y014083D01*
X027300Y013965D02*
X026350Y013965D01*
X026293Y013846D02*
X027300Y013846D01*
X027300Y013728D02*
X026230Y013728D01*
X026324Y013609D02*
X027300Y013609D01*
X027300Y013491D02*
X026358Y013491D01*
X026349Y013372D02*
X027300Y013372D01*
X027300Y013254D02*
X026291Y013254D01*
X026232Y013135D02*
X027300Y013135D01*
X027300Y013017D02*
X026799Y013017D01*
X026918Y012898D02*
X027300Y012898D01*
X027300Y012780D02*
X027001Y012780D01*
X027001Y012661D02*
X027300Y012661D01*
X027300Y012543D02*
X027001Y012543D01*
X027001Y012424D02*
X027300Y012424D01*
X027300Y012306D02*
X027001Y012306D01*
X027001Y012187D02*
X027300Y012187D01*
X027300Y012069D02*
X027001Y012069D01*
X027001Y011950D02*
X027300Y011950D01*
X027300Y011832D02*
X027001Y011832D01*
X027001Y011713D02*
X027300Y011713D01*
X027300Y011595D02*
X027001Y011595D01*
X027001Y011476D02*
X027300Y011476D01*
X027300Y011358D02*
X027001Y011358D01*
X027001Y011239D02*
X027300Y011239D01*
X027300Y011121D02*
X026977Y011121D01*
X026858Y011002D02*
X027300Y011002D01*
X027300Y010884D02*
X026740Y010884D01*
X026580Y010980D02*
X025060Y010980D01*
X024500Y011540D01*
X023960Y011540D01*
X023642Y011595D02*
X023375Y011595D01*
X023379Y011573D02*
X023368Y011638D01*
X023348Y011701D01*
X023318Y011759D01*
X023279Y011813D01*
X023233Y011859D01*
X023179Y011898D01*
X023121Y011928D01*
X023058Y011948D01*
X022993Y011959D01*
X022960Y011959D01*
X022927Y011959D01*
X022862Y011948D01*
X022799Y011928D01*
X022741Y011898D01*
X022687Y011859D01*
X022641Y011813D01*
X022602Y011759D01*
X022572Y011701D01*
X022552Y011638D01*
X022541Y011573D01*
X022541Y011540D01*
X022541Y011507D01*
X022552Y011442D01*
X022572Y011379D01*
X022602Y011321D01*
X022641Y011267D01*
X022687Y011221D01*
X022741Y011182D01*
X022799Y011152D01*
X022862Y011132D01*
X022927Y011121D01*
X022960Y011121D01*
X022960Y011540D01*
X023379Y011540D01*
X023379Y011573D01*
X023379Y011540D02*
X022960Y011540D01*
X022960Y011540D01*
X022960Y011540D01*
X022960Y011959D01*
X022960Y011540D01*
X022960Y011121D01*
X022993Y011121D01*
X023058Y011132D01*
X023121Y011152D01*
X023179Y011182D01*
X023233Y011221D01*
X023279Y011267D01*
X023318Y011321D01*
X023348Y011379D01*
X023368Y011442D01*
X023379Y011507D01*
X023379Y011540D01*
X023374Y011476D02*
X023642Y011476D01*
X023642Y011358D02*
X023337Y011358D01*
X023251Y011239D02*
X023696Y011239D01*
X024224Y011239D02*
X024545Y011239D01*
X024663Y011121D02*
X022100Y011121D01*
X022100Y011239D02*
X022669Y011239D01*
X022583Y011358D02*
X022100Y011358D01*
X022100Y011476D02*
X022546Y011476D01*
X022541Y011540D02*
X022960Y011540D01*
X022960Y011540D01*
X022960Y011540D01*
X022541Y011540D01*
X022545Y011595D02*
X022100Y011595D01*
X022100Y011713D02*
X022578Y011713D01*
X022659Y011832D02*
X022100Y011832D01*
X022100Y011950D02*
X022872Y011950D01*
X022960Y011950D02*
X022960Y011950D01*
X023048Y011950D02*
X024799Y011950D01*
X024799Y011832D02*
X024233Y011832D01*
X024583Y011713D02*
X024799Y011713D01*
X024799Y011595D02*
X024701Y011595D01*
X024980Y011380D02*
X024980Y012340D01*
X024820Y012500D01*
X024000Y012500D01*
X023960Y012540D01*
X023576Y012661D02*
X023344Y012661D01*
X023361Y012543D02*
X023559Y012543D01*
X023574Y012424D02*
X023346Y012424D01*
X023293Y012306D02*
X023627Y012306D01*
X023764Y012187D02*
X023156Y012187D01*
X022764Y012187D02*
X022100Y012187D01*
X022100Y012069D02*
X024799Y012069D01*
X024799Y012187D02*
X024156Y012187D01*
X024293Y012306D02*
X024758Y012306D01*
X025033Y012543D02*
X025039Y012543D01*
X025039Y012661D02*
X024915Y012661D01*
X025039Y012780D02*
X024288Y012780D01*
X024144Y012898D02*
X025039Y012898D01*
X025039Y013017D02*
X022521Y013017D01*
X022521Y013135D02*
X025039Y013135D01*
X025039Y013254D02*
X024241Y013254D01*
X023960Y013540D02*
X025060Y013540D01*
X025220Y013380D01*
X025220Y011860D01*
X025392Y011688D01*
X026020Y011688D01*
X026420Y011220D02*
X025140Y011220D01*
X024980Y011380D01*
X024426Y011358D02*
X024278Y011358D01*
X024782Y011002D02*
X022100Y011002D01*
X022100Y010884D02*
X024900Y010884D01*
X023642Y011713D02*
X023342Y011713D01*
X023261Y011832D02*
X023687Y011832D01*
X022960Y011832D02*
X022960Y011832D01*
X022960Y011713D02*
X022960Y011713D01*
X022960Y011595D02*
X022960Y011595D01*
X022960Y011476D02*
X022960Y011476D01*
X022960Y011358D02*
X022960Y011358D01*
X022960Y011239D02*
X022960Y011239D01*
X022100Y010765D02*
X027300Y010765D01*
X027300Y010647D02*
X022100Y010647D01*
X022100Y010528D02*
X027300Y010528D01*
X027300Y010410D02*
X022100Y010410D01*
X022100Y010291D02*
X027300Y010291D01*
X027300Y010180D02*
X027300Y016595D01*
X022100Y016595D01*
X022100Y010180D01*
X027300Y010180D01*
X026580Y010980D02*
X026820Y011220D01*
X026820Y012740D01*
X026691Y012869D01*
X026020Y012869D01*
X026020Y012279D02*
X026481Y012279D01*
X026580Y012180D01*
X026580Y011380D01*
X026420Y011220D01*
X023776Y012898D02*
X023144Y012898D01*
X023288Y012780D02*
X023632Y012780D01*
X023679Y013254D02*
X023241Y013254D01*
X023324Y013372D02*
X023596Y013372D01*
X023559Y013491D02*
X023361Y013491D01*
X023361Y013609D02*
X023559Y013609D01*
X023604Y013728D02*
X023404Y013728D01*
X023440Y014020D02*
X022960Y013540D01*
X022679Y013254D02*
X022521Y013254D01*
X022521Y013372D02*
X022596Y013372D01*
X022559Y013491D02*
X022521Y013491D01*
X022521Y013609D02*
X022559Y013609D01*
X022521Y013728D02*
X022604Y013728D01*
X022521Y013846D02*
X022699Y013846D01*
X022521Y013965D02*
X023129Y013965D01*
X023440Y014020D02*
X024980Y014020D01*
X025540Y013460D01*
X026020Y013460D01*
X026020Y014051D02*
X025429Y014051D01*
X025300Y014180D01*
X025300Y015380D01*
X025140Y015540D01*
X023960Y015540D01*
X023590Y015387D02*
X023350Y015387D01*
X023378Y015505D02*
X023559Y015505D01*
X023561Y015624D02*
X023371Y015624D01*
X023327Y015742D02*
X023610Y015742D01*
X023713Y015861D02*
X023231Y015861D01*
X022960Y015861D02*
X022960Y015861D01*
X022960Y015742D02*
X022960Y015742D01*
X022960Y015624D02*
X022960Y015624D01*
X022960Y015505D02*
X022960Y015505D01*
X022960Y015387D02*
X022960Y015387D01*
X022960Y015268D02*
X022960Y015268D01*
X022960Y015150D02*
X022960Y015150D01*
X023113Y015150D02*
X023855Y015150D01*
X024065Y015150D02*
X025119Y015150D01*
X025119Y015268D02*
X024255Y015268D01*
X023665Y015268D02*
X023280Y015268D01*
X024273Y014794D02*
X025119Y014794D01*
X025119Y014676D02*
X024338Y014676D01*
X024361Y014557D02*
X025119Y014557D01*
X025119Y014439D02*
X024352Y014439D01*
X024303Y014320D02*
X025119Y014320D01*
X025119Y014202D02*
X024189Y014202D01*
X026020Y015232D02*
X026020Y015860D01*
X025620Y016260D01*
X022500Y016260D01*
X022100Y016453D02*
X027300Y016453D01*
X027300Y016335D02*
X025801Y016335D01*
X025920Y016216D02*
X027300Y016216D01*
X027300Y016098D02*
X026038Y016098D01*
X026157Y015979D02*
X027300Y015979D01*
X027300Y015861D02*
X026201Y015861D01*
X026201Y015742D02*
X027300Y015742D01*
X027300Y015624D02*
X026201Y015624D01*
X026224Y015505D02*
X027300Y015505D01*
X027300Y015387D02*
X026321Y015387D01*
X026358Y015268D02*
X027300Y015268D01*
X027300Y015150D02*
X026351Y015150D01*
X026297Y015031D02*
X027300Y015031D01*
X027300Y014913D02*
X026251Y014913D01*
X026341Y014794D02*
X027300Y014794D01*
X027300Y014676D02*
X026375Y014676D01*
X026366Y014557D02*
X027300Y014557D01*
X027300Y014439D02*
X026312Y014439D01*
X027300Y016572D02*
X022100Y016572D01*
X022521Y012898D02*
X022776Y012898D01*
X022632Y012780D02*
X022556Y012780D01*
X013150Y012850D02*
X013140Y012860D01*
X011540Y005260D02*
X011455Y005221D01*
X011540Y005035D01*
X011625Y005221D01*
X011540Y005260D01*
X011540Y005035D01*
X011540Y004820D01*
X011580Y004780D01*
X011980Y004780D01*
X012180Y004580D01*
X012180Y004340D01*
X011060Y003220D01*
X011060Y002500D01*
X010980Y002420D01*
X008180Y002420D01*
X008020Y002260D01*
X008020Y000580D01*
X007860Y000420D01*
X012420Y003325D02*
X012445Y003350D01*
X010179Y004780D02*
X010042Y004693D01*
X010000Y004760D01*
X010026Y004834D01*
X010179Y004780D01*
X011500Y004780D01*
X011540Y004820D01*
X010179Y004780D02*
X010020Y004780D01*
X010000Y004760D01*
X004654Y005380D02*
X004624Y005350D01*
D36*
X004600Y005300D01*
X004624Y006350D02*
X004700Y006400D01*
X006800Y008440D02*
X006900Y008500D01*
X013100Y012800D02*
X013140Y012860D01*
X015750Y014850D02*
X015600Y015100D01*
D37*
X006980Y012340D02*
X006923Y012438D01*
X006755Y012340D01*
X006923Y012242D01*
X006980Y012340D01*
X006755Y012340D01*
X001780Y012340D01*
X000340Y010900D01*
X000340Y004660D01*
X000820Y004180D01*
X000940Y004180D01*
X001260Y003829D02*
X001020Y003589D01*
X000940Y003589D01*
X001260Y003829D02*
X001260Y006380D01*
X001139Y006501D01*
X000951Y006550D01*
X000980Y006660D01*
X001090Y006689D01*
X001139Y006501D01*
X000980Y006660D01*
X001300Y006740D02*
X001420Y006620D01*
X001420Y003180D01*
X001239Y002999D01*
X000940Y002999D01*
X000940Y002408D02*
X001448Y002408D01*
X001580Y002540D01*
X001580Y006300D01*
X001700Y006420D01*
X001700Y006755D01*
X001602Y006923D01*
X001700Y006980D01*
X001798Y006923D01*
X001700Y006755D01*
X001700Y006980D01*
X001398Y006923D02*
X001300Y006980D01*
X001202Y006923D01*
X001300Y006755D01*
X001398Y006923D01*
X001300Y006980D02*
X001300Y006755D01*
X001300Y006740D01*
X002566Y005860D02*
X002576Y005850D01*
X002606Y005380D02*
X002576Y005350D01*
X000940Y004771D02*
X000860Y004771D01*
X000500Y005131D01*
X000500Y010020D01*
X001380Y010900D01*
X004595Y010900D01*
X004763Y010998D01*
X004820Y010900D01*
X004763Y010802D01*
X004595Y010900D01*
X004820Y010900D01*
X010711Y008810D02*
X010740Y008700D01*
X010850Y008671D01*
X010899Y008859D01*
X010711Y008810D01*
X010740Y008700D02*
X010899Y008859D01*
X011220Y009180D01*
M02*
