G75*
G70*
%OFA0B0*%
%FSLAX24Y24*%
%IPPOS*%
%LPD*%
%AMOC8*
5,1,8,0,0,1.08239X$1,22.5*
%
%ADD10C,0.0000*%
%ADD11R,0.0591X0.0669*%
%ADD12C,0.0636*%
%ADD13R,0.0869X0.0669*%
%ADD14R,0.0869X0.1579*%
%ADD15R,0.0679X0.0979*%
%ADD16R,0.0945X0.0315*%
%ADD17R,0.0472X0.0512*%
%ADD18R,0.2179X0.0839*%
%ADD19R,0.0512X0.0472*%
%ADD20R,0.0679X0.0279*%
%ADD21R,0.0559X0.0279*%
%ADD22R,0.1260X0.1496*%
%ADD23R,0.1260X0.1686*%
%ADD24C,0.0472*%
%ADD25C,0.0679*%
%ADD26C,0.0453*%
%ADD27C,0.0669*%
%ADD28C,0.0512*%
%ADD29R,0.0512X0.0512*%
%ADD30C,0.0639*%
%ADD31R,0.0472X0.0472*%
%ADD32C,0.0386*%
%ADD33C,0.0356*%
D10*
X000100Y000100D02*
X000100Y016832D01*
X027620Y016832D01*
X027620Y000100D01*
X000100Y000100D01*
X000685Y000980D02*
X000687Y001014D01*
X000693Y001048D01*
X000703Y001081D01*
X000716Y001112D01*
X000734Y001142D01*
X000754Y001170D01*
X000778Y001195D01*
X000804Y001217D01*
X000832Y001235D01*
X000863Y001251D01*
X000895Y001263D01*
X000929Y001271D01*
X000963Y001275D01*
X000997Y001275D01*
X001031Y001271D01*
X001065Y001263D01*
X001097Y001251D01*
X001127Y001235D01*
X001156Y001217D01*
X001182Y001195D01*
X001206Y001170D01*
X001226Y001142D01*
X001244Y001112D01*
X001257Y001081D01*
X001267Y001048D01*
X001273Y001014D01*
X001275Y000980D01*
X001273Y000946D01*
X001267Y000912D01*
X001257Y000879D01*
X001244Y000848D01*
X001226Y000818D01*
X001206Y000790D01*
X001182Y000765D01*
X001156Y000743D01*
X001128Y000725D01*
X001097Y000709D01*
X001065Y000697D01*
X001031Y000689D01*
X000997Y000685D01*
X000963Y000685D01*
X000929Y000689D01*
X000895Y000697D01*
X000863Y000709D01*
X000832Y000725D01*
X000804Y000743D01*
X000778Y000765D01*
X000754Y000790D01*
X000734Y000818D01*
X000716Y000848D01*
X000703Y000879D01*
X000693Y000912D01*
X000687Y000946D01*
X000685Y000980D01*
X020605Y015940D02*
X020607Y015974D01*
X020613Y016008D01*
X020623Y016041D01*
X020636Y016072D01*
X020654Y016102D01*
X020674Y016130D01*
X020698Y016155D01*
X020724Y016177D01*
X020752Y016195D01*
X020783Y016211D01*
X020815Y016223D01*
X020849Y016231D01*
X020883Y016235D01*
X020917Y016235D01*
X020951Y016231D01*
X020985Y016223D01*
X021017Y016211D01*
X021047Y016195D01*
X021076Y016177D01*
X021102Y016155D01*
X021126Y016130D01*
X021146Y016102D01*
X021164Y016072D01*
X021177Y016041D01*
X021187Y016008D01*
X021193Y015974D01*
X021195Y015940D01*
X021193Y015906D01*
X021187Y015872D01*
X021177Y015839D01*
X021164Y015808D01*
X021146Y015778D01*
X021126Y015750D01*
X021102Y015725D01*
X021076Y015703D01*
X021048Y015685D01*
X021017Y015669D01*
X020985Y015657D01*
X020951Y015649D01*
X020917Y015645D01*
X020883Y015645D01*
X020849Y015649D01*
X020815Y015657D01*
X020783Y015669D01*
X020752Y015685D01*
X020724Y015703D01*
X020698Y015725D01*
X020674Y015750D01*
X020654Y015778D01*
X020636Y015808D01*
X020623Y015839D01*
X020613Y015872D01*
X020607Y015906D01*
X020605Y015940D01*
D11*
X011974Y013100D03*
X011226Y013100D03*
X009324Y013600D03*
X008576Y013600D03*
X007474Y013600D03*
X006726Y013600D03*
D12*
X007100Y015021D02*
X007100Y015579D01*
X008100Y015579D02*
X008100Y015021D01*
X009100Y015021D02*
X009100Y015579D01*
D13*
X017250Y016010D03*
X017250Y015110D03*
X017250Y014210D03*
D14*
X019730Y015100D03*
D15*
X017700Y012870D03*
X016340Y012870D03*
X015280Y012850D03*
X013920Y012850D03*
D16*
X004624Y006350D03*
X004624Y005850D03*
X004624Y005350D03*
X004624Y004850D03*
X002576Y004850D03*
X002576Y005350D03*
X002576Y005850D03*
X002576Y006350D03*
D17*
X005520Y005245D03*
X005520Y004575D03*
X020760Y014255D03*
X020760Y014925D03*
D18*
X015000Y001600D03*
X011200Y001600D03*
D19*
X011775Y003350D03*
X012445Y003350D03*
X014115Y003350D03*
X014785Y003350D03*
X007580Y001435D03*
X007580Y000765D03*
X002460Y000705D03*
X002460Y001375D03*
D20*
X006630Y002350D03*
D21*
X006690Y001850D03*
X006690Y001350D03*
X006690Y000850D03*
X003667Y000850D03*
X003667Y001350D03*
X003667Y001850D03*
X003667Y002350D03*
D22*
X012550Y014850D03*
X014150Y014850D03*
X015750Y014850D03*
D23*
X010950Y014850D03*
D24*
X016903Y008850D02*
X017297Y008850D01*
X017903Y008850D02*
X018297Y008850D01*
X018297Y008350D02*
X017903Y008350D01*
X017297Y008350D02*
X016903Y008350D01*
X016903Y007850D02*
X017297Y007850D01*
X017903Y007850D02*
X018297Y007850D01*
X018297Y007350D02*
X017903Y007350D01*
X017297Y007350D02*
X016903Y007350D01*
X016903Y006850D02*
X017297Y006850D01*
X017903Y006850D02*
X018297Y006850D01*
X018297Y006350D02*
X017903Y006350D01*
X017297Y006350D02*
X016903Y006350D01*
X016903Y005850D02*
X017297Y005850D01*
X017903Y005850D02*
X018297Y005850D01*
X018297Y005350D02*
X017903Y005350D01*
X017297Y005350D02*
X016903Y005350D01*
X016903Y004850D02*
X017297Y004850D01*
X017903Y004850D02*
X018297Y004850D01*
X018297Y004350D02*
X017903Y004350D01*
X017297Y004350D02*
X016903Y004350D01*
X016903Y003850D02*
X017297Y003850D01*
X017903Y003850D02*
X018297Y003850D01*
X018297Y003350D02*
X017903Y003350D01*
X017297Y003350D02*
X016903Y003350D01*
X016903Y002850D02*
X017297Y002850D01*
X017903Y002850D02*
X018297Y002850D01*
X018297Y002350D02*
X017903Y002350D01*
X017297Y002350D02*
X016903Y002350D01*
X016903Y001850D02*
X017297Y001850D01*
X017903Y001850D02*
X018297Y001850D01*
D25*
X019710Y002350D03*
X019710Y008350D03*
D26*
X019447Y010720D02*
X019073Y010720D01*
X019073Y011220D02*
X019447Y011220D01*
X020073Y011220D02*
X020447Y011220D01*
X020447Y010720D02*
X020073Y010720D01*
X020073Y011720D02*
X020447Y011720D01*
X020447Y012220D02*
X020073Y012220D01*
X019447Y012220D02*
X019073Y012220D01*
X019073Y011720D02*
X019447Y011720D01*
X019447Y012720D02*
X019073Y012720D01*
X019073Y013220D02*
X019447Y013220D01*
X020073Y013220D02*
X020447Y013220D01*
X020447Y012720D02*
X020073Y012720D01*
X003047Y009620D02*
X002673Y009620D01*
X002047Y009620D02*
X001673Y009620D01*
X001673Y009120D02*
X002047Y009120D01*
X002673Y009120D02*
X003047Y009120D01*
X003047Y008620D02*
X002673Y008620D01*
X002047Y008620D02*
X001673Y008620D01*
X001673Y008120D02*
X002047Y008120D01*
X002673Y008120D02*
X003047Y008120D01*
X003047Y007620D02*
X002673Y007620D01*
X002047Y007620D02*
X001673Y007620D01*
D27*
X000980Y000980D03*
X020900Y015940D03*
D28*
X026020Y015232D03*
X026020Y014641D03*
X026020Y014051D03*
X026020Y013460D03*
X026020Y012869D03*
X026020Y012279D03*
X000940Y005952D03*
X000940Y005361D03*
X000940Y004771D03*
X000940Y004180D03*
X000940Y003589D03*
X000940Y002999D03*
D29*
X000940Y002408D03*
X026020Y011688D03*
D30*
X023960Y012540D03*
X022960Y012540D03*
X022960Y011540D03*
X022960Y013540D03*
X023960Y013540D03*
X023960Y014540D03*
X022960Y014540D03*
X022960Y015540D03*
X023960Y015540D03*
D31*
X023960Y011540D03*
D32*
X021060Y012580D03*
X018380Y012620D03*
X018380Y012100D03*
X018380Y011620D03*
X018380Y011100D03*
X017140Y011940D03*
X014740Y011460D03*
X013940Y011780D03*
X013140Y012860D03*
X014600Y013100D03*
X010700Y010980D03*
X010180Y010580D03*
X009540Y010260D03*
X009460Y009700D03*
X009140Y009300D03*
X009900Y009100D03*
X010420Y009060D03*
X010740Y008700D03*
X011800Y008600D03*
X012420Y008740D03*
X013220Y008820D03*
X013380Y007300D03*
X013300Y006580D03*
X012980Y005540D03*
X012660Y005020D03*
X012820Y004500D03*
X012800Y004000D03*
X011780Y004340D03*
X011220Y004180D03*
X010500Y004500D03*
X010500Y005060D03*
X011540Y005260D03*
X013540Y005060D03*
X014400Y003800D03*
X013340Y002840D03*
X015540Y002420D03*
X016100Y002260D03*
X019200Y001600D03*
X021140Y002500D03*
X020820Y006500D03*
X021140Y008900D03*
X020980Y009620D03*
X020500Y009700D03*
X014600Y016100D03*
X015780Y016340D03*
X010060Y013520D03*
X008560Y012540D03*
X007860Y012500D03*
X006980Y012340D03*
X007700Y011200D03*
X008300Y011000D03*
X008640Y010800D03*
X008760Y010060D03*
X007700Y010680D03*
X007140Y010800D03*
X004820Y010900D03*
X003940Y009620D03*
X004500Y007980D03*
X003780Y007940D03*
X003940Y006980D03*
X002460Y007020D03*
X001700Y006980D03*
X001300Y006980D03*
X000980Y006660D03*
X001860Y005860D03*
X002500Y004500D03*
X004020Y003380D03*
X005360Y002600D03*
X004580Y002180D03*
X004980Y001940D03*
X006260Y003060D03*
X006200Y003600D03*
X007220Y004320D03*
X008660Y004740D03*
X008340Y005380D03*
X007300Y005940D03*
X006740Y006020D03*
X006660Y006420D03*
X007700Y007860D03*
X008660Y007860D03*
X006900Y008500D03*
X006900Y008900D03*
X006900Y009300D03*
X001180Y008300D03*
X001020Y012340D03*
X004100Y013100D03*
X007060Y014340D03*
X005600Y016100D03*
X001800Y002360D03*
X002420Y002020D03*
X008420Y001220D03*
X008700Y001800D03*
D33*
X005700Y003500D03*
X003860Y004180D03*
X005320Y006100D03*
X004800Y006860D03*
X003300Y006860D03*
X010000Y004760D03*
X012740Y006900D03*
X010820Y007940D03*
X014820Y003940D03*
X003100Y001340D03*
X001540Y001700D03*
X019780Y013940D03*
X016500Y016020D03*
M02*
