G75*
G70*
%OFA0B0*%
%FSLAX24Y24*%
%IPPOS*%
%LPD*%
%AMOC8*
5,1,8,0,0,1.08239X$1,22.5*
%
%ADD10C,0.0000*%
%ADD11R,0.2205X0.0787*%
%ADD12C,0.0557*%
%ADD13R,0.0630X0.0118*%
%ADD14R,0.0118X0.0630*%
%ADD15R,0.0591X0.0512*%
%ADD16R,0.0787X0.0787*%
%ADD17R,0.0433X0.0394*%
%ADD18R,0.0390X0.0590*%
%ADD19R,0.0394X0.0433*%
%ADD20C,0.0394*%
%ADD21C,0.0600*%
%ADD22R,0.0709X0.0669*%
%ADD23C,0.0374*%
%ADD24C,0.0433*%
%ADD25R,0.0433X0.0433*%
%ADD26C,0.0560*%
%ADD27R,0.0394X0.0394*%
%ADD28C,0.0307*%
%ADD29C,0.0150*%
%ADD30C,0.0100*%
%ADD31C,0.0277*%
%ADD32C,0.0120*%
%ADD33C,0.0080*%
%ADD34C,0.0059*%
%ADD35C,0.0070*%
D10*
X000100Y000100D02*
X000100Y016832D01*
X027620Y016832D01*
X027620Y000100D01*
X000100Y000100D01*
X000685Y000980D02*
X000687Y001014D01*
X000693Y001048D01*
X000703Y001081D01*
X000716Y001112D01*
X000734Y001142D01*
X000754Y001170D01*
X000778Y001195D01*
X000804Y001217D01*
X000832Y001235D01*
X000863Y001251D01*
X000895Y001263D01*
X000929Y001271D01*
X000963Y001275D01*
X000997Y001275D01*
X001031Y001271D01*
X001065Y001263D01*
X001097Y001251D01*
X001127Y001235D01*
X001156Y001217D01*
X001182Y001195D01*
X001206Y001170D01*
X001226Y001142D01*
X001244Y001112D01*
X001257Y001081D01*
X001267Y001048D01*
X001273Y001014D01*
X001275Y000980D01*
X001273Y000946D01*
X001267Y000912D01*
X001257Y000879D01*
X001244Y000848D01*
X001226Y000818D01*
X001206Y000790D01*
X001182Y000765D01*
X001156Y000743D01*
X001128Y000725D01*
X001097Y000709D01*
X001065Y000697D01*
X001031Y000689D01*
X000997Y000685D01*
X000963Y000685D01*
X000929Y000689D01*
X000895Y000697D01*
X000863Y000709D01*
X000832Y000725D01*
X000804Y000743D01*
X000778Y000765D01*
X000754Y000790D01*
X000734Y000818D01*
X000716Y000848D01*
X000703Y000879D01*
X000693Y000912D01*
X000687Y000946D01*
X000685Y000980D01*
X020605Y015940D02*
X020607Y015974D01*
X020613Y016008D01*
X020623Y016041D01*
X020636Y016072D01*
X020654Y016102D01*
X020674Y016130D01*
X020698Y016155D01*
X020724Y016177D01*
X020752Y016195D01*
X020783Y016211D01*
X020815Y016223D01*
X020849Y016231D01*
X020883Y016235D01*
X020917Y016235D01*
X020951Y016231D01*
X020985Y016223D01*
X021017Y016211D01*
X021047Y016195D01*
X021076Y016177D01*
X021102Y016155D01*
X021126Y016130D01*
X021146Y016102D01*
X021164Y016072D01*
X021177Y016041D01*
X021187Y016008D01*
X021193Y015974D01*
X021195Y015940D01*
X021193Y015906D01*
X021187Y015872D01*
X021177Y015839D01*
X021164Y015808D01*
X021146Y015778D01*
X021126Y015750D01*
X021102Y015725D01*
X021076Y015703D01*
X021048Y015685D01*
X021017Y015669D01*
X020985Y015657D01*
X020951Y015649D01*
X020917Y015645D01*
X020883Y015645D01*
X020849Y015649D01*
X020815Y015657D01*
X020783Y015669D01*
X020752Y015685D01*
X020724Y015703D01*
X020698Y015725D01*
X020674Y015750D01*
X020654Y015778D01*
X020636Y015808D01*
X020623Y015839D01*
X020613Y015872D01*
X020607Y015906D01*
X020605Y015940D01*
D11*
X002850Y016120D03*
X002850Y011080D03*
D12*
X007100Y015021D02*
X007100Y015579D01*
X008100Y015579D02*
X008100Y015021D01*
X009100Y015021D02*
X009100Y015579D01*
D13*
X005927Y011045D03*
X005927Y010848D03*
X005927Y010651D03*
X005927Y010454D03*
X005927Y010257D03*
X005927Y010061D03*
X005927Y009864D03*
X005927Y009667D03*
X005927Y009470D03*
X005927Y009273D03*
X005927Y009076D03*
X005927Y008880D03*
X005927Y008683D03*
X005927Y008486D03*
X005927Y008289D03*
X005927Y008092D03*
X005927Y007895D03*
X005927Y007698D03*
X005927Y007502D03*
X005927Y007305D03*
X005927Y007108D03*
X005927Y006911D03*
X005927Y006714D03*
X005927Y006517D03*
X005927Y006320D03*
X005927Y006124D03*
X005927Y005927D03*
X005927Y005730D03*
X005927Y005533D03*
X005927Y005336D03*
X005927Y005139D03*
X005927Y004943D03*
X005927Y004746D03*
X005927Y004549D03*
X005927Y004352D03*
X005927Y004155D03*
X014273Y004155D03*
X014273Y004352D03*
X014273Y004549D03*
X014273Y004746D03*
X014273Y004943D03*
X014273Y005139D03*
X014273Y005336D03*
X014273Y005533D03*
X014273Y005730D03*
X014273Y005927D03*
X014273Y006124D03*
X014273Y006320D03*
X014273Y006517D03*
X014273Y006714D03*
X014273Y006911D03*
X014273Y007108D03*
X014273Y007305D03*
X014273Y007502D03*
X014273Y007698D03*
X014273Y007895D03*
X014273Y008092D03*
X014273Y008289D03*
X014273Y008486D03*
X014273Y008683D03*
X014273Y008880D03*
X014273Y009076D03*
X014273Y009273D03*
X014273Y009470D03*
X014273Y009667D03*
X014273Y009864D03*
X014273Y010061D03*
X014273Y010257D03*
X014273Y010454D03*
X014273Y010651D03*
X014273Y010848D03*
X014273Y011045D03*
D14*
X013545Y011773D03*
X013348Y011773D03*
X013151Y011773D03*
X012954Y011773D03*
X012757Y011773D03*
X012561Y011773D03*
X012364Y011773D03*
X012167Y011773D03*
X011970Y011773D03*
X011773Y011773D03*
X011576Y011773D03*
X011380Y011773D03*
X011183Y011773D03*
X010986Y011773D03*
X010789Y011773D03*
X010592Y011773D03*
X010395Y011773D03*
X010198Y011773D03*
X010002Y011773D03*
X009805Y011773D03*
X009608Y011773D03*
X009411Y011773D03*
X009214Y011773D03*
X009017Y011773D03*
X008820Y011773D03*
X008624Y011773D03*
X008427Y011773D03*
X008230Y011773D03*
X008033Y011773D03*
X007836Y011773D03*
X007639Y011773D03*
X007443Y011773D03*
X007246Y011773D03*
X007049Y011773D03*
X006852Y011773D03*
X006655Y011773D03*
X006655Y003427D03*
X006852Y003427D03*
X007049Y003427D03*
X007246Y003427D03*
X007443Y003427D03*
X007639Y003427D03*
X007836Y003427D03*
X008033Y003427D03*
X008230Y003427D03*
X008427Y003427D03*
X008624Y003427D03*
X008820Y003427D03*
X009017Y003427D03*
X009214Y003427D03*
X009411Y003427D03*
X009608Y003427D03*
X009805Y003427D03*
X010002Y003427D03*
X010198Y003427D03*
X010395Y003427D03*
X010592Y003427D03*
X010789Y003427D03*
X010986Y003427D03*
X011183Y003427D03*
X011380Y003427D03*
X011576Y003427D03*
X011773Y003427D03*
X011970Y003427D03*
X012167Y003427D03*
X012364Y003427D03*
X012561Y003427D03*
X012757Y003427D03*
X012954Y003427D03*
X013151Y003427D03*
X013348Y003427D03*
X013545Y003427D03*
D15*
X013100Y014976D03*
X013100Y015724D03*
D16*
X011600Y015647D03*
X011600Y014073D03*
D17*
X009685Y002350D03*
X009015Y002350D03*
X009015Y001350D03*
X009685Y001350D03*
X007435Y001230D03*
X006765Y001230D03*
X006765Y002220D03*
X007435Y002220D03*
D18*
X003875Y004910D03*
X003325Y004910D03*
X003325Y006290D03*
X003875Y006290D03*
D19*
X004850Y004435D03*
X004850Y003765D03*
X003435Y003600D03*
X002765Y003600D03*
X002765Y002600D03*
X003435Y002600D03*
D20*
X016903Y002350D02*
X017297Y002350D01*
X017903Y002350D02*
X018297Y002350D01*
X018297Y001850D02*
X017903Y001850D01*
X017297Y001850D02*
X016903Y001850D01*
X016903Y002850D02*
X017297Y002850D01*
X017903Y002850D02*
X018297Y002850D01*
X018297Y003350D02*
X017903Y003350D01*
X017297Y003350D02*
X016903Y003350D01*
X016903Y003850D02*
X017297Y003850D01*
X017903Y003850D02*
X018297Y003850D01*
X018297Y004350D02*
X017903Y004350D01*
X017297Y004350D02*
X016903Y004350D01*
X016903Y004850D02*
X017297Y004850D01*
X017903Y004850D02*
X018297Y004850D01*
X018297Y005350D02*
X017903Y005350D01*
X017297Y005350D02*
X016903Y005350D01*
X016903Y005850D02*
X017297Y005850D01*
X017903Y005850D02*
X018297Y005850D01*
X018297Y006350D02*
X017903Y006350D01*
X017297Y006350D02*
X016903Y006350D01*
X016903Y006850D02*
X017297Y006850D01*
X017903Y006850D02*
X018297Y006850D01*
X018297Y007350D02*
X017903Y007350D01*
X017297Y007350D02*
X016903Y007350D01*
X016903Y007850D02*
X017297Y007850D01*
X017903Y007850D02*
X018297Y007850D01*
X018297Y008350D02*
X017903Y008350D01*
X017297Y008350D02*
X016903Y008350D01*
X016903Y008850D02*
X017297Y008850D01*
X017903Y008850D02*
X018297Y008850D01*
D21*
X019710Y008350D03*
X019710Y002350D03*
D22*
X005407Y001100D03*
X003793Y001100D03*
D23*
X003047Y007620D02*
X002673Y007620D01*
X002047Y007620D02*
X001673Y007620D01*
X001673Y008120D02*
X002047Y008120D01*
X002673Y008120D02*
X003047Y008120D01*
X003047Y008620D02*
X002673Y008620D01*
X002047Y008620D02*
X001673Y008620D01*
X001673Y009120D02*
X002047Y009120D01*
X002673Y009120D02*
X003047Y009120D01*
X003047Y009620D02*
X002673Y009620D01*
X002047Y009620D02*
X001673Y009620D01*
X019073Y010720D02*
X019447Y010720D01*
X020073Y010720D02*
X020447Y010720D01*
X020447Y011220D02*
X020073Y011220D01*
X019447Y011220D02*
X019073Y011220D01*
X019073Y011720D02*
X019447Y011720D01*
X020073Y011720D02*
X020447Y011720D01*
X020447Y012220D02*
X020073Y012220D01*
X019447Y012220D02*
X019073Y012220D01*
X019073Y012720D02*
X019447Y012720D01*
X019447Y013220D02*
X019073Y013220D01*
X020073Y013220D02*
X020447Y013220D01*
X020447Y012720D02*
X020073Y012720D01*
D24*
X026020Y012869D03*
X026020Y012279D03*
X026020Y013460D03*
X026020Y014051D03*
X026020Y014641D03*
X026020Y015232D03*
X000940Y005952D03*
X000940Y005361D03*
X000940Y004771D03*
X000940Y004180D03*
X000940Y003589D03*
X000940Y002999D03*
D25*
X000940Y002408D03*
X026020Y011688D03*
D26*
X023960Y012540D03*
X022960Y012540D03*
X022960Y011540D03*
X022960Y013540D03*
X023960Y013540D03*
X023960Y014540D03*
X022960Y014540D03*
X022960Y015540D03*
X023960Y015540D03*
D27*
X023960Y011540D03*
D28*
X021060Y012580D03*
X018380Y012620D03*
X018380Y012100D03*
X018380Y011620D03*
X018380Y011100D03*
X017140Y011940D03*
X014740Y011460D03*
X013940Y011780D03*
X013140Y012860D03*
X014600Y013100D03*
X010700Y010980D03*
X010180Y010580D03*
X009540Y010260D03*
X009460Y009700D03*
X009140Y009300D03*
X009900Y009100D03*
X010420Y009060D03*
X010740Y008700D03*
X011800Y008600D03*
X012420Y008740D03*
X013220Y008820D03*
X013380Y007300D03*
X013300Y006580D03*
X012980Y005540D03*
X012660Y005020D03*
X012820Y004500D03*
X012800Y004000D03*
X011780Y004340D03*
X011220Y004180D03*
X010500Y004500D03*
X010500Y005060D03*
X011540Y005260D03*
X013540Y005060D03*
X014400Y003800D03*
X013340Y002840D03*
X015540Y002420D03*
X016100Y002260D03*
X019200Y001600D03*
X021140Y002500D03*
X020820Y006500D03*
X021140Y008900D03*
X020980Y009620D03*
X020500Y009700D03*
X014600Y016100D03*
X015780Y016340D03*
X010060Y013520D03*
X008560Y012540D03*
X007860Y012500D03*
X006980Y012340D03*
X007700Y011200D03*
X008300Y011000D03*
X008640Y010800D03*
X008760Y010060D03*
X007700Y010680D03*
X007140Y010800D03*
X004820Y010900D03*
X003940Y009620D03*
X004500Y007980D03*
X003780Y007940D03*
X003940Y006980D03*
X002460Y007020D03*
X001700Y006980D03*
X001300Y006980D03*
X000980Y006660D03*
X001860Y005860D03*
X002500Y004500D03*
X004020Y003380D03*
X005360Y002600D03*
X004580Y002180D03*
X004980Y001940D03*
X006260Y003060D03*
X006200Y003600D03*
X007220Y004320D03*
X008660Y004740D03*
X008340Y005380D03*
X007300Y005940D03*
X006740Y006020D03*
X006660Y006420D03*
X007700Y007860D03*
X008660Y007860D03*
X006900Y008500D03*
X006900Y008900D03*
X006900Y009300D03*
X001180Y008300D03*
X001020Y012340D03*
X004100Y013100D03*
X007060Y014340D03*
X005600Y016100D03*
X001800Y002360D03*
X002420Y002020D03*
X008420Y001220D03*
X008700Y001800D03*
D29*
X011466Y005288D02*
X011540Y005260D01*
X011614Y005288D01*
X011540Y005485D01*
X011466Y005288D01*
X011540Y005260D02*
X011540Y005485D01*
X011540Y007060D01*
X012900Y008420D01*
X012900Y008500D01*
X012900Y010820D01*
X013140Y011060D01*
X013620Y011060D01*
X013940Y011380D01*
X014100Y011380D01*
X014310Y011590D01*
X014700Y011980D01*
X016919Y011980D01*
X017126Y012017D01*
X017140Y011940D01*
X017100Y011872D01*
X016919Y011980D01*
X017100Y011980D01*
X013214Y012888D02*
X013140Y012860D01*
X013066Y012888D01*
X013140Y013085D01*
X013214Y012888D01*
X013140Y012860D02*
X013140Y013085D01*
X013140Y013300D01*
X012420Y014020D01*
X012420Y014740D01*
X012260Y014900D01*
X010740Y014900D01*
X010180Y014340D01*
X007285Y014340D01*
X007088Y014266D01*
X007060Y014340D01*
X007088Y014414D01*
X007285Y014340D01*
X007060Y014340D01*
X005566Y016029D02*
X005600Y016100D01*
X005579Y016176D01*
X005376Y016120D01*
X005566Y016029D01*
X005600Y016120D02*
X005376Y016120D01*
X002850Y016120D01*
X004026Y013072D02*
X004100Y013100D01*
X004174Y013072D01*
X004100Y012875D01*
X004026Y013072D01*
X004100Y013100D02*
X004100Y012875D01*
X004100Y011600D01*
X003600Y011100D01*
X010036Y013445D02*
X010236Y013380D01*
X010127Y013561D01*
X010060Y013520D01*
X010036Y013445D01*
X010060Y013520D02*
X010200Y013380D01*
X010236Y013380D01*
X011460Y013380D01*
X011600Y013520D01*
X011600Y014073D01*
X011620Y014080D02*
X011600Y014100D01*
X013100Y014460D02*
X013100Y015100D01*
X013100Y015724D02*
X013100Y016060D01*
X012900Y016260D01*
X011700Y016260D01*
X011620Y016180D01*
X011620Y015907D01*
X011600Y015647D01*
X013100Y014460D02*
X013140Y014420D01*
X013920Y014420D01*
X014600Y015100D01*
X014600Y015875D01*
X014526Y016072D01*
X014600Y016100D01*
X014674Y016072D01*
X014600Y015875D01*
X014600Y016100D01*
X015780Y016340D02*
X015808Y016266D01*
X016005Y016340D01*
X015808Y016414D01*
X015780Y016340D01*
X016005Y016340D01*
X016820Y016340D01*
X016980Y016180D01*
X016980Y015620D01*
X017540Y015060D01*
X021140Y015060D01*
X021380Y014820D01*
X021380Y009140D01*
X021299Y009059D01*
X021212Y008867D01*
X021140Y008900D01*
X021107Y008972D01*
X021299Y009059D01*
X021140Y008900D01*
D30*
X020951Y009086D02*
X020916Y009050D01*
X020875Y008953D01*
X020875Y008847D01*
X020916Y008750D01*
X020990Y008676D01*
X021087Y008635D01*
X021193Y008635D01*
X021290Y008676D01*
X021326Y008711D01*
X021349Y008720D01*
X021357Y008737D01*
X021361Y008747D01*
X021364Y008750D01*
X021383Y008794D01*
X021440Y008919D01*
X021446Y008922D01*
X021459Y008956D01*
X021566Y009063D01*
X021566Y014897D01*
X021326Y015137D01*
X021217Y015246D01*
X017617Y015246D01*
X017166Y015697D01*
X017166Y016257D01*
X016897Y016526D01*
X016045Y016526D01*
X016012Y016541D01*
X016005Y016539D01*
X015877Y016586D01*
X015833Y016605D01*
X015828Y016605D01*
X015827Y016605D01*
X021700Y016605D01*
X021700Y000327D01*
X014315Y000327D01*
X014487Y000499D01*
X014581Y000593D01*
X014581Y003544D01*
X014636Y003678D01*
X014645Y003699D01*
X014665Y003747D01*
X014665Y003748D01*
X014670Y003761D01*
X014670Y003761D01*
X014670Y003761D01*
X014665Y003774D01*
X014665Y003853D01*
X014624Y003950D01*
X014589Y003985D01*
X014634Y003985D01*
X014699Y004050D01*
X014699Y004621D01*
X014708Y004637D01*
X014717Y004670D01*
X014717Y004746D01*
X014717Y004822D01*
X014708Y004854D01*
X014699Y004870D01*
X014699Y004978D01*
X014754Y004978D01*
X014979Y004753D01*
X014979Y003367D01*
X014659Y003047D01*
X014659Y000993D01*
X014819Y000833D01*
X014913Y000739D01*
X019607Y000739D01*
X020541Y001673D01*
X020541Y003167D01*
X019291Y004417D01*
X019197Y004511D01*
X018563Y004511D01*
X018558Y004524D01*
X018482Y004600D01*
X018558Y004676D01*
X018605Y004789D01*
X018605Y004911D01*
X018558Y005024D01*
X018482Y005100D01*
X018558Y005176D01*
X018568Y005199D01*
X018893Y005199D01*
X018981Y005287D01*
X020571Y006877D01*
X020571Y008302D01*
X020669Y008205D01*
X020669Y006766D01*
X020623Y006688D01*
X020609Y006663D01*
X020596Y006650D01*
X020582Y006618D01*
X020560Y006580D01*
X020562Y006570D01*
X020555Y006553D01*
X020555Y006447D01*
X020596Y006350D01*
X020670Y006276D01*
X020767Y006235D01*
X020873Y006235D01*
X020970Y006276D01*
X020979Y006285D01*
X020979Y002764D01*
X020924Y002658D01*
X020916Y002650D01*
X020900Y002612D01*
X020875Y002564D01*
X020874Y002563D01*
X020876Y002559D01*
X020877Y002556D01*
X020875Y002553D01*
X020875Y002447D01*
X020916Y002350D01*
X020990Y002276D01*
X021087Y002235D01*
X021193Y002235D01*
X021290Y002276D01*
X021364Y002350D01*
X021405Y002447D01*
X021405Y002553D01*
X021403Y002556D01*
X021406Y002563D01*
X021380Y002612D01*
X021364Y002650D01*
X021356Y002658D01*
X021301Y002764D01*
X021301Y008247D01*
X021207Y008341D01*
X019126Y010422D01*
X019506Y010422D01*
X019616Y010467D01*
X019700Y010551D01*
X019745Y010661D01*
X019745Y010779D01*
X019700Y010889D01*
X019618Y010970D01*
X019700Y011051D01*
X019745Y011161D01*
X019745Y011279D01*
X019700Y011389D01*
X019618Y011470D01*
X019700Y011551D01*
X019745Y011661D01*
X019745Y011779D01*
X019700Y011889D01*
X019618Y011970D01*
X019700Y012051D01*
X019745Y012161D01*
X019745Y012279D01*
X019700Y012389D01*
X019618Y012470D01*
X019700Y012551D01*
X019745Y012661D01*
X019745Y012779D01*
X019700Y012889D01*
X019628Y012961D01*
X019648Y012975D01*
X019692Y013019D01*
X019727Y013070D01*
X019751Y013128D01*
X019763Y013189D01*
X019763Y013216D01*
X019264Y013216D01*
X019264Y013224D01*
X019256Y013224D01*
X019256Y013216D01*
X018757Y013216D01*
X018757Y013189D01*
X018769Y013128D01*
X018793Y013070D01*
X018828Y013019D01*
X018872Y012975D01*
X018892Y012961D01*
X018820Y012889D01*
X018817Y012881D01*
X018634Y012881D01*
X018623Y012889D01*
X018571Y012881D01*
X018452Y012883D01*
X018435Y012884D01*
X018433Y012885D01*
X018382Y012885D01*
X018318Y012886D01*
X018309Y012877D01*
X018230Y012844D01*
X018156Y012770D01*
X018115Y012673D01*
X018115Y012567D01*
X018156Y012470D01*
X018230Y012396D01*
X018315Y012360D01*
X018291Y012358D01*
X018281Y012345D01*
X018230Y012324D01*
X018156Y012250D01*
X018115Y012153D01*
X018115Y012047D01*
X018156Y011950D01*
X018230Y011876D01*
X018268Y011860D01*
X018230Y011844D01*
X018156Y011770D01*
X018115Y011673D01*
X018115Y011567D01*
X018156Y011470D01*
X018230Y011396D01*
X018315Y011360D01*
X018291Y011358D01*
X018281Y011345D01*
X018230Y011324D01*
X018156Y011250D01*
X018115Y011153D01*
X018115Y011047D01*
X018143Y010981D01*
X018087Y010981D01*
X017781Y011287D01*
X017781Y013473D01*
X018087Y013779D01*
X019558Y013779D01*
X019627Y013739D01*
X019639Y013728D01*
X019670Y013715D01*
X019715Y013690D01*
X019725Y013693D01*
X019730Y013690D01*
X019830Y013690D01*
X019921Y013728D01*
X019992Y013799D01*
X020030Y013890D01*
X020899Y013890D01*
X020899Y013792D02*
X019985Y013792D01*
X020030Y013890D02*
X020030Y013990D01*
X019992Y014081D01*
X019921Y014152D01*
X019830Y014190D01*
X019730Y014190D01*
X019725Y014187D01*
X019715Y014190D01*
X019715Y014190D01*
X019715Y014190D01*
X019670Y014165D01*
X019639Y014152D01*
X019627Y014141D01*
X019558Y014101D01*
X017953Y014101D01*
X017553Y013701D01*
X017459Y013607D01*
X017459Y011327D01*
X017439Y011307D01*
X017439Y011173D01*
X017459Y011153D01*
X017801Y010811D01*
X017443Y010811D01*
X016891Y011363D01*
X016803Y011451D01*
X015016Y011451D01*
X015005Y011494D01*
X015005Y011513D01*
X014992Y011545D01*
X014980Y011587D01*
X014972Y011593D01*
X014964Y011610D01*
X014890Y011684D01*
X014793Y011725D01*
X014708Y011725D01*
X014777Y011794D01*
X016860Y011794D01*
X016876Y011783D01*
X016883Y011785D01*
X016938Y011752D01*
X016976Y011729D01*
X016990Y011716D01*
X017021Y011703D01*
X017071Y011673D01*
X017084Y011676D01*
X017087Y011675D01*
X017193Y011675D01*
X017290Y011716D01*
X017364Y011790D01*
X017405Y011887D01*
X017405Y011993D01*
X017364Y012090D01*
X017290Y012164D01*
X017193Y012205D01*
X017182Y012205D01*
X017169Y012214D01*
X017169Y012214D01*
X017126Y012206D01*
X017116Y012205D01*
X017087Y012205D01*
X017065Y012195D01*
X016954Y012175D01*
X016947Y012179D01*
X016895Y012166D01*
X014623Y012166D01*
X014471Y012014D01*
X014471Y012867D01*
X014547Y012835D01*
X014631Y012835D01*
X014646Y012830D01*
X014706Y012857D01*
X014750Y012876D01*
X014754Y012879D01*
X014862Y012929D01*
X015971Y012929D01*
X016071Y013029D01*
X016671Y013629D01*
X016671Y014499D01*
X020753Y014499D01*
X020899Y014353D01*
X020899Y013527D01*
X020753Y013381D01*
X020703Y013381D01*
X020700Y013389D01*
X020616Y013473D01*
X020506Y013518D01*
X020014Y013518D01*
X019904Y013473D01*
X019820Y013389D01*
X019775Y013279D01*
X019775Y013161D01*
X019820Y013051D01*
X019902Y012970D01*
X019820Y012889D01*
X019775Y012779D01*
X019775Y012661D01*
X019820Y012551D01*
X019902Y012470D01*
X019820Y012389D01*
X019775Y012279D01*
X019775Y012161D01*
X019820Y012051D01*
X019902Y011970D01*
X019820Y011889D01*
X019775Y011779D01*
X019775Y011661D01*
X019820Y011551D01*
X019902Y011470D01*
X019820Y011389D01*
X019775Y011279D01*
X019775Y011161D01*
X019820Y011051D01*
X019902Y010970D01*
X019820Y010889D01*
X019775Y010779D01*
X019775Y010661D01*
X019820Y010551D01*
X019904Y010467D01*
X020014Y010422D01*
X020506Y010422D01*
X020616Y010467D01*
X020700Y010551D01*
X020739Y010646D01*
X020739Y010087D01*
X020624Y009972D01*
X020493Y009965D01*
X020447Y009965D01*
X020441Y009962D01*
X020420Y009961D01*
X020409Y009949D01*
X020350Y009924D01*
X020276Y009850D01*
X020235Y009753D01*
X019795Y009753D01*
X019893Y009655D02*
X020235Y009655D01*
X020235Y009647D02*
X020276Y009550D01*
X020350Y009476D01*
X020447Y009435D01*
X020553Y009435D01*
X020650Y009476D01*
X020674Y009499D01*
X020689Y009503D01*
X020708Y009534D01*
X020723Y009549D01*
X020756Y009470D01*
X020830Y009396D01*
X020927Y009355D01*
X021033Y009355D01*
X021130Y009396D01*
X021194Y009460D01*
X021194Y009218D01*
X021162Y009206D01*
X021159Y009200D01*
X021034Y009143D01*
X020990Y009124D01*
X020987Y009121D01*
X020977Y009117D01*
X020960Y009109D01*
X020951Y009086D01*
X020929Y009064D02*
X020484Y009064D01*
X020386Y009162D02*
X021076Y009162D01*
X021194Y009261D02*
X020287Y009261D01*
X020189Y009359D02*
X020918Y009359D01*
X021042Y009359D02*
X021194Y009359D01*
X021192Y009458D02*
X021194Y009458D01*
X021079Y009589D02*
X020980Y009620D01*
X020949Y009719D01*
X021139Y009779D01*
X021079Y009589D01*
X020980Y009620D02*
X021139Y009779D01*
X021140Y009780D01*
X021140Y011860D01*
X020780Y012220D01*
X020260Y012220D01*
X019853Y012019D02*
X019667Y012019D01*
X019668Y011920D02*
X019852Y011920D01*
X019792Y011822D02*
X019728Y011822D01*
X019745Y011723D02*
X019775Y011723D01*
X019790Y011625D02*
X019730Y011625D01*
X019675Y011526D02*
X019845Y011526D01*
X019859Y011428D02*
X019661Y011428D01*
X019724Y011329D02*
X019796Y011329D01*
X019775Y011231D02*
X019745Y011231D01*
X019733Y011132D02*
X019787Y011132D01*
X019838Y011034D02*
X019682Y011034D01*
X019653Y010935D02*
X019867Y010935D01*
X019799Y010837D02*
X019721Y010837D01*
X019745Y010738D02*
X019775Y010738D01*
X019784Y010640D02*
X019736Y010640D01*
X019690Y010541D02*
X019830Y010541D01*
X019964Y010443D02*
X019556Y010443D01*
X019302Y010246D02*
X020739Y010246D01*
X020739Y010344D02*
X019204Y010344D01*
X019401Y010147D02*
X020739Y010147D01*
X020701Y010049D02*
X019499Y010049D01*
X019598Y009950D02*
X020410Y009950D01*
X020277Y009852D02*
X019696Y009852D01*
X020235Y009753D02*
X020235Y009647D01*
X020273Y009556D02*
X019992Y009556D01*
X020090Y009458D02*
X020394Y009458D01*
X020606Y009458D02*
X020768Y009458D01*
X020689Y009503D02*
X020689Y009503D01*
X020689Y009503D01*
X020588Y009645D02*
X020500Y009700D01*
X020495Y009804D01*
X020694Y009814D01*
X020588Y009645D01*
X020580Y009700D02*
X020500Y009700D01*
X020580Y009700D02*
X020694Y009814D01*
X020900Y010020D01*
X020900Y011460D01*
X020640Y011720D01*
X020260Y011720D01*
X019793Y012117D02*
X019727Y012117D01*
X019745Y012216D02*
X019775Y012216D01*
X019789Y012314D02*
X019731Y012314D01*
X019676Y012413D02*
X019844Y012413D01*
X019860Y012511D02*
X019660Y012511D01*
X019724Y012610D02*
X019796Y012610D01*
X019775Y012708D02*
X019745Y012708D01*
X019734Y012807D02*
X019786Y012807D01*
X019837Y012905D02*
X019683Y012905D01*
X019677Y013004D02*
X019868Y013004D01*
X019799Y013102D02*
X019740Y013102D01*
X019763Y013201D02*
X019775Y013201D01*
X019763Y013224D02*
X019763Y013251D01*
X019751Y013312D01*
X019727Y013370D01*
X019692Y013421D01*
X019648Y013465D01*
X019597Y013500D01*
X019539Y013524D01*
X019478Y013536D01*
X019264Y013536D01*
X019264Y013224D01*
X019763Y013224D01*
X019753Y013299D02*
X019783Y013299D01*
X019829Y013398D02*
X019708Y013398D01*
X019602Y013496D02*
X019961Y013496D01*
X019836Y013693D02*
X020899Y013693D01*
X020899Y013595D02*
X017902Y013595D01*
X018001Y013693D02*
X019709Y013693D01*
X019715Y013690D02*
X019715Y013690D01*
X019736Y013863D02*
X019780Y013940D01*
X019736Y014017D01*
X019600Y013940D01*
X019736Y013863D01*
X019780Y013940D02*
X019600Y013940D01*
X018020Y013940D01*
X017620Y013540D01*
X017620Y011220D01*
X018020Y010820D01*
X018500Y010820D01*
X021140Y008180D01*
X021140Y002725D01*
X021232Y002548D01*
X021140Y002500D01*
X021048Y002548D01*
X021140Y002725D01*
X021140Y002500D01*
X021269Y002267D02*
X021700Y002267D01*
X021700Y002169D02*
X020541Y002169D01*
X020541Y002267D02*
X021011Y002267D01*
X020909Y002366D02*
X020541Y002366D01*
X020541Y002464D02*
X020875Y002464D01*
X020874Y002563D02*
X020541Y002563D01*
X020541Y002661D02*
X020925Y002661D01*
X020976Y002760D02*
X020541Y002760D01*
X020541Y002858D02*
X020979Y002858D01*
X020979Y002957D02*
X020541Y002957D01*
X020541Y003055D02*
X020979Y003055D01*
X020979Y003154D02*
X020541Y003154D01*
X020456Y003252D02*
X020979Y003252D01*
X020979Y003351D02*
X020357Y003351D01*
X020259Y003449D02*
X020979Y003449D01*
X020979Y003548D02*
X020160Y003548D01*
X020062Y003646D02*
X020979Y003646D01*
X020979Y003745D02*
X019963Y003745D01*
X019865Y003843D02*
X020979Y003843D01*
X020979Y003942D02*
X019766Y003942D01*
X019668Y004040D02*
X020979Y004040D01*
X020979Y004139D02*
X019569Y004139D01*
X019471Y004237D02*
X020979Y004237D01*
X020979Y004336D02*
X019372Y004336D01*
X019274Y004434D02*
X020979Y004434D01*
X020979Y004533D02*
X018550Y004533D01*
X018513Y004631D02*
X020979Y004631D01*
X020979Y004730D02*
X018580Y004730D01*
X018605Y004828D02*
X020979Y004828D01*
X020979Y004927D02*
X018598Y004927D01*
X018557Y005025D02*
X020979Y005025D01*
X020979Y005124D02*
X018506Y005124D01*
X018916Y005222D02*
X020979Y005222D01*
X020979Y005321D02*
X019014Y005321D01*
X019113Y005419D02*
X020979Y005419D01*
X020979Y005518D02*
X019211Y005518D01*
X019310Y005616D02*
X020979Y005616D01*
X020979Y005715D02*
X019408Y005715D01*
X019507Y005813D02*
X020979Y005813D01*
X020979Y005912D02*
X019605Y005912D01*
X019704Y006010D02*
X020979Y006010D01*
X020979Y006109D02*
X019802Y006109D01*
X019901Y006207D02*
X020979Y006207D01*
X021301Y006207D02*
X021700Y006207D01*
X021700Y006109D02*
X021301Y006109D01*
X021301Y006010D02*
X021700Y006010D01*
X021700Y005912D02*
X021301Y005912D01*
X021301Y005813D02*
X021700Y005813D01*
X021700Y005715D02*
X021301Y005715D01*
X021301Y005616D02*
X021700Y005616D01*
X021700Y005518D02*
X021301Y005518D01*
X021301Y005419D02*
X021700Y005419D01*
X021700Y005321D02*
X021301Y005321D01*
X021301Y005222D02*
X021700Y005222D01*
X021700Y005124D02*
X021301Y005124D01*
X021301Y005025D02*
X021700Y005025D01*
X021700Y004927D02*
X021301Y004927D01*
X021301Y004828D02*
X021700Y004828D01*
X021700Y004730D02*
X021301Y004730D01*
X021301Y004631D02*
X021700Y004631D01*
X021700Y004533D02*
X021301Y004533D01*
X021301Y004434D02*
X021700Y004434D01*
X021700Y004336D02*
X021301Y004336D01*
X021301Y004237D02*
X021700Y004237D01*
X021700Y004139D02*
X021301Y004139D01*
X021301Y004040D02*
X021700Y004040D01*
X021700Y003942D02*
X021301Y003942D01*
X021301Y003843D02*
X021700Y003843D01*
X021700Y003745D02*
X021301Y003745D01*
X021301Y003646D02*
X021700Y003646D01*
X021700Y003548D02*
X021301Y003548D01*
X021301Y003449D02*
X021700Y003449D01*
X021700Y003351D02*
X021301Y003351D01*
X021301Y003252D02*
X021700Y003252D01*
X021700Y003154D02*
X021301Y003154D01*
X021301Y003055D02*
X021700Y003055D01*
X021700Y002957D02*
X021301Y002957D01*
X021301Y002858D02*
X021700Y002858D01*
X021700Y002760D02*
X021304Y002760D01*
X021355Y002661D02*
X021700Y002661D01*
X021700Y002563D02*
X021406Y002563D01*
X021406Y002563D01*
X021406Y002563D01*
X021405Y002464D02*
X021700Y002464D01*
X021700Y002366D02*
X021371Y002366D01*
X021700Y002070D02*
X020541Y002070D01*
X020541Y001972D02*
X021700Y001972D01*
X021700Y001873D02*
X020541Y001873D01*
X020541Y001775D02*
X021700Y001775D01*
X021700Y001676D02*
X020541Y001676D01*
X020445Y001578D02*
X021700Y001578D01*
X021700Y001479D02*
X020347Y001479D01*
X020248Y001381D02*
X021700Y001381D01*
X021700Y001282D02*
X020150Y001282D01*
X020051Y001184D02*
X021700Y001184D01*
X021700Y001085D02*
X019953Y001085D01*
X019854Y000987D02*
X021700Y000987D01*
X021700Y000888D02*
X019756Y000888D01*
X019657Y000790D02*
X021700Y000790D01*
X021700Y000691D02*
X014581Y000691D01*
X014581Y000790D02*
X014863Y000790D01*
X014819Y000833D02*
X014819Y000833D01*
X014764Y000888D02*
X014581Y000888D01*
X014581Y000987D02*
X014666Y000987D01*
X014659Y001085D02*
X014581Y001085D01*
X014581Y001184D02*
X014659Y001184D01*
X014659Y001282D02*
X014581Y001282D01*
X014581Y001381D02*
X014659Y001381D01*
X014659Y001479D02*
X014581Y001479D01*
X014581Y001578D02*
X014659Y001578D01*
X014659Y001676D02*
X014581Y001676D01*
X014581Y001775D02*
X014659Y001775D01*
X014659Y001873D02*
X014581Y001873D01*
X014581Y001972D02*
X014659Y001972D01*
X014659Y002070D02*
X014581Y002070D01*
X014581Y002169D02*
X014659Y002169D01*
X014659Y002267D02*
X014581Y002267D01*
X014581Y002366D02*
X014659Y002366D01*
X014659Y002464D02*
X014581Y002464D01*
X014581Y002563D02*
X014659Y002563D01*
X014659Y002661D02*
X014581Y002661D01*
X014581Y002760D02*
X014659Y002760D01*
X014659Y002858D02*
X014581Y002858D01*
X014581Y002957D02*
X014659Y002957D01*
X014667Y003055D02*
X014581Y003055D01*
X014581Y003154D02*
X014766Y003154D01*
X014864Y003252D02*
X014581Y003252D01*
X014581Y003351D02*
X014963Y003351D01*
X014979Y003449D02*
X014581Y003449D01*
X014582Y003548D02*
X014979Y003548D01*
X014979Y003646D02*
X014623Y003646D01*
X014664Y003745D02*
X014979Y003745D01*
X014979Y003843D02*
X014665Y003843D01*
X014628Y003942D02*
X014979Y003942D01*
X014979Y004040D02*
X014689Y004040D01*
X014699Y004139D02*
X014979Y004139D01*
X014979Y004237D02*
X014699Y004237D01*
X014699Y004336D02*
X014979Y004336D01*
X014979Y004434D02*
X014699Y004434D01*
X014699Y004533D02*
X014979Y004533D01*
X014979Y004631D02*
X014705Y004631D01*
X014717Y004730D02*
X014979Y004730D01*
X014904Y004828D02*
X014715Y004828D01*
X014717Y004746D02*
X014273Y004746D01*
X014273Y004746D01*
X013830Y004746D01*
X013830Y004822D01*
X013838Y004854D01*
X013847Y004870D01*
X013847Y006356D01*
X013532Y006356D01*
X013377Y006325D01*
X013353Y006315D01*
X013326Y006315D01*
X013312Y006312D01*
X013286Y006307D01*
X013286Y006307D01*
X013286Y006307D01*
X013274Y006315D01*
X013247Y006315D01*
X013150Y006356D01*
X013076Y006430D01*
X013035Y006527D01*
X013035Y006633D01*
X013076Y006730D01*
X013085Y006739D01*
X012962Y006739D01*
X012893Y006699D01*
X012893Y006700D02*
X013063Y006700D01*
X013035Y006601D02*
X012341Y006601D01*
X012341Y006503D02*
X013046Y006503D01*
X013102Y006404D02*
X012341Y006404D01*
X012341Y006306D02*
X013847Y006306D01*
X013847Y006207D02*
X012341Y006207D01*
X012341Y006873D01*
X012887Y007419D01*
X013143Y007419D01*
X013115Y007353D01*
X013115Y007247D01*
X013156Y007150D01*
X013230Y007076D01*
X013265Y007061D01*
X012962Y007061D01*
X012893Y007101D01*
X012881Y007112D01*
X012850Y007125D01*
X012805Y007150D01*
X012795Y007147D01*
X012790Y007150D01*
X012690Y007150D01*
X012599Y007112D01*
X012528Y007041D01*
X012490Y006950D01*
X012490Y006850D01*
X012528Y006759D01*
X012599Y006688D01*
X012690Y006650D01*
X012790Y006650D01*
X012795Y006653D01*
X012800Y006651D01*
X012805Y006650D01*
X012807Y006651D01*
X012850Y006675D01*
X012881Y006688D01*
X012893Y006699D01*
X012784Y006823D02*
X012740Y006900D01*
X012784Y006977D01*
X012920Y006900D01*
X012784Y006823D01*
X012740Y006900D02*
X012920Y006900D01*
X014262Y006900D01*
X014273Y006911D01*
X014273Y006517D02*
X013516Y006517D01*
X013320Y006478D01*
X013300Y006580D01*
X013372Y006655D01*
X013516Y006517D01*
X013363Y006517D01*
X013300Y006580D01*
X013847Y006109D02*
X012439Y006109D01*
X012527Y006021D02*
X012341Y006207D01*
X012180Y006140D02*
X012460Y005860D01*
X013460Y005860D01*
X013540Y005780D01*
X013540Y005285D01*
X013632Y005108D01*
X013540Y005060D01*
X013448Y005108D01*
X013540Y005285D01*
X013540Y005060D01*
X013780Y005172D02*
X013764Y005210D01*
X013756Y005218D01*
X013701Y005324D01*
X013701Y005847D01*
X013607Y005941D01*
X013527Y006021D01*
X012527Y006021D01*
X012180Y006140D02*
X012180Y006940D01*
X012820Y007580D01*
X013620Y007580D01*
X013698Y007502D01*
X014273Y007502D01*
X014273Y007698D02*
X014272Y007700D01*
X013780Y007700D01*
X013700Y007780D01*
X012740Y007780D01*
X011940Y006980D01*
X011940Y006020D01*
X012420Y005540D01*
X012755Y005540D01*
X012932Y005632D01*
X012980Y005540D01*
X012932Y005448D01*
X012755Y005540D01*
X012980Y005540D01*
X012740Y005340D02*
X012860Y005220D01*
X012980Y005220D01*
X013660Y004540D01*
X013669Y004549D01*
X014273Y004549D01*
X014273Y004746D02*
X014273Y004746D01*
X013830Y004746D01*
X013830Y004710D01*
X013718Y004710D01*
X013621Y004807D01*
X013690Y004836D01*
X013764Y004910D01*
X013805Y005007D01*
X013805Y005113D01*
X013803Y005116D01*
X013806Y005123D01*
X013780Y005172D01*
X013805Y005124D02*
X013847Y005124D01*
X013806Y005123D02*
X013806Y005123D01*
X013806Y005123D01*
X013805Y005025D02*
X013847Y005025D01*
X013847Y004927D02*
X013771Y004927D01*
X013831Y004828D02*
X013672Y004828D01*
X013698Y004730D02*
X013830Y004730D01*
X014273Y004746D02*
X014717Y004746D01*
X014820Y005140D02*
X015140Y004820D01*
X015140Y003300D01*
X014820Y002980D01*
X014820Y001060D01*
X014980Y000900D01*
X019540Y000900D01*
X020380Y001740D01*
X020380Y003100D01*
X019130Y004350D01*
X018100Y004350D01*
X018100Y003850D02*
X019390Y003850D01*
X020180Y003060D01*
X020180Y001780D01*
X019500Y001100D01*
X015180Y001100D01*
X015020Y001260D01*
X015020Y002940D01*
X015340Y003260D01*
X015340Y004940D01*
X014940Y005340D01*
X014277Y005340D01*
X014273Y005336D01*
X014273Y005139D02*
X014819Y005139D01*
X014820Y005140D01*
X014806Y004927D02*
X014699Y004927D01*
X015067Y005533D02*
X014273Y005533D01*
X014273Y005730D02*
X015150Y005730D01*
X015740Y005140D01*
X015740Y003820D01*
X016210Y003350D01*
X017100Y003350D01*
X017100Y003850D02*
X016190Y003850D01*
X015980Y004060D01*
X015980Y005220D01*
X015273Y005927D01*
X014273Y005927D01*
X014273Y006124D02*
X015356Y006124D01*
X016180Y005300D01*
X016180Y004500D01*
X016330Y004350D01*
X017100Y004350D01*
X017100Y004850D02*
X016470Y004850D01*
X016420Y004900D01*
X016420Y005300D01*
X015220Y006500D01*
X015220Y007780D01*
X015105Y007895D01*
X014273Y007895D01*
X014273Y008092D02*
X015148Y008092D01*
X015420Y007820D01*
X015420Y006540D01*
X016610Y005350D01*
X017100Y005350D01*
X017090Y005860D02*
X016340Y005860D01*
X015620Y006580D01*
X015620Y007860D01*
X015191Y008289D01*
X014273Y008289D01*
X014273Y008486D02*
X015234Y008486D01*
X015820Y007900D01*
X015820Y006780D01*
X016250Y006350D01*
X017100Y006350D01*
X017100Y006850D02*
X016470Y006850D01*
X016020Y007300D01*
X016020Y007940D01*
X015277Y008683D01*
X014273Y008683D01*
X014273Y008880D02*
X015320Y008880D01*
X016420Y007780D01*
X016420Y007540D01*
X016610Y007350D01*
X017100Y007350D01*
X017100Y007850D02*
X016590Y007850D01*
X015364Y009076D01*
X014273Y009076D01*
X014273Y009273D02*
X015407Y009273D01*
X016330Y008350D01*
X017100Y008350D01*
X016707Y008589D02*
X016642Y008524D01*
X016637Y008511D01*
X016397Y008511D01*
X015589Y009319D01*
X018074Y009319D01*
X018236Y009158D01*
X017842Y009158D01*
X017729Y009111D01*
X017642Y009024D01*
X017610Y008946D01*
X017585Y009004D01*
X017550Y009058D01*
X017504Y009103D01*
X017451Y009139D01*
X017392Y009163D01*
X017329Y009176D01*
X017109Y009176D01*
X017109Y008859D01*
X017091Y008859D01*
X017091Y008841D01*
X016578Y008841D01*
X016578Y008818D01*
X016590Y008755D01*
X016615Y008696D01*
X016650Y008642D01*
X016696Y008597D01*
X016707Y008589D01*
X016689Y008571D02*
X016337Y008571D01*
X016238Y008670D02*
X016632Y008670D01*
X016587Y008768D02*
X016140Y008768D01*
X016041Y008867D02*
X016578Y008867D01*
X016578Y008859D02*
X017091Y008859D01*
X017091Y009176D01*
X016871Y009176D01*
X016808Y009163D01*
X016749Y009139D01*
X016696Y009103D01*
X016650Y009058D01*
X016615Y009004D01*
X016590Y008945D01*
X016578Y008882D01*
X016578Y008859D01*
X016598Y008965D02*
X015943Y008965D01*
X015844Y009064D02*
X016656Y009064D01*
X016806Y009162D02*
X015746Y009162D01*
X015647Y009261D02*
X018133Y009261D01*
X018231Y009162D02*
X017394Y009162D01*
X017544Y009064D02*
X017681Y009064D01*
X017618Y008965D02*
X017602Y008965D01*
X017109Y008965D02*
X017091Y008965D01*
X017091Y008867D02*
X017109Y008867D01*
X017091Y009064D02*
X017109Y009064D01*
X017109Y009162D02*
X017091Y009162D01*
X016852Y010015D02*
X014699Y010015D01*
X014699Y010133D01*
X014708Y010149D01*
X014717Y010181D01*
X014717Y010257D01*
X014273Y010257D01*
X013830Y010257D01*
X013830Y010221D01*
X013753Y010221D01*
X013659Y010127D01*
X013473Y009941D01*
X013379Y009847D01*
X013379Y008661D01*
X013086Y008661D01*
X013086Y010743D01*
X013217Y010874D01*
X013697Y010874D01*
X013847Y011024D01*
X013847Y010382D01*
X013838Y010366D01*
X013830Y010333D01*
X013830Y010257D01*
X014273Y010257D01*
X014273Y010257D01*
X014273Y010257D01*
X014717Y010257D01*
X014717Y010303D01*
X016563Y010303D01*
X016852Y010015D01*
X016818Y010049D02*
X014699Y010049D01*
X014707Y010147D02*
X016719Y010147D01*
X016621Y010246D02*
X014717Y010246D01*
X014273Y010060D02*
X013820Y010060D01*
X013540Y009780D01*
X013540Y008580D01*
X013460Y008500D01*
X012900Y008500D01*
X012714Y008497D02*
X011463Y007246D01*
X011354Y007137D01*
X011354Y005525D01*
X011339Y005492D01*
X011341Y005485D01*
X011319Y005425D01*
X011294Y005357D01*
X011275Y005313D01*
X011275Y005308D01*
X011265Y005280D01*
X011275Y005258D01*
X011275Y005207D01*
X011316Y005110D01*
X011390Y005036D01*
X011487Y004995D01*
X011593Y004995D01*
X011685Y005034D01*
X011693Y005034D01*
X011693Y005034D01*
X011700Y005042D01*
X011733Y005078D01*
X011764Y005110D01*
X011767Y005117D01*
X011782Y005134D01*
X011822Y005179D01*
X012445Y005179D01*
X012436Y005170D01*
X012395Y005073D01*
X012395Y004967D01*
X012436Y004870D01*
X012510Y004796D01*
X012607Y004755D01*
X012660Y004755D01*
X012675Y004747D01*
X012700Y004755D01*
X012713Y004755D01*
X012750Y004771D01*
X012802Y004787D01*
X012906Y004819D01*
X012913Y004819D01*
X013139Y004593D01*
X013139Y004353D01*
X013233Y004259D01*
X013301Y004191D01*
X013847Y004191D01*
X013847Y004050D01*
X013912Y003985D01*
X013939Y003985D01*
X013939Y000807D01*
X013933Y000801D01*
X005872Y000801D01*
X005872Y001481D01*
X005807Y001546D01*
X005568Y001546D01*
X005568Y001980D01*
X005687Y002099D01*
X006438Y002099D01*
X006438Y001977D01*
X006503Y001912D01*
X007028Y001912D01*
X007093Y001977D01*
X007093Y001993D01*
X007098Y001973D01*
X007115Y001944D01*
X007139Y001920D01*
X007168Y001903D01*
X007201Y001894D01*
X007386Y001894D01*
X007386Y002172D01*
X007483Y002172D01*
X007483Y001894D01*
X007668Y001894D01*
X007701Y001903D01*
X007730Y001920D01*
X007754Y001944D01*
X007771Y001973D01*
X007779Y002003D01*
X007779Y001391D01*
X007762Y001391D01*
X007762Y001473D01*
X007697Y001538D01*
X007172Y001538D01*
X007107Y001473D01*
X007107Y001457D01*
X007102Y001477D01*
X007085Y001506D01*
X007061Y001530D01*
X007032Y001547D01*
X006999Y001556D01*
X006814Y001556D01*
X006814Y001278D01*
X006717Y001278D01*
X006717Y001182D01*
X006420Y001182D01*
X006420Y001016D01*
X006429Y000983D01*
X006446Y000954D01*
X006470Y000930D01*
X006499Y000913D01*
X006532Y000904D01*
X006717Y000904D01*
X006717Y001182D01*
X006814Y001182D01*
X006814Y000904D01*
X006999Y000904D01*
X007032Y000913D01*
X007061Y000930D01*
X007085Y000954D01*
X007102Y000983D01*
X007107Y001003D01*
X007107Y000987D01*
X007172Y000922D01*
X007697Y000922D01*
X007762Y000987D01*
X007762Y001069D01*
X007769Y001069D01*
X007789Y001049D01*
X007931Y001049D01*
X007941Y001059D01*
X008156Y001059D01*
X008262Y001004D01*
X008270Y000996D01*
X008308Y000980D01*
X008308Y000980D01*
X008357Y000954D01*
X008364Y000957D01*
X008367Y000955D01*
X008473Y000955D01*
X008570Y000996D01*
X008644Y001070D01*
X008685Y001167D01*
X008685Y001273D01*
X008644Y001370D01*
X008570Y001444D01*
X008473Y001485D01*
X008367Y001485D01*
X008364Y001483D01*
X008357Y001486D01*
X008308Y001460D01*
X008270Y001444D01*
X008262Y001436D01*
X008156Y001381D01*
X008101Y001381D01*
X008101Y002431D01*
X008515Y002018D01*
X008484Y001958D01*
X008476Y001950D01*
X008460Y001912D01*
X008435Y001864D01*
X008434Y001863D01*
X008436Y001859D01*
X008437Y001856D01*
X008435Y001853D01*
X008435Y001747D01*
X008476Y001650D01*
X008550Y001576D01*
X008647Y001535D01*
X008688Y001535D01*
X008688Y001107D01*
X008753Y001042D01*
X009278Y001042D01*
X009343Y001107D01*
X009343Y001123D01*
X009348Y001103D01*
X009365Y001074D01*
X009389Y001050D01*
X009418Y001033D01*
X009451Y001024D01*
X009636Y001024D01*
X009636Y001302D01*
X009733Y001302D01*
X009733Y001398D01*
X010030Y001398D01*
X010030Y001564D01*
X010021Y001597D01*
X010004Y001626D01*
X009980Y001650D01*
X009951Y001667D01*
X009918Y001676D01*
X009733Y001676D01*
X009733Y001398D01*
X009636Y001398D01*
X009636Y001676D01*
X009451Y001676D01*
X009418Y001667D01*
X009389Y001650D01*
X009365Y001626D01*
X009348Y001597D01*
X009343Y001577D01*
X009343Y001593D01*
X009278Y001658D01*
X009176Y001658D01*
X009176Y002042D01*
X009278Y002042D01*
X009343Y002107D01*
X009343Y002123D01*
X009348Y002103D01*
X009365Y002074D01*
X009389Y002050D01*
X009418Y002033D01*
X009451Y002024D01*
X009636Y002024D01*
X009636Y002302D01*
X009733Y002302D01*
X009733Y002398D01*
X010030Y002398D01*
X010030Y002522D01*
X010265Y002757D01*
X010359Y002852D01*
X010359Y002983D01*
X010395Y002983D01*
X010395Y003427D01*
X010395Y003870D01*
X010319Y003870D01*
X010287Y003862D01*
X010271Y003853D01*
X010161Y003853D01*
X010161Y004538D01*
X010201Y004607D01*
X010212Y004619D01*
X010225Y004650D01*
X010250Y004695D01*
X010250Y004695D01*
X010250Y004695D01*
X010247Y004705D01*
X010250Y004710D01*
X010250Y004810D01*
X010212Y004901D01*
X010141Y004972D01*
X010050Y005010D01*
X009950Y005010D01*
X009859Y004972D01*
X009788Y004901D01*
X009750Y004810D01*
X009750Y004710D01*
X009753Y004705D01*
X009750Y004695D01*
X009775Y004650D01*
X009788Y004619D01*
X009799Y004607D01*
X009839Y004538D01*
X009839Y004421D01*
X009763Y004421D01*
X009668Y004327D01*
X009644Y004302D01*
X009644Y003870D01*
X009608Y003870D01*
X009608Y003427D01*
X009608Y003427D01*
X009608Y003870D01*
X009532Y003870D01*
X009499Y003862D01*
X009484Y003853D01*
X008981Y003853D01*
X008981Y004543D01*
X008993Y004566D01*
X008988Y004581D01*
X008993Y004596D01*
X008981Y004619D01*
X008981Y004647D01*
X008961Y004667D01*
X008929Y004767D01*
X008925Y004781D01*
X008925Y004793D01*
X008909Y004831D01*
X008892Y004883D01*
X008886Y004887D01*
X008884Y004890D01*
X008810Y004964D01*
X008713Y005005D01*
X008607Y005005D01*
X008510Y004964D01*
X008501Y004955D01*
X008501Y005116D01*
X008556Y005222D01*
X008564Y005230D01*
X008580Y005268D01*
X008606Y005317D01*
X008606Y005317D01*
X008603Y005324D01*
X008605Y005327D01*
X008605Y005433D01*
X008564Y005530D01*
X008490Y005604D01*
X008393Y005645D01*
X008287Y005645D01*
X008190Y005604D01*
X008116Y005530D01*
X008075Y005433D01*
X008075Y005327D01*
X008077Y005324D01*
X008074Y005317D01*
X008100Y005268D01*
X008116Y005230D01*
X008124Y005222D01*
X008179Y005116D01*
X008179Y004313D01*
X008459Y004033D01*
X008459Y003853D01*
X006779Y003853D01*
X006764Y003862D01*
X006731Y003870D01*
X006655Y003870D01*
X006621Y003870D01*
X006621Y004727D01*
X006541Y004807D01*
X006447Y004901D01*
X006353Y004901D01*
X006353Y005179D01*
X006687Y005179D01*
X006781Y005273D01*
X006901Y005393D01*
X006901Y005756D01*
X006956Y005862D01*
X006964Y005870D01*
X006980Y005908D01*
X007006Y005957D01*
X007006Y005957D01*
X007003Y005964D01*
X007005Y005967D01*
X007005Y006073D01*
X006964Y006170D01*
X006890Y006244D01*
X006868Y006254D01*
X006884Y006270D01*
X006925Y006367D01*
X006925Y006473D01*
X006923Y006476D01*
X006926Y006483D01*
X006900Y006532D01*
X006884Y006570D01*
X006876Y006578D01*
X006821Y006684D01*
X006821Y006727D01*
X006795Y006753D01*
X006793Y006757D01*
X006788Y006760D01*
X006775Y006773D01*
X006772Y006778D01*
X006768Y006780D01*
X006609Y006939D01*
X006913Y006939D01*
X007139Y006713D01*
X007139Y006204D01*
X007084Y006098D01*
X007076Y006090D01*
X007060Y006052D01*
X007035Y006004D01*
X007034Y006003D01*
X007036Y005999D01*
X007037Y005996D01*
X007035Y005993D01*
X007035Y005887D01*
X007076Y005790D01*
X007150Y005716D01*
X007247Y005675D01*
X007353Y005675D01*
X007450Y005716D01*
X007524Y005790D01*
X007565Y005887D01*
X007565Y005993D01*
X007563Y005996D01*
X007566Y006003D01*
X007540Y006052D01*
X007524Y006090D01*
X007516Y006098D01*
X007461Y006204D01*
X007461Y006847D01*
X007141Y007167D01*
X007047Y007261D01*
X006353Y007261D01*
X006353Y009936D01*
X006362Y009952D01*
X006370Y009985D01*
X006370Y010061D01*
X006370Y010086D01*
X006408Y010086D01*
X006509Y010187D01*
X006671Y010349D01*
X006671Y011211D01*
X005971Y011911D01*
X005971Y015089D01*
X007211Y016329D01*
X011506Y016329D01*
X011434Y016257D01*
X011434Y016152D01*
X011160Y016152D01*
X011095Y016087D01*
X011095Y015208D01*
X011160Y015143D01*
X012040Y015143D01*
X012105Y015208D01*
X012105Y016074D01*
X012742Y016074D01*
X012694Y016026D01*
X012694Y015422D01*
X012759Y015357D01*
X013441Y015357D01*
X013506Y015422D01*
X013506Y016026D01*
X013441Y016091D01*
X013286Y016091D01*
X013286Y016137D01*
X013094Y016329D01*
X014461Y016329D01*
X014450Y016324D01*
X014376Y016250D01*
X014335Y016153D01*
X014335Y016102D01*
X014325Y016080D01*
X014335Y016052D01*
X014335Y016047D01*
X014354Y016003D01*
X014358Y015991D01*
X014401Y015875D01*
X014399Y015868D01*
X014414Y015835D01*
X014414Y015177D01*
X013843Y014606D01*
X013286Y014606D01*
X013286Y014609D01*
X013441Y014609D01*
X013506Y014674D01*
X013506Y015278D01*
X013441Y015343D01*
X012759Y015343D01*
X012694Y015278D01*
X012694Y014674D01*
X012759Y014609D01*
X012914Y014609D01*
X012914Y014383D01*
X012954Y014343D01*
X013063Y014234D01*
X013997Y014234D01*
X014729Y014966D01*
X014729Y013871D01*
X014229Y013371D01*
X014129Y013271D01*
X014129Y012471D01*
X011829Y012471D01*
X011729Y012371D01*
X011609Y012251D01*
X011609Y012217D01*
X011576Y012217D01*
X011500Y012217D01*
X011468Y012208D01*
X011452Y012199D01*
X008588Y012199D01*
X008588Y012259D01*
X008669Y012299D01*
X008710Y012316D01*
X008716Y012322D01*
X008737Y012332D01*
X008742Y012348D01*
X008784Y012390D01*
X008825Y012487D01*
X008825Y012593D01*
X008784Y012690D01*
X008710Y012764D01*
X008613Y012805D01*
X008507Y012805D01*
X008410Y012764D01*
X008336Y012690D01*
X008321Y012656D01*
X008309Y012647D01*
X008309Y012647D01*
X008309Y012647D01*
X008303Y012612D01*
X008295Y012593D01*
X008295Y012572D01*
X008207Y012661D01*
X008124Y012661D01*
X008018Y012716D01*
X008010Y012724D01*
X007972Y012740D01*
X007923Y012766D01*
X007916Y012763D01*
X007913Y012765D01*
X007807Y012765D01*
X007710Y012724D01*
X007636Y012650D01*
X007595Y012553D01*
X007595Y012447D01*
X007636Y012350D01*
X007710Y012276D01*
X007807Y012235D01*
X007913Y012235D01*
X007916Y012237D01*
X007919Y012236D01*
X007923Y012234D01*
X007924Y012235D01*
X007972Y012260D01*
X008010Y012276D01*
X008018Y012284D01*
X008069Y012310D01*
X008069Y012199D01*
X007225Y012199D01*
X007235Y012260D01*
X007236Y012266D01*
X007245Y012287D01*
X007245Y012318D01*
X007252Y012361D01*
X007252Y012361D01*
X007252Y012361D01*
X007245Y012372D01*
X007245Y012393D01*
X007204Y012490D01*
X007130Y012564D01*
X007033Y012605D01*
X006927Y012605D01*
X006830Y012564D01*
X006756Y012490D01*
X006715Y012393D01*
X006715Y012287D01*
X006746Y012213D01*
X006746Y012199D01*
X006550Y012199D01*
X006485Y012134D01*
X006485Y011412D01*
X006550Y011347D01*
X007474Y011347D01*
X007435Y011253D01*
X007435Y011147D01*
X007476Y011050D01*
X007550Y010976D01*
X007636Y010940D01*
X007550Y010904D01*
X007476Y010830D01*
X007474Y010827D01*
X007468Y010823D01*
X007468Y010823D01*
X007468Y010823D01*
X007451Y010772D01*
X007451Y010771D01*
X007435Y010733D01*
X007435Y010721D01*
X007399Y010607D01*
X007380Y010588D01*
X007061Y010269D01*
X007061Y010493D01*
X007067Y010499D01*
X007181Y010535D01*
X007193Y010535D01*
X007231Y010551D01*
X007232Y010551D01*
X007283Y010568D01*
X007283Y010568D01*
X007283Y010568D01*
X007287Y010574D01*
X007290Y010576D01*
X007364Y010650D01*
X007405Y010747D01*
X007405Y010853D01*
X007364Y010950D01*
X007290Y011024D01*
X007193Y011065D01*
X007087Y011065D01*
X006990Y011024D01*
X006916Y010950D01*
X006914Y010947D01*
X006908Y010943D01*
X006908Y010943D01*
X006908Y010943D01*
X006891Y010892D01*
X006891Y010891D01*
X006875Y010853D01*
X006875Y010841D01*
X006839Y010727D01*
X006820Y010708D01*
X006739Y010627D01*
X006739Y009564D01*
X006684Y009458D01*
X006676Y009450D01*
X006660Y009412D01*
X006635Y009364D01*
X006634Y009363D01*
X006636Y009359D01*
X006353Y009359D01*
X006353Y009261D02*
X006635Y009261D01*
X006635Y009247D02*
X006676Y009150D01*
X006726Y009100D01*
X006676Y009050D01*
X006635Y008953D01*
X006635Y008847D01*
X006676Y008750D01*
X006726Y008700D01*
X006676Y008650D01*
X006635Y008553D01*
X006635Y008447D01*
X006676Y008350D01*
X006750Y008276D01*
X006847Y008235D01*
X006953Y008235D01*
X007050Y008276D01*
X007124Y008350D01*
X007126Y008353D01*
X007132Y008357D01*
X007134Y008361D01*
X007149Y008409D01*
X007165Y008447D01*
X007165Y008459D01*
X007201Y008573D01*
X008100Y009472D01*
X008179Y009551D01*
X008179Y008593D01*
X008273Y008499D01*
X008648Y008125D01*
X008607Y008125D01*
X008604Y008123D01*
X008597Y008126D01*
X008548Y008100D01*
X008510Y008084D01*
X008502Y008076D01*
X008396Y008021D01*
X007964Y008021D01*
X007858Y008076D01*
X007850Y008084D01*
X007812Y008100D01*
X007763Y008126D01*
X007756Y008123D01*
X007753Y008125D01*
X007647Y008125D01*
X007550Y008084D01*
X007476Y008010D01*
X007435Y007913D01*
X007435Y007807D01*
X007476Y007710D01*
X007550Y007636D01*
X007647Y007595D01*
X007753Y007595D01*
X007756Y007597D01*
X007759Y007596D01*
X007763Y007594D01*
X007764Y007595D01*
X007812Y007620D01*
X007850Y007636D01*
X007858Y007644D01*
X007964Y007699D01*
X008396Y007699D01*
X008502Y007644D01*
X008510Y007636D01*
X008548Y007620D01*
X008548Y007620D01*
X008597Y007594D01*
X008604Y007597D01*
X008607Y007595D01*
X008713Y007595D01*
X008810Y007636D01*
X008819Y007645D01*
X008819Y007287D01*
X008753Y007221D01*
X007793Y007221D01*
X007713Y007141D01*
X007619Y007047D01*
X007619Y004567D01*
X007553Y004501D01*
X007476Y004501D01*
X007365Y004547D01*
X007321Y004565D01*
X007273Y004585D01*
X007272Y004585D01*
X007259Y004590D01*
X007259Y004590D01*
X007259Y004590D01*
X007246Y004585D01*
X007167Y004585D01*
X007070Y004544D01*
X006996Y004470D01*
X006955Y004373D01*
X006955Y004267D01*
X006996Y004170D01*
X007070Y004096D01*
X007167Y004055D01*
X007273Y004055D01*
X007293Y004064D01*
X007306Y004061D01*
X007306Y004061D01*
X007343Y004084D01*
X007370Y004096D01*
X007387Y004112D01*
X007419Y004133D01*
X007491Y004179D01*
X007687Y004179D01*
X007781Y004273D01*
X007941Y004433D01*
X007941Y006899D01*
X008887Y006899D01*
X008981Y006993D01*
X009047Y007059D01*
X009141Y007153D01*
X009141Y007951D01*
X010579Y006513D01*
X010579Y005314D01*
X010553Y005325D01*
X010447Y005325D01*
X010350Y005284D01*
X010276Y005210D01*
X010235Y005113D01*
X010235Y005007D01*
X010276Y004910D01*
X010350Y004836D01*
X010353Y004834D01*
X010357Y004828D01*
X010409Y004811D01*
X010447Y004795D01*
X010459Y004795D01*
X010484Y004787D01*
X010484Y004787D01*
X010573Y004759D01*
X010578Y004754D01*
X010553Y004765D01*
X010447Y004765D01*
X010350Y004724D01*
X010276Y004650D01*
X010235Y004553D01*
X010235Y004447D01*
X010237Y004444D01*
X010234Y004437D01*
X010260Y004388D01*
X010276Y004350D01*
X010284Y004342D01*
X010339Y004236D01*
X010339Y004073D01*
X010560Y003853D01*
X010520Y003853D01*
X010504Y003862D01*
X010471Y003870D01*
X010395Y003870D01*
X010395Y003427D01*
X010395Y003427D01*
X010395Y003427D01*
X010395Y002983D01*
X010471Y002983D01*
X010504Y002992D01*
X010520Y003001D01*
X012793Y003001D01*
X012793Y002859D01*
X012899Y002753D01*
X012993Y002659D01*
X013084Y002659D01*
X013240Y002595D01*
X013287Y002575D01*
X013288Y002575D01*
X013301Y002570D01*
X013314Y002575D01*
X013393Y002575D01*
X013490Y002616D01*
X013564Y002690D01*
X013605Y002787D01*
X013605Y002893D01*
X013564Y002990D01*
X013554Y003001D01*
X013650Y003001D01*
X013715Y003066D01*
X013715Y003788D01*
X013650Y003853D01*
X013312Y003853D01*
X013312Y004116D01*
X013074Y004354D01*
X013081Y004437D01*
X013085Y004447D01*
X013085Y004489D01*
X013089Y004545D01*
X013089Y004545D01*
X013089Y004545D01*
X013085Y004550D01*
X013085Y004553D01*
X013044Y004650D01*
X012970Y004724D01*
X012873Y004765D01*
X012767Y004765D01*
X012670Y004724D01*
X012596Y004650D01*
X012555Y004553D01*
X012555Y004447D01*
X012596Y004350D01*
X012599Y004347D01*
X012599Y004340D01*
X012600Y004339D01*
X012641Y004304D01*
X012670Y004276D01*
X012682Y004271D01*
X012702Y004254D01*
X012702Y004254D01*
X012708Y004249D01*
X012699Y004245D01*
X012678Y004236D01*
X012560Y004188D01*
X011927Y004821D01*
X011367Y004821D01*
X010901Y005287D01*
X010901Y006647D01*
X010807Y006741D01*
X008921Y008627D01*
X008921Y009145D01*
X008990Y009076D01*
X009087Y009035D01*
X009193Y009035D01*
X009290Y009076D01*
X009364Y009150D01*
X009405Y009247D01*
X009405Y009353D01*
X009366Y009445D01*
X009366Y009452D01*
X009407Y009435D01*
X009513Y009435D01*
X009610Y009476D01*
X009684Y009550D01*
X009725Y009647D01*
X009725Y009753D01*
X009739Y009753D01*
X009725Y009753D02*
X009723Y009756D01*
X009726Y009763D01*
X009700Y009812D01*
X009684Y009850D01*
X009676Y009858D01*
X009621Y009964D01*
X009621Y010007D01*
X009690Y010036D01*
X009739Y010085D01*
X009739Y009364D01*
X009684Y009258D01*
X009676Y009250D01*
X009660Y009212D01*
X009635Y009164D01*
X009634Y009163D01*
X009636Y009159D01*
X009637Y009156D01*
X009635Y009153D01*
X009635Y009047D01*
X009676Y008950D01*
X009750Y008876D01*
X009847Y008835D01*
X009953Y008835D01*
X010050Y008876D01*
X010124Y008950D01*
X010155Y009024D01*
X010155Y009007D01*
X010196Y008910D01*
X010270Y008836D01*
X010367Y008795D01*
X010473Y008795D01*
X010497Y008805D01*
X010475Y008753D01*
X010475Y008647D01*
X010516Y008550D01*
X010590Y008476D01*
X010687Y008435D01*
X010793Y008435D01*
X010890Y008476D01*
X010964Y008550D01*
X010966Y008553D01*
X010972Y008557D01*
X010974Y008561D01*
X010989Y008609D01*
X011005Y008647D01*
X011005Y008659D01*
X011041Y008773D01*
X011060Y008792D01*
X011221Y008953D01*
X011221Y011207D01*
X011127Y011301D01*
X011080Y011347D01*
X011452Y011347D01*
X011468Y011338D01*
X011500Y011330D01*
X011576Y011330D01*
X011576Y011773D01*
X011576Y011773D01*
X011576Y011330D01*
X011652Y011330D01*
X011685Y011338D01*
X011701Y011347D01*
X012203Y011347D01*
X012203Y011110D01*
X011639Y010547D01*
X011639Y008864D01*
X011584Y008758D01*
X011576Y008750D01*
X011560Y008712D01*
X011535Y008664D01*
X011534Y008663D01*
X011536Y008659D01*
X011537Y008656D01*
X011535Y008653D01*
X011535Y008547D01*
X011576Y008450D01*
X011650Y008376D01*
X011747Y008335D01*
X011853Y008335D01*
X011950Y008376D01*
X012024Y008450D01*
X012065Y008547D01*
X012065Y008653D01*
X012063Y008656D01*
X012066Y008663D01*
X012040Y008712D01*
X012024Y008750D01*
X012016Y008758D01*
X011961Y008864D01*
X011961Y010413D01*
X012430Y010883D01*
X012525Y010977D01*
X012525Y011347D01*
X013644Y011347D01*
X013543Y011246D01*
X013063Y011246D01*
X012954Y011137D01*
X012823Y011006D01*
X012823Y011006D01*
X012714Y010897D01*
X012714Y008497D01*
X012689Y008473D02*
X012034Y008473D01*
X012065Y008571D02*
X012714Y008571D01*
X012714Y008670D02*
X012062Y008670D01*
X012066Y008663D02*
X012066Y008663D01*
X012066Y008663D01*
X012011Y008768D02*
X012714Y008768D01*
X012714Y008867D02*
X011961Y008867D01*
X011961Y008965D02*
X012714Y008965D01*
X012714Y009064D02*
X011961Y009064D01*
X011961Y009162D02*
X012714Y009162D01*
X012714Y009261D02*
X011961Y009261D01*
X011961Y009359D02*
X012714Y009359D01*
X012714Y009458D02*
X011961Y009458D01*
X011961Y009556D02*
X012714Y009556D01*
X012714Y009655D02*
X011961Y009655D01*
X011961Y009753D02*
X012714Y009753D01*
X012714Y009852D02*
X011961Y009852D01*
X011961Y009950D02*
X012714Y009950D01*
X012714Y010049D02*
X011961Y010049D01*
X011961Y010147D02*
X012714Y010147D01*
X012714Y010246D02*
X011961Y010246D01*
X011961Y010344D02*
X012714Y010344D01*
X012714Y010443D02*
X011990Y010443D01*
X012089Y010541D02*
X012714Y010541D01*
X012714Y010640D02*
X012187Y010640D01*
X012286Y010738D02*
X012714Y010738D01*
X012714Y010837D02*
X012384Y010837D01*
X012483Y010935D02*
X012752Y010935D01*
X012850Y011034D02*
X012525Y011034D01*
X012525Y011132D02*
X012949Y011132D01*
X013047Y011231D02*
X012525Y011231D01*
X012525Y011329D02*
X013626Y011329D01*
X013758Y010935D02*
X013847Y010935D01*
X013847Y010837D02*
X013180Y010837D01*
X013086Y010738D02*
X013847Y010738D01*
X013847Y010640D02*
X013086Y010640D01*
X013086Y010541D02*
X013847Y010541D01*
X013847Y010443D02*
X013086Y010443D01*
X013086Y010344D02*
X013832Y010344D01*
X013830Y010246D02*
X013086Y010246D01*
X013086Y010147D02*
X013679Y010147D01*
X013581Y010049D02*
X013086Y010049D01*
X013086Y009950D02*
X013482Y009950D01*
X013473Y009941D02*
X013473Y009941D01*
X013384Y009852D02*
X013086Y009852D01*
X013086Y009753D02*
X013379Y009753D01*
X013379Y009655D02*
X013086Y009655D01*
X013086Y009556D02*
X013379Y009556D01*
X013379Y009458D02*
X013086Y009458D01*
X013086Y009359D02*
X013379Y009359D01*
X013379Y009261D02*
X013086Y009261D01*
X013086Y009162D02*
X013379Y009162D01*
X013379Y009064D02*
X013086Y009064D01*
X013086Y008965D02*
X013379Y008965D01*
X013379Y008867D02*
X013086Y008867D01*
X013086Y008768D02*
X013379Y008768D01*
X013379Y008670D02*
X013086Y008670D01*
X012591Y008374D02*
X011946Y008374D01*
X011800Y008600D02*
X011892Y008648D01*
X011800Y008825D01*
X011708Y008648D01*
X011800Y008600D01*
X011800Y008825D01*
X011800Y010480D01*
X012364Y011044D01*
X012364Y011773D01*
X012203Y011329D02*
X011099Y011329D01*
X011197Y011231D02*
X012203Y011231D01*
X012203Y011132D02*
X011221Y011132D01*
X011221Y011034D02*
X012126Y011034D01*
X012027Y010935D02*
X011221Y010935D01*
X011221Y010837D02*
X011929Y010837D01*
X011830Y010738D02*
X011221Y010738D01*
X011221Y010640D02*
X011732Y010640D01*
X011639Y010541D02*
X011221Y010541D01*
X011221Y010443D02*
X011639Y010443D01*
X011639Y010344D02*
X011221Y010344D01*
X011221Y010246D02*
X011639Y010246D01*
X011639Y010147D02*
X011221Y010147D01*
X011221Y010049D02*
X011639Y010049D01*
X011639Y009950D02*
X011221Y009950D01*
X011221Y009852D02*
X011639Y009852D01*
X011639Y009753D02*
X011221Y009753D01*
X011221Y009655D02*
X011639Y009655D01*
X011639Y009556D02*
X011221Y009556D01*
X011221Y009458D02*
X011639Y009458D01*
X011639Y009359D02*
X011221Y009359D01*
X011221Y009261D02*
X011639Y009261D01*
X011639Y009162D02*
X011221Y009162D01*
X011221Y009064D02*
X011639Y009064D01*
X011639Y008965D02*
X011221Y008965D01*
X011134Y008867D02*
X011639Y008867D01*
X011589Y008768D02*
X011039Y008768D01*
X011008Y008670D02*
X011538Y008670D01*
X011535Y008571D02*
X010977Y008571D01*
X010883Y008473D02*
X011566Y008473D01*
X011654Y008374D02*
X009174Y008374D01*
X009272Y008276D02*
X012492Y008276D01*
X012394Y008177D02*
X009371Y008177D01*
X009469Y008079D02*
X012295Y008079D01*
X012197Y007980D02*
X009568Y007980D01*
X009666Y007882D02*
X012098Y007882D01*
X012000Y007783D02*
X009765Y007783D01*
X009863Y007685D02*
X011901Y007685D01*
X011803Y007586D02*
X009962Y007586D01*
X010060Y007488D02*
X011704Y007488D01*
X011606Y007389D02*
X010159Y007389D01*
X010257Y007291D02*
X011507Y007291D01*
X011409Y007192D02*
X010356Y007192D01*
X010454Y007094D02*
X011354Y007094D01*
X011354Y006995D02*
X010553Y006995D01*
X010651Y006897D02*
X011354Y006897D01*
X011354Y006798D02*
X010750Y006798D01*
X010848Y006700D02*
X011354Y006700D01*
X011354Y006601D02*
X010901Y006601D01*
X010901Y006503D02*
X011354Y006503D01*
X011354Y006404D02*
X010901Y006404D01*
X010901Y006306D02*
X011354Y006306D01*
X011354Y006207D02*
X010901Y006207D01*
X010901Y006109D02*
X011354Y006109D01*
X011354Y006010D02*
X010901Y006010D01*
X010901Y005912D02*
X011354Y005912D01*
X011354Y005813D02*
X010901Y005813D01*
X010901Y005715D02*
X011354Y005715D01*
X011354Y005616D02*
X010901Y005616D01*
X010901Y005518D02*
X011350Y005518D01*
X011319Y005425D02*
X011319Y005425D01*
X011317Y005419D02*
X010901Y005419D01*
X010901Y005321D02*
X011278Y005321D01*
X011265Y005280D02*
X011265Y005280D01*
X011275Y005222D02*
X010966Y005222D01*
X011064Y005124D02*
X011310Y005124D01*
X011415Y005025D02*
X011163Y005025D01*
X011261Y004927D02*
X012412Y004927D01*
X012395Y005025D02*
X011665Y005025D01*
X011773Y005124D02*
X012416Y005124D01*
X012660Y005020D02*
X012691Y004921D01*
X012881Y004980D01*
X012723Y005102D01*
X012660Y005020D01*
X012700Y004980D01*
X012881Y004980D01*
X012980Y004980D01*
X013300Y004660D01*
X013300Y004420D01*
X013368Y004352D01*
X014273Y004352D01*
X014100Y004100D02*
X014100Y000740D01*
X014000Y000640D01*
X002200Y000640D01*
X002100Y000740D01*
X002100Y004180D01*
X001940Y004340D01*
X001940Y005220D01*
X002180Y005460D01*
X002180Y007300D01*
X001860Y007620D01*
X001502Y007870D02*
X001420Y007789D01*
X001375Y007679D01*
X001375Y007561D01*
X001405Y007489D01*
X001051Y007843D01*
X001051Y009877D01*
X001203Y010029D01*
X005203Y010029D01*
X005477Y010303D01*
X005501Y010303D01*
X005501Y010185D01*
X005492Y010169D01*
X005483Y010137D01*
X005483Y010061D01*
X005927Y010061D01*
X006370Y010061D01*
X005927Y010061D01*
X005927Y010061D01*
X005927Y010061D01*
X005483Y010061D01*
X005483Y010021D01*
X004673Y010021D01*
X004194Y009542D01*
X004205Y009567D01*
X004205Y009673D01*
X004164Y009770D01*
X004090Y009844D01*
X003993Y009885D01*
X003887Y009885D01*
X003884Y009883D01*
X003877Y009886D01*
X003828Y009860D01*
X003790Y009844D01*
X003782Y009836D01*
X003676Y009781D01*
X003303Y009781D01*
X003300Y009789D01*
X003216Y009873D01*
X003106Y009918D01*
X002614Y009918D01*
X002504Y009873D01*
X002420Y009789D01*
X002375Y009679D01*
X002375Y009561D01*
X002420Y009451D01*
X002502Y009370D01*
X002420Y009289D01*
X002375Y009179D01*
X002375Y009061D01*
X002420Y008951D01*
X002502Y008870D01*
X002420Y008789D01*
X002375Y008679D01*
X002375Y008561D01*
X002420Y008451D01*
X002502Y008370D01*
X002420Y008289D01*
X002375Y008179D01*
X002375Y008061D01*
X002420Y007951D01*
X002502Y007870D01*
X002420Y007789D01*
X002375Y007679D01*
X002375Y007561D01*
X002420Y007451D01*
X002504Y007367D01*
X002614Y007322D01*
X002934Y007322D01*
X002899Y007287D01*
X002341Y006729D01*
X002341Y007367D01*
X002278Y007430D01*
X002300Y007451D01*
X002345Y007561D01*
X002345Y007679D01*
X002300Y007789D01*
X002218Y007870D01*
X002300Y007951D01*
X002345Y008061D01*
X002345Y008179D01*
X002300Y008289D01*
X002218Y008370D01*
X002300Y008451D01*
X002345Y008561D01*
X002345Y008679D01*
X002300Y008789D01*
X002218Y008870D01*
X002300Y008951D01*
X002345Y009061D01*
X002345Y009179D01*
X002300Y009289D01*
X002218Y009370D01*
X002300Y009451D01*
X002345Y009561D01*
X002345Y009679D01*
X002300Y009789D01*
X002216Y009873D01*
X002106Y009918D01*
X001614Y009918D01*
X001504Y009873D01*
X001420Y009789D01*
X001375Y009679D01*
X001375Y009561D01*
X001420Y009451D01*
X001502Y009370D01*
X001420Y009289D01*
X001375Y009179D01*
X001375Y009061D01*
X001420Y008951D01*
X001502Y008870D01*
X001420Y008789D01*
X001375Y008679D01*
X001375Y008561D01*
X001420Y008451D01*
X001502Y008370D01*
X001420Y008289D01*
X001375Y008179D01*
X001375Y008061D01*
X001420Y007951D01*
X001502Y007870D01*
X001490Y007882D02*
X001051Y007882D01*
X001051Y007980D02*
X001408Y007980D01*
X001375Y008079D02*
X001051Y008079D01*
X001051Y008177D02*
X001375Y008177D01*
X001415Y008276D02*
X001051Y008276D01*
X001051Y008374D02*
X001497Y008374D01*
X001411Y008473D02*
X001051Y008473D01*
X001051Y008571D02*
X001375Y008571D01*
X001375Y008670D02*
X001051Y008670D01*
X001051Y008768D02*
X001412Y008768D01*
X001498Y008867D02*
X001051Y008867D01*
X001051Y008965D02*
X001415Y008965D01*
X001375Y009064D02*
X001051Y009064D01*
X001051Y009162D02*
X001375Y009162D01*
X001409Y009261D02*
X001051Y009261D01*
X001051Y009359D02*
X001491Y009359D01*
X001418Y009458D02*
X001051Y009458D01*
X001051Y009556D02*
X001377Y009556D01*
X001375Y009655D02*
X001051Y009655D01*
X001051Y009753D02*
X001406Y009753D01*
X001483Y009852D02*
X001051Y009852D01*
X001124Y009950D02*
X004602Y009950D01*
X004504Y009852D02*
X004073Y009852D01*
X004171Y009753D02*
X004405Y009753D01*
X004307Y009655D02*
X004205Y009655D01*
X004200Y009556D02*
X004208Y009556D01*
X003940Y009620D02*
X003892Y009712D01*
X003715Y009620D01*
X003892Y009528D01*
X003940Y009620D01*
X003715Y009620D01*
X002860Y009620D01*
X003237Y009852D02*
X003807Y009852D01*
X003877Y009886D02*
X003877Y009886D01*
X003877Y009886D01*
X004180Y009300D02*
X004180Y007700D01*
X003700Y007220D01*
X003060Y007220D01*
X002500Y006660D01*
X002500Y004725D01*
X002592Y004548D01*
X002500Y004500D01*
X002408Y004548D01*
X002500Y004725D01*
X002500Y004500D01*
X002604Y004257D02*
X002604Y003928D01*
X002523Y003928D01*
X002457Y003863D01*
X002457Y003337D01*
X002523Y003272D01*
X002939Y003272D01*
X002939Y003247D01*
X002620Y002928D01*
X002523Y002928D01*
X002457Y002863D01*
X002457Y002337D01*
X002523Y002272D01*
X003008Y002272D01*
X003073Y002337D01*
X003073Y002863D01*
X003042Y002894D01*
X003167Y003019D01*
X003261Y003113D01*
X003261Y003272D01*
X003677Y003272D01*
X003743Y003337D01*
X003743Y003395D01*
X003748Y003374D01*
X003755Y003346D01*
X003755Y003327D01*
X003768Y003296D01*
X003780Y003253D01*
X003788Y003247D01*
X003796Y003230D01*
X003870Y003156D01*
X003967Y003115D01*
X004073Y003115D01*
X004170Y003156D01*
X004244Y003230D01*
X004285Y003327D01*
X004285Y003433D01*
X004244Y003530D01*
X004170Y003604D01*
X004153Y003612D01*
X004147Y003620D01*
X004105Y003632D01*
X004073Y003645D01*
X004054Y003645D01*
X003939Y003675D01*
X003923Y003690D01*
X003863Y003751D01*
X003743Y003751D01*
X003743Y003863D01*
X003677Y003928D01*
X003261Y003928D01*
X003261Y004247D01*
X003101Y004407D01*
X003101Y004489D01*
X003113Y004486D01*
X003277Y004486D01*
X003277Y004862D01*
X003373Y004862D01*
X003373Y004958D01*
X003277Y004958D01*
X003277Y005330D01*
X003832Y005884D01*
X004116Y005884D01*
X004181Y005949D01*
X004181Y006631D01*
X004116Y006696D01*
X003634Y006696D01*
X003600Y006662D01*
X003566Y006696D01*
X003084Y006696D01*
X003019Y006631D01*
X003019Y006047D01*
X002661Y005689D01*
X002661Y006593D01*
X003127Y007059D01*
X003686Y007059D01*
X003675Y007033D01*
X003675Y006927D01*
X003716Y006830D01*
X003790Y006756D01*
X003887Y006715D01*
X003993Y006715D01*
X004090Y006756D01*
X004164Y006830D01*
X004166Y006833D01*
X004172Y006837D01*
X004174Y006841D01*
X004189Y006889D01*
X004205Y006927D01*
X004205Y006939D01*
X004241Y007053D01*
X004260Y007072D01*
X004619Y007431D01*
X004619Y007072D01*
X004597Y007020D01*
X004589Y007003D01*
X004588Y007001D01*
X004570Y006957D01*
X004544Y006897D01*
X004544Y006897D01*
X004550Y006882D01*
X004550Y006810D01*
X004588Y006719D01*
X004659Y006648D01*
X004750Y006610D01*
X004850Y006610D01*
X004941Y006648D01*
X005012Y006719D01*
X005050Y006810D01*
X005050Y006910D01*
X005039Y006936D01*
X005041Y006952D01*
X005041Y006953D02*
X005041Y006953D01*
X005022Y006979D01*
X005020Y006983D01*
X005012Y007001D01*
X004991Y007023D01*
X004941Y007091D01*
X004941Y009506D01*
X005501Y009506D01*
X005501Y006272D01*
X005461Y006312D01*
X005370Y006350D01*
X005270Y006350D01*
X005265Y006347D01*
X005255Y006350D01*
X005255Y006350D01*
X005255Y006350D01*
X005210Y006325D01*
X005179Y006312D01*
X005167Y006301D01*
X005098Y006261D01*
X005073Y006261D01*
X005056Y006244D01*
X005033Y006237D01*
X005022Y006218D01*
X005003Y006207D01*
X004996Y006184D01*
X004979Y006167D01*
X004433Y005621D01*
X004339Y005527D01*
X004339Y003393D01*
X004433Y003299D01*
X004433Y003299D01*
X004513Y003219D01*
X005147Y003219D01*
X005267Y003339D01*
X005478Y003339D01*
X005547Y003299D01*
X005559Y003288D01*
X005590Y003275D01*
X005635Y003250D01*
X005645Y003253D01*
X005650Y003250D01*
X005750Y003250D01*
X005841Y003288D01*
X005912Y003359D01*
X005950Y003450D01*
X005950Y003512D01*
X005976Y003450D01*
X006050Y003376D01*
X006147Y003335D01*
X006253Y003335D01*
X006350Y003376D01*
X006424Y003450D01*
X006426Y003453D01*
X006432Y003457D01*
X006434Y003461D01*
X006449Y003509D01*
X006465Y003547D01*
X006465Y003559D01*
X006467Y003567D01*
X006467Y003427D01*
X006655Y003427D01*
X006655Y003870D01*
X006655Y003427D01*
X006655Y003427D01*
X006655Y003427D01*
X006467Y003427D01*
X006467Y003227D01*
X006410Y003284D01*
X006313Y003325D01*
X006207Y003325D01*
X006190Y003318D01*
X006180Y003320D01*
X006143Y003298D01*
X006142Y003298D01*
X006110Y003284D01*
X006097Y003271D01*
X005994Y003211D01*
X004517Y003211D01*
X004429Y003123D01*
X004057Y002751D01*
X003743Y002751D01*
X003743Y002863D01*
X003677Y002928D01*
X003192Y002928D01*
X003127Y002863D01*
X003127Y002337D01*
X003192Y002272D01*
X003677Y002272D01*
X003743Y002337D01*
X003743Y002449D01*
X004141Y002449D01*
X003873Y002181D01*
X002684Y002181D01*
X002578Y002236D01*
X002570Y002244D01*
X002532Y002260D01*
X002483Y002286D01*
X002476Y002283D01*
X002473Y002285D01*
X002367Y002285D01*
X002270Y002244D01*
X002261Y002235D01*
X002261Y004247D01*
X002101Y004407D01*
X002101Y005153D01*
X002247Y005299D01*
X002339Y005391D01*
X002339Y004764D01*
X002284Y004658D01*
X002276Y004650D01*
X002260Y004612D01*
X002235Y004564D01*
X002234Y004563D01*
X002236Y004559D01*
X002237Y004556D01*
X002235Y004553D01*
X002235Y004447D01*
X002276Y004350D01*
X002350Y004276D01*
X002447Y004235D01*
X002553Y004235D01*
X002604Y004257D01*
X002604Y004237D02*
X002557Y004237D01*
X002604Y004139D02*
X002261Y004139D01*
X002261Y004237D02*
X002443Y004237D01*
X002290Y004336D02*
X002172Y004336D01*
X002241Y004434D02*
X002101Y004434D01*
X002101Y004533D02*
X002235Y004533D01*
X002268Y004631D02*
X002101Y004631D01*
X002101Y004730D02*
X002321Y004730D01*
X002339Y004828D02*
X002101Y004828D01*
X002101Y004927D02*
X002339Y004927D01*
X002339Y005025D02*
X002101Y005025D01*
X002101Y005124D02*
X002339Y005124D01*
X002339Y005222D02*
X002170Y005222D01*
X002268Y005321D02*
X002339Y005321D01*
X002019Y005527D02*
X001779Y005287D01*
X001779Y004273D01*
X001873Y004179D01*
X001939Y004113D01*
X001939Y002589D01*
X001853Y002625D01*
X001747Y002625D01*
X001650Y002584D01*
X001621Y002555D01*
X001621Y005287D01*
X001386Y005522D01*
X001228Y005522D01*
X001218Y005547D01*
X001126Y005639D01*
X001106Y005647D01*
X001160Y005683D01*
X001208Y005732D01*
X001246Y005788D01*
X001272Y005851D01*
X001285Y005918D01*
X001285Y005933D01*
X000959Y005933D01*
X000959Y005971D01*
X001285Y005971D01*
X001285Y005986D01*
X001272Y006052D01*
X001246Y006115D01*
X001208Y006172D01*
X001160Y006220D01*
X001146Y006229D01*
X001597Y006229D01*
X001706Y006121D01*
X001663Y006048D01*
X001649Y006023D01*
X001636Y006010D01*
X001280Y006010D01*
X001284Y005912D02*
X001595Y005912D01*
X001595Y005913D02*
X001595Y005807D01*
X001636Y005710D01*
X001710Y005636D01*
X001807Y005595D01*
X001913Y005595D01*
X002010Y005636D01*
X002019Y005645D01*
X002019Y005527D01*
X002010Y005518D02*
X001390Y005518D01*
X001489Y005419D02*
X001911Y005419D01*
X001813Y005321D02*
X001587Y005321D01*
X001621Y005222D02*
X001779Y005222D01*
X001779Y005124D02*
X001621Y005124D01*
X001621Y005025D02*
X001779Y005025D01*
X001779Y004927D02*
X001621Y004927D01*
X001621Y004828D02*
X001779Y004828D01*
X001779Y004730D02*
X001621Y004730D01*
X001621Y004631D02*
X001779Y004631D01*
X001779Y004533D02*
X001621Y004533D01*
X001621Y004434D02*
X001779Y004434D01*
X001779Y004336D02*
X001621Y004336D01*
X001621Y004237D02*
X001815Y004237D01*
X001914Y004139D02*
X001621Y004139D01*
X001621Y004040D02*
X001939Y004040D01*
X001939Y003942D02*
X001621Y003942D01*
X001621Y003843D02*
X001939Y003843D01*
X001939Y003745D02*
X001621Y003745D01*
X001621Y003646D02*
X001939Y003646D01*
X001939Y003548D02*
X001621Y003548D01*
X001621Y003449D02*
X001939Y003449D01*
X001939Y003351D02*
X001621Y003351D01*
X001621Y003252D02*
X001939Y003252D01*
X001939Y003154D02*
X001621Y003154D01*
X001621Y003055D02*
X001939Y003055D01*
X001939Y002957D02*
X001621Y002957D01*
X001621Y002858D02*
X001939Y002858D01*
X001939Y002760D02*
X001621Y002760D01*
X001621Y002661D02*
X001939Y002661D01*
X001628Y002563D02*
X001621Y002563D01*
X001299Y002563D02*
X001268Y002563D01*
X001268Y002661D02*
X001299Y002661D01*
X001268Y002671D02*
X001203Y002736D01*
X001140Y002736D01*
X001218Y002813D01*
X001268Y002934D01*
X001268Y003064D01*
X001218Y003184D01*
X001126Y003277D01*
X001083Y003294D01*
X001126Y003312D01*
X001218Y003404D01*
X001268Y003524D01*
X001268Y003655D01*
X001218Y003775D01*
X001126Y003867D01*
X001083Y003885D01*
X001126Y003902D01*
X001218Y003994D01*
X001268Y004115D01*
X001268Y004245D01*
X001218Y004366D01*
X001126Y004458D01*
X001083Y004475D01*
X001126Y004493D01*
X001218Y004585D01*
X001268Y004705D01*
X001268Y004836D01*
X001218Y004956D01*
X001126Y005048D01*
X001083Y005066D01*
X001126Y005083D01*
X001218Y005176D01*
X001228Y005200D01*
X001252Y005200D01*
X001299Y005153D01*
X001299Y001911D01*
X001289Y001896D01*
X001298Y001850D01*
X001294Y001780D01*
X001293Y001756D01*
X001290Y001750D01*
X001290Y001707D01*
X001287Y001647D01*
X001296Y001638D01*
X001328Y001559D01*
X001348Y001538D01*
X001131Y001643D01*
X000829Y001643D01*
X000556Y001512D01*
X000556Y001512D01*
X000556Y001512D01*
X000367Y001275D01*
X000327Y001099D01*
X000327Y006459D01*
X000557Y006229D01*
X000734Y006229D01*
X000720Y006220D01*
X000672Y006172D01*
X000634Y006115D01*
X000608Y006052D01*
X000595Y005986D01*
X000595Y005971D01*
X000921Y005971D01*
X000921Y005933D01*
X000595Y005933D01*
X000595Y005918D01*
X000608Y005851D01*
X000634Y005788D01*
X000672Y005732D01*
X000720Y005683D01*
X000774Y005647D01*
X000754Y005639D01*
X000662Y005547D01*
X000612Y005426D01*
X000612Y005296D01*
X000662Y005176D01*
X000754Y005083D01*
X000797Y005066D01*
X000754Y005048D01*
X000662Y004956D01*
X000612Y004836D01*
X000612Y004705D01*
X000662Y004585D01*
X000754Y004493D01*
X000797Y004475D01*
X000754Y004458D01*
X000662Y004366D01*
X000612Y004245D01*
X000612Y004115D01*
X000662Y003994D01*
X000754Y003902D01*
X000797Y003885D01*
X000754Y003867D01*
X000662Y003775D01*
X000612Y003655D01*
X000612Y003524D01*
X000662Y003404D01*
X000754Y003312D01*
X000797Y003294D01*
X000754Y003277D01*
X000662Y003184D01*
X000612Y003064D01*
X000612Y002934D01*
X000662Y002813D01*
X000740Y002736D01*
X000677Y002736D01*
X000612Y002671D01*
X000612Y002146D01*
X000677Y002081D01*
X001203Y002081D01*
X001268Y002146D01*
X001268Y002671D01*
X001299Y002760D02*
X001164Y002760D01*
X001236Y002858D02*
X001299Y002858D01*
X001299Y002957D02*
X001268Y002957D01*
X001268Y003055D02*
X001299Y003055D01*
X001299Y003154D02*
X001231Y003154D01*
X001299Y003252D02*
X001150Y003252D01*
X001164Y003351D02*
X001299Y003351D01*
X001299Y003449D02*
X001236Y003449D01*
X001268Y003548D02*
X001299Y003548D01*
X001299Y003646D02*
X001268Y003646D01*
X001299Y003745D02*
X001230Y003745D01*
X001299Y003843D02*
X001150Y003843D01*
X001165Y003942D02*
X001299Y003942D01*
X001299Y004040D02*
X001237Y004040D01*
X001268Y004139D02*
X001299Y004139D01*
X001299Y004237D02*
X001268Y004237D01*
X001299Y004336D02*
X001230Y004336D01*
X001299Y004434D02*
X001149Y004434D01*
X001165Y004533D02*
X001299Y004533D01*
X001299Y004631D02*
X001237Y004631D01*
X001268Y004730D02*
X001299Y004730D01*
X001299Y004828D02*
X001268Y004828D01*
X001299Y004927D02*
X001230Y004927D01*
X001299Y005025D02*
X001149Y005025D01*
X001166Y005124D02*
X001299Y005124D01*
X001460Y005220D02*
X001319Y005361D01*
X000940Y005361D01*
X000714Y005124D02*
X000327Y005124D01*
X000327Y005222D02*
X000643Y005222D01*
X000612Y005321D02*
X000327Y005321D01*
X000327Y005419D02*
X000612Y005419D01*
X000650Y005518D02*
X000327Y005518D01*
X000327Y005616D02*
X000732Y005616D01*
X000689Y005715D02*
X000327Y005715D01*
X000327Y005813D02*
X000624Y005813D01*
X000596Y005912D02*
X000327Y005912D01*
X000327Y006010D02*
X000600Y006010D01*
X000631Y006109D02*
X000327Y006109D01*
X000327Y006207D02*
X000707Y006207D01*
X000481Y006306D02*
X000327Y006306D01*
X000327Y006404D02*
X000382Y006404D01*
X001173Y006207D02*
X001619Y006207D01*
X001699Y006109D02*
X001249Y006109D01*
X001600Y005940D02*
X001602Y005930D01*
X001595Y005913D01*
X001600Y005940D02*
X001622Y005978D01*
X001636Y006010D01*
X001595Y005813D02*
X001256Y005813D01*
X001191Y005715D02*
X001634Y005715D01*
X001757Y005616D02*
X001148Y005616D01*
X001460Y005220D02*
X001460Y001861D01*
X001590Y001774D01*
X001540Y001700D01*
X001451Y001705D01*
X001460Y001861D01*
X001460Y001780D01*
X001540Y001700D01*
X001320Y001578D02*
X001267Y001578D01*
X001289Y001676D02*
X000327Y001676D01*
X000327Y001578D02*
X000693Y001578D01*
X000530Y001479D02*
X000327Y001479D01*
X000327Y001381D02*
X000451Y001381D01*
X000373Y001282D02*
X000327Y001282D01*
X000367Y001275D02*
X000367Y001275D01*
X000346Y001184D02*
X000327Y001184D01*
X000327Y001775D02*
X001294Y001775D01*
X001294Y001780D02*
X001294Y001780D01*
X001294Y001873D02*
X000327Y001873D01*
X000327Y001972D02*
X001299Y001972D01*
X001299Y002070D02*
X000327Y002070D01*
X000327Y002169D02*
X000612Y002169D01*
X000612Y002267D02*
X000327Y002267D01*
X000327Y002366D02*
X000612Y002366D01*
X000612Y002464D02*
X000327Y002464D01*
X000327Y002563D02*
X000612Y002563D01*
X000612Y002661D02*
X000327Y002661D01*
X000327Y002760D02*
X000716Y002760D01*
X000644Y002858D02*
X000327Y002858D01*
X000327Y002957D02*
X000612Y002957D01*
X000612Y003055D02*
X000327Y003055D01*
X000327Y003154D02*
X000649Y003154D01*
X000730Y003252D02*
X000327Y003252D01*
X000327Y003351D02*
X000716Y003351D01*
X000644Y003449D02*
X000327Y003449D01*
X000327Y003548D02*
X000612Y003548D01*
X000612Y003646D02*
X000327Y003646D01*
X000327Y003745D02*
X000650Y003745D01*
X000730Y003843D02*
X000327Y003843D01*
X000327Y003942D02*
X000715Y003942D01*
X000643Y004040D02*
X000327Y004040D01*
X000327Y004139D02*
X000612Y004139D01*
X000612Y004237D02*
X000327Y004237D01*
X000327Y004336D02*
X000650Y004336D01*
X000731Y004434D02*
X000327Y004434D01*
X000327Y004533D02*
X000715Y004533D01*
X000643Y004631D02*
X000327Y004631D01*
X000327Y004730D02*
X000612Y004730D01*
X000612Y004828D02*
X000327Y004828D01*
X000327Y004927D02*
X000650Y004927D01*
X000731Y005025D02*
X000327Y005025D01*
X001963Y005616D02*
X002019Y005616D01*
X002661Y005715D02*
X002687Y005715D01*
X002661Y005813D02*
X002785Y005813D01*
X002884Y005912D02*
X002661Y005912D01*
X002661Y006010D02*
X002982Y006010D01*
X003019Y006109D02*
X002661Y006109D01*
X002661Y006207D02*
X003019Y006207D01*
X003019Y006306D02*
X002661Y006306D01*
X002661Y006404D02*
X003019Y006404D01*
X003019Y006503D02*
X002661Y006503D01*
X002669Y006601D02*
X003019Y006601D01*
X002767Y006700D02*
X004607Y006700D01*
X004555Y006798D02*
X004132Y006798D01*
X004192Y006897D02*
X004544Y006897D01*
X004544Y006897D01*
X004586Y006995D02*
X004222Y006995D01*
X004281Y007094D02*
X004619Y007094D01*
X004597Y007020D02*
X004597Y007020D01*
X004619Y007192D02*
X004380Y007192D01*
X004478Y007291D02*
X004619Y007291D01*
X004619Y007389D02*
X004577Y007389D01*
X004500Y007540D02*
X004099Y007139D01*
X004039Y006949D01*
X003940Y006980D01*
X003909Y007079D01*
X004099Y007139D01*
X003940Y006980D01*
X003748Y006798D02*
X002866Y006798D01*
X002964Y006897D02*
X003688Y006897D01*
X003675Y006995D02*
X003063Y006995D01*
X002804Y007192D02*
X002341Y007192D01*
X002341Y007094D02*
X002706Y007094D01*
X002607Y006995D02*
X002341Y006995D01*
X002341Y006897D02*
X002509Y006897D01*
X002410Y006798D02*
X002341Y006798D01*
X002341Y007291D02*
X002903Y007291D01*
X002860Y007620D02*
X003460Y007620D01*
X003621Y007781D01*
X003681Y007971D01*
X003780Y007940D01*
X003811Y007841D01*
X003621Y007781D01*
X003780Y007940D01*
X004408Y007932D02*
X004500Y007980D01*
X004592Y007932D01*
X004500Y007755D01*
X004408Y007932D01*
X004500Y007980D02*
X004500Y007755D01*
X004500Y007540D01*
X004941Y007586D02*
X005501Y007586D01*
X005501Y007488D02*
X004941Y007488D01*
X004941Y007389D02*
X005501Y007389D01*
X005501Y007291D02*
X004941Y007291D01*
X004941Y007192D02*
X005501Y007192D01*
X005501Y007094D02*
X004941Y007094D01*
X005014Y006995D02*
X005501Y006995D01*
X005501Y006897D02*
X005050Y006897D01*
X005041Y006952D02*
X005041Y006953D01*
X005045Y006798D02*
X005501Y006798D01*
X005501Y006700D02*
X004993Y006700D01*
X004872Y006912D02*
X004800Y006860D01*
X004718Y006895D01*
X004780Y007039D01*
X004872Y006912D01*
X004800Y006860D02*
X004780Y006880D01*
X004780Y007039D01*
X004780Y009620D01*
X004827Y009667D01*
X005927Y009667D01*
X006353Y009655D02*
X006739Y009655D01*
X006739Y009753D02*
X006353Y009753D01*
X006353Y009852D02*
X006739Y009852D01*
X006739Y009950D02*
X006361Y009950D01*
X006370Y010049D02*
X006739Y010049D01*
X006739Y010147D02*
X006469Y010147D01*
X006509Y010187D02*
X006509Y010187D01*
X006567Y010246D02*
X006739Y010246D01*
X006739Y010344D02*
X006666Y010344D01*
X006671Y010443D02*
X006739Y010443D01*
X006739Y010541D02*
X006671Y010541D01*
X006671Y010640D02*
X006752Y010640D01*
X006671Y010738D02*
X006843Y010738D01*
X006874Y010837D02*
X006671Y010837D01*
X006671Y010935D02*
X006905Y010935D01*
X007012Y011034D02*
X006671Y011034D01*
X006671Y011132D02*
X007442Y011132D01*
X007435Y011231D02*
X006651Y011231D01*
X006553Y011329D02*
X007467Y011329D01*
X007656Y011294D02*
X007700Y011200D01*
X007802Y011182D01*
X007836Y011379D01*
X007656Y011294D01*
X007700Y011200D02*
X007836Y011336D01*
X007836Y011379D01*
X007836Y011773D01*
X008033Y011773D02*
X008033Y009633D01*
X007059Y008659D01*
X006999Y008469D01*
X006900Y008500D01*
X006869Y008599D01*
X007059Y008659D01*
X006900Y008500D01*
X006695Y008670D02*
X006353Y008670D01*
X006353Y008768D02*
X006668Y008768D01*
X006635Y008867D02*
X006353Y008867D01*
X006353Y008965D02*
X006640Y008965D01*
X006689Y009064D02*
X006353Y009064D01*
X006353Y009162D02*
X006671Y009162D01*
X006635Y009247D02*
X006635Y009353D01*
X006637Y009356D01*
X006636Y009359D01*
X006683Y009458D02*
X006353Y009458D01*
X006353Y009556D02*
X006735Y009556D01*
X006900Y009525D02*
X006992Y009348D01*
X006900Y009300D01*
X006808Y009348D01*
X006900Y009525D01*
X006900Y010560D01*
X006981Y010641D01*
X007041Y010831D01*
X007140Y010800D01*
X007171Y010701D01*
X006981Y010641D01*
X007140Y010800D01*
X007371Y010935D02*
X007624Y010935D01*
X007492Y011034D02*
X007268Y011034D01*
X007405Y010837D02*
X007482Y010837D01*
X007437Y010738D02*
X007401Y010738D01*
X007410Y010640D02*
X007354Y010640D01*
X007333Y010541D02*
X007207Y010541D01*
X007235Y010443D02*
X007061Y010443D01*
X007061Y010344D02*
X007136Y010344D01*
X007200Y010180D02*
X007200Y009200D01*
X007059Y009059D01*
X006999Y008869D01*
X006900Y008900D01*
X006869Y008999D01*
X007059Y009059D01*
X006900Y008900D01*
X006900Y009300D02*
X006900Y009525D01*
X007691Y009064D02*
X008179Y009064D01*
X008179Y009162D02*
X007790Y009162D01*
X007888Y009261D02*
X008179Y009261D01*
X008179Y009359D02*
X007987Y009359D01*
X008085Y009458D02*
X008179Y009458D01*
X008760Y009835D02*
X008668Y010012D01*
X008760Y010060D01*
X008852Y010012D01*
X008760Y009835D01*
X008760Y008560D01*
X010740Y006580D01*
X010740Y005220D01*
X011300Y004660D01*
X011860Y004660D01*
X012500Y004020D01*
X012576Y004020D01*
X012761Y004096D01*
X012800Y004000D01*
X012744Y003913D01*
X012576Y004020D01*
X012780Y004020D01*
X012800Y004000D01*
X012680Y004237D02*
X012511Y004237D01*
X012604Y004336D02*
X012412Y004336D01*
X012314Y004434D02*
X012561Y004434D01*
X012555Y004533D02*
X012215Y004533D01*
X012117Y004631D02*
X012588Y004631D01*
X012682Y004730D02*
X012018Y004730D01*
X011780Y004340D02*
X011688Y004292D01*
X011780Y004115D01*
X011872Y004292D01*
X011780Y004340D01*
X011780Y004115D01*
X011780Y003434D01*
X011180Y003429D02*
X011180Y003959D01*
X011121Y004149D01*
X011220Y004180D01*
X011302Y004117D01*
X011180Y003959D01*
X011180Y004180D01*
X010980Y003940D02*
X010980Y003433D01*
X010780Y003436D02*
X010780Y003860D01*
X010500Y004140D01*
X010500Y004275D01*
X010408Y004452D01*
X010500Y004500D01*
X010592Y004452D01*
X010500Y004275D01*
X010500Y004500D01*
X010260Y004388D02*
X010260Y004388D01*
X010236Y004434D02*
X010161Y004434D01*
X010234Y004437D02*
X010234Y004437D01*
X010234Y004437D01*
X010235Y004533D02*
X010161Y004533D01*
X010217Y004631D02*
X010268Y004631D01*
X010250Y004730D02*
X010362Y004730D01*
X010356Y004828D02*
X010242Y004828D01*
X010269Y004927D02*
X010187Y004927D01*
X010235Y005025D02*
X008501Y005025D01*
X008505Y005124D02*
X010240Y005124D01*
X010288Y005222D02*
X008556Y005222D01*
X008606Y005317D02*
X008606Y005317D01*
X008605Y005321D02*
X010437Y005321D01*
X010563Y005321D02*
X010579Y005321D01*
X010579Y005419D02*
X008605Y005419D01*
X008570Y005518D02*
X010579Y005518D01*
X010579Y005616D02*
X008462Y005616D01*
X008218Y005616D02*
X007941Y005616D01*
X007941Y005518D02*
X008110Y005518D01*
X008075Y005419D02*
X007941Y005419D01*
X007941Y005321D02*
X008075Y005321D01*
X008074Y005317D02*
X008074Y005317D01*
X008074Y005317D01*
X008100Y005268D02*
X008100Y005268D01*
X008124Y005222D02*
X007941Y005222D01*
X007941Y005124D02*
X008175Y005124D01*
X008179Y005025D02*
X007941Y005025D01*
X007941Y004927D02*
X008179Y004927D01*
X008179Y004828D02*
X007941Y004828D01*
X007941Y004730D02*
X008179Y004730D01*
X008179Y004631D02*
X007941Y004631D01*
X007941Y004533D02*
X008179Y004533D01*
X008179Y004434D02*
X007941Y004434D01*
X007843Y004336D02*
X008179Y004336D01*
X008255Y004237D02*
X007745Y004237D01*
X007620Y004340D02*
X007444Y004340D01*
X007276Y004233D01*
X007220Y004320D01*
X007259Y004416D01*
X007444Y004340D01*
X007240Y004340D01*
X007220Y004320D01*
X007027Y004139D02*
X006621Y004139D01*
X006621Y004237D02*
X006968Y004237D01*
X006955Y004336D02*
X006621Y004336D01*
X006621Y004434D02*
X006981Y004434D01*
X007058Y004533D02*
X006621Y004533D01*
X006621Y004631D02*
X007619Y004631D01*
X007619Y004730D02*
X006618Y004730D01*
X006520Y004828D02*
X007619Y004828D01*
X007619Y004927D02*
X006353Y004927D01*
X006353Y005025D02*
X007619Y005025D01*
X007619Y005124D02*
X006353Y005124D01*
X006620Y005340D02*
X005931Y005340D01*
X005927Y005336D01*
X005927Y005730D02*
X005450Y005730D01*
X005380Y005660D01*
X005380Y004820D01*
X005454Y004746D01*
X005927Y004746D01*
X005932Y004740D01*
X006380Y004740D01*
X006460Y004660D01*
X006460Y003860D01*
X006359Y003759D01*
X006299Y003569D01*
X006200Y003600D01*
X006169Y003699D01*
X006359Y003759D01*
X006200Y003600D01*
X006423Y003449D02*
X006467Y003449D01*
X006467Y003351D02*
X006290Y003351D01*
X006180Y003320D02*
X006180Y003320D01*
X006180Y003320D01*
X006110Y003351D02*
X005904Y003351D01*
X005949Y003449D02*
X005977Y003449D01*
X006064Y003252D02*
X005754Y003252D01*
X005646Y003252D02*
X005643Y003252D01*
X005635Y003250D02*
X005635Y003250D01*
X005631Y003252D02*
X005180Y003252D01*
X005080Y003380D02*
X004580Y003380D01*
X004500Y003460D01*
X004500Y005460D01*
X005140Y006100D01*
X005320Y006100D01*
X005276Y006177D01*
X005140Y006100D01*
X005276Y006023D01*
X005320Y006100D01*
X005003Y006207D02*
X004181Y006207D01*
X004181Y006109D02*
X004921Y006109D01*
X004822Y006010D02*
X004181Y006010D01*
X004144Y005912D02*
X004724Y005912D01*
X004625Y005813D02*
X003761Y005813D01*
X003662Y005715D02*
X004527Y005715D01*
X004433Y005621D02*
X004433Y005621D01*
X004428Y005616D02*
X003564Y005616D01*
X003465Y005518D02*
X004339Y005518D01*
X004339Y005419D02*
X003367Y005419D01*
X003373Y005334D02*
X003373Y004958D01*
X003649Y004958D01*
X003827Y004958D01*
X003827Y005334D01*
X003663Y005334D01*
X003630Y005325D01*
X003601Y005308D01*
X003600Y005307D01*
X003599Y005308D01*
X003570Y005325D01*
X003537Y005334D01*
X003373Y005334D01*
X003373Y005321D02*
X003277Y005321D01*
X003277Y005222D02*
X003373Y005222D01*
X003373Y005124D02*
X003277Y005124D01*
X003277Y005025D02*
X003373Y005025D01*
X003373Y004927D02*
X003827Y004927D01*
X003827Y004958D02*
X003827Y004862D01*
X003923Y004862D01*
X003923Y004958D01*
X003827Y004958D01*
X003827Y005025D02*
X003923Y005025D01*
X003923Y004958D02*
X003923Y005334D01*
X004087Y005334D01*
X004120Y005325D01*
X004149Y005308D01*
X004173Y005284D01*
X004190Y005255D01*
X004199Y005222D01*
X004199Y004958D01*
X003923Y004958D01*
X003923Y004927D02*
X004339Y004927D01*
X004339Y005025D02*
X004199Y005025D01*
X004199Y005124D02*
X004339Y005124D01*
X004339Y005222D02*
X004199Y005222D01*
X004127Y005321D02*
X004339Y005321D01*
X003923Y005321D02*
X003827Y005321D01*
X003827Y005222D02*
X003923Y005222D01*
X003923Y005124D02*
X003827Y005124D01*
X003623Y005321D02*
X003577Y005321D01*
X002940Y005220D02*
X003820Y006100D01*
X004181Y006306D02*
X005172Y006306D01*
X005468Y006306D02*
X005501Y006306D01*
X005501Y006404D02*
X004181Y006404D01*
X004181Y006503D02*
X005501Y006503D01*
X005501Y006601D02*
X004181Y006601D01*
X003220Y006020D02*
X002765Y005565D01*
X002765Y003600D01*
X002457Y003646D02*
X002261Y003646D01*
X002261Y003548D02*
X002457Y003548D01*
X002457Y003449D02*
X002261Y003449D01*
X002261Y003351D02*
X002457Y003351D01*
X002261Y003252D02*
X002939Y003252D01*
X002846Y003154D02*
X002261Y003154D01*
X002261Y003055D02*
X002747Y003055D01*
X002649Y002957D02*
X002261Y002957D01*
X002261Y002858D02*
X002457Y002858D01*
X002457Y002760D02*
X002261Y002760D01*
X002261Y002661D02*
X002457Y002661D01*
X002457Y002563D02*
X002261Y002563D01*
X002261Y002464D02*
X002457Y002464D01*
X002457Y002366D02*
X002261Y002366D01*
X002261Y002267D02*
X002324Y002267D01*
X002483Y002286D02*
X002483Y002286D01*
X002483Y002286D01*
X002519Y002267D02*
X003959Y002267D01*
X004058Y002366D02*
X003743Y002366D01*
X003940Y002020D02*
X004420Y002500D01*
X004820Y002500D01*
X004980Y002340D01*
X004980Y002165D01*
X005072Y001988D01*
X004980Y001940D01*
X004888Y001988D01*
X004980Y002165D01*
X004980Y001940D01*
X004715Y001945D02*
X004715Y001887D01*
X004756Y001790D01*
X004830Y001716D01*
X004927Y001675D01*
X005033Y001675D01*
X005130Y001716D01*
X005204Y001790D01*
X005245Y001887D01*
X005245Y001993D01*
X005243Y001996D01*
X005246Y002003D01*
X005220Y002052D01*
X005204Y002090D01*
X005196Y002098D01*
X005141Y002204D01*
X005141Y002407D01*
X005047Y002501D01*
X004887Y002661D01*
X005099Y002661D01*
X005095Y002653D02*
X005095Y002547D01*
X005136Y002450D01*
X005159Y002426D01*
X005163Y002411D01*
X005194Y002392D01*
X005210Y002376D01*
X005238Y002364D01*
X005276Y002340D01*
X005373Y002279D01*
X005392Y002260D01*
X005246Y002114D01*
X005246Y001980D01*
X005246Y001546D01*
X005007Y001546D01*
X004942Y001481D01*
X004942Y000801D01*
X004258Y000801D01*
X004258Y001481D01*
X004193Y001546D01*
X004173Y001546D01*
X004488Y001860D01*
X004507Y001879D01*
X004621Y001915D01*
X004633Y001915D01*
X004671Y001931D01*
X004672Y001931D01*
X004715Y001945D01*
X004721Y001873D02*
X004501Y001873D01*
X004402Y001775D02*
X004771Y001775D01*
X004925Y001676D02*
X004304Y001676D01*
X004205Y001578D02*
X005246Y001578D01*
X005246Y001676D02*
X005035Y001676D01*
X005189Y001775D02*
X005246Y001775D01*
X005239Y001873D02*
X005246Y001873D01*
X005245Y001972D02*
X005246Y001972D01*
X005246Y002003D02*
X005246Y002003D01*
X005246Y002003D01*
X005246Y002070D02*
X005213Y002070D01*
X005160Y002169D02*
X005301Y002169D01*
X005385Y002267D02*
X005141Y002267D01*
X005141Y002366D02*
X005234Y002366D01*
X005276Y002340D02*
X005276Y002340D01*
X005163Y002411D02*
X005163Y002411D01*
X005163Y002411D01*
X005130Y002464D02*
X005084Y002464D01*
X005095Y002563D02*
X004985Y002563D01*
X004887Y002661D02*
X004395Y002661D01*
X004643Y002909D01*
X005994Y002909D01*
X006097Y002849D01*
X006110Y002836D01*
X006142Y002822D01*
X006180Y002800D01*
X006180Y002800D01*
X006190Y002802D01*
X006207Y002795D01*
X006313Y002795D01*
X006410Y002836D01*
X006484Y002910D01*
X006524Y003005D01*
X006546Y002992D01*
X006579Y002983D01*
X006655Y002983D01*
X006655Y003427D01*
X006655Y003427D01*
X006655Y002983D01*
X006691Y002983D01*
X006691Y002881D01*
X006739Y002833D01*
X006833Y002739D01*
X007473Y002739D01*
X007667Y002546D01*
X007483Y002546D01*
X007483Y002268D01*
X007386Y002268D01*
X007386Y002546D01*
X007201Y002546D01*
X007168Y002537D01*
X007139Y002520D01*
X007115Y002496D01*
X007098Y002467D01*
X007093Y002447D01*
X007093Y002463D01*
X007028Y002528D01*
X006503Y002528D01*
X006438Y002463D01*
X006438Y002421D01*
X005687Y002421D01*
X005635Y002473D01*
X005632Y002476D01*
X005625Y002607D01*
X005625Y002653D01*
X005622Y002659D01*
X005621Y002680D01*
X005609Y002691D01*
X005584Y002750D01*
X005510Y002824D01*
X005413Y002865D01*
X005307Y002865D01*
X005210Y002824D01*
X005136Y002750D01*
X005095Y002653D01*
X005145Y002760D02*
X004493Y002760D01*
X004592Y002858D02*
X005291Y002858D01*
X005429Y002858D02*
X006081Y002858D01*
X006180Y002800D02*
X006180Y002800D01*
X006432Y002858D02*
X006714Y002858D01*
X006691Y002957D02*
X006504Y002957D01*
X006655Y003055D02*
X006655Y003055D01*
X006655Y003154D02*
X006655Y003154D01*
X006655Y003252D02*
X006655Y003252D01*
X006655Y003351D02*
X006655Y003351D01*
X006655Y003449D02*
X006655Y003449D01*
X006655Y003548D02*
X006655Y003548D01*
X006655Y003646D02*
X006655Y003646D01*
X006655Y003745D02*
X006655Y003745D01*
X006655Y003843D02*
X006655Y003843D01*
X006621Y003942D02*
X008459Y003942D01*
X008452Y004040D02*
X006621Y004040D01*
X005915Y004340D02*
X005460Y004340D01*
X005300Y004180D01*
X005300Y003860D01*
X005205Y003765D01*
X004850Y003765D01*
X005200Y003500D02*
X005080Y003380D01*
X005200Y003500D02*
X005520Y003500D01*
X005656Y003577D01*
X005700Y003500D01*
X005656Y003423D01*
X005520Y003500D01*
X005700Y003500D01*
X006465Y003548D02*
X006467Y003548D01*
X006467Y003252D02*
X006442Y003252D01*
X006852Y003427D02*
X006852Y002948D01*
X006900Y002900D01*
X007540Y002900D01*
X007940Y002500D01*
X007940Y001300D01*
X007870Y001230D01*
X007435Y001230D01*
X007756Y001479D02*
X007779Y001479D01*
X007779Y001578D02*
X005568Y001578D01*
X005568Y001676D02*
X007779Y001676D01*
X007779Y001775D02*
X005568Y001775D01*
X005568Y001873D02*
X007779Y001873D01*
X007770Y001972D02*
X007779Y001972D01*
X008101Y001972D02*
X008491Y001972D01*
X008462Y002070D02*
X008101Y002070D01*
X008101Y002169D02*
X008364Y002169D01*
X008265Y002267D02*
X008101Y002267D01*
X008101Y002366D02*
X008167Y002366D01*
X008524Y002464D02*
X008688Y002464D01*
X008688Y002366D02*
X008622Y002366D01*
X008688Y002300D02*
X007997Y002990D01*
X007997Y003001D01*
X009484Y003001D01*
X009499Y002992D01*
X009532Y002983D01*
X009608Y002983D01*
X009684Y002983D01*
X009717Y002992D01*
X009732Y003001D01*
X010037Y003001D01*
X010037Y002985D01*
X009873Y002821D01*
X008993Y002821D01*
X008899Y002727D01*
X008854Y002682D01*
X008854Y002658D01*
X008753Y002658D01*
X008688Y002593D01*
X008688Y002300D01*
X008700Y002060D02*
X007836Y002924D01*
X007836Y003427D01*
X008031Y002957D02*
X010009Y002957D01*
X009910Y002858D02*
X008130Y002858D01*
X008228Y002760D02*
X008932Y002760D01*
X008854Y002661D02*
X008327Y002661D01*
X008425Y002563D02*
X008688Y002563D01*
X009015Y002615D02*
X009060Y002660D01*
X009940Y002660D01*
X010198Y002918D01*
X010198Y003427D01*
X010002Y003427D02*
X010000Y003428D01*
X010000Y004260D01*
X009829Y004260D01*
X009805Y004235D01*
X009805Y003427D01*
X009608Y003427D02*
X009608Y002983D01*
X009608Y003427D01*
X009608Y003427D01*
X009608Y003449D02*
X009608Y003449D01*
X009608Y003351D02*
X009608Y003351D01*
X009608Y003252D02*
X009608Y003252D01*
X009608Y003154D02*
X009608Y003154D01*
X009608Y003055D02*
X009608Y003055D01*
X009608Y003548D02*
X009608Y003548D01*
X009608Y003646D02*
X009608Y003646D01*
X009608Y003745D02*
X009608Y003745D01*
X009608Y003843D02*
X009608Y003843D01*
X009644Y003942D02*
X008981Y003942D01*
X008981Y004040D02*
X009644Y004040D01*
X009644Y004139D02*
X008981Y004139D01*
X008981Y004237D02*
X009644Y004237D01*
X009677Y004336D02*
X008981Y004336D01*
X008981Y004434D02*
X009839Y004434D01*
X009839Y004533D02*
X008981Y004533D01*
X008981Y004631D02*
X009783Y004631D01*
X009750Y004695D02*
X009750Y004695D01*
X009750Y004730D02*
X008941Y004730D01*
X008910Y004828D02*
X009758Y004828D01*
X009813Y004927D02*
X008848Y004927D01*
X008759Y004771D02*
X008660Y004740D01*
X008629Y004641D01*
X008819Y004581D01*
X008759Y004771D01*
X008660Y004740D02*
X008819Y004581D01*
X008820Y004580D01*
X008820Y003427D01*
X008620Y003430D02*
X008620Y004100D01*
X008340Y004380D01*
X008340Y005155D01*
X008248Y005332D01*
X008340Y005380D01*
X008432Y005332D01*
X008340Y005155D01*
X008340Y005380D01*
X007941Y005715D02*
X010579Y005715D01*
X010579Y005813D02*
X007941Y005813D01*
X007941Y005912D02*
X010579Y005912D01*
X010579Y006010D02*
X007941Y006010D01*
X007941Y006109D02*
X010579Y006109D01*
X010579Y006207D02*
X007941Y006207D01*
X007941Y006306D02*
X010579Y006306D01*
X010579Y006404D02*
X007941Y006404D01*
X007941Y006503D02*
X010579Y006503D01*
X010491Y006601D02*
X007941Y006601D01*
X007941Y006700D02*
X010393Y006700D01*
X010294Y006798D02*
X007941Y006798D01*
X007941Y006897D02*
X010196Y006897D01*
X010097Y006995D02*
X008983Y006995D01*
X009047Y007059D02*
X009047Y007059D01*
X009081Y007094D02*
X009999Y007094D01*
X009900Y007192D02*
X009141Y007192D01*
X009141Y007291D02*
X009802Y007291D01*
X009703Y007389D02*
X009141Y007389D01*
X009141Y007488D02*
X009605Y007488D01*
X009506Y007586D02*
X009141Y007586D01*
X009141Y007685D02*
X009408Y007685D01*
X009309Y007783D02*
X009141Y007783D01*
X009141Y007882D02*
X009211Y007882D01*
X008980Y008020D02*
X008340Y008660D01*
X008340Y010779D01*
X008218Y010937D01*
X008300Y011000D01*
X008399Y010969D01*
X008340Y010779D01*
X008340Y010960D01*
X008300Y011000D01*
X008545Y010841D02*
X008640Y010800D01*
X008728Y010854D01*
X008624Y011024D01*
X008545Y010841D01*
X008624Y010816D02*
X008640Y010800D01*
X008624Y010816D02*
X008624Y011024D01*
X008624Y011773D01*
X008427Y011773D02*
X008427Y012359D01*
X008457Y012556D01*
X008560Y012540D01*
X008606Y012447D01*
X008427Y012359D01*
X008427Y012407D01*
X008560Y012540D01*
X008440Y012420D01*
X008230Y012410D02*
X008230Y011773D01*
X008069Y012216D02*
X007227Y012216D01*
X007245Y012314D02*
X007672Y012314D01*
X007610Y012413D02*
X007237Y012413D01*
X007183Y012511D02*
X007595Y012511D01*
X007619Y012610D02*
X005971Y012610D01*
X005971Y012708D02*
X007694Y012708D01*
X007923Y012766D02*
X007923Y012766D01*
X007923Y012766D01*
X008034Y012708D02*
X008354Y012708D01*
X008302Y012610D02*
X008258Y012610D01*
X008140Y012500D02*
X008230Y012410D01*
X008140Y012500D02*
X008085Y012500D01*
X007908Y012408D01*
X007860Y012500D01*
X007908Y012592D01*
X008085Y012500D01*
X007860Y012500D01*
X008588Y012216D02*
X011495Y012216D01*
X011576Y012216D02*
X011576Y012216D01*
X011576Y012217D02*
X011576Y011773D01*
X011576Y011773D01*
X011576Y012217D01*
X011576Y012117D02*
X011576Y012117D01*
X011576Y012019D02*
X011576Y012019D01*
X011576Y011920D02*
X011576Y011920D01*
X011576Y011822D02*
X011576Y011822D01*
X011576Y011723D02*
X011576Y011723D01*
X011576Y011625D02*
X011576Y011625D01*
X011576Y011526D02*
X011576Y011526D01*
X011576Y011428D02*
X011576Y011428D01*
X011060Y011140D02*
X011060Y009020D01*
X010899Y008859D01*
X010839Y008669D01*
X010740Y008700D01*
X010709Y008799D01*
X010899Y008859D01*
X010740Y008700D01*
X010507Y008571D02*
X008977Y008571D01*
X008921Y008670D02*
X010475Y008670D01*
X010482Y008768D02*
X008921Y008768D01*
X008921Y008867D02*
X009772Y008867D01*
X009669Y008965D02*
X008921Y008965D01*
X008921Y009064D02*
X009019Y009064D01*
X009261Y009064D02*
X009635Y009064D01*
X009635Y009162D02*
X009369Y009162D01*
X009405Y009261D02*
X009685Y009261D01*
X009736Y009359D02*
X009402Y009359D01*
X009566Y009458D02*
X009739Y009458D01*
X009739Y009556D02*
X009687Y009556D01*
X009725Y009655D02*
X009739Y009655D01*
X009726Y009763D02*
X009726Y009763D01*
X009726Y009763D01*
X009739Y009852D02*
X009683Y009852D01*
X009628Y009950D02*
X009739Y009950D01*
X009739Y010049D02*
X009703Y010049D01*
X009621Y010007D02*
X009621Y010007D01*
X009460Y009940D02*
X009460Y009925D01*
X009552Y009748D01*
X009460Y009700D01*
X009368Y009748D01*
X009460Y009925D01*
X009460Y009700D01*
X009460Y009940D02*
X009260Y010140D01*
X009260Y010860D01*
X009411Y011011D01*
X009411Y011773D01*
X009220Y011767D02*
X009220Y011060D01*
X009060Y010900D01*
X009060Y009510D01*
X009209Y009377D01*
X009140Y009300D01*
X009037Y009312D01*
X009060Y009510D01*
X009060Y009380D01*
X009140Y009300D01*
X008760Y009835D02*
X008760Y010060D01*
X009448Y010308D02*
X009540Y010260D01*
X009632Y010308D01*
X009540Y010485D01*
X009448Y010308D01*
X009540Y010260D02*
X009540Y010485D01*
X009540Y010900D01*
X009620Y010980D01*
X009620Y011761D01*
X009805Y011773D02*
X009805Y010525D01*
X009900Y010429D01*
X009900Y009325D01*
X009992Y009148D01*
X009900Y009100D01*
X009808Y009148D01*
X009900Y009325D01*
X009900Y009100D01*
X010028Y008867D02*
X010239Y008867D01*
X010173Y008965D02*
X010131Y008965D01*
X010420Y009060D02*
X010519Y009029D01*
X010579Y009219D01*
X010389Y009159D01*
X010420Y009060D01*
X010579Y009219D01*
X010740Y009380D01*
X010740Y010500D01*
X010198Y011042D01*
X010198Y011773D01*
X010002Y011773D02*
X010002Y010758D01*
X010021Y010739D01*
X010211Y010679D01*
X010180Y010580D01*
X010081Y010549D01*
X010021Y010739D01*
X010180Y010580D01*
X010500Y010980D02*
X010700Y010980D01*
X010662Y011077D01*
X010476Y011004D01*
X010643Y010894D01*
X010700Y010980D01*
X010500Y010980D02*
X010476Y011004D01*
X010395Y011085D01*
X010395Y011773D01*
X010592Y011773D02*
X010592Y011368D01*
X010660Y011300D01*
X010900Y011300D01*
X011060Y011140D01*
X011672Y012314D02*
X008706Y012314D01*
X008737Y012332D02*
X008737Y012332D01*
X008737Y012332D01*
X008794Y012413D02*
X011771Y012413D01*
X011537Y013194D02*
X011646Y013303D01*
X011786Y013443D01*
X011786Y013568D01*
X012040Y013568D01*
X012105Y013633D01*
X012105Y014512D01*
X012040Y014577D01*
X011160Y014577D01*
X011095Y014512D01*
X011095Y013633D01*
X011160Y013568D01*
X011385Y013568D01*
X011383Y013566D01*
X010341Y013566D01*
X010306Y013625D01*
X010297Y013640D01*
X010284Y013670D01*
X010270Y013684D01*
X010247Y013723D01*
X010227Y013728D01*
X010210Y013744D01*
X010113Y013785D01*
X010007Y013785D01*
X009910Y013744D01*
X009836Y013670D01*
X009795Y013573D01*
X009795Y013467D01*
X009836Y013370D01*
X009896Y013310D01*
X009905Y013292D01*
X009968Y013271D01*
X010007Y013255D01*
X010018Y013255D01*
X010051Y013244D01*
X010083Y013234D01*
X010123Y013194D01*
X010207Y013194D01*
X010252Y013179D01*
X010259Y013183D01*
X010266Y013181D01*
X010288Y013194D01*
X011537Y013194D01*
X011544Y013201D02*
X012954Y013201D01*
X012954Y013223D02*
X012954Y013125D01*
X012939Y013092D01*
X012941Y013085D01*
X012919Y013025D01*
X012894Y012957D01*
X012875Y012913D01*
X012875Y012908D01*
X012865Y012880D01*
X012875Y012858D01*
X012875Y012807D01*
X012916Y012710D01*
X012990Y012636D01*
X013087Y012595D01*
X013193Y012595D01*
X013290Y012636D01*
X013364Y012710D01*
X013405Y012807D01*
X013405Y012858D01*
X013415Y012880D01*
X013415Y012880D01*
X013405Y012908D01*
X013405Y012913D01*
X013386Y012957D01*
X013339Y013085D01*
X013341Y013092D01*
X013326Y013125D01*
X013326Y013377D01*
X012606Y014097D01*
X012606Y014817D01*
X012446Y014977D01*
X012337Y015086D01*
X010663Y015086D01*
X010103Y014526D01*
X007325Y014526D01*
X007292Y014541D01*
X007285Y014539D01*
X007157Y014586D01*
X007113Y014605D01*
X007108Y014605D01*
X007080Y014615D01*
X007058Y014605D01*
X007007Y014605D01*
X006910Y014564D01*
X006836Y014490D01*
X006795Y014393D01*
X006795Y014287D01*
X006836Y014190D01*
X006910Y014116D01*
X007007Y014075D01*
X007058Y014075D01*
X007080Y014065D01*
X007080Y014065D01*
X007108Y014075D01*
X007113Y014075D01*
X007157Y014094D01*
X007225Y014119D01*
X007285Y014141D01*
X007292Y014139D01*
X007325Y014154D01*
X010257Y014154D01*
X010366Y014263D01*
X010817Y014714D01*
X012183Y014714D01*
X012234Y014663D01*
X012234Y013943D01*
X012343Y013834D01*
X012954Y013223D01*
X012878Y013299D02*
X011642Y013299D01*
X011741Y013398D02*
X012779Y013398D01*
X012681Y013496D02*
X011786Y013496D01*
X012066Y013595D02*
X012582Y013595D01*
X012484Y013693D02*
X012105Y013693D01*
X012105Y013792D02*
X012385Y013792D01*
X012287Y013890D02*
X012105Y013890D01*
X012105Y013989D02*
X012234Y013989D01*
X012234Y014087D02*
X012105Y014087D01*
X012105Y014186D02*
X012234Y014186D01*
X012234Y014284D02*
X012105Y014284D01*
X012105Y014383D02*
X012234Y014383D01*
X012234Y014481D02*
X012105Y014481D01*
X012234Y014580D02*
X010683Y014580D01*
X010781Y014678D02*
X012219Y014678D01*
X012548Y014875D02*
X012694Y014875D01*
X012694Y014777D02*
X012606Y014777D01*
X012606Y014678D02*
X012694Y014678D01*
X012606Y014580D02*
X012914Y014580D01*
X012914Y014481D02*
X012606Y014481D01*
X012606Y014383D02*
X012914Y014383D01*
X013013Y014284D02*
X012606Y014284D01*
X012606Y014186D02*
X014729Y014186D01*
X014729Y014284D02*
X014047Y014284D01*
X014146Y014383D02*
X014729Y014383D01*
X014729Y014481D02*
X014244Y014481D01*
X014343Y014580D02*
X014729Y014580D01*
X014729Y014678D02*
X014441Y014678D01*
X014540Y014777D02*
X014729Y014777D01*
X014729Y014875D02*
X014638Y014875D01*
X014309Y015072D02*
X013506Y015072D01*
X013506Y014974D02*
X014210Y014974D01*
X014112Y014875D02*
X013506Y014875D01*
X013506Y014777D02*
X014013Y014777D01*
X013915Y014678D02*
X013506Y014678D01*
X013506Y015171D02*
X014407Y015171D01*
X014414Y015269D02*
X013506Y015269D01*
X013452Y015368D02*
X014414Y015368D01*
X014414Y015466D02*
X013506Y015466D01*
X013506Y015565D02*
X014414Y015565D01*
X014414Y015663D02*
X013506Y015663D01*
X013506Y015762D02*
X014414Y015762D01*
X014402Y015860D02*
X013506Y015860D01*
X013506Y015959D02*
X014370Y015959D01*
X014333Y016057D02*
X013475Y016057D01*
X013268Y016156D02*
X014336Y016156D01*
X014380Y016254D02*
X013169Y016254D01*
X012725Y016057D02*
X012105Y016057D01*
X012105Y015959D02*
X012694Y015959D01*
X012694Y015860D02*
X012105Y015860D01*
X012105Y015762D02*
X012694Y015762D01*
X012694Y015663D02*
X012105Y015663D01*
X012105Y015565D02*
X012694Y015565D01*
X012694Y015466D02*
X012105Y015466D01*
X012105Y015368D02*
X012748Y015368D01*
X012694Y015269D02*
X012105Y015269D01*
X012068Y015171D02*
X012694Y015171D01*
X012694Y015072D02*
X012351Y015072D01*
X012450Y014974D02*
X012694Y014974D01*
X012616Y014087D02*
X014729Y014087D01*
X014729Y013989D02*
X012715Y013989D01*
X012813Y013890D02*
X014729Y013890D01*
X014650Y013792D02*
X012912Y013792D01*
X013010Y013693D02*
X014551Y013693D01*
X014453Y013595D02*
X013109Y013595D01*
X013207Y013496D02*
X014354Y013496D01*
X014256Y013398D02*
X013306Y013398D01*
X013326Y013299D02*
X014157Y013299D01*
X014129Y013201D02*
X013326Y013201D01*
X013337Y013102D02*
X014129Y013102D01*
X014129Y013004D02*
X013369Y013004D01*
X013406Y012905D02*
X014129Y012905D01*
X014129Y012807D02*
X013404Y012807D01*
X013415Y012880D02*
X013415Y012880D01*
X013362Y012708D02*
X014129Y012708D01*
X014129Y012610D02*
X013227Y012610D01*
X013053Y012610D02*
X008818Y012610D01*
X008825Y012511D02*
X014129Y012511D01*
X014471Y012511D02*
X017459Y012511D01*
X017459Y012413D02*
X014471Y012413D01*
X014471Y012314D02*
X017459Y012314D01*
X017459Y012216D02*
X014471Y012216D01*
X014471Y012117D02*
X014574Y012117D01*
X014475Y012019D02*
X014471Y012019D01*
X014797Y011723D02*
X016983Y011723D01*
X016938Y011752D02*
X016938Y011752D01*
X017071Y011673D02*
X017071Y011673D01*
X017071Y011673D01*
X017297Y011723D02*
X017459Y011723D01*
X017459Y011625D02*
X014950Y011625D01*
X014999Y011526D02*
X017459Y011526D01*
X017459Y011428D02*
X016826Y011428D01*
X016891Y011363D02*
X016891Y011363D01*
X016925Y011329D02*
X017459Y011329D01*
X017439Y011231D02*
X017023Y011231D01*
X017122Y011132D02*
X017480Y011132D01*
X017579Y011034D02*
X017220Y011034D01*
X017319Y010935D02*
X017677Y010935D01*
X017776Y010837D02*
X017417Y010837D01*
X017936Y011132D02*
X018115Y011132D01*
X018121Y011034D02*
X018034Y011034D01*
X018147Y011231D02*
X017837Y011231D01*
X017781Y011329D02*
X018241Y011329D01*
X018198Y011428D02*
X017781Y011428D01*
X017781Y011526D02*
X018132Y011526D01*
X018115Y011625D02*
X017781Y011625D01*
X017781Y011723D02*
X018136Y011723D01*
X018207Y011822D02*
X017781Y011822D01*
X017781Y011920D02*
X018186Y011920D01*
X018127Y012019D02*
X017781Y012019D01*
X017781Y012117D02*
X018115Y012117D01*
X018141Y012216D02*
X017781Y012216D01*
X017781Y012314D02*
X018220Y012314D01*
X018213Y012413D02*
X017781Y012413D01*
X017781Y012511D02*
X018139Y012511D01*
X018115Y012610D02*
X017781Y012610D01*
X017781Y012708D02*
X018130Y012708D01*
X018192Y012807D02*
X017781Y012807D01*
X017781Y012905D02*
X018837Y012905D01*
X018843Y013004D02*
X017781Y013004D01*
X017781Y013102D02*
X018780Y013102D01*
X018757Y013201D02*
X017781Y013201D01*
X017781Y013299D02*
X018767Y013299D01*
X018769Y013312D02*
X018757Y013251D01*
X018757Y013224D01*
X019256Y013224D01*
X019256Y013536D01*
X019042Y013536D01*
X018981Y013524D01*
X018923Y013500D01*
X018872Y013465D01*
X018828Y013421D01*
X018793Y013370D01*
X018769Y013312D01*
X018812Y013398D02*
X017781Y013398D01*
X017804Y013496D02*
X018918Y013496D01*
X019256Y013496D02*
X019264Y013496D01*
X019256Y013398D02*
X019264Y013398D01*
X019256Y013299D02*
X019264Y013299D01*
X019260Y012720D02*
X018582Y012720D01*
X018464Y012559D01*
X018380Y012620D01*
X018382Y012724D01*
X018582Y012720D01*
X018480Y012720D01*
X018380Y012620D01*
X018318Y012886D02*
X018318Y012886D01*
X018371Y012203D02*
X018570Y012220D01*
X018470Y012048D01*
X018380Y012100D01*
X018371Y012203D01*
X018380Y012100D02*
X018500Y012220D01*
X018570Y012220D01*
X019260Y012220D01*
X019260Y011720D02*
X018582Y011720D01*
X018464Y011559D01*
X018380Y011620D01*
X018382Y011724D01*
X018582Y011720D01*
X018480Y011720D01*
X018380Y011620D01*
X018371Y011203D02*
X018380Y011100D01*
X018470Y011048D01*
X018570Y011220D01*
X018371Y011203D01*
X018380Y011100D02*
X018500Y011220D01*
X018570Y011220D01*
X019260Y011220D01*
X020556Y010443D02*
X020739Y010443D01*
X020739Y010541D02*
X020690Y010541D01*
X020736Y010640D02*
X020739Y010640D01*
X021566Y010640D02*
X021700Y010640D01*
X021700Y010738D02*
X021566Y010738D01*
X021566Y010837D02*
X021700Y010837D01*
X021700Y010935D02*
X021566Y010935D01*
X021566Y011034D02*
X021700Y011034D01*
X021700Y011132D02*
X021566Y011132D01*
X021566Y011231D02*
X021700Y011231D01*
X021700Y011329D02*
X021566Y011329D01*
X021566Y011428D02*
X021700Y011428D01*
X021700Y011526D02*
X021566Y011526D01*
X021566Y011625D02*
X021700Y011625D01*
X021700Y011723D02*
X021566Y011723D01*
X021566Y011822D02*
X021700Y011822D01*
X021700Y011920D02*
X021566Y011920D01*
X021566Y012019D02*
X021700Y012019D01*
X021700Y012117D02*
X021566Y012117D01*
X021566Y012216D02*
X021700Y012216D01*
X021700Y012314D02*
X021566Y012314D01*
X021566Y012413D02*
X021700Y012413D01*
X021700Y012511D02*
X021566Y012511D01*
X021566Y012610D02*
X021700Y012610D01*
X021700Y012708D02*
X021566Y012708D01*
X021566Y012807D02*
X021700Y012807D01*
X021700Y012905D02*
X021566Y012905D01*
X021566Y013004D02*
X021700Y013004D01*
X021700Y013102D02*
X021566Y013102D01*
X021566Y013201D02*
X021700Y013201D01*
X021700Y013299D02*
X021566Y013299D01*
X021566Y013398D02*
X021700Y013398D01*
X021700Y013496D02*
X021566Y013496D01*
X021566Y013595D02*
X021700Y013595D01*
X021700Y013693D02*
X021566Y013693D01*
X021566Y013792D02*
X021700Y013792D01*
X021700Y013890D02*
X021566Y013890D01*
X021566Y013989D02*
X021700Y013989D01*
X021700Y014087D02*
X021566Y014087D01*
X021566Y014186D02*
X021700Y014186D01*
X021700Y014284D02*
X021566Y014284D01*
X021566Y014383D02*
X021700Y014383D01*
X021700Y014481D02*
X021566Y014481D01*
X021566Y014580D02*
X021700Y014580D01*
X021700Y014678D02*
X021566Y014678D01*
X021566Y014777D02*
X021700Y014777D01*
X021700Y014875D02*
X021566Y014875D01*
X021490Y014974D02*
X021700Y014974D01*
X021700Y015072D02*
X021391Y015072D01*
X021293Y015171D02*
X021700Y015171D01*
X021700Y015269D02*
X017594Y015269D01*
X017496Y015368D02*
X020561Y015368D01*
X020476Y015408D02*
X020749Y015277D01*
X021051Y015277D01*
X021324Y015408D01*
X021324Y015408D01*
X021324Y015408D01*
X021513Y015645D01*
X021580Y015940D01*
X021513Y016235D01*
X021324Y016472D01*
X021051Y016603D01*
X020749Y016603D01*
X020476Y016472D01*
X020476Y016472D01*
X020476Y016472D01*
X020287Y016235D01*
X020220Y015940D01*
X020220Y015940D01*
X020287Y015645D01*
X020287Y015645D01*
X020476Y015408D01*
X020476Y015408D01*
X020430Y015466D02*
X017397Y015466D01*
X017299Y015565D02*
X020351Y015565D01*
X020283Y015663D02*
X017200Y015663D01*
X017166Y015762D02*
X020261Y015762D01*
X020238Y015860D02*
X017166Y015860D01*
X017166Y015959D02*
X020224Y015959D01*
X020247Y016057D02*
X017166Y016057D01*
X017166Y016156D02*
X020269Y016156D01*
X020287Y016235D02*
X020287Y016235D01*
X020302Y016254D02*
X017166Y016254D01*
X017071Y016353D02*
X020381Y016353D01*
X020460Y016451D02*
X016972Y016451D01*
X015976Y016550D02*
X020638Y016550D01*
X021162Y016550D02*
X021700Y016550D01*
X021700Y016451D02*
X021340Y016451D01*
X021324Y016472D02*
X021324Y016472D01*
X021419Y016353D02*
X021700Y016353D01*
X021700Y016254D02*
X021498Y016254D01*
X021513Y016235D02*
X021513Y016235D01*
X021531Y016156D02*
X021700Y016156D01*
X021700Y016057D02*
X021553Y016057D01*
X021576Y015959D02*
X021700Y015959D01*
X021700Y015860D02*
X021562Y015860D01*
X021539Y015762D02*
X021700Y015762D01*
X021700Y015663D02*
X021517Y015663D01*
X021513Y015645D02*
X021513Y015645D01*
X021449Y015565D02*
X021700Y015565D01*
X021700Y015466D02*
X021370Y015466D01*
X021239Y015368D02*
X021700Y015368D01*
X020820Y014660D02*
X016500Y014660D01*
X016671Y014481D02*
X020771Y014481D01*
X020870Y014383D02*
X016671Y014383D01*
X016671Y014284D02*
X020899Y014284D01*
X020899Y014186D02*
X019840Y014186D01*
X019707Y014186D02*
X016671Y014186D01*
X016671Y014087D02*
X017939Y014087D01*
X017841Y013989D02*
X016671Y013989D01*
X016671Y013890D02*
X017742Y013890D01*
X017644Y013792D02*
X016671Y013792D01*
X016671Y013693D02*
X017545Y013693D01*
X017459Y013595D02*
X016636Y013595D01*
X016538Y013496D02*
X017459Y013496D01*
X017459Y013398D02*
X016439Y013398D01*
X016341Y013299D02*
X017459Y013299D01*
X017459Y013201D02*
X016242Y013201D01*
X016144Y013102D02*
X017459Y013102D01*
X017459Y013004D02*
X016045Y013004D01*
X014810Y012905D02*
X017459Y012905D01*
X017459Y012807D02*
X014471Y012807D01*
X014471Y012708D02*
X017459Y012708D01*
X017459Y012610D02*
X014471Y012610D01*
X014646Y012830D02*
X014646Y012830D01*
X014646Y012830D01*
X012943Y013102D02*
X005971Y013102D01*
X005971Y013004D02*
X012911Y013004D01*
X012919Y013025D02*
X012919Y013025D01*
X012874Y012905D02*
X005971Y012905D01*
X005971Y012807D02*
X012876Y012807D01*
X012865Y012880D02*
X012865Y012880D01*
X012865Y012880D01*
X012918Y012708D02*
X008766Y012708D01*
X009824Y013398D02*
X005971Y013398D01*
X005971Y013496D02*
X009795Y013496D01*
X009804Y013595D02*
X005971Y013595D01*
X005971Y013693D02*
X009859Y013693D01*
X009901Y013299D02*
X005971Y013299D01*
X005971Y013201D02*
X010116Y013201D01*
X009905Y013292D02*
X009905Y013292D01*
X009905Y013292D01*
X010324Y013595D02*
X011134Y013595D01*
X011095Y013693D02*
X010265Y013693D01*
X010289Y014186D02*
X011095Y014186D01*
X011095Y014284D02*
X010387Y014284D01*
X010486Y014383D02*
X011095Y014383D01*
X011095Y014481D02*
X010584Y014481D01*
X010353Y014777D02*
X009406Y014777D01*
X009430Y014800D02*
X009321Y014691D01*
X009178Y014631D01*
X009022Y014631D01*
X008879Y014691D01*
X008770Y014800D01*
X008710Y014944D01*
X008710Y015656D01*
X008770Y015800D01*
X008879Y015909D01*
X009022Y015969D01*
X009178Y015969D01*
X009321Y015909D01*
X009430Y015800D01*
X009490Y015656D01*
X009490Y014944D01*
X009430Y014800D01*
X009461Y014875D02*
X010452Y014875D01*
X010550Y014974D02*
X009490Y014974D01*
X009490Y015072D02*
X010649Y015072D01*
X011095Y015269D02*
X009490Y015269D01*
X009490Y015171D02*
X011132Y015171D01*
X011095Y015368D02*
X009490Y015368D01*
X009490Y015466D02*
X011095Y015466D01*
X011095Y015565D02*
X009490Y015565D01*
X009487Y015663D02*
X011095Y015663D01*
X011095Y015762D02*
X009446Y015762D01*
X009370Y015860D02*
X011095Y015860D01*
X011095Y015959D02*
X009202Y015959D01*
X008998Y015959D02*
X008250Y015959D01*
X008256Y015956D02*
X008195Y015976D01*
X008150Y015983D01*
X008150Y015350D01*
X008050Y015350D01*
X008050Y015983D01*
X008005Y015976D01*
X007944Y015956D01*
X007886Y015927D01*
X007835Y015890D01*
X007789Y015844D01*
X007751Y015792D01*
X007722Y015735D01*
X007703Y015674D01*
X007693Y015611D01*
X007693Y015350D01*
X008050Y015350D01*
X008050Y015250D01*
X007693Y015250D01*
X007693Y014989D01*
X007703Y014926D01*
X007722Y014865D01*
X007751Y014808D01*
X007789Y014756D01*
X007835Y014710D01*
X007886Y014673D01*
X007944Y014644D01*
X008005Y014624D01*
X008050Y014617D01*
X008050Y015250D01*
X008150Y015250D01*
X008150Y015350D01*
X008507Y015350D01*
X008507Y015611D01*
X008497Y015674D01*
X008478Y015735D01*
X008449Y015792D01*
X008411Y015844D01*
X008365Y015890D01*
X008314Y015927D01*
X008256Y015956D01*
X008150Y015959D02*
X008050Y015959D01*
X008050Y015860D02*
X008150Y015860D01*
X008150Y015762D02*
X008050Y015762D01*
X008050Y015663D02*
X008150Y015663D01*
X008150Y015565D02*
X008050Y015565D01*
X008050Y015466D02*
X008150Y015466D01*
X008150Y015368D02*
X008050Y015368D01*
X008050Y015269D02*
X007490Y015269D01*
X007490Y015171D02*
X007693Y015171D01*
X007693Y015072D02*
X007490Y015072D01*
X007490Y014974D02*
X007695Y014974D01*
X007719Y014875D02*
X007461Y014875D01*
X007490Y014944D02*
X007430Y014800D01*
X007321Y014691D01*
X007178Y014631D01*
X007022Y014631D01*
X006879Y014691D01*
X006770Y014800D01*
X006710Y014944D01*
X006710Y015656D01*
X006770Y015800D01*
X006879Y015909D01*
X007022Y015969D01*
X007178Y015969D01*
X007321Y015909D01*
X007430Y015800D01*
X007490Y015656D01*
X007490Y014944D01*
X007406Y014777D02*
X007774Y014777D01*
X007879Y014678D02*
X007290Y014678D01*
X007175Y014580D02*
X010156Y014580D01*
X010255Y014678D02*
X009290Y014678D01*
X008910Y014678D02*
X008321Y014678D01*
X008314Y014673D02*
X008365Y014710D01*
X008411Y014756D01*
X008449Y014808D01*
X008478Y014865D01*
X008497Y014926D01*
X008507Y014989D01*
X008507Y015250D01*
X008150Y015250D01*
X008150Y014617D01*
X008195Y014624D01*
X008256Y014644D01*
X008314Y014673D01*
X008426Y014777D02*
X008794Y014777D01*
X008739Y014875D02*
X008481Y014875D01*
X008505Y014974D02*
X008710Y014974D01*
X008710Y015072D02*
X008507Y015072D01*
X008507Y015171D02*
X008710Y015171D01*
X008710Y015269D02*
X008150Y015269D01*
X008150Y015171D02*
X008050Y015171D01*
X008050Y015072D02*
X008150Y015072D01*
X008150Y014974D02*
X008050Y014974D01*
X008050Y014875D02*
X008150Y014875D01*
X008150Y014777D02*
X008050Y014777D01*
X008050Y014678D02*
X008150Y014678D01*
X007225Y014119D02*
X007225Y014119D01*
X007141Y014087D02*
X011095Y014087D01*
X011095Y013989D02*
X005971Y013989D01*
X005971Y014087D02*
X006979Y014087D01*
X006840Y014186D02*
X005971Y014186D01*
X005971Y014284D02*
X006797Y014284D01*
X006795Y014383D02*
X005971Y014383D01*
X005971Y014481D02*
X006832Y014481D01*
X006946Y014580D02*
X005971Y014580D01*
X005971Y014678D02*
X006910Y014678D01*
X006794Y014777D02*
X005971Y014777D01*
X005971Y014875D02*
X006739Y014875D01*
X006710Y014974D02*
X005971Y014974D01*
X005971Y015072D02*
X006710Y015072D01*
X006710Y015171D02*
X006052Y015171D01*
X006151Y015269D02*
X006710Y015269D01*
X006710Y015368D02*
X006249Y015368D01*
X006348Y015466D02*
X006710Y015466D01*
X006710Y015565D02*
X006446Y015565D01*
X006545Y015663D02*
X006713Y015663D01*
X006754Y015762D02*
X006643Y015762D01*
X006742Y015860D02*
X006830Y015860D01*
X006840Y015959D02*
X006998Y015959D01*
X006939Y016057D02*
X011095Y016057D01*
X011434Y016156D02*
X007037Y016156D01*
X007136Y016254D02*
X011434Y016254D01*
X008830Y015860D02*
X008395Y015860D01*
X008464Y015762D02*
X008754Y015762D01*
X008713Y015663D02*
X008499Y015663D01*
X008507Y015565D02*
X008710Y015565D01*
X008710Y015466D02*
X008507Y015466D01*
X008507Y015368D02*
X008710Y015368D01*
X007805Y015860D02*
X007370Y015860D01*
X007446Y015762D02*
X007736Y015762D01*
X007701Y015663D02*
X007487Y015663D01*
X007490Y015565D02*
X007693Y015565D01*
X007693Y015466D02*
X007490Y015466D01*
X007490Y015368D02*
X007693Y015368D01*
X007950Y015959D02*
X007202Y015959D01*
X005600Y016100D02*
X005600Y016120D01*
X007080Y014615D02*
X007080Y014615D01*
X007080Y014615D01*
X005971Y013890D02*
X011095Y013890D01*
X011095Y013792D02*
X005971Y013792D01*
X005971Y012511D02*
X006777Y012511D01*
X006723Y012413D02*
X005971Y012413D01*
X005971Y012314D02*
X006715Y012314D01*
X006745Y012216D02*
X005971Y012216D01*
X005971Y012117D02*
X006485Y012117D01*
X006485Y012019D02*
X005971Y012019D01*
X005971Y011920D02*
X006485Y011920D01*
X006485Y011822D02*
X006060Y011822D01*
X006159Y011723D02*
X006485Y011723D01*
X006485Y011625D02*
X006257Y011625D01*
X006356Y011526D02*
X006485Y011526D01*
X006485Y011428D02*
X006454Y011428D01*
X007049Y011773D02*
X007049Y012126D01*
X006907Y012266D01*
X006980Y012340D01*
X007082Y012323D01*
X007049Y012126D01*
X007049Y012271D01*
X006980Y012340D01*
X007060Y012260D01*
X007601Y010711D02*
X007700Y010680D01*
X007731Y010581D01*
X007541Y010521D01*
X007601Y010711D01*
X007700Y010680D02*
X007541Y010521D01*
X007200Y010180D01*
X006340Y010260D02*
X006337Y010257D01*
X005923Y009860D02*
X004740Y009860D01*
X004180Y009300D01*
X004941Y009261D02*
X005501Y009261D01*
X005501Y009359D02*
X004941Y009359D01*
X004941Y009458D02*
X005501Y009458D01*
X005501Y009162D02*
X004941Y009162D01*
X004941Y009064D02*
X005501Y009064D01*
X005501Y008965D02*
X004941Y008965D01*
X004941Y008867D02*
X005501Y008867D01*
X005501Y008768D02*
X004941Y008768D01*
X004941Y008670D02*
X005501Y008670D01*
X005501Y008571D02*
X004941Y008571D01*
X004941Y008473D02*
X005501Y008473D01*
X005501Y008374D02*
X004941Y008374D01*
X004941Y008276D02*
X005501Y008276D01*
X005501Y008177D02*
X004941Y008177D01*
X004941Y008079D02*
X005501Y008079D01*
X005501Y007980D02*
X004941Y007980D01*
X004941Y007882D02*
X005501Y007882D01*
X005501Y007783D02*
X004941Y007783D01*
X004941Y007685D02*
X005501Y007685D01*
X006353Y007685D02*
X007501Y007685D01*
X007445Y007783D02*
X006353Y007783D01*
X006353Y007882D02*
X007435Y007882D01*
X007463Y007980D02*
X006353Y007980D01*
X006353Y008079D02*
X007544Y008079D01*
X007763Y008126D02*
X007763Y008126D01*
X007763Y008126D01*
X007856Y008079D02*
X008504Y008079D01*
X008597Y008126D02*
X008597Y008126D01*
X008597Y008126D01*
X008595Y008177D02*
X006353Y008177D01*
X006353Y008276D02*
X006750Y008276D01*
X006666Y008374D02*
X006353Y008374D01*
X006353Y008473D02*
X006635Y008473D01*
X006643Y008571D02*
X006353Y008571D01*
X007050Y008276D02*
X008497Y008276D01*
X008398Y008374D02*
X007138Y008374D01*
X007169Y008473D02*
X008300Y008473D01*
X008201Y008571D02*
X007200Y008571D01*
X007297Y008670D02*
X008179Y008670D01*
X008179Y008768D02*
X007396Y008768D01*
X007494Y008867D02*
X008179Y008867D01*
X008179Y008965D02*
X007593Y008965D01*
X009075Y008473D02*
X010597Y008473D01*
X008980Y008020D02*
X008980Y007220D01*
X008820Y007060D01*
X007860Y007060D01*
X007780Y006980D01*
X007780Y004500D01*
X007620Y004340D01*
X007585Y004533D02*
X007399Y004533D01*
X007428Y004139D02*
X008354Y004139D01*
X009923Y004716D02*
X010000Y004760D01*
X010077Y004716D01*
X010000Y004580D01*
X009923Y004716D01*
X010000Y004760D02*
X010000Y004580D01*
X010000Y004260D01*
X010161Y004237D02*
X010338Y004237D01*
X010339Y004139D02*
X010161Y004139D01*
X010161Y004040D02*
X010372Y004040D01*
X010471Y003942D02*
X010161Y003942D01*
X010395Y003843D02*
X010395Y003843D01*
X010395Y003745D02*
X010395Y003745D01*
X010395Y003646D02*
X010395Y003646D01*
X010395Y003548D02*
X010395Y003548D01*
X010395Y003449D02*
X010395Y003449D01*
X010395Y003351D02*
X010395Y003351D01*
X010395Y003252D02*
X010395Y003252D01*
X010395Y003154D02*
X010395Y003154D01*
X010395Y003055D02*
X010395Y003055D01*
X010359Y002957D02*
X012793Y002957D01*
X012794Y002858D02*
X010359Y002858D01*
X010267Y002760D02*
X012893Y002760D01*
X012991Y002661D02*
X010169Y002661D01*
X010070Y002563D02*
X013939Y002563D01*
X013939Y002661D02*
X013535Y002661D01*
X013593Y002760D02*
X013939Y002760D01*
X013939Y002858D02*
X013605Y002858D01*
X013578Y002957D02*
X013939Y002957D01*
X013939Y003055D02*
X013704Y003055D01*
X013715Y003154D02*
X013939Y003154D01*
X013939Y003252D02*
X013715Y003252D01*
X013715Y003351D02*
X013939Y003351D01*
X013939Y003449D02*
X013715Y003449D01*
X013715Y003548D02*
X013939Y003548D01*
X013939Y003646D02*
X013715Y003646D01*
X013715Y003745D02*
X013939Y003745D01*
X013939Y003843D02*
X013660Y003843D01*
X013857Y004040D02*
X013312Y004040D01*
X013312Y003942D02*
X013939Y003942D01*
X013847Y004139D02*
X013289Y004139D01*
X013255Y004237D02*
X013191Y004237D01*
X013157Y004336D02*
X013092Y004336D01*
X013080Y004434D02*
X013139Y004434D01*
X013139Y004533D02*
X013088Y004533D01*
X013101Y004631D02*
X013052Y004631D01*
X013003Y004730D02*
X012958Y004730D01*
X012802Y004787D02*
X012802Y004787D01*
X012675Y004747D02*
X012675Y004747D01*
X012675Y004747D01*
X012478Y004828D02*
X011360Y004828D01*
X010900Y004660D02*
X010659Y004901D01*
X010469Y004961D01*
X010500Y005060D01*
X010599Y005091D01*
X010659Y004901D01*
X010500Y005060D01*
X010900Y004660D02*
X010900Y004020D01*
X010980Y003940D01*
X010287Y004336D02*
X010161Y004336D01*
X011540Y005260D02*
X011617Y005191D01*
X011750Y005340D01*
X011552Y005363D01*
X011540Y005260D01*
X011620Y005340D01*
X011750Y005340D01*
X012740Y005340D01*
X011782Y005134D02*
X011782Y005134D01*
X012754Y004420D02*
X012820Y004500D01*
X012923Y004492D01*
X012907Y004293D01*
X012754Y004420D01*
X012820Y004500D02*
X012900Y004420D01*
X012900Y004300D01*
X012907Y004293D01*
X013151Y004049D01*
X013151Y003427D01*
X012954Y003427D02*
X012954Y002926D01*
X013060Y002820D01*
X013116Y002820D01*
X013284Y002927D01*
X013340Y002840D01*
X013301Y002744D01*
X013116Y002820D01*
X013320Y002820D01*
X013340Y002840D01*
X013301Y002570D02*
X013301Y002570D01*
X013939Y002464D02*
X010030Y002464D01*
X010030Y002302D02*
X009733Y002302D01*
X009733Y002024D01*
X009918Y002024D01*
X009951Y002033D01*
X009980Y002050D01*
X010004Y002074D01*
X010021Y002103D01*
X010030Y002136D01*
X010030Y002302D01*
X010030Y002267D02*
X013939Y002267D01*
X013939Y002169D02*
X010030Y002169D01*
X010000Y002070D02*
X013939Y002070D01*
X013939Y001972D02*
X009176Y001972D01*
X009176Y001873D02*
X013939Y001873D01*
X013939Y001775D02*
X009176Y001775D01*
X009176Y001676D02*
X013939Y001676D01*
X013939Y001578D02*
X010026Y001578D01*
X010030Y001479D02*
X013939Y001479D01*
X013939Y001381D02*
X009733Y001381D01*
X009733Y001302D02*
X010030Y001302D01*
X010030Y001136D01*
X010021Y001103D01*
X010004Y001074D01*
X009980Y001050D01*
X009951Y001033D01*
X009918Y001024D01*
X009733Y001024D01*
X009733Y001302D01*
X009733Y001282D02*
X009636Y001282D01*
X009636Y001184D02*
X009733Y001184D01*
X009733Y001085D02*
X009636Y001085D01*
X009359Y001085D02*
X009321Y001085D01*
X009015Y001350D02*
X009015Y002350D01*
X009015Y002615D01*
X009636Y002267D02*
X009733Y002267D01*
X009733Y002169D02*
X009636Y002169D01*
X009636Y002070D02*
X009733Y002070D01*
X009733Y002366D02*
X013939Y002366D01*
X015220Y002900D02*
X015540Y003220D01*
X015540Y005060D01*
X015067Y005533D01*
X013847Y005518D02*
X013701Y005518D01*
X013701Y005616D02*
X013847Y005616D01*
X013847Y005715D02*
X013701Y005715D01*
X013701Y005813D02*
X013847Y005813D01*
X013847Y005912D02*
X013636Y005912D01*
X013538Y006010D02*
X013847Y006010D01*
X013847Y005419D02*
X013701Y005419D01*
X013703Y005321D02*
X013847Y005321D01*
X013847Y005222D02*
X013754Y005222D01*
X014400Y003800D02*
X014313Y003744D01*
X014420Y003576D01*
X014496Y003761D01*
X014400Y003800D01*
X014420Y003780D01*
X014420Y003576D01*
X014420Y000660D01*
X014200Y000440D01*
X002060Y000440D01*
X001900Y000600D01*
X001900Y001980D01*
X001800Y002080D01*
X001800Y002135D01*
X001708Y002312D01*
X001800Y002360D01*
X001892Y002312D01*
X001800Y002135D01*
X001800Y002360D01*
X001299Y002366D02*
X001268Y002366D01*
X001268Y002464D02*
X001299Y002464D01*
X001299Y002267D02*
X001268Y002267D01*
X001268Y002169D02*
X001299Y002169D01*
X002420Y002020D02*
X002468Y001928D01*
X002645Y002020D01*
X002468Y002112D01*
X002420Y002020D01*
X002645Y002020D01*
X003940Y002020D01*
X004020Y001620D02*
X004421Y002021D01*
X004481Y002211D01*
X004580Y002180D01*
X004611Y002081D01*
X004421Y002021D01*
X004580Y002180D01*
X004020Y001620D02*
X003380Y001620D01*
X003227Y001467D01*
X003186Y001316D01*
X003100Y001340D01*
X003076Y001254D01*
X003227Y001213D01*
X003186Y001364D01*
X003100Y001340D01*
X003076Y001426D01*
X003227Y001467D01*
X003100Y001340D01*
X003227Y001213D01*
X003340Y001100D01*
X003793Y001100D01*
X004258Y001085D02*
X004942Y001085D01*
X004942Y000987D02*
X004258Y000987D01*
X004258Y000888D02*
X004942Y000888D01*
X004942Y001184D02*
X004258Y001184D01*
X004258Y001282D02*
X004942Y001282D01*
X004942Y001381D02*
X004258Y001381D01*
X004258Y001479D02*
X004942Y001479D01*
X005407Y001100D02*
X005407Y002047D01*
X005620Y002260D01*
X005474Y002406D01*
X005305Y002512D01*
X005360Y002600D01*
X005464Y002605D01*
X005474Y002406D01*
X005360Y002520D01*
X005360Y002600D01*
X005575Y002760D02*
X006813Y002760D01*
X007092Y002464D02*
X007097Y002464D01*
X007386Y002464D02*
X007483Y002464D01*
X007483Y002366D02*
X007386Y002366D01*
X007386Y002169D02*
X007483Y002169D01*
X007483Y002070D02*
X007386Y002070D01*
X007386Y001972D02*
X007483Y001972D01*
X007099Y001972D02*
X007087Y001972D01*
X006805Y002260D02*
X006740Y002260D01*
X006765Y002235D01*
X006765Y002220D01*
X006740Y002260D02*
X005620Y002260D01*
X005658Y002070D02*
X006438Y002070D01*
X006443Y001972D02*
X005568Y001972D01*
X005644Y002464D02*
X006439Y002464D01*
X005635Y002473D02*
X005635Y002473D01*
X005627Y002563D02*
X007650Y002563D01*
X007551Y002661D02*
X005622Y002661D01*
X004460Y003154D02*
X004165Y003154D01*
X004254Y003252D02*
X004480Y003252D01*
X004382Y003351D02*
X004285Y003351D01*
X004278Y003449D02*
X004339Y003449D01*
X004339Y003548D02*
X004227Y003548D01*
X004339Y003646D02*
X004049Y003646D01*
X003923Y003690D02*
X003923Y003690D01*
X003869Y003745D02*
X004339Y003745D01*
X004339Y003843D02*
X003743Y003843D01*
X003261Y003942D02*
X004339Y003942D01*
X004339Y004040D02*
X003261Y004040D01*
X003261Y004139D02*
X004339Y004139D01*
X004339Y004237D02*
X003261Y004237D01*
X003172Y004336D02*
X004339Y004336D01*
X004339Y004434D02*
X003101Y004434D01*
X002940Y004340D02*
X002940Y005220D01*
X003277Y004828D02*
X003373Y004828D01*
X003373Y004862D02*
X003373Y004486D01*
X003537Y004486D01*
X003570Y004495D01*
X003599Y004512D01*
X003600Y004513D01*
X003601Y004512D01*
X003630Y004495D01*
X003663Y004486D01*
X003827Y004486D01*
X003827Y004862D01*
X003373Y004862D01*
X003373Y004730D02*
X003277Y004730D01*
X003277Y004631D02*
X003373Y004631D01*
X003373Y004533D02*
X003277Y004533D01*
X002940Y004340D02*
X003100Y004180D01*
X003100Y003180D01*
X002765Y002845D01*
X002765Y002600D01*
X003073Y002563D02*
X003127Y002563D01*
X003127Y002661D02*
X003073Y002661D01*
X003073Y002760D02*
X003127Y002760D01*
X003127Y002858D02*
X003073Y002858D01*
X003104Y002957D02*
X004263Y002957D01*
X004361Y003055D02*
X003203Y003055D01*
X003261Y003154D02*
X003875Y003154D01*
X003781Y003252D02*
X003261Y003252D01*
X003743Y003351D02*
X003754Y003351D01*
X003748Y003374D02*
X003748Y003374D01*
X003743Y002858D02*
X004164Y002858D01*
X004066Y002760D02*
X003743Y002760D01*
X003127Y002464D02*
X003073Y002464D01*
X003073Y002366D02*
X003127Y002366D01*
X002457Y003745D02*
X002261Y003745D01*
X002261Y003843D02*
X002457Y003843D01*
X002604Y003942D02*
X002261Y003942D01*
X002261Y004040D02*
X002604Y004040D01*
X003827Y004533D02*
X003923Y004533D01*
X003923Y004486D02*
X004087Y004486D01*
X004120Y004495D01*
X004149Y004512D01*
X004173Y004536D01*
X004190Y004565D01*
X004199Y004598D01*
X004199Y004862D01*
X003923Y004862D01*
X003923Y004486D01*
X003923Y004631D02*
X003827Y004631D01*
X003827Y004730D02*
X003923Y004730D01*
X003923Y004828D02*
X003827Y004828D01*
X004199Y004828D02*
X004339Y004828D01*
X004339Y004730D02*
X004199Y004730D01*
X004199Y004631D02*
X004339Y004631D01*
X004339Y004533D02*
X004170Y004533D01*
X004980Y004540D02*
X005918Y004540D01*
X006730Y005222D02*
X007619Y005222D01*
X007619Y005321D02*
X006828Y005321D01*
X006901Y005419D02*
X007619Y005419D01*
X007619Y005518D02*
X006901Y005518D01*
X006901Y005616D02*
X007619Y005616D01*
X007619Y005715D02*
X007447Y005715D01*
X007534Y005813D02*
X007619Y005813D01*
X007619Y005912D02*
X007565Y005912D01*
X007566Y006003D02*
X007566Y006003D01*
X007566Y006003D01*
X007562Y006010D02*
X007619Y006010D01*
X007619Y006109D02*
X007511Y006109D01*
X007461Y006207D02*
X007619Y006207D01*
X007619Y006306D02*
X007461Y006306D01*
X007461Y006404D02*
X007619Y006404D01*
X007619Y006503D02*
X007461Y006503D01*
X007461Y006601D02*
X007619Y006601D01*
X007619Y006700D02*
X007461Y006700D01*
X007461Y006798D02*
X007619Y006798D01*
X007619Y006897D02*
X007411Y006897D01*
X007313Y006995D02*
X007619Y006995D01*
X007666Y007094D02*
X007214Y007094D01*
X007116Y007192D02*
X007764Y007192D01*
X007937Y007685D02*
X008423Y007685D01*
X008435Y007860D02*
X008612Y007952D01*
X008660Y007860D01*
X008612Y007768D01*
X008435Y007860D01*
X007925Y007860D01*
X007748Y007768D01*
X007700Y007860D01*
X007748Y007952D01*
X007925Y007860D01*
X007700Y007860D01*
X008435Y007860D02*
X008660Y007860D01*
X008597Y007594D02*
X008597Y007594D01*
X008597Y007594D01*
X008819Y007586D02*
X006353Y007586D01*
X006353Y007488D02*
X008819Y007488D01*
X008819Y007389D02*
X006353Y007389D01*
X006353Y007291D02*
X008819Y007291D01*
X007300Y006780D02*
X006980Y007100D01*
X005935Y007100D01*
X005927Y007108D01*
X005927Y006911D02*
X006409Y006911D01*
X006660Y006660D01*
X006660Y006645D01*
X006752Y006468D01*
X006660Y006420D01*
X006568Y006468D01*
X006660Y006645D01*
X006660Y006420D01*
X006899Y006306D02*
X007139Y006306D01*
X007139Y006404D02*
X006925Y006404D01*
X006926Y006483D02*
X006926Y006483D01*
X006926Y006483D01*
X006915Y006503D02*
X007139Y006503D01*
X007139Y006601D02*
X006864Y006601D01*
X006821Y006700D02*
X007139Y006700D01*
X007054Y006798D02*
X006750Y006798D01*
X006651Y006897D02*
X006956Y006897D01*
X007300Y006780D02*
X007300Y006165D01*
X007392Y005988D01*
X007300Y005940D01*
X007208Y005988D01*
X007300Y006165D01*
X007300Y005940D01*
X007066Y005813D02*
X006931Y005813D01*
X006901Y005715D02*
X007153Y005715D01*
X007035Y005912D02*
X006982Y005912D01*
X007006Y005957D02*
X007006Y005957D01*
X007005Y006010D02*
X007038Y006010D01*
X006990Y006109D02*
X007089Y006109D01*
X007139Y006207D02*
X006927Y006207D01*
X006832Y005972D02*
X006740Y006020D01*
X006648Y005972D01*
X006740Y005795D01*
X006832Y005972D01*
X006740Y006020D02*
X006740Y005795D01*
X006740Y005460D01*
X006620Y005340D01*
X002482Y007389D02*
X002319Y007389D01*
X002315Y007488D02*
X002405Y007488D01*
X002375Y007586D02*
X002345Y007586D01*
X002343Y007685D02*
X002377Y007685D01*
X002418Y007783D02*
X002302Y007783D01*
X002230Y007882D02*
X002490Y007882D01*
X002408Y007980D02*
X002312Y007980D01*
X002345Y008079D02*
X002375Y008079D01*
X002375Y008177D02*
X002345Y008177D01*
X002305Y008276D02*
X002415Y008276D01*
X002497Y008374D02*
X002223Y008374D01*
X002309Y008473D02*
X002411Y008473D01*
X002375Y008571D02*
X002345Y008571D01*
X002345Y008670D02*
X002375Y008670D01*
X002412Y008768D02*
X002308Y008768D01*
X002222Y008867D02*
X002498Y008867D01*
X002415Y008965D02*
X002305Y008965D01*
X002345Y009064D02*
X002375Y009064D01*
X002375Y009162D02*
X002345Y009162D01*
X002311Y009261D02*
X002409Y009261D01*
X002491Y009359D02*
X002229Y009359D01*
X002302Y009458D02*
X002418Y009458D01*
X002377Y009556D02*
X002343Y009556D01*
X002345Y009655D02*
X002375Y009655D01*
X002406Y009753D02*
X002314Y009753D01*
X002237Y009852D02*
X002483Y009852D01*
X002850Y011080D02*
X003100Y011100D01*
X003600Y011100D01*
X005222Y010049D02*
X005483Y010049D01*
X005486Y010147D02*
X005321Y010147D01*
X005419Y010246D02*
X005501Y010246D01*
X001418Y007783D02*
X001111Y007783D01*
X001209Y007685D02*
X001377Y007685D01*
X001375Y007586D02*
X001308Y007586D01*
X000420Y011740D02*
X000861Y012181D01*
X000921Y012371D01*
X001020Y012340D01*
X001051Y012241D01*
X000861Y012181D01*
X001020Y012340D01*
X011600Y014073D02*
X011600Y014100D01*
X017169Y012214D02*
X017169Y012214D01*
X017337Y012117D02*
X017459Y012117D01*
X017459Y012019D02*
X017394Y012019D01*
X017405Y011920D02*
X017459Y011920D01*
X017459Y011822D02*
X017378Y011822D01*
X017600Y011240D02*
X017620Y011220D01*
X020260Y012720D02*
X020884Y012720D01*
X021080Y012682D01*
X021060Y012580D01*
X020965Y012538D01*
X020884Y012720D01*
X020920Y012720D01*
X021060Y012580D01*
X020820Y013220D02*
X020260Y013220D01*
X020691Y013398D02*
X020770Y013398D01*
X020868Y013496D02*
X020559Y013496D01*
X020820Y013220D02*
X021060Y013460D01*
X021060Y014420D01*
X020820Y014660D01*
X020899Y014087D02*
X019986Y014087D01*
X020030Y013989D02*
X020899Y013989D01*
X021566Y010541D02*
X021700Y010541D01*
X021700Y010443D02*
X021566Y010443D01*
X021566Y010344D02*
X021700Y010344D01*
X021700Y010246D02*
X021566Y010246D01*
X021566Y010147D02*
X021700Y010147D01*
X021700Y010049D02*
X021566Y010049D01*
X021566Y009950D02*
X021700Y009950D01*
X021700Y009852D02*
X021566Y009852D01*
X021566Y009753D02*
X021700Y009753D01*
X021700Y009655D02*
X021566Y009655D01*
X021566Y009556D02*
X021700Y009556D01*
X021700Y009458D02*
X021566Y009458D01*
X021566Y009359D02*
X021700Y009359D01*
X021700Y009261D02*
X021566Y009261D01*
X021566Y009162D02*
X021700Y009162D01*
X021700Y009064D02*
X021566Y009064D01*
X021468Y008965D02*
X021700Y008965D01*
X021700Y008867D02*
X021416Y008867D01*
X021372Y008768D02*
X021700Y008768D01*
X021700Y008670D02*
X021275Y008670D01*
X021005Y008670D02*
X020878Y008670D01*
X020908Y008768D02*
X020780Y008768D01*
X020875Y008867D02*
X020681Y008867D01*
X020583Y008965D02*
X020880Y008965D01*
X020977Y008571D02*
X021700Y008571D01*
X021700Y008473D02*
X021075Y008473D01*
X021174Y008374D02*
X021700Y008374D01*
X021700Y008276D02*
X021272Y008276D01*
X021301Y008177D02*
X021700Y008177D01*
X021700Y008079D02*
X021301Y008079D01*
X021301Y007980D02*
X021700Y007980D01*
X021700Y007882D02*
X021301Y007882D01*
X021301Y007783D02*
X021700Y007783D01*
X021700Y007685D02*
X021301Y007685D01*
X021301Y007586D02*
X021700Y007586D01*
X021700Y007488D02*
X021301Y007488D01*
X021301Y007389D02*
X021700Y007389D01*
X021700Y007291D02*
X021301Y007291D01*
X021301Y007192D02*
X021700Y007192D01*
X021700Y007094D02*
X021301Y007094D01*
X021301Y006995D02*
X021700Y006995D01*
X021700Y006897D02*
X021301Y006897D01*
X021301Y006798D02*
X021700Y006798D01*
X021700Y006700D02*
X021301Y006700D01*
X021301Y006601D02*
X021700Y006601D01*
X021700Y006503D02*
X021301Y006503D01*
X021301Y006404D02*
X021700Y006404D01*
X021700Y006306D02*
X021301Y006306D01*
X020640Y006306D02*
X019999Y006306D01*
X020098Y006404D02*
X020573Y006404D01*
X020555Y006503D02*
X020196Y006503D01*
X020295Y006601D02*
X020572Y006601D01*
X020623Y006688D02*
X020623Y006688D01*
X020630Y006700D02*
X020393Y006700D01*
X020492Y006798D02*
X020669Y006798D01*
X020669Y006897D02*
X020571Y006897D01*
X020571Y006995D02*
X020669Y006995D01*
X020669Y007094D02*
X020571Y007094D01*
X020571Y007192D02*
X020669Y007192D01*
X020669Y007291D02*
X020571Y007291D01*
X020571Y007389D02*
X020669Y007389D01*
X020669Y007488D02*
X020571Y007488D01*
X020571Y007586D02*
X020669Y007586D01*
X020669Y007685D02*
X020571Y007685D01*
X020571Y007783D02*
X020669Y007783D01*
X020669Y007882D02*
X020571Y007882D01*
X020571Y007980D02*
X020669Y007980D01*
X020669Y008079D02*
X020571Y008079D01*
X020571Y008177D02*
X020669Y008177D01*
X020598Y008276D02*
X020571Y008276D01*
X014273Y007305D02*
X014269Y007300D01*
X013605Y007300D01*
X013428Y007208D01*
X013380Y007300D01*
X013428Y007392D01*
X013605Y007300D01*
X013380Y007300D01*
X013138Y007192D02*
X012660Y007192D01*
X012580Y007094D02*
X012561Y007094D01*
X012509Y006995D02*
X012463Y006995D01*
X012490Y006897D02*
X012364Y006897D01*
X012341Y006798D02*
X012512Y006798D01*
X012587Y006700D02*
X012341Y006700D01*
X012905Y007094D02*
X013212Y007094D01*
X013115Y007291D02*
X012758Y007291D01*
X012857Y007389D02*
X013130Y007389D01*
X012805Y007150D02*
X012805Y007150D01*
X018100Y003350D02*
X018930Y003350D01*
X019060Y003220D01*
X019060Y002180D01*
X019540Y001700D01*
X019540Y001460D01*
X019380Y001300D01*
X015380Y001300D01*
X015220Y001460D01*
X015220Y002900D01*
X015448Y002372D02*
X015540Y002420D01*
X015632Y002372D01*
X015540Y002195D01*
X015448Y002372D01*
X015540Y002420D02*
X015540Y002195D01*
X015540Y001700D01*
X015700Y001540D01*
X018580Y001540D01*
X018660Y001620D01*
X018660Y001780D01*
X018590Y001850D01*
X018100Y001850D01*
X018100Y002350D02*
X018450Y002350D01*
X019041Y001759D01*
X019231Y001699D01*
X019200Y001600D01*
X019101Y001569D01*
X019041Y001759D01*
X019200Y001600D01*
X017100Y001850D02*
X016510Y001850D01*
X016259Y002101D01*
X016069Y002161D01*
X016100Y002260D01*
X016199Y002291D01*
X016259Y002101D01*
X016100Y002260D01*
X013939Y001282D02*
X010030Y001282D01*
X010030Y001184D02*
X013939Y001184D01*
X013939Y001085D02*
X010010Y001085D01*
X009733Y001479D02*
X009636Y001479D01*
X009636Y001578D02*
X009733Y001578D01*
X009343Y001578D02*
X009343Y001578D01*
X008792Y001848D02*
X008700Y002025D01*
X008608Y001848D01*
X008700Y001800D01*
X008792Y001848D01*
X008700Y001800D02*
X008700Y002025D01*
X008700Y002060D01*
X008440Y001873D02*
X008101Y001873D01*
X008101Y001775D02*
X008435Y001775D01*
X008465Y001676D02*
X008101Y001676D01*
X008101Y001578D02*
X008548Y001578D01*
X008487Y001479D02*
X008688Y001479D01*
X008688Y001381D02*
X008634Y001381D01*
X008681Y001282D02*
X008688Y001282D01*
X008685Y001184D02*
X008688Y001184D01*
X008710Y001085D02*
X008651Y001085D01*
X008548Y000987D02*
X013939Y000987D01*
X013939Y000888D02*
X005872Y000888D01*
X005872Y000987D02*
X006428Y000987D01*
X006420Y001085D02*
X005872Y001085D01*
X005872Y001184D02*
X006717Y001184D01*
X006717Y001278D02*
X006420Y001278D01*
X006420Y001444D01*
X006429Y001477D01*
X006446Y001506D01*
X006470Y001530D01*
X006499Y001547D01*
X006532Y001556D01*
X006717Y001556D01*
X006717Y001278D01*
X006717Y001282D02*
X006814Y001282D01*
X006814Y001381D02*
X006717Y001381D01*
X006717Y001479D02*
X006814Y001479D01*
X007100Y001479D02*
X007113Y001479D01*
X006814Y001085D02*
X006717Y001085D01*
X006717Y000987D02*
X006814Y000987D01*
X007103Y000987D02*
X007108Y000987D01*
X007762Y000987D02*
X008292Y000987D01*
X008357Y000954D02*
X008357Y000954D01*
X008357Y000954D01*
X008372Y001128D02*
X008420Y001220D01*
X008372Y001312D01*
X008195Y001220D01*
X008372Y001128D01*
X008420Y001220D02*
X008195Y001220D01*
X007860Y001220D01*
X008101Y001479D02*
X008344Y001479D01*
X008357Y001486D02*
X008357Y001486D01*
X008357Y001486D01*
X009306Y002070D02*
X009369Y002070D01*
X006430Y001479D02*
X005872Y001479D01*
X005872Y001381D02*
X006420Y001381D01*
X006420Y001282D02*
X005872Y001282D01*
X014383Y000396D02*
X021700Y000396D01*
X021700Y000494D02*
X014482Y000494D01*
X014580Y000593D02*
X021700Y000593D01*
D31*
X014820Y003940D03*
X012740Y006900D03*
X010820Y007940D03*
X010000Y004760D03*
X005700Y003500D03*
X003860Y004180D03*
X005320Y006100D03*
X004800Y006860D03*
X003300Y006860D03*
X001540Y001700D03*
X003100Y001340D03*
X019780Y013940D03*
X016500Y016020D03*
D32*
X016429Y015986D01*
X016500Y015840D01*
X016571Y015986D01*
X016500Y016020D01*
X016500Y015840D01*
X016500Y014660D01*
X016500Y013700D01*
X015900Y013100D01*
X014825Y013100D01*
X014639Y013015D01*
X014600Y013100D01*
X014639Y013185D01*
X014825Y013100D01*
X014600Y013100D01*
X014300Y013200D02*
X014300Y012340D01*
X014260Y012300D01*
X011900Y012300D01*
X011780Y012180D01*
X011780Y011780D01*
X011773Y011773D01*
X014300Y011600D02*
X014300Y012340D01*
X014300Y013200D02*
X014900Y013800D01*
X014900Y016340D01*
X014740Y016500D01*
X007140Y016500D01*
X005800Y015160D01*
X005800Y011840D01*
X006500Y011140D01*
X006500Y010420D01*
X006340Y010260D01*
X006337Y010257D02*
X005927Y010257D01*
X014273Y010060D02*
X014273Y010061D01*
X017100Y011980D02*
X017140Y011940D01*
X007870Y001230D02*
X007860Y001220D01*
D33*
X006203Y002962D02*
X006260Y003060D01*
X006203Y003158D01*
X006035Y003060D01*
X006203Y002962D01*
X006260Y003060D02*
X006035Y003060D01*
X004580Y003060D01*
X004120Y002600D01*
X003435Y002600D01*
X003910Y003351D02*
X004020Y003380D01*
X004049Y003490D01*
X003861Y003539D01*
X003910Y003351D01*
X004020Y003380D02*
X003861Y003539D01*
X003800Y003600D01*
X003435Y003600D01*
X004850Y004435D02*
X004915Y004435D01*
X004980Y004500D01*
X004980Y004540D01*
X004980Y004580D01*
X005918Y004540D02*
X005927Y004549D01*
X005927Y004352D02*
X005915Y004340D01*
X003820Y006100D02*
X003820Y006235D01*
X003875Y006290D01*
X003325Y006290D02*
X003220Y006185D01*
X003220Y006020D01*
X001958Y005917D02*
X001860Y005860D01*
X001762Y005917D01*
X001860Y006085D01*
X001958Y005917D01*
X001860Y005860D02*
X001860Y006085D01*
X001860Y006180D01*
X001660Y006380D01*
X000620Y006380D01*
X000420Y006580D01*
X000420Y011740D01*
X000860Y010500D02*
X003940Y010500D01*
X004660Y011220D01*
X005140Y011220D01*
X005315Y011045D01*
X005927Y011045D01*
X005927Y010848D02*
X005039Y010848D01*
X004853Y010791D01*
X004820Y010900D01*
X004899Y010982D01*
X005039Y010848D01*
X005032Y010848D01*
X004980Y010900D01*
X004820Y010900D01*
X005220Y010660D02*
X005229Y010651D01*
X005927Y010651D01*
X005927Y010454D02*
X005426Y010454D01*
X005420Y010460D01*
X005140Y010180D01*
X001140Y010180D01*
X000900Y009940D01*
X000900Y007780D01*
X001541Y007139D01*
X001729Y007090D01*
X001700Y006980D01*
X001590Y006951D01*
X001541Y007139D01*
X001700Y006980D01*
X001300Y006980D02*
X001243Y006882D01*
X001075Y006980D01*
X001243Y007078D01*
X001300Y006980D01*
X001075Y006980D01*
X000820Y006980D01*
X000740Y007060D01*
X000740Y010100D01*
X000980Y010340D01*
X004900Y010340D01*
X005220Y010660D01*
X005923Y009860D02*
X005927Y009864D01*
X009214Y011773D02*
X009220Y011767D01*
X009608Y011773D02*
X009620Y011761D01*
X011773Y011773D02*
X011800Y011800D01*
X013545Y011773D02*
X013552Y011780D01*
X013715Y011780D01*
X013883Y011878D01*
X013940Y011780D01*
X013883Y011682D01*
X013715Y011780D01*
X013940Y011780D01*
X014740Y011460D02*
X014711Y011350D01*
X014899Y011301D01*
X014850Y011489D01*
X014740Y011460D01*
X014899Y011301D01*
X014900Y011300D01*
X016740Y011300D01*
X017380Y010660D01*
X018420Y010660D01*
X018380Y010500D02*
X017300Y010500D01*
X016755Y011045D01*
X014273Y011045D01*
X014273Y010848D02*
X016712Y010848D01*
X017220Y010340D01*
X018340Y010340D01*
X018260Y010180D02*
X017140Y010180D01*
X016669Y010651D01*
X014273Y010651D01*
X014273Y010454D02*
X016626Y010454D01*
X017060Y010020D01*
X018220Y010020D01*
X018176Y009864D02*
X014273Y009864D01*
X014273Y009667D02*
X018173Y009667D01*
X018130Y009470D02*
X014273Y009470D01*
X018100Y008350D02*
X018510Y008350D01*
X018620Y008460D01*
X018620Y008980D01*
X018780Y009060D02*
X018780Y007980D01*
X018650Y007850D01*
X018100Y007850D01*
X018100Y007350D02*
X018710Y007350D01*
X018940Y007580D01*
X018940Y009100D01*
X019100Y009140D02*
X019100Y007340D01*
X018610Y006850D01*
X018100Y006850D01*
X018100Y006350D02*
X018750Y006350D01*
X019300Y006900D01*
X019300Y009140D01*
X020180Y008500D02*
X020180Y007060D01*
X018970Y005850D01*
X018100Y005850D01*
X018100Y005350D02*
X018830Y005350D01*
X020420Y006940D01*
X020420Y008460D01*
X020820Y008260D02*
X020820Y006725D01*
X020918Y006557D01*
X020820Y006500D01*
X020722Y006557D01*
X020820Y006725D01*
X020820Y006500D01*
X017100Y005850D02*
X017090Y005860D01*
X011780Y003434D02*
X011773Y003427D01*
X011183Y003427D02*
X011180Y003429D01*
X010986Y003427D02*
X010980Y003433D01*
X010789Y003427D02*
X010780Y003436D01*
X011180Y004180D02*
X011220Y004180D01*
X008820Y003427D02*
X008820Y003427D01*
X008624Y003427D02*
X008620Y003430D01*
X003833Y001060D02*
X003793Y001100D01*
X000923Y006562D02*
X000980Y006660D01*
X000923Y006758D01*
X000755Y006660D01*
X000923Y006562D01*
X000980Y006660D02*
X000755Y006660D01*
X000740Y006660D01*
X000580Y006820D01*
X000580Y010220D01*
X000860Y010500D01*
D34*
X013100Y014976D02*
X013100Y015100D01*
X014300Y011600D02*
X014310Y011590D01*
X014273Y004155D02*
X014100Y004100D01*
D35*
X020420Y008460D02*
X018380Y010500D01*
X018340Y010340D02*
X020180Y008500D01*
X020820Y008260D02*
X018420Y010660D01*
X018260Y010180D02*
X019300Y009140D01*
X019100Y009140D02*
X018220Y010020D01*
X018176Y009864D02*
X018940Y009100D01*
X018780Y009060D02*
X018173Y009667D01*
X018130Y009470D02*
X018620Y008980D01*
M02*
