%
M48
M72
T01C0.0120
T02C0.0150
T03C0.0217
T04C0.0236
T05C0.0276
T06C0.0394
T07C0.0400
T08C0.0591
%
T01
X1540Y1700
X3100Y1340
X5700Y3500
X3860Y4180
X5320Y6100
X4800Y6860
X3300Y6860
X10000Y4760
X12740Y6900
X10820Y7940
X14820Y3940
X19780Y13940
X16500Y16020
T02
X15780Y16340
X14600Y16100
X10060Y13520
X8560Y12540
X7860Y12500
X6980Y12340
X7700Y11200
X8300Y11000
X8640Y10800
X9540Y10260
X10180Y10580
X10700Y10980
X9460Y9700
X9140Y9300
X9900Y9100
X10420Y9060
X10740Y8700
X11800Y8600
X12420Y8740
X13220Y8820
X13380Y7300
X13300Y6580
X12980Y5540
X12660Y5020
X12820Y4500
X12800Y4000
X11780Y4340
X11220Y4180
X10500Y4500
X10500Y5060
X11540Y5260
X13540Y5060
X14400Y3800
X13340Y2840
X15540Y2420
X16100Y2260
X19200Y1600
X21140Y2500
X20820Y6500
X21140Y8900
X20980Y9620
X20500Y9700
X18380Y11100
X18380Y11620
X18380Y12100
X18380Y12620
X17140Y11940
X14740Y11460
X13940Y11780
X13140Y12860
X14600Y13100
X8760Y10060
X7700Y10680
X7140Y10800
X4820Y10900
X3940Y9620
X4500Y7980
X3780Y7940
X3940Y6980
X2460Y7020
X1700Y6980
X1300Y6980
X980Y6660
X1860Y5860
X2500Y4500
X4020Y3380
X5360Y2600
X4580Y2180
X4980Y1940
X6260Y3060
X6200Y3600
X7220Y4320
X8660Y4740
X8340Y5380
X7300Y5940
X6740Y6020
X6660Y6420
X7700Y7860
X8660Y7860
X6900Y8500
X6900Y8900
X6900Y9300
X1180Y8300
X1020Y12340
X4100Y13100
X7060Y14340
X5600Y16100
X21060Y12580
X8700Y1800
X8420Y1220
X2420Y2020
X1800Y2360
T03
X1860Y7620
X1860Y8120
X1860Y8620
X1860Y9120
X1860Y9620
X2860Y9620
X2860Y9120
X2860Y8620
X2860Y8120
X2860Y7620
X19260Y10720
X19260Y11220
X19260Y11720
X19260Y12220
X19260Y12720
X19260Y13220
X20260Y13220
X20260Y12720
X20260Y12220
X20260Y11720
X20260Y11220
X20260Y10720
T04
X22960Y11540
X23960Y11540
X23960Y12540
X22960Y12540
X22960Y13540
X23960Y13540
X23960Y14540
X22960Y14540
X22960Y15540
X23960Y15540
X18100Y8850
X18100Y8350
X18100Y7850
X18100Y7350
X18100Y6850
X18100Y6350
X18100Y5850
X18100Y5350
X18100Y4850
X18100Y4350
X18100Y3850
X18100Y3350
X18100Y2850
X18100Y2350
X18100Y1850
X17100Y1850
X17100Y2350
X17100Y2850
X17100Y3350
X17100Y3850
X17100Y4350
X17100Y4850
X17100Y5350
X17100Y5850
X17100Y6350
X17100Y6850
X17100Y7350
X17100Y7850
X17100Y8350
X17100Y8850
T05
X26020Y11688
X26020Y12279
X26020Y12869
X26020Y13460
X26020Y14051
X26020Y14641
X26020Y15232
X940Y5952
X940Y5361
X940Y4771
X940Y4180
X940Y3589
X940Y2999
X940Y2408
T06
X19710Y2350
X19710Y8350
T07
X9100Y15300
X8100Y15300
X7100Y15300
T08
X980Y980
X20900Y15940
M30
