G75*
G70*
%OFA0B0*%
%FSLAX24Y24*%
%IPPOS*%
%LPD*%
%AMOC8*
5,1,8,0,0,1.08239X$1,22.5*
%
%ADD10C,0.0000*%
%ADD11R,0.0244X0.0780*%
%ADD12R,0.0315X0.0945*%
%ADD13R,0.0472X0.0512*%
%ADD14R,0.0512X0.0472*%
%ADD15R,0.0276X0.0630*%
%ADD16C,0.0207*%
%ADD17R,0.0276X0.0925*%
%ADD18R,0.0630X0.0276*%
%ADD19C,0.0669*%
%ADD20R,0.0433X0.0354*%
%ADD21R,0.0354X0.0433*%
%ADD22C,0.0453*%
%ADD23C,0.0512*%
%ADD24C,0.0374*%
D10*
X000150Y000100D02*
X000150Y016832D01*
X021804Y016832D01*
X021804Y000100D01*
X000150Y000100D01*
X000735Y000980D02*
X000737Y001014D01*
X000743Y001048D01*
X000753Y001081D01*
X000766Y001112D01*
X000784Y001142D01*
X000804Y001170D01*
X000828Y001195D01*
X000854Y001217D01*
X000882Y001235D01*
X000913Y001251D01*
X000945Y001263D01*
X000979Y001271D01*
X001013Y001275D01*
X001047Y001275D01*
X001081Y001271D01*
X001115Y001263D01*
X001147Y001251D01*
X001177Y001235D01*
X001206Y001217D01*
X001232Y001195D01*
X001256Y001170D01*
X001276Y001142D01*
X001294Y001112D01*
X001307Y001081D01*
X001317Y001048D01*
X001323Y001014D01*
X001325Y000980D01*
X001323Y000946D01*
X001317Y000912D01*
X001307Y000879D01*
X001294Y000848D01*
X001276Y000818D01*
X001256Y000790D01*
X001232Y000765D01*
X001206Y000743D01*
X001178Y000725D01*
X001147Y000709D01*
X001115Y000697D01*
X001081Y000689D01*
X001047Y000685D01*
X001013Y000685D01*
X000979Y000689D01*
X000945Y000697D01*
X000913Y000709D01*
X000882Y000725D01*
X000854Y000743D01*
X000828Y000765D01*
X000804Y000790D01*
X000784Y000818D01*
X000766Y000848D01*
X000753Y000879D01*
X000743Y000912D01*
X000737Y000946D01*
X000735Y000980D01*
X006745Y006006D02*
X006747Y006040D01*
X006753Y006074D01*
X006763Y006107D01*
X006776Y006138D01*
X006794Y006168D01*
X006814Y006196D01*
X006838Y006221D01*
X006864Y006243D01*
X006892Y006261D01*
X006923Y006277D01*
X006955Y006289D01*
X006989Y006297D01*
X007023Y006301D01*
X007057Y006301D01*
X007091Y006297D01*
X007125Y006289D01*
X007157Y006277D01*
X007187Y006261D01*
X007216Y006243D01*
X007242Y006221D01*
X007266Y006196D01*
X007286Y006168D01*
X007304Y006138D01*
X007317Y006107D01*
X007327Y006074D01*
X007333Y006040D01*
X007335Y006006D01*
X007333Y005972D01*
X007327Y005938D01*
X007317Y005905D01*
X007304Y005874D01*
X007286Y005844D01*
X007266Y005816D01*
X007242Y005791D01*
X007216Y005769D01*
X007188Y005751D01*
X007157Y005735D01*
X007125Y005723D01*
X007091Y005715D01*
X007057Y005711D01*
X007023Y005711D01*
X006989Y005715D01*
X006955Y005723D01*
X006923Y005735D01*
X006892Y005751D01*
X006864Y005769D01*
X006838Y005791D01*
X006814Y005816D01*
X006794Y005844D01*
X006776Y005874D01*
X006763Y005905D01*
X006753Y005938D01*
X006747Y005972D01*
X006745Y006006D01*
X014619Y006006D02*
X014621Y006040D01*
X014627Y006074D01*
X014637Y006107D01*
X014650Y006138D01*
X014668Y006168D01*
X014688Y006196D01*
X014712Y006221D01*
X014738Y006243D01*
X014766Y006261D01*
X014797Y006277D01*
X014829Y006289D01*
X014863Y006297D01*
X014897Y006301D01*
X014931Y006301D01*
X014965Y006297D01*
X014999Y006289D01*
X015031Y006277D01*
X015061Y006261D01*
X015090Y006243D01*
X015116Y006221D01*
X015140Y006196D01*
X015160Y006168D01*
X015178Y006138D01*
X015191Y006107D01*
X015201Y006074D01*
X015207Y006040D01*
X015209Y006006D01*
X015207Y005972D01*
X015201Y005938D01*
X015191Y005905D01*
X015178Y005874D01*
X015160Y005844D01*
X015140Y005816D01*
X015116Y005791D01*
X015090Y005769D01*
X015062Y005751D01*
X015031Y005735D01*
X014999Y005723D01*
X014965Y005715D01*
X014931Y005711D01*
X014897Y005711D01*
X014863Y005715D01*
X014829Y005723D01*
X014797Y005735D01*
X014766Y005751D01*
X014738Y005769D01*
X014712Y005791D01*
X014688Y005816D01*
X014668Y005844D01*
X014650Y005874D01*
X014637Y005905D01*
X014627Y005938D01*
X014621Y005972D01*
X014619Y006006D01*
X020655Y015940D02*
X020657Y015974D01*
X020663Y016008D01*
X020673Y016041D01*
X020686Y016072D01*
X020704Y016102D01*
X020724Y016130D01*
X020748Y016155D01*
X020774Y016177D01*
X020802Y016195D01*
X020833Y016211D01*
X020865Y016223D01*
X020899Y016231D01*
X020933Y016235D01*
X020967Y016235D01*
X021001Y016231D01*
X021035Y016223D01*
X021067Y016211D01*
X021097Y016195D01*
X021126Y016177D01*
X021152Y016155D01*
X021176Y016130D01*
X021196Y016102D01*
X021214Y016072D01*
X021227Y016041D01*
X021237Y016008D01*
X021243Y015974D01*
X021245Y015940D01*
X021243Y015906D01*
X021237Y015872D01*
X021227Y015839D01*
X021214Y015808D01*
X021196Y015778D01*
X021176Y015750D01*
X021152Y015725D01*
X021126Y015703D01*
X021098Y015685D01*
X021067Y015669D01*
X021035Y015657D01*
X021001Y015649D01*
X020967Y015645D01*
X020933Y015645D01*
X020899Y015649D01*
X020865Y015657D01*
X020833Y015669D01*
X020802Y015685D01*
X020774Y015703D01*
X020748Y015725D01*
X020724Y015750D01*
X020704Y015778D01*
X020686Y015808D01*
X020673Y015839D01*
X020663Y015872D01*
X020657Y015906D01*
X020655Y015940D01*
D11*
X020569Y009250D03*
X020319Y009250D03*
X020069Y009250D03*
X019819Y009250D03*
X019569Y009250D03*
X019313Y009250D03*
X019063Y009250D03*
X018813Y009250D03*
X018563Y009250D03*
X018313Y009250D03*
X018313Y006911D03*
X018563Y006911D03*
X018813Y006911D03*
X019063Y006911D03*
X019313Y006911D03*
X019569Y006911D03*
X019819Y006911D03*
X020069Y006911D03*
X020319Y006911D03*
X020569Y006911D03*
D12*
X020408Y004324D03*
X019908Y004324D03*
X019408Y004324D03*
X018908Y004324D03*
X018408Y004324D03*
X017908Y004324D03*
X017408Y004324D03*
X017408Y002435D03*
X017908Y002435D03*
X018408Y002435D03*
X018908Y002435D03*
X019408Y002435D03*
X019908Y002435D03*
X020408Y002435D03*
X020908Y002435D03*
X020908Y004324D03*
D13*
X021099Y007687D03*
X021099Y008356D03*
D14*
X017937Y001600D03*
X017268Y001600D03*
X004642Y012592D03*
X004642Y013261D03*
X002831Y013281D03*
X002831Y012612D03*
D15*
X009559Y008137D03*
X009874Y008137D03*
X010189Y008137D03*
X010504Y008137D03*
X010819Y008137D03*
X011134Y008137D03*
X011449Y008137D03*
X011764Y008137D03*
X012079Y008137D03*
X012394Y008137D03*
X012394Y003874D03*
X012079Y003874D03*
X011764Y003874D03*
X011449Y003874D03*
X011134Y003874D03*
X010504Y003874D03*
X010189Y003874D03*
X009874Y003874D03*
X009559Y003874D03*
D16*
X009279Y003662D02*
X009209Y003662D01*
X009209Y004086D01*
X009279Y004086D01*
X009279Y003662D01*
X009279Y003868D02*
X009209Y003868D01*
X009209Y004074D02*
X009279Y004074D01*
X009057Y004238D02*
X008633Y004238D01*
X008633Y004308D01*
X009057Y004308D01*
X009057Y004238D01*
X012674Y003662D02*
X012744Y003662D01*
X012674Y003662D02*
X012674Y004086D01*
X012744Y004086D01*
X012744Y003662D01*
X012744Y003868D02*
X012674Y003868D01*
X012674Y004074D02*
X012744Y004074D01*
X012897Y004238D02*
X013321Y004238D01*
X012897Y004238D02*
X012897Y004308D01*
X013321Y004308D01*
X013321Y004238D01*
X013321Y007703D02*
X012897Y007703D01*
X012897Y007773D01*
X013321Y007773D01*
X013321Y007703D01*
X012744Y007925D02*
X012674Y007925D01*
X012674Y008349D01*
X012744Y008349D01*
X012744Y007925D01*
X012744Y008131D02*
X012674Y008131D01*
X012674Y008337D02*
X012744Y008337D01*
X009279Y007925D02*
X009209Y007925D01*
X009209Y008349D01*
X009279Y008349D01*
X009279Y007925D01*
X009279Y008131D02*
X009209Y008131D01*
X009209Y008337D02*
X009279Y008337D01*
X009057Y007703D02*
X008633Y007703D01*
X008633Y007773D01*
X009057Y007773D01*
X009057Y007703D01*
D17*
X010819Y004021D03*
D18*
X008845Y004588D03*
X008845Y004903D03*
X008845Y005218D03*
X008845Y005533D03*
X008845Y005848D03*
X008845Y006163D03*
X008845Y006478D03*
X008845Y006793D03*
X008845Y007108D03*
X008845Y007423D03*
X013109Y007423D03*
X013109Y007108D03*
X013109Y006793D03*
X013109Y006478D03*
X013109Y006163D03*
X013109Y005848D03*
X013109Y005533D03*
X013109Y005218D03*
X013109Y004903D03*
X013109Y004588D03*
D19*
X014914Y006006D03*
X007040Y006006D03*
X001030Y000980D03*
X020950Y015940D03*
D20*
X015504Y008072D03*
X015504Y007561D03*
X014914Y007561D03*
X014914Y008072D03*
X014914Y004214D03*
X014914Y003702D03*
X015504Y003702D03*
X015504Y004214D03*
X013681Y002013D03*
X013681Y001502D03*
X012949Y001502D03*
X012949Y002013D03*
X007158Y003781D03*
X007158Y004293D03*
X006567Y004293D03*
X006567Y003781D03*
X006646Y008033D03*
X007158Y008033D03*
X007158Y008545D03*
X006646Y008545D03*
D21*
X009973Y009864D03*
X010485Y009864D03*
X010485Y010454D03*
X009973Y010454D03*
X011154Y002069D03*
X011666Y002069D03*
X011666Y001478D03*
X011154Y001478D03*
D22*
X003097Y007620D02*
X002723Y007620D01*
X002723Y008120D02*
X003097Y008120D01*
X003097Y008620D02*
X002723Y008620D01*
X002723Y009120D02*
X003097Y009120D01*
X003097Y009620D02*
X002723Y009620D01*
X002097Y009620D02*
X001723Y009620D01*
X001723Y009120D02*
X002097Y009120D01*
X002097Y008620D02*
X001723Y008620D01*
X001723Y008120D02*
X002097Y008120D01*
X002097Y007620D02*
X001723Y007620D01*
X019123Y010720D02*
X019497Y010720D01*
X019497Y011220D02*
X019123Y011220D01*
X019123Y011720D02*
X019497Y011720D01*
X019497Y012220D02*
X019123Y012220D01*
X019123Y012720D02*
X019497Y012720D01*
X019497Y013220D02*
X019123Y013220D01*
X020123Y013220D02*
X020497Y013220D01*
X020497Y012720D02*
X020123Y012720D01*
X020123Y012220D02*
X020497Y012220D01*
X020497Y011720D02*
X020123Y011720D01*
X020123Y011220D02*
X020497Y011220D01*
X020497Y010720D02*
X020123Y010720D01*
D23*
X004622Y014348D03*
X004032Y014348D03*
X003441Y014348D03*
X002851Y014348D03*
D24*
X001252Y013013D03*
X002276Y011911D03*
X001252Y011360D03*
X003693Y008131D03*
X004481Y007620D03*
X003772Y007187D03*
X005189Y007029D03*
X006056Y007344D03*
X005898Y007738D03*
X007867Y006084D03*
X007945Y005612D03*
X006843Y005218D03*
X006489Y004903D03*
X006370Y005376D03*
X008575Y002541D03*
X009048Y000887D03*
X009559Y000612D03*
X009874Y000887D03*
X010189Y000612D03*
X010780Y002620D03*
X011134Y003013D03*
X011882Y002738D03*
X012473Y003013D03*
X014481Y003092D03*
X014087Y004903D03*
X014481Y004982D03*
X013930Y005533D03*
X014166Y006478D03*
X014402Y007502D03*
X015032Y009076D03*
X016685Y009076D03*
X018260Y010100D03*
X018575Y010730D03*
X016764Y013486D03*
X014796Y014903D03*
X012512Y015376D03*
X008260Y013092D03*
X005741Y013171D03*
X007867Y010809D03*
X006528Y010494D03*
X005741Y010494D03*
X011331Y011517D03*
X011725Y010021D03*
X016685Y007580D03*
X017394Y006872D03*
X017867Y006242D03*
X017867Y005848D03*
X018496Y005612D03*
X019048Y005612D03*
X019520Y005612D03*
X020071Y005612D03*
X020544Y005612D03*
X021016Y005612D03*
X017906Y003446D03*
X019914Y001675D03*
X019126Y001045D03*
X007000Y000887D03*
X005662Y001124D03*
X001095Y006242D03*
X019678Y015139D03*
X021174Y014194D03*
M02*
