G75*
G70*
%OFA0B0*%
%FSLAX24Y24*%
%IPPOS*%
%LPD*%
%AMOC8*
5,1,8,0,0,1.08239X$1,22.5*
%
%ADD10C,0.0000*%
%ADD11C,0.0030*%
%ADD12C,0.0060*%
%ADD13C,0.0040*%
%ADD14C,0.0080*%
%ADD15C,0.0010*%
%ADD16C,0.0050*%
%ADD17C,0.0176*%
D10*
X000150Y000100D02*
X000150Y016832D01*
X021804Y016832D01*
X021804Y000100D01*
X000150Y000100D01*
X000735Y000980D02*
X000737Y001014D01*
X000743Y001048D01*
X000753Y001081D01*
X000766Y001112D01*
X000784Y001142D01*
X000804Y001170D01*
X000828Y001195D01*
X000854Y001217D01*
X000882Y001235D01*
X000913Y001251D01*
X000945Y001263D01*
X000979Y001271D01*
X001013Y001275D01*
X001047Y001275D01*
X001081Y001271D01*
X001115Y001263D01*
X001147Y001251D01*
X001177Y001235D01*
X001206Y001217D01*
X001232Y001195D01*
X001256Y001170D01*
X001276Y001142D01*
X001294Y001112D01*
X001307Y001081D01*
X001317Y001048D01*
X001323Y001014D01*
X001325Y000980D01*
X001323Y000946D01*
X001317Y000912D01*
X001307Y000879D01*
X001294Y000848D01*
X001276Y000818D01*
X001256Y000790D01*
X001232Y000765D01*
X001206Y000743D01*
X001178Y000725D01*
X001147Y000709D01*
X001115Y000697D01*
X001081Y000689D01*
X001047Y000685D01*
X001013Y000685D01*
X000979Y000689D01*
X000945Y000697D01*
X000913Y000709D01*
X000882Y000725D01*
X000854Y000743D01*
X000828Y000765D01*
X000804Y000790D01*
X000784Y000818D01*
X000766Y000848D01*
X000753Y000879D01*
X000743Y000912D01*
X000737Y000946D01*
X000735Y000980D01*
X006745Y006006D02*
X006747Y006040D01*
X006753Y006074D01*
X006763Y006107D01*
X006776Y006138D01*
X006794Y006168D01*
X006814Y006196D01*
X006838Y006221D01*
X006864Y006243D01*
X006892Y006261D01*
X006923Y006277D01*
X006955Y006289D01*
X006989Y006297D01*
X007023Y006301D01*
X007057Y006301D01*
X007091Y006297D01*
X007125Y006289D01*
X007157Y006277D01*
X007187Y006261D01*
X007216Y006243D01*
X007242Y006221D01*
X007266Y006196D01*
X007286Y006168D01*
X007304Y006138D01*
X007317Y006107D01*
X007327Y006074D01*
X007333Y006040D01*
X007335Y006006D01*
X007333Y005972D01*
X007327Y005938D01*
X007317Y005905D01*
X007304Y005874D01*
X007286Y005844D01*
X007266Y005816D01*
X007242Y005791D01*
X007216Y005769D01*
X007188Y005751D01*
X007157Y005735D01*
X007125Y005723D01*
X007091Y005715D01*
X007057Y005711D01*
X007023Y005711D01*
X006989Y005715D01*
X006955Y005723D01*
X006923Y005735D01*
X006892Y005751D01*
X006864Y005769D01*
X006838Y005791D01*
X006814Y005816D01*
X006794Y005844D01*
X006776Y005874D01*
X006763Y005905D01*
X006753Y005938D01*
X006747Y005972D01*
X006745Y006006D01*
X014619Y006006D02*
X014621Y006040D01*
X014627Y006074D01*
X014637Y006107D01*
X014650Y006138D01*
X014668Y006168D01*
X014688Y006196D01*
X014712Y006221D01*
X014738Y006243D01*
X014766Y006261D01*
X014797Y006277D01*
X014829Y006289D01*
X014863Y006297D01*
X014897Y006301D01*
X014931Y006301D01*
X014965Y006297D01*
X014999Y006289D01*
X015031Y006277D01*
X015061Y006261D01*
X015090Y006243D01*
X015116Y006221D01*
X015140Y006196D01*
X015160Y006168D01*
X015178Y006138D01*
X015191Y006107D01*
X015201Y006074D01*
X015207Y006040D01*
X015209Y006006D01*
X015207Y005972D01*
X015201Y005938D01*
X015191Y005905D01*
X015178Y005874D01*
X015160Y005844D01*
X015140Y005816D01*
X015116Y005791D01*
X015090Y005769D01*
X015062Y005751D01*
X015031Y005735D01*
X014999Y005723D01*
X014965Y005715D01*
X014931Y005711D01*
X014897Y005711D01*
X014863Y005715D01*
X014829Y005723D01*
X014797Y005735D01*
X014766Y005751D01*
X014738Y005769D01*
X014712Y005791D01*
X014688Y005816D01*
X014668Y005844D01*
X014650Y005874D01*
X014637Y005905D01*
X014627Y005938D01*
X014621Y005972D01*
X014619Y006006D01*
X020655Y015940D02*
X020657Y015974D01*
X020663Y016008D01*
X020673Y016041D01*
X020686Y016072D01*
X020704Y016102D01*
X020724Y016130D01*
X020748Y016155D01*
X020774Y016177D01*
X020802Y016195D01*
X020833Y016211D01*
X020865Y016223D01*
X020899Y016231D01*
X020933Y016235D01*
X020967Y016235D01*
X021001Y016231D01*
X021035Y016223D01*
X021067Y016211D01*
X021097Y016195D01*
X021126Y016177D01*
X021152Y016155D01*
X021176Y016130D01*
X021196Y016102D01*
X021214Y016072D01*
X021227Y016041D01*
X021237Y016008D01*
X021243Y015974D01*
X021245Y015940D01*
X021243Y015906D01*
X021237Y015872D01*
X021227Y015839D01*
X021214Y015808D01*
X021196Y015778D01*
X021176Y015750D01*
X021152Y015725D01*
X021126Y015703D01*
X021098Y015685D01*
X021067Y015669D01*
X021035Y015657D01*
X021001Y015649D01*
X020967Y015645D01*
X020933Y015645D01*
X020899Y015649D01*
X020865Y015657D01*
X020833Y015669D01*
X020802Y015685D01*
X020774Y015703D01*
X020748Y015725D01*
X020724Y015750D01*
X020704Y015778D01*
X020686Y015808D01*
X020673Y015839D01*
X020663Y015872D01*
X020657Y015906D01*
X020655Y015940D01*
D11*
X018580Y013828D02*
X018580Y013582D01*
X018580Y013705D02*
X018210Y013705D01*
X018333Y013582D01*
X018210Y013460D02*
X018210Y013337D01*
X018210Y013398D02*
X018518Y013398D01*
X018580Y013337D01*
X018580Y013275D01*
X018518Y013213D01*
X016718Y012559D02*
X016348Y012559D01*
X016533Y012373D01*
X016533Y012620D01*
X016533Y012252D02*
X016409Y012252D01*
X016348Y012190D01*
X016348Y012005D01*
X016718Y012005D01*
X016595Y012005D02*
X016595Y012190D01*
X016533Y012252D01*
X016595Y012129D02*
X016718Y012252D01*
X014802Y013666D02*
X014432Y013666D01*
X014432Y013789D02*
X014432Y013542D01*
X014555Y013910D02*
X014432Y014034D01*
X014802Y014034D01*
X014802Y014157D02*
X014802Y013910D01*
X013843Y012852D02*
X013596Y012852D01*
X013843Y012606D01*
X013905Y012667D01*
X013905Y012791D01*
X013843Y012852D01*
X013843Y012606D02*
X013596Y012606D01*
X013534Y012667D01*
X013534Y012791D01*
X013596Y012852D01*
X013905Y012484D02*
X013905Y012237D01*
X013905Y012116D02*
X013781Y011992D01*
X013781Y012054D02*
X013781Y011869D01*
X013905Y011869D02*
X013534Y011869D01*
X013534Y012054D01*
X013596Y012116D01*
X013720Y012116D01*
X013781Y012054D01*
X013658Y012237D02*
X013534Y012361D01*
X013905Y012361D01*
X014301Y012435D02*
X014301Y012559D01*
X014362Y012620D01*
X014424Y012620D01*
X014486Y012559D01*
X014547Y012620D01*
X014609Y012620D01*
X014671Y012559D01*
X014671Y012435D01*
X014609Y012373D01*
X014671Y012252D02*
X014547Y012129D01*
X014547Y012190D02*
X014547Y012005D01*
X014671Y012005D02*
X014301Y012005D01*
X014301Y012190D01*
X014362Y012252D01*
X014486Y012252D01*
X014547Y012190D01*
X014362Y012373D02*
X014301Y012435D01*
X014486Y012497D02*
X014486Y012559D01*
X011905Y012564D02*
X011905Y012441D01*
X011843Y012379D01*
X011905Y012258D02*
X011781Y012134D01*
X011781Y012196D02*
X011781Y012011D01*
X011905Y012011D02*
X011534Y012011D01*
X011534Y012196D01*
X011596Y012258D01*
X011720Y012258D01*
X011781Y012196D01*
X011658Y012379D02*
X011596Y012379D01*
X011534Y012441D01*
X011534Y012564D01*
X011596Y012626D01*
X011843Y012626D01*
X011905Y012564D01*
X011720Y012626D02*
X011720Y012441D01*
X011658Y012379D01*
X011157Y012460D02*
X011095Y012399D01*
X011033Y012399D01*
X010971Y012460D01*
X010971Y012584D01*
X011033Y012646D01*
X011095Y012646D01*
X011157Y012584D01*
X011157Y012460D01*
X011157Y012277D02*
X011033Y012154D01*
X011033Y012216D02*
X011033Y012030D01*
X011157Y012030D02*
X010786Y012030D01*
X010786Y012216D01*
X010848Y012277D01*
X010971Y012277D01*
X011033Y012216D01*
X010910Y012399D02*
X010848Y012399D01*
X010786Y012460D01*
X010786Y012584D01*
X010848Y012646D01*
X010910Y012646D01*
X010971Y012584D01*
X010971Y012460D02*
X010910Y012399D01*
X011676Y013546D02*
X011676Y013793D01*
X011676Y013670D02*
X012046Y013670D01*
X011861Y013914D02*
X011861Y014161D01*
X012046Y014100D02*
X011676Y014100D01*
X011861Y013914D01*
X009291Y013949D02*
X009229Y013887D01*
X009291Y013949D02*
X009291Y014072D01*
X009229Y014134D01*
X009167Y014134D01*
X009105Y014072D01*
X009105Y014010D01*
X009105Y014072D02*
X009044Y014134D01*
X008982Y014134D01*
X008920Y014072D01*
X008920Y013949D01*
X008982Y013887D01*
X008920Y013765D02*
X008920Y013519D01*
X008920Y013642D02*
X009291Y013642D01*
X008840Y012657D02*
X008778Y012657D01*
X008778Y012410D01*
X008840Y012289D02*
X008778Y012227D01*
X008778Y012042D01*
X009149Y012042D01*
X009025Y012042D02*
X009025Y012227D01*
X008964Y012289D01*
X008840Y012289D01*
X009025Y012166D02*
X009149Y012289D01*
X009149Y012410D02*
X009087Y012410D01*
X008840Y012657D01*
X008440Y012588D02*
X008440Y012464D01*
X008378Y012403D01*
X008255Y012403D01*
X008255Y012588D01*
X008317Y012649D01*
X008378Y012649D01*
X008440Y012588D01*
X008255Y012403D02*
X008132Y012526D01*
X008070Y012649D01*
X008132Y012281D02*
X008070Y012219D01*
X008070Y012034D01*
X008440Y012034D01*
X008317Y012034D02*
X008317Y012219D01*
X008255Y012281D01*
X008132Y012281D01*
X008317Y012158D02*
X008440Y012281D01*
X006393Y012281D02*
X006269Y012158D01*
X006269Y012219D02*
X006269Y012034D01*
X006393Y012034D02*
X006023Y012034D01*
X006023Y012219D01*
X006084Y012281D01*
X006208Y012281D01*
X006269Y012219D01*
X006208Y012403D02*
X006146Y012526D01*
X006146Y012588D01*
X006208Y012649D01*
X006331Y012649D01*
X006393Y012588D01*
X006393Y012464D01*
X006331Y012403D01*
X006208Y012403D02*
X006023Y012403D01*
X006023Y012649D01*
X006164Y013530D02*
X006164Y013777D01*
X006164Y013654D02*
X006535Y013654D01*
X006535Y013899D02*
X006288Y014146D01*
X006226Y014146D01*
X006164Y014084D01*
X006164Y013960D01*
X006226Y013899D01*
X006535Y013899D02*
X006535Y014146D01*
X002153Y014163D02*
X002091Y014101D01*
X002153Y014163D02*
X002153Y014286D01*
X002091Y014348D01*
X002030Y014348D01*
X001968Y014286D01*
X001968Y014224D01*
X001968Y014286D02*
X001906Y014348D01*
X001845Y014348D01*
X001783Y014286D01*
X001783Y014163D01*
X001845Y014101D01*
X001783Y013980D02*
X001783Y013856D01*
X001783Y013918D02*
X002091Y013918D01*
X002153Y013856D01*
X002153Y013794D01*
X002091Y013733D01*
X004528Y010625D02*
X004589Y010625D01*
X004651Y010564D01*
X004713Y010625D01*
X004774Y010625D01*
X004836Y010564D01*
X004836Y010440D01*
X004774Y010379D01*
X004836Y010257D02*
X004836Y010010D01*
X004836Y009889D02*
X004713Y009765D01*
X004713Y009827D02*
X004713Y009642D01*
X004836Y009642D02*
X004466Y009642D01*
X004466Y009827D01*
X004528Y009889D01*
X004651Y009889D01*
X004713Y009827D01*
X004589Y010010D02*
X004466Y010134D01*
X004836Y010134D01*
X005135Y010126D02*
X005505Y010126D01*
X005505Y010249D02*
X005505Y010002D01*
X005505Y009881D02*
X005382Y009758D01*
X005382Y009819D02*
X005382Y009634D01*
X005505Y009634D02*
X005135Y009634D01*
X005135Y009819D01*
X005197Y009881D01*
X005320Y009881D01*
X005382Y009819D01*
X005259Y010002D02*
X005135Y010126D01*
X005320Y010371D02*
X005320Y010618D01*
X005135Y010556D02*
X005320Y010371D01*
X005505Y010556D02*
X005135Y010556D01*
X004651Y010564D02*
X004651Y010502D01*
X004528Y010379D02*
X004466Y010440D01*
X004466Y010564D01*
X004528Y010625D01*
X003873Y010179D02*
X003873Y009932D01*
X003626Y010179D01*
X003565Y010179D01*
X003503Y010117D01*
X003503Y009994D01*
X003565Y009932D01*
X003503Y009811D02*
X003503Y009687D01*
X003503Y009749D02*
X003812Y009749D01*
X003873Y009687D01*
X003873Y009626D01*
X003812Y009564D01*
X004905Y008343D02*
X005090Y008343D01*
X005151Y008281D01*
X005151Y008158D01*
X005090Y008096D01*
X004905Y008096D01*
X005028Y008096D02*
X005151Y007973D01*
X005273Y007973D02*
X005520Y007973D01*
X005396Y007973D02*
X005396Y008343D01*
X005273Y008220D01*
X005641Y008158D02*
X005641Y008343D01*
X005888Y008343D01*
X005826Y008220D02*
X005888Y008158D01*
X005888Y008035D01*
X005826Y007973D01*
X005703Y007973D01*
X005641Y008035D01*
X005641Y008158D02*
X005765Y008220D01*
X005826Y008220D01*
X006147Y008307D02*
X006147Y008061D01*
X006209Y007999D01*
X006332Y007999D01*
X006394Y008061D01*
X006516Y007999D02*
X006762Y008246D01*
X006762Y008307D01*
X006701Y008369D01*
X006577Y008369D01*
X006516Y008307D01*
X006394Y008307D02*
X006332Y008369D01*
X006209Y008369D01*
X006147Y008307D01*
X006516Y007999D02*
X006762Y007999D01*
X006884Y008061D02*
X007131Y008307D01*
X007131Y008061D01*
X007069Y007999D01*
X006946Y007999D01*
X006884Y008061D01*
X006884Y008307D01*
X006946Y008369D01*
X007069Y008369D01*
X007131Y008307D01*
X007577Y009731D02*
X007700Y009731D01*
X007762Y009792D01*
X007762Y010101D01*
X007883Y010101D02*
X007883Y009916D01*
X008007Y009978D01*
X008068Y009978D01*
X008130Y009916D01*
X008130Y009792D01*
X008068Y009731D01*
X007945Y009731D01*
X007883Y009792D01*
X007577Y009731D02*
X007515Y009792D01*
X007515Y010101D01*
X007883Y010101D02*
X008130Y010101D01*
X004905Y008343D02*
X004905Y007973D01*
X004998Y006926D02*
X005122Y006926D01*
X005183Y006864D01*
X005183Y006802D01*
X005122Y006741D01*
X005183Y006679D01*
X005183Y006617D01*
X005122Y006556D01*
X004998Y006556D01*
X004936Y006617D01*
X004815Y006617D02*
X004753Y006556D01*
X004630Y006556D01*
X004568Y006617D01*
X004568Y006864D01*
X004630Y006926D01*
X004753Y006926D01*
X004815Y006864D01*
X004936Y006864D02*
X004998Y006926D01*
X005060Y006741D02*
X005122Y006741D01*
X004710Y005196D02*
X004710Y004949D01*
X004710Y004828D02*
X004587Y004705D01*
X004587Y004766D02*
X004587Y004581D01*
X004710Y004581D02*
X004340Y004581D01*
X004340Y004766D01*
X004402Y004828D01*
X004525Y004828D01*
X004587Y004766D01*
X004463Y004949D02*
X004340Y005073D01*
X004710Y005073D01*
X005615Y005031D02*
X005677Y004969D01*
X005615Y005031D02*
X005615Y005154D01*
X005677Y005216D01*
X005739Y005216D01*
X005986Y004969D01*
X005986Y005216D01*
X005986Y004848D02*
X005862Y004724D01*
X005862Y004786D02*
X005862Y004601D01*
X005986Y004601D02*
X005615Y004601D01*
X005615Y004786D01*
X005677Y004848D01*
X005801Y004848D01*
X005862Y004786D01*
D12*
X004526Y002903D02*
X002066Y002903D01*
X002066Y001541D01*
X004526Y001541D01*
X004526Y002903D01*
X000414Y000980D02*
X000416Y001030D01*
X000422Y001079D01*
X000432Y001127D01*
X000446Y001175D01*
X000463Y001221D01*
X000485Y001266D01*
X000509Y001309D01*
X000538Y001350D01*
X000569Y001388D01*
X000603Y001424D01*
X000640Y001457D01*
X000680Y001487D01*
X000722Y001513D01*
X000766Y001537D01*
X000812Y001556D01*
X000859Y001572D01*
X000907Y001584D01*
X000956Y001592D01*
X001005Y001596D01*
X001055Y001596D01*
X001104Y001592D01*
X001153Y001584D01*
X001201Y001572D01*
X001248Y001556D01*
X001294Y001537D01*
X001338Y001513D01*
X001380Y001487D01*
X001420Y001457D01*
X001457Y001424D01*
X001491Y001388D01*
X001522Y001350D01*
X001551Y001309D01*
X001575Y001266D01*
X001597Y001221D01*
X001614Y001175D01*
X001628Y001127D01*
X001638Y001079D01*
X001644Y001030D01*
X001646Y000980D01*
X001644Y000930D01*
X001638Y000881D01*
X001628Y000833D01*
X001614Y000785D01*
X001597Y000739D01*
X001575Y000694D01*
X001551Y000651D01*
X001522Y000610D01*
X001491Y000572D01*
X001457Y000536D01*
X001420Y000503D01*
X001380Y000473D01*
X001338Y000447D01*
X001294Y000423D01*
X001248Y000404D01*
X001201Y000388D01*
X001153Y000376D01*
X001104Y000368D01*
X001055Y000364D01*
X001005Y000364D01*
X000956Y000368D01*
X000907Y000376D01*
X000859Y000388D01*
X000812Y000404D01*
X000766Y000423D01*
X000722Y000447D01*
X000680Y000473D01*
X000640Y000503D01*
X000603Y000536D01*
X000569Y000572D01*
X000538Y000610D01*
X000509Y000651D01*
X000485Y000694D01*
X000463Y000739D01*
X000446Y000785D01*
X000432Y000833D01*
X000422Y000881D01*
X000416Y000930D01*
X000414Y000980D01*
X020334Y015940D02*
X020336Y015990D01*
X020342Y016039D01*
X020352Y016087D01*
X020366Y016135D01*
X020383Y016181D01*
X020405Y016226D01*
X020429Y016269D01*
X020458Y016310D01*
X020489Y016348D01*
X020523Y016384D01*
X020560Y016417D01*
X020600Y016447D01*
X020642Y016473D01*
X020686Y016497D01*
X020732Y016516D01*
X020779Y016532D01*
X020827Y016544D01*
X020876Y016552D01*
X020925Y016556D01*
X020975Y016556D01*
X021024Y016552D01*
X021073Y016544D01*
X021121Y016532D01*
X021168Y016516D01*
X021214Y016497D01*
X021258Y016473D01*
X021300Y016447D01*
X021340Y016417D01*
X021377Y016384D01*
X021411Y016348D01*
X021442Y016310D01*
X021471Y016269D01*
X021495Y016226D01*
X021517Y016181D01*
X021534Y016135D01*
X021548Y016087D01*
X021558Y016039D01*
X021564Y015990D01*
X021566Y015940D01*
X021564Y015890D01*
X021558Y015841D01*
X021548Y015793D01*
X021534Y015745D01*
X021517Y015699D01*
X021495Y015654D01*
X021471Y015611D01*
X021442Y015570D01*
X021411Y015532D01*
X021377Y015496D01*
X021340Y015463D01*
X021300Y015433D01*
X021258Y015407D01*
X021214Y015383D01*
X021168Y015364D01*
X021121Y015348D01*
X021073Y015336D01*
X021024Y015328D01*
X020975Y015324D01*
X020925Y015324D01*
X020876Y015328D01*
X020827Y015336D01*
X020779Y015348D01*
X020732Y015364D01*
X020686Y015383D01*
X020642Y015407D01*
X020600Y015433D01*
X020560Y015463D01*
X020523Y015496D01*
X020489Y015532D01*
X020458Y015570D01*
X020429Y015611D01*
X020405Y015654D01*
X020383Y015699D01*
X020366Y015745D01*
X020352Y015793D01*
X020342Y015841D01*
X020336Y015890D01*
X020334Y015940D01*
D13*
X005069Y002266D02*
X005009Y002327D01*
X004948Y002327D01*
X004888Y002266D01*
X004888Y002206D01*
X004888Y002266D02*
X004828Y002327D01*
X004768Y002327D01*
X004708Y002266D01*
X004708Y002146D01*
X004768Y002086D01*
X004708Y001958D02*
X005009Y001958D01*
X005069Y001898D01*
X005069Y001778D01*
X005009Y001718D01*
X004708Y001718D01*
X005009Y002086D02*
X005069Y002146D01*
X005069Y002266D01*
D14*
X003401Y004650D02*
X003401Y006030D01*
X002301Y006030D02*
X002301Y004650D01*
X001739Y004947D02*
X001739Y003567D01*
X000639Y003567D02*
X000639Y004947D01*
X000714Y000980D02*
X000716Y001015D01*
X000722Y001050D01*
X000732Y001084D01*
X000745Y001117D01*
X000762Y001148D01*
X000783Y001177D01*
X000807Y001203D01*
X000833Y001227D01*
X000862Y001248D01*
X000893Y001265D01*
X000926Y001278D01*
X000960Y001288D01*
X000995Y001294D01*
X001030Y001296D01*
X001065Y001294D01*
X001100Y001288D01*
X001134Y001278D01*
X001167Y001265D01*
X001198Y001248D01*
X001227Y001227D01*
X001253Y001203D01*
X001277Y001177D01*
X001298Y001148D01*
X001315Y001117D01*
X001328Y001084D01*
X001338Y001050D01*
X001344Y001015D01*
X001346Y000980D01*
X001344Y000945D01*
X001338Y000910D01*
X001328Y000876D01*
X001315Y000843D01*
X001298Y000812D01*
X001277Y000783D01*
X001253Y000757D01*
X001227Y000733D01*
X001198Y000712D01*
X001167Y000695D01*
X001134Y000682D01*
X001100Y000672D01*
X001065Y000666D01*
X001030Y000664D01*
X000995Y000666D01*
X000960Y000672D01*
X000926Y000682D01*
X000893Y000695D01*
X000862Y000712D01*
X000833Y000733D01*
X000807Y000757D01*
X000783Y000783D01*
X000762Y000812D01*
X000745Y000843D01*
X000732Y000876D01*
X000722Y000910D01*
X000716Y000945D01*
X000714Y000980D01*
X006590Y006006D02*
X006592Y006048D01*
X006598Y006090D01*
X006608Y006131D01*
X006621Y006171D01*
X006639Y006209D01*
X006659Y006246D01*
X006684Y006281D01*
X006711Y006313D01*
X006741Y006342D01*
X006774Y006369D01*
X006809Y006392D01*
X006846Y006412D01*
X006885Y006428D01*
X006925Y006441D01*
X006966Y006450D01*
X007008Y006455D01*
X007051Y006456D01*
X007093Y006453D01*
X007134Y006446D01*
X007175Y006435D01*
X007215Y006421D01*
X007253Y006403D01*
X007289Y006381D01*
X007323Y006356D01*
X007354Y006328D01*
X007383Y006297D01*
X007409Y006264D01*
X007431Y006228D01*
X007451Y006190D01*
X007466Y006151D01*
X007478Y006111D01*
X007486Y006069D01*
X007490Y006027D01*
X007490Y005985D01*
X007486Y005943D01*
X007478Y005901D01*
X007466Y005861D01*
X007451Y005822D01*
X007431Y005784D01*
X007409Y005748D01*
X007383Y005715D01*
X007354Y005684D01*
X007323Y005656D01*
X007289Y005631D01*
X007253Y005609D01*
X007215Y005591D01*
X007175Y005577D01*
X007134Y005566D01*
X007093Y005559D01*
X007051Y005556D01*
X007008Y005557D01*
X006966Y005562D01*
X006925Y005571D01*
X006885Y005584D01*
X006846Y005600D01*
X006809Y005620D01*
X006774Y005643D01*
X006741Y005670D01*
X006711Y005699D01*
X006684Y005731D01*
X006659Y005766D01*
X006639Y005803D01*
X006621Y005841D01*
X006608Y005881D01*
X006598Y005922D01*
X006592Y005964D01*
X006590Y006006D01*
X014464Y006006D02*
X014466Y006048D01*
X014472Y006090D01*
X014482Y006131D01*
X014495Y006171D01*
X014513Y006209D01*
X014533Y006246D01*
X014558Y006281D01*
X014585Y006313D01*
X014615Y006342D01*
X014648Y006369D01*
X014683Y006392D01*
X014720Y006412D01*
X014759Y006428D01*
X014799Y006441D01*
X014840Y006450D01*
X014882Y006455D01*
X014925Y006456D01*
X014967Y006453D01*
X015008Y006446D01*
X015049Y006435D01*
X015089Y006421D01*
X015127Y006403D01*
X015163Y006381D01*
X015197Y006356D01*
X015228Y006328D01*
X015257Y006297D01*
X015283Y006264D01*
X015305Y006228D01*
X015325Y006190D01*
X015340Y006151D01*
X015352Y006111D01*
X015360Y006069D01*
X015364Y006027D01*
X015364Y005985D01*
X015360Y005943D01*
X015352Y005901D01*
X015340Y005861D01*
X015325Y005822D01*
X015305Y005784D01*
X015283Y005748D01*
X015257Y005715D01*
X015228Y005684D01*
X015197Y005656D01*
X015163Y005631D01*
X015127Y005609D01*
X015089Y005591D01*
X015049Y005577D01*
X015008Y005566D01*
X014967Y005559D01*
X014925Y005556D01*
X014882Y005557D01*
X014840Y005562D01*
X014799Y005571D01*
X014759Y005584D01*
X014720Y005600D01*
X014683Y005620D01*
X014648Y005643D01*
X014615Y005670D01*
X014585Y005699D01*
X014558Y005731D01*
X014533Y005766D01*
X014513Y005803D01*
X014495Y005841D01*
X014482Y005881D01*
X014472Y005922D01*
X014466Y005964D01*
X014464Y006006D01*
X005174Y013846D02*
X002300Y013846D01*
X002300Y016120D01*
X005174Y016120D01*
X005174Y013846D01*
X020634Y015940D02*
X020636Y015975D01*
X020642Y016010D01*
X020652Y016044D01*
X020665Y016077D01*
X020682Y016108D01*
X020703Y016137D01*
X020727Y016163D01*
X020753Y016187D01*
X020782Y016208D01*
X020813Y016225D01*
X020846Y016238D01*
X020880Y016248D01*
X020915Y016254D01*
X020950Y016256D01*
X020985Y016254D01*
X021020Y016248D01*
X021054Y016238D01*
X021087Y016225D01*
X021118Y016208D01*
X021147Y016187D01*
X021173Y016163D01*
X021197Y016137D01*
X021218Y016108D01*
X021235Y016077D01*
X021248Y016044D01*
X021258Y016010D01*
X021264Y015975D01*
X021266Y015940D01*
X021264Y015905D01*
X021258Y015870D01*
X021248Y015836D01*
X021235Y015803D01*
X021218Y015772D01*
X021197Y015743D01*
X021173Y015717D01*
X021147Y015693D01*
X021118Y015672D01*
X021087Y015655D01*
X021054Y015642D01*
X021020Y015632D01*
X020985Y015626D01*
X020950Y015624D01*
X020915Y015626D01*
X020880Y015632D01*
X020846Y015642D01*
X020813Y015655D01*
X020782Y015672D01*
X020753Y015693D01*
X020727Y015717D01*
X020703Y015743D01*
X020682Y015772D01*
X020665Y015803D01*
X020652Y015836D01*
X020642Y015870D01*
X020636Y015905D01*
X020634Y015940D01*
D15*
X007864Y008999D02*
X007864Y008899D01*
X007864Y008949D02*
X007714Y008949D01*
X007764Y008899D01*
X002206Y005924D02*
X002206Y005794D01*
X002141Y005729D01*
X002141Y005621D02*
X002206Y005556D01*
X002206Y005426D01*
X002141Y005361D01*
X001881Y005361D01*
X001816Y005426D01*
X001816Y005556D01*
X001881Y005621D01*
X001816Y005729D02*
X002011Y005729D01*
X001946Y005859D01*
X001946Y005924D01*
X002011Y005989D01*
X002141Y005989D01*
X002206Y005924D01*
X001816Y005989D02*
X001816Y005729D01*
X001230Y002993D02*
X001035Y002798D01*
X001295Y002798D01*
X001230Y002603D02*
X001230Y002993D01*
X000927Y002928D02*
X000862Y002993D01*
X000732Y002993D01*
X000667Y002928D01*
X000667Y002668D01*
X000732Y002603D01*
X000862Y002603D01*
X000927Y002668D01*
D16*
X001430Y007120D02*
X003391Y007120D01*
X003391Y010120D01*
X001430Y010120D01*
X001430Y007120D01*
X001110Y009420D02*
X001310Y009620D01*
X001110Y009820D01*
X001110Y009420D01*
X001110Y009461D02*
X001151Y009461D01*
X001110Y009509D02*
X001199Y009509D01*
X001248Y009558D02*
X001110Y009558D01*
X001110Y009606D02*
X001296Y009606D01*
X001275Y009655D02*
X001110Y009655D01*
X001110Y009703D02*
X001227Y009703D01*
X001178Y009752D02*
X001110Y009752D01*
X001110Y009800D02*
X001130Y009800D01*
X006370Y009809D02*
X006370Y009868D01*
X006370Y010065D02*
X006370Y010183D01*
X007355Y010183D01*
X007355Y010065D01*
X007355Y009868D02*
X007355Y009809D01*
X007355Y009612D02*
X007355Y009553D01*
X007355Y009356D02*
X007355Y009297D01*
X007355Y009080D02*
X007355Y009002D01*
X006370Y009002D01*
X006370Y009080D01*
X006370Y009297D02*
X006370Y009356D01*
X006370Y009553D02*
X006370Y009612D01*
X018710Y010220D02*
X020910Y010220D01*
X020910Y013720D01*
X018710Y013720D01*
X018710Y010220D01*
X021210Y013020D02*
X021210Y013420D01*
X021010Y013220D01*
X021210Y013020D01*
X021210Y013050D02*
X021180Y013050D01*
X021210Y013098D02*
X021132Y013098D01*
X021083Y013147D02*
X021210Y013147D01*
X021210Y013195D02*
X021035Y013195D01*
X021034Y013244D02*
X021210Y013244D01*
X021210Y013292D02*
X021082Y013292D01*
X021131Y013341D02*
X021210Y013341D01*
X021210Y013389D02*
X021179Y013389D01*
D17*
X007040Y009198D03*
M02*
