G75*
G70*
%OFA0B0*%
%FSLAX24Y24*%
%IPPOS*%
%LPD*%
%AMOC8*
5,1,8,0,0,1.08239X$1,22.5*
%
%ADD10C,0.0000*%
%ADD11R,0.0165X0.0701*%
%ADD12R,0.0236X0.0866*%
%ADD13R,0.0394X0.0433*%
%ADD14R,0.0433X0.0394*%
%ADD15R,0.0197X0.0551*%
%ADD16C,0.0148*%
%ADD17R,0.0197X0.0846*%
%ADD18R,0.0551X0.0197*%
%ADD19R,0.0354X0.0276*%
%ADD20R,0.0276X0.0354*%
%ADD21C,0.0374*%
%ADD22C,0.0433*%
%ADD23C,0.0160*%
%ADD24C,0.0295*%
%ADD25C,0.0100*%
%ADD26C,0.0120*%
%ADD27C,0.0200*%
D10*
X000150Y000100D02*
X000150Y016832D01*
X021804Y016832D01*
X021804Y000100D01*
X000150Y000100D01*
X000735Y000980D02*
X000737Y001014D01*
X000743Y001048D01*
X000753Y001081D01*
X000766Y001112D01*
X000784Y001142D01*
X000804Y001170D01*
X000828Y001195D01*
X000854Y001217D01*
X000882Y001235D01*
X000913Y001251D01*
X000945Y001263D01*
X000979Y001271D01*
X001013Y001275D01*
X001047Y001275D01*
X001081Y001271D01*
X001115Y001263D01*
X001147Y001251D01*
X001177Y001235D01*
X001206Y001217D01*
X001232Y001195D01*
X001256Y001170D01*
X001276Y001142D01*
X001294Y001112D01*
X001307Y001081D01*
X001317Y001048D01*
X001323Y001014D01*
X001325Y000980D01*
X001323Y000946D01*
X001317Y000912D01*
X001307Y000879D01*
X001294Y000848D01*
X001276Y000818D01*
X001256Y000790D01*
X001232Y000765D01*
X001206Y000743D01*
X001178Y000725D01*
X001147Y000709D01*
X001115Y000697D01*
X001081Y000689D01*
X001047Y000685D01*
X001013Y000685D01*
X000979Y000689D01*
X000945Y000697D01*
X000913Y000709D01*
X000882Y000725D01*
X000854Y000743D01*
X000828Y000765D01*
X000804Y000790D01*
X000784Y000818D01*
X000766Y000848D01*
X000753Y000879D01*
X000743Y000912D01*
X000737Y000946D01*
X000735Y000980D01*
X006745Y006006D02*
X006747Y006040D01*
X006753Y006074D01*
X006763Y006107D01*
X006776Y006138D01*
X006794Y006168D01*
X006814Y006196D01*
X006838Y006221D01*
X006864Y006243D01*
X006892Y006261D01*
X006923Y006277D01*
X006955Y006289D01*
X006989Y006297D01*
X007023Y006301D01*
X007057Y006301D01*
X007091Y006297D01*
X007125Y006289D01*
X007157Y006277D01*
X007187Y006261D01*
X007216Y006243D01*
X007242Y006221D01*
X007266Y006196D01*
X007286Y006168D01*
X007304Y006138D01*
X007317Y006107D01*
X007327Y006074D01*
X007333Y006040D01*
X007335Y006006D01*
X007333Y005972D01*
X007327Y005938D01*
X007317Y005905D01*
X007304Y005874D01*
X007286Y005844D01*
X007266Y005816D01*
X007242Y005791D01*
X007216Y005769D01*
X007188Y005751D01*
X007157Y005735D01*
X007125Y005723D01*
X007091Y005715D01*
X007057Y005711D01*
X007023Y005711D01*
X006989Y005715D01*
X006955Y005723D01*
X006923Y005735D01*
X006892Y005751D01*
X006864Y005769D01*
X006838Y005791D01*
X006814Y005816D01*
X006794Y005844D01*
X006776Y005874D01*
X006763Y005905D01*
X006753Y005938D01*
X006747Y005972D01*
X006745Y006006D01*
X014619Y006006D02*
X014621Y006040D01*
X014627Y006074D01*
X014637Y006107D01*
X014650Y006138D01*
X014668Y006168D01*
X014688Y006196D01*
X014712Y006221D01*
X014738Y006243D01*
X014766Y006261D01*
X014797Y006277D01*
X014829Y006289D01*
X014863Y006297D01*
X014897Y006301D01*
X014931Y006301D01*
X014965Y006297D01*
X014999Y006289D01*
X015031Y006277D01*
X015061Y006261D01*
X015090Y006243D01*
X015116Y006221D01*
X015140Y006196D01*
X015160Y006168D01*
X015178Y006138D01*
X015191Y006107D01*
X015201Y006074D01*
X015207Y006040D01*
X015209Y006006D01*
X015207Y005972D01*
X015201Y005938D01*
X015191Y005905D01*
X015178Y005874D01*
X015160Y005844D01*
X015140Y005816D01*
X015116Y005791D01*
X015090Y005769D01*
X015062Y005751D01*
X015031Y005735D01*
X014999Y005723D01*
X014965Y005715D01*
X014931Y005711D01*
X014897Y005711D01*
X014863Y005715D01*
X014829Y005723D01*
X014797Y005735D01*
X014766Y005751D01*
X014738Y005769D01*
X014712Y005791D01*
X014688Y005816D01*
X014668Y005844D01*
X014650Y005874D01*
X014637Y005905D01*
X014627Y005938D01*
X014621Y005972D01*
X014619Y006006D01*
X020655Y015940D02*
X020657Y015974D01*
X020663Y016008D01*
X020673Y016041D01*
X020686Y016072D01*
X020704Y016102D01*
X020724Y016130D01*
X020748Y016155D01*
X020774Y016177D01*
X020802Y016195D01*
X020833Y016211D01*
X020865Y016223D01*
X020899Y016231D01*
X020933Y016235D01*
X020967Y016235D01*
X021001Y016231D01*
X021035Y016223D01*
X021067Y016211D01*
X021097Y016195D01*
X021126Y016177D01*
X021152Y016155D01*
X021176Y016130D01*
X021196Y016102D01*
X021214Y016072D01*
X021227Y016041D01*
X021237Y016008D01*
X021243Y015974D01*
X021245Y015940D01*
X021243Y015906D01*
X021237Y015872D01*
X021227Y015839D01*
X021214Y015808D01*
X021196Y015778D01*
X021176Y015750D01*
X021152Y015725D01*
X021126Y015703D01*
X021098Y015685D01*
X021067Y015669D01*
X021035Y015657D01*
X021001Y015649D01*
X020967Y015645D01*
X020933Y015645D01*
X020899Y015649D01*
X020865Y015657D01*
X020833Y015669D01*
X020802Y015685D01*
X020774Y015703D01*
X020748Y015725D01*
X020724Y015750D01*
X020704Y015778D01*
X020686Y015808D01*
X020673Y015839D01*
X020663Y015872D01*
X020657Y015906D01*
X020655Y015940D01*
D11*
X020569Y009250D03*
X020319Y009250D03*
X020069Y009250D03*
X019819Y009250D03*
X019569Y009250D03*
X019313Y009250D03*
X019063Y009250D03*
X018813Y009250D03*
X018563Y009250D03*
X018313Y009250D03*
X018313Y006911D03*
X018563Y006911D03*
X018813Y006911D03*
X019063Y006911D03*
X019313Y006911D03*
X019569Y006911D03*
X019819Y006911D03*
X020069Y006911D03*
X020319Y006911D03*
X020569Y006911D03*
D12*
X020408Y004324D03*
X019908Y004324D03*
X019408Y004324D03*
X018908Y004324D03*
X018408Y004324D03*
X017908Y004324D03*
X017408Y004324D03*
X017408Y002435D03*
X017908Y002435D03*
X018408Y002435D03*
X018908Y002435D03*
X019408Y002435D03*
X019908Y002435D03*
X020408Y002435D03*
X020908Y002435D03*
X020908Y004324D03*
D13*
X021099Y007687D03*
X021099Y008356D03*
D14*
X017937Y001600D03*
X017268Y001600D03*
X004642Y012592D03*
X004642Y013261D03*
X002831Y013281D03*
X002831Y012612D03*
D15*
X009559Y008137D03*
X009874Y008137D03*
X010189Y008137D03*
X010504Y008137D03*
X010819Y008137D03*
X011134Y008137D03*
X011449Y008137D03*
X011764Y008137D03*
X012079Y008137D03*
X012394Y008137D03*
X012394Y003874D03*
X012079Y003874D03*
X011764Y003874D03*
X011449Y003874D03*
X011134Y003874D03*
X010504Y003874D03*
X010189Y003874D03*
X009874Y003874D03*
X009559Y003874D03*
D16*
X009268Y003673D02*
X009220Y003673D01*
X009220Y004075D01*
X009268Y004075D01*
X009268Y003673D01*
X009268Y003820D02*
X009220Y003820D01*
X009220Y003967D02*
X009268Y003967D01*
X009046Y004249D02*
X008644Y004249D01*
X008644Y004297D01*
X009046Y004297D01*
X009046Y004249D01*
X012685Y003673D02*
X012733Y003673D01*
X012685Y003673D02*
X012685Y004075D01*
X012733Y004075D01*
X012733Y003673D01*
X012733Y003820D02*
X012685Y003820D01*
X012685Y003967D02*
X012733Y003967D01*
X012908Y004249D02*
X013310Y004249D01*
X012908Y004249D02*
X012908Y004297D01*
X013310Y004297D01*
X013310Y004249D01*
X013310Y007714D02*
X012908Y007714D01*
X012908Y007762D01*
X013310Y007762D01*
X013310Y007714D01*
X012733Y007936D02*
X012685Y007936D01*
X012685Y008338D01*
X012733Y008338D01*
X012733Y007936D01*
X012733Y008083D02*
X012685Y008083D01*
X012685Y008230D02*
X012733Y008230D01*
X009268Y007936D02*
X009220Y007936D01*
X009220Y008338D01*
X009268Y008338D01*
X009268Y007936D01*
X009268Y008083D02*
X009220Y008083D01*
X009220Y008230D02*
X009268Y008230D01*
X009046Y007714D02*
X008644Y007714D01*
X008644Y007762D01*
X009046Y007762D01*
X009046Y007714D01*
D17*
X010819Y004021D03*
D18*
X008845Y004588D03*
X008845Y004903D03*
X008845Y005218D03*
X008845Y005533D03*
X008845Y005848D03*
X008845Y006163D03*
X008845Y006478D03*
X008845Y006793D03*
X008845Y007108D03*
X008845Y007423D03*
X013109Y007423D03*
X013109Y007108D03*
X013109Y006793D03*
X013109Y006478D03*
X013109Y006163D03*
X013109Y005848D03*
X013109Y005533D03*
X013109Y005218D03*
X013109Y004903D03*
X013109Y004588D03*
D19*
X014914Y004214D03*
X014914Y003702D03*
X015504Y003702D03*
X015504Y004214D03*
X013681Y002013D03*
X013681Y001502D03*
X012949Y001502D03*
X012949Y002013D03*
X007158Y003781D03*
X007158Y004293D03*
X006567Y004293D03*
X006567Y003781D03*
X006646Y008033D03*
X007158Y008033D03*
X007158Y008545D03*
X006646Y008545D03*
X014914Y008072D03*
X014914Y007561D03*
X015504Y007561D03*
X015504Y008072D03*
D20*
X010485Y009864D03*
X009973Y009864D03*
X009973Y010454D03*
X010485Y010454D03*
X011154Y002069D03*
X011666Y002069D03*
X011666Y001478D03*
X011154Y001478D03*
D21*
X003097Y007620D02*
X002723Y007620D01*
X002723Y008120D02*
X003097Y008120D01*
X003097Y008620D02*
X002723Y008620D01*
X002723Y009120D02*
X003097Y009120D01*
X003097Y009620D02*
X002723Y009620D01*
X002097Y009620D02*
X001723Y009620D01*
X001723Y009120D02*
X002097Y009120D01*
X002097Y008620D02*
X001723Y008620D01*
X001723Y008120D02*
X002097Y008120D01*
X002097Y007620D02*
X001723Y007620D01*
X019123Y010720D02*
X019497Y010720D01*
X019497Y011220D02*
X019123Y011220D01*
X019123Y011720D02*
X019497Y011720D01*
X019497Y012220D02*
X019123Y012220D01*
X019123Y012720D02*
X019497Y012720D01*
X019497Y013220D02*
X019123Y013220D01*
X020123Y013220D02*
X020497Y013220D01*
X020497Y012720D02*
X020123Y012720D01*
X020123Y012220D02*
X020497Y012220D01*
X020497Y011720D02*
X020123Y011720D01*
X020123Y011220D02*
X020497Y011220D01*
X020497Y010720D02*
X020123Y010720D01*
D22*
X004622Y014348D03*
X004032Y014348D03*
X003441Y014348D03*
X002851Y014348D03*
D23*
X020310Y013220D02*
X020987Y013220D01*
X021174Y013407D01*
X021174Y013988D01*
X021110Y014172D01*
X021174Y014194D01*
X021110Y014172D01*
X021174Y013988D01*
X021238Y014172D01*
X021174Y014194D01*
X021238Y014172D01*
X021174Y013988D01*
X021110Y014172D01*
X021174Y014194D01*
X021174Y013988D01*
X021174Y013988D01*
X021238Y014172D01*
X021238Y014172D01*
X021174Y013988D01*
X021110Y014172D01*
X021110Y014172D01*
X021174Y013988D02*
X021174Y013988D01*
D24*
X021174Y014194D03*
X019678Y015139D03*
X016764Y013486D03*
X014796Y014903D03*
X012512Y015376D03*
X008260Y013092D03*
X005741Y013171D03*
X007867Y010809D03*
X006528Y010494D03*
X005741Y010494D03*
X003693Y008131D03*
X004481Y007620D03*
X003772Y007187D03*
X005189Y007029D03*
X006056Y007344D03*
X005898Y007738D03*
X007867Y006084D03*
X007945Y005612D03*
X006843Y005218D03*
X006489Y004903D03*
X006370Y005376D03*
X008575Y002541D03*
X009048Y000887D03*
X009559Y000612D03*
X009874Y000887D03*
X010189Y000612D03*
X010780Y002620D03*
X011134Y003013D03*
X011882Y002738D03*
X012473Y003013D03*
X014481Y003092D03*
X014087Y004903D03*
X014481Y004982D03*
X013930Y005533D03*
X014166Y006478D03*
X014402Y007502D03*
X015032Y009076D03*
X016685Y009076D03*
X018260Y010100D03*
X018575Y010730D03*
X016685Y007580D03*
X017394Y006872D03*
X017867Y006242D03*
X017867Y005848D03*
X018496Y005612D03*
X019048Y005612D03*
X019520Y005612D03*
X020071Y005612D03*
X020544Y005612D03*
X021016Y005612D03*
X017906Y003446D03*
X019914Y001675D03*
X019126Y001045D03*
X011725Y010021D03*
X011331Y011517D03*
X002276Y011911D03*
X001252Y011360D03*
X001252Y013013D03*
X001095Y006242D03*
X005662Y001124D03*
X007000Y000887D03*
D25*
X005965Y000497D02*
X009327Y000497D01*
X009301Y000560D01*
X009301Y000663D01*
X009302Y000667D01*
X009300Y000675D01*
X009300Y000675D01*
X009300Y000675D01*
X009300Y000675D01*
X009300Y000675D01*
X009300Y000675D01*
X009312Y000698D01*
X009312Y000725D01*
X009336Y000748D01*
X009340Y000758D01*
X009350Y000768D01*
X009376Y000816D01*
X009398Y000859D01*
X009398Y000885D01*
X009398Y000885D01*
X009398Y001010D01*
X009355Y000967D01*
X009336Y000948D01*
X009315Y000876D01*
X009306Y000849D01*
X009306Y000836D01*
X009292Y000800D01*
X009276Y000749D01*
X009276Y000749D01*
X009276Y000749D01*
X009269Y000745D01*
X009267Y000741D01*
X009194Y000668D01*
X009099Y000629D01*
X008996Y000629D01*
X008901Y000668D01*
X008828Y000741D01*
X008789Y000836D01*
X008789Y000939D01*
X008828Y001034D01*
X008901Y001107D01*
X008905Y001108D01*
X008909Y001116D01*
X008909Y001116D01*
X008961Y001131D01*
X008996Y001146D01*
X009009Y001146D01*
X009037Y001154D01*
X009083Y001168D01*
X009083Y003547D01*
X009035Y003595D01*
X009035Y003956D01*
X008956Y003956D01*
X008927Y003985D01*
X008927Y004046D01*
X008845Y004046D01*
X008845Y004273D01*
X008845Y004273D01*
X008845Y004046D01*
X008616Y004046D01*
X008565Y004060D01*
X008519Y004087D01*
X008481Y004124D01*
X008454Y004170D01*
X008441Y004222D01*
X008441Y004273D01*
X008845Y004273D01*
X008845Y004273D01*
X008441Y004273D01*
X008441Y004325D01*
X008454Y004376D01*
X008481Y004421D01*
X008475Y004427D01*
X007446Y004427D01*
X007446Y004109D01*
X007381Y004044D01*
X007365Y004044D01*
X007385Y004039D01*
X007414Y004022D01*
X007438Y003998D01*
X007455Y003969D01*
X007464Y003936D01*
X007464Y003800D01*
X007177Y003800D01*
X007177Y003762D01*
X007464Y003762D01*
X007464Y003626D01*
X007455Y003594D01*
X007438Y003564D01*
X007414Y003540D01*
X007385Y003523D01*
X007352Y003515D01*
X007177Y003515D01*
X007177Y003762D01*
X007139Y003762D01*
X007139Y003515D01*
X006964Y003515D01*
X006931Y003523D01*
X006902Y003540D01*
X006878Y003564D01*
X006863Y003590D01*
X006848Y003564D01*
X006824Y003540D01*
X006794Y003523D01*
X006761Y003515D01*
X006586Y003515D01*
X006586Y003762D01*
X006548Y003762D01*
X006261Y003762D01*
X006261Y003626D01*
X006270Y003594D01*
X006287Y003564D01*
X006311Y003540D01*
X006340Y003523D01*
X006373Y003515D01*
X006548Y003515D01*
X006548Y003762D01*
X006548Y003800D01*
X006261Y003800D01*
X006261Y003936D01*
X006270Y003969D01*
X006287Y003998D01*
X006311Y004022D01*
X006340Y004039D01*
X006360Y004044D01*
X006344Y004044D01*
X006279Y004109D01*
X006279Y004427D01*
X005823Y004427D01*
X005823Y001371D01*
X005864Y001295D01*
X005872Y001279D01*
X005881Y001270D01*
X005885Y001260D01*
X005909Y001236D01*
X005909Y001210D01*
X005913Y001203D01*
X005921Y001187D01*
X005921Y001187D01*
X005921Y001187D01*
X005921Y001187D01*
X005919Y001179D01*
X005920Y001175D01*
X005920Y001072D01*
X005919Y001068D01*
X005920Y001063D01*
X005921Y001060D01*
X005921Y001060D01*
X005915Y001049D01*
X005909Y001037D01*
X005909Y001011D01*
X005885Y000987D01*
X005881Y000977D01*
X005872Y000968D01*
X005869Y000963D01*
X005840Y000908D01*
X005823Y000876D01*
X005823Y000639D01*
X005965Y000497D01*
X005869Y000593D02*
X009301Y000593D01*
X009308Y000691D02*
X009217Y000691D01*
X009288Y000790D02*
X009361Y000790D01*
X009398Y000888D02*
X009318Y000888D01*
X009374Y000987D02*
X009398Y000987D01*
X009244Y001084D02*
X009194Y001034D01*
X009141Y000859D01*
X009048Y000887D01*
X009019Y000981D01*
X009194Y001034D01*
X009048Y000887D01*
X008808Y000790D02*
X005823Y000790D01*
X005829Y000888D02*
X008789Y000888D01*
X008809Y000987D02*
X005885Y000987D01*
X005921Y001060D02*
X005921Y001060D01*
X005921Y001060D01*
X005921Y001060D01*
X005921Y001060D01*
X005920Y001085D02*
X008879Y001085D01*
X008909Y001116D02*
X008909Y001116D01*
X009083Y001184D02*
X005920Y001184D01*
X005870Y001282D02*
X009083Y001282D01*
X009083Y001381D02*
X005823Y001381D01*
X005823Y001479D02*
X009083Y001479D01*
X009083Y001578D02*
X005823Y001578D01*
X005823Y001676D02*
X009083Y001676D01*
X009083Y001775D02*
X005823Y001775D01*
X005823Y001873D02*
X009083Y001873D01*
X009083Y001972D02*
X005823Y001972D01*
X005823Y002070D02*
X009083Y002070D01*
X009083Y002169D02*
X005823Y002169D01*
X005823Y002267D02*
X009083Y002267D01*
X009083Y002366D02*
X005823Y002366D01*
X005823Y002464D02*
X009083Y002464D01*
X009083Y002563D02*
X005823Y002563D01*
X005823Y002661D02*
X009083Y002661D01*
X009083Y002760D02*
X005823Y002760D01*
X005823Y002858D02*
X009083Y002858D01*
X009083Y002957D02*
X005823Y002957D01*
X005823Y003055D02*
X009083Y003055D01*
X009083Y003154D02*
X005823Y003154D01*
X005823Y003252D02*
X009083Y003252D01*
X009083Y003351D02*
X005823Y003351D01*
X005823Y003449D02*
X009083Y003449D01*
X009083Y003548D02*
X007421Y003548D01*
X007464Y003646D02*
X009035Y003646D01*
X009035Y003745D02*
X007464Y003745D01*
X007464Y003843D02*
X009035Y003843D01*
X009035Y003942D02*
X007462Y003942D01*
X007380Y004040D02*
X008927Y004040D01*
X008845Y004139D02*
X008845Y004139D01*
X008845Y004237D02*
X008845Y004237D01*
X008845Y004588D02*
X007158Y004588D01*
X007158Y004293D01*
X007446Y004336D02*
X008444Y004336D01*
X008441Y004237D02*
X007446Y004237D01*
X007446Y004139D02*
X008473Y004139D01*
X009244Y003874D02*
X009244Y001084D01*
X009559Y000819D02*
X009646Y000658D01*
X009559Y000612D01*
X009473Y000658D01*
X009559Y000819D01*
X009646Y000658D01*
X009559Y000612D01*
X009473Y000658D01*
X009559Y000819D01*
X009559Y000819D01*
X009559Y000819D01*
X009559Y000819D01*
X009559Y003874D01*
X009874Y003874D02*
X009874Y001094D01*
X009960Y000934D01*
X009874Y000887D01*
X009788Y000934D01*
X009874Y000887D01*
X009960Y000934D01*
X009874Y001094D01*
X009788Y000934D01*
X009874Y001094D01*
X009874Y001094D01*
X009788Y000934D01*
X009788Y000934D01*
X009874Y001094D01*
X009874Y001094D01*
X009788Y000934D01*
X009788Y000934D01*
X009874Y000887D01*
X009960Y000934D01*
X009960Y000934D01*
X009874Y001094D01*
X009960Y000934D01*
X009960Y000934D01*
X009874Y000887D02*
X009874Y001094D01*
X009874Y001094D01*
X009559Y000819D02*
X009646Y000658D01*
X009646Y000658D01*
X009559Y000819D01*
X009473Y000658D01*
X009559Y000612D01*
X009646Y000658D01*
X009646Y000658D01*
X009559Y000612D02*
X009559Y000819D01*
X009473Y000658D01*
X009473Y000658D01*
X009473Y000658D01*
X009559Y000819D01*
X010103Y000658D02*
X010189Y000612D01*
X010275Y000658D01*
X010189Y000819D01*
X010103Y000658D01*
X010189Y000612D01*
X010275Y000658D01*
X010275Y000658D01*
X010189Y000819D01*
X010189Y000819D01*
X010103Y000658D01*
X010189Y000612D01*
X010275Y000658D01*
X010189Y000819D01*
X010103Y000658D01*
X010103Y000658D01*
X010103Y000658D01*
X010189Y000819D01*
X010189Y000819D01*
X010189Y000819D01*
X010189Y003874D01*
X010504Y003874D02*
X010504Y002187D01*
X010622Y002069D01*
X010859Y002069D01*
X010859Y002305D01*
X010937Y002383D01*
X011174Y002383D01*
X011449Y002659D01*
X011449Y003874D01*
X011764Y003874D02*
X011764Y003874D01*
X011764Y003469D01*
X011649Y003469D01*
X011616Y003478D01*
X011610Y003481D01*
X011610Y002592D01*
X011516Y002498D01*
X011516Y002498D01*
X011356Y002338D01*
X011403Y002292D01*
X011403Y002276D01*
X011408Y002295D01*
X011425Y002325D01*
X011449Y002349D01*
X011478Y002366D01*
X011511Y002374D01*
X011647Y002374D01*
X011647Y002087D01*
X011685Y002087D01*
X011932Y002087D01*
X011932Y002263D01*
X011924Y002295D01*
X011907Y002325D01*
X011883Y002349D01*
X011853Y002366D01*
X011820Y002374D01*
X011685Y002374D01*
X011685Y002087D01*
X011685Y002050D01*
X011932Y002050D01*
X011932Y001874D01*
X011924Y001842D01*
X011907Y001812D01*
X011883Y001788D01*
X011856Y001773D01*
X011883Y001758D01*
X011907Y001734D01*
X011924Y001705D01*
X011932Y001672D01*
X011932Y001497D01*
X011685Y001497D01*
X011685Y001459D01*
X011932Y001459D01*
X011932Y001284D01*
X011924Y001251D01*
X011907Y001222D01*
X011883Y001198D01*
X011853Y001181D01*
X011820Y001172D01*
X011685Y001172D01*
X011685Y001459D01*
X011647Y001459D01*
X011647Y001172D01*
X011511Y001172D01*
X011478Y001181D01*
X011449Y001198D01*
X011425Y001222D01*
X011408Y001251D01*
X011403Y001271D01*
X011403Y001255D01*
X011338Y001190D01*
X011020Y001190D01*
X011020Y000348D01*
X010999Y000327D01*
X021576Y000327D01*
X021576Y001771D01*
X021555Y001750D01*
X021398Y001593D01*
X020477Y001593D01*
X020383Y001687D01*
X020247Y001823D01*
X020247Y001891D01*
X020244Y001891D01*
X020179Y001956D01*
X020179Y002914D01*
X020244Y002979D01*
X020572Y002979D01*
X020637Y002914D01*
X020637Y001956D01*
X020603Y001922D01*
X020610Y001915D01*
X020720Y001915D01*
X020679Y001956D01*
X020679Y002914D01*
X020744Y002979D01*
X020747Y002979D01*
X020747Y003208D01*
X021091Y003553D01*
X021091Y003780D01*
X021076Y003771D01*
X021043Y003763D01*
X020917Y003763D01*
X020917Y004315D01*
X020899Y004315D01*
X020899Y003763D01*
X020773Y003763D01*
X020740Y003771D01*
X020711Y003788D01*
X020687Y003812D01*
X020670Y003842D01*
X020661Y003874D01*
X020661Y004315D01*
X020899Y004315D01*
X020899Y004333D01*
X020661Y004333D01*
X020661Y004774D01*
X020670Y004807D01*
X020687Y004837D01*
X020711Y004860D01*
X020740Y004877D01*
X020773Y004886D01*
X020899Y004886D01*
X020899Y004333D01*
X020917Y004333D01*
X020917Y004886D01*
X021042Y004886D01*
X021028Y004900D01*
X019069Y004900D01*
X019069Y004869D01*
X019072Y004869D01*
X019137Y004803D01*
X019137Y003845D01*
X019072Y003780D01*
X018744Y003780D01*
X018679Y003845D01*
X018679Y004803D01*
X018744Y004869D01*
X018747Y004869D01*
X018747Y005066D01*
X018816Y005136D01*
X018091Y005136D01*
X018069Y005114D01*
X018069Y004869D01*
X018072Y004869D01*
X018137Y004803D01*
X018137Y003845D01*
X018072Y003780D01*
X018069Y003780D01*
X018069Y003693D01*
X018117Y003601D01*
X018125Y003593D01*
X018140Y003556D01*
X018165Y003509D01*
X018166Y003507D01*
X018165Y003503D01*
X018164Y003500D01*
X018165Y003498D01*
X018165Y003395D01*
X018125Y003300D01*
X018052Y003227D01*
X017957Y003188D01*
X017854Y003188D01*
X017759Y003227D01*
X017687Y003300D01*
X017647Y003395D01*
X017647Y003498D01*
X017650Y003504D01*
X017647Y003512D01*
X017672Y003558D01*
X017687Y003593D01*
X017697Y003603D01*
X017711Y003629D01*
X017711Y003629D01*
X017747Y003694D01*
X017747Y003780D01*
X017744Y003780D01*
X017679Y003845D01*
X017679Y004803D01*
X017744Y004869D01*
X017747Y004869D01*
X017747Y005247D01*
X017841Y005342D01*
X017863Y005364D01*
X017957Y005458D01*
X018285Y005458D01*
X018277Y005465D01*
X018238Y005560D01*
X018238Y005663D01*
X018248Y005687D01*
X018140Y005687D01*
X018140Y005687D01*
X018114Y005687D01*
X018022Y005638D01*
X018013Y005629D01*
X018003Y005625D01*
X017979Y005601D01*
X017953Y005601D01*
X017930Y005589D01*
X017930Y005589D01*
X017930Y005589D01*
X017930Y005589D01*
X017930Y005589D01*
X017930Y005589D01*
X017930Y005589D01*
X017922Y005591D01*
X017918Y005589D01*
X017815Y005589D01*
X017720Y005629D01*
X017647Y005702D01*
X017608Y005797D01*
X017608Y005899D01*
X017647Y005995D01*
X017698Y006045D01*
X017647Y006095D01*
X017608Y006190D01*
X017608Y006293D01*
X017647Y006388D01*
X017720Y006461D01*
X017815Y006500D01*
X017918Y006500D01*
X017922Y006499D01*
X017930Y006501D01*
X017930Y006501D01*
X017930Y006501D01*
X017930Y006501D01*
X017930Y006501D01*
X017930Y006501D01*
X017930Y006501D01*
X017930Y006501D01*
X017932Y006500D01*
X017953Y006489D01*
X017979Y006489D01*
X018003Y006465D01*
X018013Y006461D01*
X018022Y006452D01*
X018029Y006448D01*
X018114Y006403D01*
X018272Y006403D01*
X018301Y006432D01*
X018214Y006432D01*
X018181Y006441D01*
X018152Y006458D01*
X018128Y006482D01*
X018111Y006511D01*
X018102Y006544D01*
X018102Y006911D01*
X018313Y006911D01*
X018313Y006911D01*
X018102Y006911D01*
X018102Y007278D01*
X018111Y007311D01*
X018128Y007340D01*
X018152Y007364D01*
X018181Y007381D01*
X018214Y007390D01*
X018313Y007390D01*
X018313Y006911D01*
X018313Y006911D01*
X018313Y007390D01*
X018413Y007390D01*
X018446Y007381D01*
X018461Y007372D01*
X020421Y007372D01*
X020437Y007381D01*
X020470Y007390D01*
X020569Y007390D01*
X020569Y006911D01*
X020569Y006911D01*
X020569Y006432D01*
X020503Y006432D01*
X021016Y005918D01*
X021136Y005842D01*
X021163Y005831D01*
X021179Y005815D01*
X021211Y005794D01*
X021211Y005794D01*
X021211Y005794D01*
X021215Y005779D01*
X021235Y005758D01*
X021275Y005663D01*
X021275Y005560D01*
X021235Y005465D01*
X021228Y005458D01*
X021319Y005458D01*
X021413Y005364D01*
X021576Y005201D01*
X021576Y009745D01*
X021571Y009736D01*
X021571Y009718D01*
X021535Y009682D01*
X021507Y009640D01*
X021489Y009637D01*
X021477Y009624D01*
X021426Y009624D01*
X021376Y009614D01*
X021361Y009624D01*
X020763Y009624D01*
X020763Y008922D01*
X021004Y008922D01*
X021098Y008828D01*
X021243Y008683D01*
X021342Y008683D01*
X021407Y008618D01*
X021407Y008093D01*
X021342Y008028D01*
X021326Y008028D01*
X021345Y008023D01*
X021375Y008006D01*
X021399Y007982D01*
X021416Y007953D01*
X021424Y007920D01*
X021424Y007735D01*
X021147Y007735D01*
X021147Y007638D01*
X021147Y007341D01*
X021313Y007341D01*
X021345Y007350D01*
X021375Y007367D01*
X021399Y007391D01*
X021416Y007420D01*
X021424Y007453D01*
X021424Y007638D01*
X021147Y007638D01*
X021050Y007638D01*
X020773Y007638D01*
X020773Y007453D01*
X020782Y007420D01*
X020799Y007391D01*
X020823Y007367D01*
X020852Y007350D01*
X020885Y007341D01*
X021050Y007341D01*
X021050Y007638D01*
X021050Y007735D01*
X020773Y007735D01*
X020773Y007920D01*
X020782Y007953D01*
X020799Y007982D01*
X020823Y008006D01*
X020852Y008023D01*
X020872Y008028D01*
X020856Y008028D01*
X020791Y008093D01*
X020791Y008600D01*
X020783Y008600D01*
X020783Y008222D01*
X020689Y008128D01*
X020453Y007892D01*
X017327Y007892D01*
X017233Y007986D01*
X017233Y007986D01*
X017012Y008207D01*
X016138Y008207D01*
X016138Y001820D01*
X016142Y001816D01*
X016197Y001761D01*
X016941Y001761D01*
X016941Y001843D01*
X017006Y001908D01*
X017226Y001908D01*
X017179Y001956D01*
X017179Y002914D01*
X017244Y002979D01*
X017572Y002979D01*
X017637Y002914D01*
X017637Y001956D01*
X017572Y001891D01*
X017569Y001891D01*
X017569Y001870D01*
X017596Y001843D01*
X017596Y001827D01*
X017601Y001847D01*
X017618Y001876D01*
X017642Y001900D01*
X017671Y001917D01*
X017688Y001921D01*
X017687Y001923D01*
X017670Y001952D01*
X017661Y001985D01*
X017661Y002426D01*
X017899Y002426D01*
X017899Y002444D01*
X017899Y002996D01*
X017773Y002996D01*
X017740Y002988D01*
X017711Y002971D01*
X017687Y002947D01*
X017670Y002917D01*
X017661Y002885D01*
X017661Y002444D01*
X017899Y002444D01*
X017917Y002444D01*
X017917Y002996D01*
X018043Y002996D01*
X018076Y002988D01*
X018105Y002971D01*
X018129Y002947D01*
X018146Y002917D01*
X018155Y002885D01*
X018155Y002444D01*
X017917Y002444D01*
X017917Y002426D01*
X018155Y002426D01*
X018155Y001985D01*
X018146Y001952D01*
X018131Y001926D01*
X018171Y001926D01*
X018204Y001917D01*
X018233Y001900D01*
X018257Y001876D01*
X018274Y001847D01*
X018283Y001814D01*
X018283Y001648D01*
X017986Y001648D01*
X017986Y001552D01*
X018283Y001552D01*
X018283Y001386D01*
X018274Y001353D01*
X018257Y001324D01*
X018233Y001300D01*
X018204Y001283D01*
X018171Y001274D01*
X017986Y001274D01*
X017986Y001552D01*
X017889Y001552D01*
X017889Y001274D01*
X017704Y001274D01*
X017671Y001283D01*
X017642Y001300D01*
X017618Y001324D01*
X017601Y001353D01*
X017596Y001373D01*
X017596Y001357D01*
X017531Y001292D01*
X017006Y001292D01*
X016941Y001357D01*
X016941Y001439D01*
X016138Y001439D01*
X016138Y001096D01*
X016043Y001002D01*
X015925Y000884D01*
X012839Y000884D01*
X012745Y000978D01*
X012745Y001253D01*
X012726Y001253D01*
X012661Y001318D01*
X012661Y001685D01*
X012726Y001750D01*
X013172Y001750D01*
X013237Y001685D01*
X013237Y001318D01*
X013172Y001253D01*
X013067Y001253D01*
X013067Y001206D01*
X013520Y001206D01*
X013520Y001253D01*
X013458Y001253D01*
X013393Y001318D01*
X013393Y001685D01*
X013458Y001750D01*
X013905Y001750D01*
X013970Y001685D01*
X013970Y001318D01*
X013905Y001253D01*
X013843Y001253D01*
X013843Y001206D01*
X015792Y001206D01*
X015816Y001230D01*
X015816Y001623D01*
X015847Y001655D01*
X015816Y001687D01*
X015816Y004427D01*
X015763Y004427D01*
X015793Y004398D01*
X015793Y004030D01*
X015727Y003965D01*
X015712Y003965D01*
X015731Y003960D01*
X015761Y003943D01*
X015785Y003919D01*
X015801Y003890D01*
X015810Y003857D01*
X015810Y003721D01*
X015523Y003721D01*
X015523Y003683D01*
X015523Y003436D01*
X015698Y003436D01*
X015731Y003445D01*
X015761Y003462D01*
X015785Y003486D01*
X015801Y003515D01*
X015810Y003548D01*
X015810Y003683D01*
X015523Y003683D01*
X015485Y003683D01*
X015485Y003436D01*
X015310Y003436D01*
X015277Y003445D01*
X015248Y003462D01*
X015224Y003486D01*
X015209Y003512D01*
X015194Y003486D01*
X015170Y003462D01*
X015141Y003445D01*
X015108Y003436D01*
X014933Y003436D01*
X014933Y003683D01*
X014895Y003683D01*
X014895Y003436D01*
X014720Y003436D01*
X014687Y003445D01*
X014658Y003462D01*
X014634Y003486D01*
X014617Y003515D01*
X014608Y003548D01*
X014608Y003683D01*
X014895Y003683D01*
X014895Y003721D01*
X014608Y003721D01*
X014608Y003857D01*
X014617Y003890D01*
X014634Y003919D01*
X014658Y003943D01*
X014687Y003960D01*
X014706Y003965D01*
X014691Y003965D01*
X014626Y004030D01*
X014626Y004398D01*
X014655Y004427D01*
X013479Y004427D01*
X013461Y004409D01*
X013495Y004374D01*
X013495Y004172D01*
X013387Y004064D01*
X013027Y004064D01*
X013027Y003985D01*
X012997Y003956D01*
X012919Y003956D01*
X012919Y003595D01*
X012810Y003487D01*
X012660Y003487D01*
X013016Y003131D01*
X013110Y003037D01*
X013110Y002262D01*
X013172Y002262D01*
X013237Y002197D01*
X013237Y001830D01*
X013172Y001765D01*
X012726Y001765D01*
X012661Y001830D01*
X012661Y002197D01*
X012726Y002262D01*
X012788Y002262D01*
X012788Y002380D01*
X011973Y002380D01*
X011914Y002439D01*
X011779Y002501D01*
X011736Y002519D01*
X011732Y002522D01*
X011718Y002528D01*
X011714Y002530D01*
X011708Y002546D01*
X011663Y002591D01*
X011624Y002686D01*
X011624Y002789D01*
X011663Y002884D01*
X011736Y002957D01*
X011831Y002996D01*
X011934Y002996D01*
X012029Y002957D01*
X012102Y002884D01*
X012114Y002854D01*
X012127Y002844D01*
X012127Y002844D01*
X012127Y002844D01*
X012133Y002809D01*
X012141Y002789D01*
X012141Y002758D01*
X012150Y002702D01*
X012788Y002702D01*
X012788Y002903D01*
X012731Y002961D01*
X012692Y002867D01*
X012619Y002794D01*
X012524Y002755D01*
X012421Y002755D01*
X012326Y002794D01*
X012254Y002867D01*
X012252Y002871D01*
X012245Y002875D01*
X012245Y002875D01*
X012245Y002875D01*
X012229Y002926D01*
X012214Y002962D01*
X012214Y002975D01*
X012206Y003002D01*
X012206Y003002D01*
X012184Y003074D01*
X012166Y003093D01*
X011918Y003340D01*
X011918Y003481D01*
X011912Y003478D01*
X011880Y003469D01*
X011764Y003469D01*
X011764Y003874D01*
X011764Y003843D02*
X011764Y003843D01*
X011764Y003745D02*
X011764Y003745D01*
X011764Y003646D02*
X011764Y003646D01*
X011764Y003548D02*
X011764Y003548D01*
X011610Y003449D02*
X011918Y003449D01*
X011918Y003351D02*
X011610Y003351D01*
X011610Y003252D02*
X012006Y003252D01*
X012105Y003154D02*
X011610Y003154D01*
X011610Y003055D02*
X012190Y003055D01*
X012216Y002957D02*
X012029Y002957D01*
X012112Y002858D02*
X012262Y002858D01*
X012141Y002760D02*
X012410Y002760D01*
X012536Y002760D02*
X012788Y002760D01*
X012788Y002858D02*
X012683Y002858D01*
X012729Y002957D02*
X012735Y002957D01*
X012949Y002970D02*
X012949Y002541D01*
X012040Y002541D01*
X012007Y002573D01*
X011842Y002649D01*
X011882Y002738D01*
X011979Y002753D01*
X012007Y002573D01*
X011882Y002698D01*
X011882Y002738D01*
X011692Y002563D02*
X011580Y002563D01*
X011610Y002661D02*
X011634Y002661D01*
X011624Y002760D02*
X011610Y002760D01*
X011610Y002858D02*
X011652Y002858D01*
X011610Y002957D02*
X011735Y002957D01*
X011288Y002802D02*
X011288Y002726D01*
X011107Y002544D01*
X010871Y002544D01*
X010792Y002466D01*
X010698Y002371D01*
X010698Y002230D01*
X010689Y002230D01*
X010665Y002253D01*
X010665Y003481D01*
X010671Y003478D01*
X010704Y003469D01*
X010819Y003469D01*
X010819Y003956D01*
X010819Y003956D01*
X010819Y003469D01*
X010935Y003469D01*
X010967Y003478D01*
X010973Y003481D01*
X010973Y003287D01*
X010973Y003261D01*
X010948Y003214D01*
X010924Y003169D01*
X010915Y003160D01*
X010911Y003150D01*
X010887Y003126D01*
X010887Y003100D01*
X010875Y003077D01*
X010875Y003077D01*
X010875Y003077D01*
X010875Y003077D01*
X010875Y003077D01*
X010877Y003069D01*
X010876Y003065D01*
X010876Y002962D01*
X010915Y002867D01*
X010988Y002794D01*
X011083Y002755D01*
X011186Y002755D01*
X011281Y002794D01*
X011288Y002802D01*
X011288Y002760D02*
X011197Y002760D01*
X011223Y002661D02*
X010665Y002661D01*
X010665Y002563D02*
X011125Y002563D01*
X011071Y002760D02*
X010665Y002760D01*
X010665Y002858D02*
X010924Y002858D01*
X010878Y002957D02*
X010665Y002957D01*
X010665Y003055D02*
X010876Y003055D01*
X010875Y003077D02*
X010875Y003077D01*
X010912Y003154D02*
X010665Y003154D01*
X010665Y003252D02*
X010969Y003252D01*
X010973Y003287D02*
X010973Y003287D01*
X010973Y003351D02*
X010665Y003351D01*
X010665Y003449D02*
X010973Y003449D01*
X010819Y003548D02*
X010819Y003548D01*
X010819Y003646D02*
X010819Y003646D01*
X010819Y003745D02*
X010819Y003745D01*
X010819Y003843D02*
X010819Y003843D01*
X010819Y003942D02*
X010819Y003942D01*
X011134Y003874D02*
X011134Y003220D01*
X011220Y003060D01*
X011134Y003013D01*
X011048Y003060D01*
X011134Y003013D01*
X011220Y003060D01*
X011134Y003220D01*
X011048Y003060D01*
X011134Y003220D01*
X011134Y003220D01*
X011048Y003060D01*
X011048Y003060D01*
X011134Y003220D01*
X011134Y003220D01*
X011048Y003060D01*
X011048Y003060D01*
X011134Y003013D01*
X011220Y003060D01*
X011220Y003060D01*
X011134Y003220D01*
X011220Y003060D01*
X011220Y003060D01*
X011134Y003013D02*
X011134Y003220D01*
X011134Y003220D01*
X010790Y002464D02*
X010665Y002464D01*
X010665Y002366D02*
X010698Y002366D01*
X010698Y002267D02*
X010665Y002267D01*
X010859Y002069D02*
X011154Y002069D01*
X011174Y002088D01*
X010859Y002069D02*
X010859Y001478D01*
X010859Y000415D01*
X010780Y000336D01*
X005898Y000336D01*
X005662Y000572D01*
X005662Y000917D01*
X005662Y000917D01*
X005748Y001077D01*
X005662Y001124D01*
X005576Y001078D01*
X005662Y000917D01*
X005748Y001077D01*
X005662Y000917D01*
X005576Y001077D01*
X005662Y001124D01*
X005748Y001077D01*
X005748Y001077D01*
X005662Y000917D01*
X005662Y001124D01*
X005576Y001077D01*
X005662Y000917D01*
X005662Y000917D01*
X005748Y001077D01*
X005748Y001078D01*
X005662Y001124D01*
X005748Y001170D01*
X005662Y001330D01*
X005748Y001170D01*
X005662Y001124D01*
X005576Y001170D01*
X005662Y001124D01*
X005576Y001170D01*
X005662Y001330D01*
X005576Y001170D01*
X005576Y001170D01*
X005662Y001330D01*
X005662Y001330D01*
X005662Y001124D01*
X005748Y001170D01*
X005748Y001170D01*
X005662Y001330D01*
X005748Y001170D01*
X005748Y001170D01*
X005576Y001170D02*
X005662Y001330D01*
X005576Y001170D01*
X005576Y001170D01*
X005576Y001078D02*
X005576Y001077D01*
X005576Y001077D01*
X005438Y000987D02*
X005443Y000977D01*
X005452Y000968D01*
X005471Y000932D01*
X005501Y000876D01*
X005501Y000850D01*
X005501Y000506D01*
X005595Y000411D01*
X005679Y000327D01*
X001202Y000327D01*
X001454Y000448D01*
X001454Y000448D01*
X001454Y000448D01*
X001643Y000685D01*
X001710Y000980D01*
X001643Y001275D01*
X001454Y001512D01*
X001181Y001643D01*
X000879Y001643D01*
X000606Y001512D01*
X000606Y001512D01*
X000606Y001512D01*
X000417Y001275D01*
X000377Y001099D01*
X000377Y016605D01*
X021576Y016605D01*
X021576Y016175D01*
X021563Y016235D01*
X021563Y016235D01*
X021374Y016472D01*
X021101Y016603D01*
X020799Y016603D01*
X020526Y016472D01*
X020526Y016472D01*
X020526Y016472D01*
X020337Y016235D01*
X020270Y015940D01*
X020270Y015940D01*
X020337Y015645D01*
X020337Y015645D01*
X020526Y015408D01*
X020799Y015277D01*
X021101Y015277D01*
X021374Y015408D01*
X021374Y015408D01*
X021374Y015408D01*
X021563Y015645D01*
X021576Y015705D01*
X021576Y012760D01*
X021455Y012881D01*
X020753Y012881D01*
X020750Y012889D01*
X020668Y012970D01*
X020727Y013029D01*
X021066Y013029D01*
X021253Y013216D01*
X021365Y013328D01*
X021365Y013944D01*
X021380Y013976D01*
X021376Y013988D01*
X021404Y014068D01*
X021429Y014093D01*
X021429Y014134D01*
X021432Y014143D01*
X021432Y014151D01*
X021444Y014185D01*
X021432Y014209D01*
X021432Y014246D01*
X021393Y014341D01*
X021320Y014414D01*
X021225Y014453D01*
X021122Y014453D01*
X021027Y014414D01*
X020954Y014341D01*
X020915Y014246D01*
X020915Y014209D01*
X020903Y014185D01*
X020903Y014185D01*
X020903Y014185D01*
X020903Y014185D01*
X020903Y014185D01*
X020903Y014185D01*
X020903Y014185D01*
X020915Y014151D01*
X020915Y014143D01*
X020919Y014134D01*
X020919Y014093D01*
X020944Y014068D01*
X020953Y014040D01*
X020955Y014035D01*
X020971Y013988D01*
X020967Y013976D01*
X020983Y013944D01*
X020983Y013909D01*
X020983Y013486D01*
X020907Y013411D01*
X020727Y013411D01*
X020666Y013473D01*
X020556Y013518D01*
X020064Y013518D01*
X019954Y013473D01*
X019870Y013389D01*
X019825Y013279D01*
X019825Y013161D01*
X019870Y013051D01*
X019952Y012970D01*
X019870Y012889D01*
X019825Y012779D01*
X019825Y012661D01*
X019870Y012551D01*
X019952Y012470D01*
X019870Y012389D01*
X019825Y012279D01*
X019825Y012161D01*
X019870Y012051D01*
X019952Y011970D01*
X019870Y011889D01*
X019825Y011779D01*
X019825Y011661D01*
X019870Y011551D01*
X019952Y011470D01*
X019870Y011389D01*
X019825Y011279D01*
X019825Y011161D01*
X019870Y011051D01*
X019952Y010970D01*
X019870Y010889D01*
X019825Y010779D01*
X019825Y010661D01*
X019870Y010551D01*
X019885Y010537D01*
X019735Y010537D01*
X019750Y010551D01*
X019795Y010661D01*
X019795Y010779D01*
X019750Y010889D01*
X019668Y010970D01*
X019750Y011051D01*
X019795Y011161D01*
X019795Y011279D01*
X019750Y011389D01*
X019668Y011470D01*
X019750Y011551D01*
X019795Y011661D01*
X019795Y011779D01*
X019750Y011889D01*
X019668Y011970D01*
X019750Y012051D01*
X019795Y012161D01*
X019795Y012279D01*
X019750Y012389D01*
X019668Y012470D01*
X019750Y012551D01*
X019795Y012661D01*
X019795Y012779D01*
X019750Y012889D01*
X019678Y012961D01*
X019698Y012975D01*
X019742Y013019D01*
X019777Y013070D01*
X019801Y013128D01*
X019813Y013189D01*
X019813Y013216D01*
X019314Y013216D01*
X019314Y013224D01*
X019306Y013224D01*
X019306Y013536D01*
X019092Y013536D01*
X019031Y013524D01*
X018973Y013500D01*
X018922Y013465D01*
X018878Y013421D01*
X018843Y013370D01*
X018819Y013312D01*
X018807Y013251D01*
X018807Y013224D01*
X019306Y013224D01*
X019306Y013216D01*
X018807Y013216D01*
X018807Y013189D01*
X018819Y013128D01*
X018843Y013070D01*
X018878Y013019D01*
X018922Y012975D01*
X018942Y012961D01*
X018870Y012889D01*
X018867Y012881D01*
X017979Y012881D01*
X017406Y012308D01*
X017312Y012214D01*
X017312Y008616D01*
X017627Y008301D01*
X017714Y008214D01*
X017461Y008214D01*
X017240Y008434D01*
X017240Y008434D01*
X017146Y008529D01*
X016138Y008529D01*
X016138Y012027D01*
X016148Y012037D01*
X016148Y015210D01*
X015912Y015446D01*
X015811Y015547D01*
X012757Y015547D01*
X012663Y015591D01*
X012659Y015595D01*
X012646Y015600D01*
X012620Y015626D01*
X012587Y015626D01*
X012558Y015640D01*
X012558Y015640D01*
X012542Y015634D01*
X012461Y015634D01*
X012366Y015595D01*
X012293Y015522D01*
X012254Y015427D01*
X012254Y015324D01*
X012293Y015229D01*
X012366Y015156D01*
X012461Y015117D01*
X012542Y015117D01*
X012558Y015111D01*
X012587Y015125D01*
X012620Y015125D01*
X012646Y015151D01*
X012659Y015156D01*
X012663Y015161D01*
X012686Y015171D01*
X012686Y015171D01*
X012686Y015171D01*
X012738Y015196D01*
X012757Y015205D01*
X012790Y015205D01*
X015670Y015205D01*
X015806Y015069D01*
X015806Y012269D01*
X011107Y012269D01*
X011013Y012175D01*
X010658Y011820D01*
X010658Y010743D01*
X010301Y010743D01*
X010236Y010677D01*
X010236Y010662D01*
X010231Y010681D01*
X010214Y010711D01*
X010190Y010735D01*
X010160Y010751D01*
X010128Y010760D01*
X009992Y010760D01*
X009992Y010473D01*
X009954Y010473D01*
X009954Y010435D01*
X009992Y010435D01*
X009992Y009883D01*
X009954Y009883D01*
X009954Y010170D01*
X009954Y010435D01*
X009706Y010435D01*
X009706Y010260D01*
X009715Y010227D01*
X009732Y010198D01*
X009756Y010174D01*
X009782Y010159D01*
X009756Y010144D01*
X009732Y010120D01*
X009715Y010091D01*
X009706Y010058D01*
X009706Y009883D01*
X009954Y009883D01*
X009954Y009845D01*
X009706Y009845D01*
X009706Y009670D01*
X009715Y009637D01*
X009732Y009608D01*
X009756Y009584D01*
X009785Y009567D01*
X009818Y009558D01*
X009954Y009558D01*
X009954Y009845D01*
X009992Y009845D01*
X009992Y009558D01*
X010128Y009558D01*
X010160Y009567D01*
X010190Y009584D01*
X010214Y009608D01*
X010231Y009637D01*
X010236Y009656D01*
X010236Y009641D01*
X010301Y009576D01*
X010658Y009576D01*
X010658Y008530D01*
X010652Y008533D01*
X010620Y008542D01*
X010504Y008542D01*
X010389Y008542D01*
X010356Y008533D01*
X010350Y008530D01*
X010350Y008946D01*
X009839Y009458D01*
X009744Y009552D01*
X008579Y009552D01*
X008579Y012927D01*
X008580Y012929D01*
X008579Y012932D01*
X008579Y012960D01*
X008580Y012963D01*
X008579Y012965D01*
X008579Y013001D01*
X008567Y013013D01*
X008549Y013031D01*
X008527Y013103D01*
X008519Y013130D01*
X008519Y013144D01*
X008504Y013179D01*
X008489Y013231D01*
X008481Y013235D01*
X008480Y013239D01*
X008407Y013311D01*
X008312Y013351D01*
X008209Y013351D01*
X008114Y013311D01*
X008041Y013239D01*
X008002Y013144D01*
X008002Y013041D01*
X008041Y012946D01*
X008114Y012873D01*
X008118Y012871D01*
X008122Y012864D01*
X008173Y012848D01*
X008209Y012833D01*
X008222Y012833D01*
X008249Y012825D01*
X008249Y012825D01*
X008257Y012823D01*
X008257Y009403D01*
X008351Y009309D01*
X008379Y009281D01*
X003353Y009281D01*
X003350Y009289D01*
X003268Y009370D01*
X003350Y009451D01*
X003353Y009459D01*
X004382Y009459D01*
X004477Y009553D01*
X004477Y009553D01*
X005177Y010254D01*
X005177Y010254D01*
X005272Y010348D01*
X005272Y010584D01*
X005335Y010648D01*
X005529Y010648D01*
X005521Y010640D01*
X005482Y010545D01*
X005482Y010442D01*
X005521Y010347D01*
X005594Y010274D01*
X005689Y010235D01*
X005792Y010235D01*
X005796Y010237D01*
X005804Y010234D01*
X005827Y010247D01*
X005853Y010247D01*
X005877Y010270D01*
X005887Y010274D01*
X005896Y010284D01*
X005988Y010333D01*
X006014Y010333D01*
X006255Y010333D01*
X006255Y010333D01*
X006281Y010333D01*
X006372Y010284D01*
X006381Y010274D01*
X006392Y010270D01*
X006415Y010247D01*
X006441Y010247D01*
X006460Y010237D01*
X006465Y010234D01*
X006473Y010237D01*
X006477Y010235D01*
X006579Y010235D01*
X006674Y010274D01*
X006747Y010347D01*
X006787Y010442D01*
X006787Y010545D01*
X006747Y010640D01*
X006740Y010648D01*
X007593Y010648D01*
X007593Y010648D01*
X007619Y010648D01*
X007663Y010624D01*
X007711Y010599D01*
X007720Y010589D01*
X007730Y010585D01*
X007754Y010562D01*
X007780Y010562D01*
X007803Y010549D01*
X007803Y010549D01*
X007811Y010552D01*
X007815Y010550D01*
X007918Y010550D01*
X008013Y010589D01*
X008086Y010662D01*
X008125Y010757D01*
X008125Y010860D01*
X008086Y010955D01*
X008013Y011028D01*
X007918Y011067D01*
X007815Y011067D01*
X007811Y011066D01*
X007803Y011068D01*
X007796Y011064D01*
X007780Y011056D01*
X007754Y011056D01*
X007730Y011032D01*
X007720Y011028D01*
X007711Y011019D01*
X007696Y011010D01*
X007619Y010970D01*
X005201Y010970D01*
X005107Y010875D01*
X004950Y010718D01*
X004950Y010482D01*
X004249Y009781D01*
X003353Y009781D01*
X003350Y009789D01*
X003266Y009873D01*
X003156Y009918D01*
X002664Y009918D01*
X002554Y009873D01*
X002470Y009789D01*
X002425Y009679D01*
X002425Y009561D01*
X002470Y009451D01*
X002552Y009370D01*
X002470Y009289D01*
X002425Y009179D01*
X002425Y009061D01*
X002470Y008951D01*
X002552Y008870D01*
X002470Y008789D01*
X002425Y008679D01*
X002425Y008561D01*
X002470Y008451D01*
X002552Y008370D01*
X002470Y008289D01*
X002425Y008179D01*
X002425Y008061D01*
X002470Y007951D01*
X002552Y007870D01*
X002470Y007789D01*
X002425Y007679D01*
X002425Y007561D01*
X002470Y007451D01*
X002554Y007367D01*
X002664Y007322D01*
X003156Y007322D01*
X003266Y007367D01*
X003350Y007451D01*
X003353Y007459D01*
X004233Y007459D01*
X004325Y007410D01*
X004334Y007400D01*
X004370Y007386D01*
X004417Y007360D01*
X004425Y007363D01*
X004429Y007361D01*
X004532Y007361D01*
X004627Y007400D01*
X004700Y007473D01*
X004739Y007568D01*
X004739Y007671D01*
X004700Y007766D01*
X004627Y007839D01*
X004532Y007878D01*
X004429Y007878D01*
X004426Y007877D01*
X004418Y007879D01*
X004418Y007879D01*
X004382Y007860D01*
X004370Y007854D01*
X004334Y007839D01*
X004325Y007830D01*
X004234Y007781D01*
X003353Y007781D01*
X003350Y007789D01*
X003268Y007870D01*
X003350Y007951D01*
X003353Y007959D01*
X003451Y007959D01*
X003524Y007925D01*
X003543Y007916D01*
X003547Y007912D01*
X003589Y007895D01*
X003644Y007869D01*
X003655Y007873D01*
X003745Y007873D01*
X003840Y007912D01*
X003913Y007985D01*
X003952Y008080D01*
X003952Y008183D01*
X003913Y008278D01*
X003840Y008351D01*
X003745Y008390D01*
X003642Y008390D01*
X003627Y008384D01*
X003616Y008387D01*
X003616Y008387D01*
X003576Y008363D01*
X003547Y008351D01*
X003532Y008336D01*
X003502Y008318D01*
X003502Y008318D01*
X003442Y008281D01*
X003353Y008281D01*
X003350Y008289D01*
X003268Y008370D01*
X003350Y008451D01*
X003353Y008459D01*
X005028Y008459D01*
X005028Y007303D01*
X005028Y007276D01*
X004997Y007218D01*
X004979Y007185D01*
X004970Y007176D01*
X004966Y007166D01*
X004942Y007142D01*
X004942Y007116D01*
X004930Y007093D01*
X004930Y007093D01*
X004930Y007093D01*
X004930Y007093D01*
X004930Y007093D01*
X004930Y007093D01*
X004932Y007084D01*
X004931Y007081D01*
X004931Y006978D01*
X004970Y006883D01*
X005043Y006810D01*
X005138Y006770D01*
X005241Y006770D01*
X005336Y006810D01*
X005409Y006883D01*
X005448Y006978D01*
X005448Y007081D01*
X005446Y007084D01*
X005449Y007093D01*
X005440Y007108D01*
X005436Y007116D01*
X005436Y007142D01*
X005413Y007166D01*
X005409Y007176D01*
X005399Y007185D01*
X005399Y007186D01*
X005350Y007276D01*
X005350Y008537D01*
X005571Y008758D01*
X006364Y008758D01*
X006349Y008732D01*
X006340Y008700D01*
X006340Y008564D01*
X006627Y008564D01*
X006627Y008526D01*
X006340Y008526D01*
X006340Y008390D01*
X006349Y008357D01*
X006366Y008328D01*
X006390Y008304D01*
X006419Y008287D01*
X006439Y008282D01*
X006423Y008282D01*
X006358Y008217D01*
X006358Y007899D01*
X006145Y007899D01*
X006061Y007944D01*
X006054Y007948D01*
X006045Y007957D01*
X006034Y007961D01*
X006011Y007985D01*
X005985Y007985D01*
X005963Y007996D01*
X005961Y007997D01*
X005961Y007997D01*
X005961Y007997D01*
X005953Y007995D01*
X005949Y007996D01*
X005847Y007996D01*
X005752Y007957D01*
X005731Y007936D01*
X005716Y007933D01*
X005695Y007901D01*
X005679Y007884D01*
X005668Y007858D01*
X005592Y007738D01*
X005557Y007703D01*
X005501Y007647D01*
X005501Y001397D01*
X005501Y001397D01*
X005501Y001371D01*
X005469Y001312D01*
X005452Y001279D01*
X005443Y001270D01*
X005438Y001260D01*
X005415Y001236D01*
X005415Y001210D01*
X005402Y001187D01*
X005405Y001179D01*
X005403Y001175D01*
X005403Y001072D01*
X005405Y001068D01*
X005402Y001060D01*
X005415Y001037D01*
X005415Y001011D01*
X005438Y000987D01*
X005439Y000987D02*
X001709Y000987D01*
X001686Y001085D02*
X005403Y001085D01*
X005402Y001060D02*
X005402Y001060D01*
X005402Y001060D01*
X005402Y001060D01*
X005403Y001184D02*
X001664Y001184D01*
X001643Y001275D02*
X001643Y001275D01*
X001637Y001282D02*
X005453Y001282D01*
X005402Y001187D02*
X005402Y001187D01*
X005402Y001187D01*
X005402Y001187D01*
X005402Y001187D01*
X005402Y001187D01*
X005501Y001381D02*
X001559Y001381D01*
X001480Y001479D02*
X005501Y001479D01*
X005501Y001578D02*
X001317Y001578D01*
X001454Y001512D02*
X001454Y001512D01*
X001689Y000888D02*
X005495Y000888D01*
X005501Y000850D02*
X005501Y000850D01*
X005501Y000790D02*
X001667Y000790D01*
X001644Y000691D02*
X005501Y000691D01*
X005501Y000593D02*
X001569Y000593D01*
X001643Y000685D02*
X001643Y000685D01*
X001490Y000494D02*
X005513Y000494D01*
X005611Y000396D02*
X001344Y000396D01*
X000396Y001184D02*
X000377Y001184D01*
X000377Y001282D02*
X000423Y001282D01*
X000417Y001275D02*
X000417Y001275D01*
X000377Y001381D02*
X000501Y001381D01*
X000580Y001479D02*
X000377Y001479D01*
X000377Y001578D02*
X000743Y001578D01*
X000377Y001676D02*
X005501Y001676D01*
X005501Y001775D02*
X000377Y001775D01*
X000377Y001873D02*
X005501Y001873D01*
X005501Y001972D02*
X000377Y001972D01*
X000377Y002070D02*
X005501Y002070D01*
X005501Y002169D02*
X000377Y002169D01*
X000377Y002267D02*
X005501Y002267D01*
X005501Y002366D02*
X000377Y002366D01*
X000377Y002464D02*
X005501Y002464D01*
X005501Y002563D02*
X000377Y002563D01*
X000377Y002661D02*
X005501Y002661D01*
X005501Y002760D02*
X000377Y002760D01*
X000377Y002858D02*
X005501Y002858D01*
X005501Y002957D02*
X000377Y002957D01*
X000377Y003055D02*
X005501Y003055D01*
X005501Y003154D02*
X000377Y003154D01*
X000377Y003252D02*
X005501Y003252D01*
X005501Y003351D02*
X000377Y003351D01*
X000377Y003449D02*
X005501Y003449D01*
X005501Y003548D02*
X000377Y003548D01*
X000377Y003646D02*
X005501Y003646D01*
X005501Y003745D02*
X000377Y003745D01*
X000377Y003843D02*
X005501Y003843D01*
X005501Y003942D02*
X000377Y003942D01*
X000377Y004040D02*
X005501Y004040D01*
X005501Y004139D02*
X000377Y004139D01*
X000377Y004237D02*
X005501Y004237D01*
X005501Y004336D02*
X000377Y004336D01*
X000377Y004434D02*
X005501Y004434D01*
X005501Y004533D02*
X000377Y004533D01*
X000377Y004631D02*
X005501Y004631D01*
X005501Y004730D02*
X000377Y004730D01*
X000377Y004828D02*
X005501Y004828D01*
X005501Y004927D02*
X000377Y004927D01*
X000377Y005025D02*
X005501Y005025D01*
X005501Y005124D02*
X000377Y005124D01*
X000377Y005222D02*
X005501Y005222D01*
X005501Y005321D02*
X000377Y005321D01*
X000377Y005419D02*
X005501Y005419D01*
X005501Y005518D02*
X000377Y005518D01*
X000377Y005616D02*
X005501Y005616D01*
X005501Y005715D02*
X000377Y005715D01*
X000377Y005813D02*
X005501Y005813D01*
X005501Y005912D02*
X000377Y005912D01*
X000377Y006010D02*
X005501Y006010D01*
X005501Y006109D02*
X000377Y006109D01*
X000377Y006207D02*
X005501Y006207D01*
X005501Y006306D02*
X000377Y006306D01*
X000377Y006404D02*
X005501Y006404D01*
X005501Y006503D02*
X000377Y006503D01*
X000377Y006601D02*
X005501Y006601D01*
X005501Y006700D02*
X000377Y006700D01*
X000377Y006798D02*
X001256Y006798D01*
X001264Y006789D02*
X003603Y006789D01*
X003693Y006879D01*
X003711Y006898D01*
X003783Y006920D01*
X003810Y006928D01*
X003823Y006928D01*
X003859Y006943D01*
X003911Y006958D01*
X003915Y006966D01*
X003919Y006967D01*
X003991Y007040D01*
X004031Y007135D01*
X004031Y007238D01*
X003991Y007333D01*
X003919Y007406D01*
X003823Y007445D01*
X003721Y007445D01*
X003626Y007406D01*
X003553Y007333D01*
X003551Y007329D01*
X003544Y007325D01*
X003528Y007274D01*
X003513Y007238D01*
X003513Y007225D01*
X003505Y007198D01*
X003483Y007126D01*
X003469Y007111D01*
X001398Y007111D01*
X001335Y007175D01*
X001335Y007435D01*
X001359Y007459D01*
X001467Y007459D01*
X001470Y007451D01*
X001554Y007367D01*
X001664Y007322D01*
X002156Y007322D01*
X002266Y007367D01*
X002350Y007451D01*
X002395Y007561D01*
X002395Y007679D01*
X002350Y007789D01*
X002268Y007870D01*
X002350Y007951D01*
X002395Y008061D01*
X002395Y008179D01*
X002350Y008289D01*
X002268Y008370D01*
X002350Y008451D01*
X002395Y008561D01*
X002395Y008679D01*
X002350Y008789D01*
X002268Y008870D01*
X002350Y008951D01*
X002395Y009061D01*
X002395Y009179D01*
X002350Y009289D01*
X002268Y009370D01*
X002350Y009451D01*
X002395Y009561D01*
X002395Y009679D01*
X002350Y009789D01*
X002266Y009873D01*
X002156Y009918D01*
X001664Y009918D01*
X001554Y009873D01*
X001492Y009811D01*
X001492Y010096D01*
X004547Y010096D01*
X004705Y010254D01*
X004799Y010348D01*
X004799Y012284D01*
X004905Y012284D01*
X004970Y012349D01*
X004970Y012835D01*
X004905Y012900D01*
X004380Y012900D01*
X004315Y012835D01*
X004315Y012349D01*
X004380Y012284D01*
X004477Y012284D01*
X004477Y010482D01*
X004414Y010419D01*
X002822Y010419D01*
X002831Y010427D01*
X002992Y010588D01*
X002992Y012304D01*
X003094Y012304D01*
X003159Y012369D01*
X003159Y012855D01*
X003094Y012920D01*
X002569Y012920D01*
X002504Y012855D01*
X002504Y012369D01*
X002569Y012304D01*
X002670Y012304D01*
X002670Y010722D01*
X002603Y010655D01*
X001264Y010655D01*
X001028Y010419D01*
X001020Y010410D01*
X001020Y010427D01*
X001870Y011278D01*
X001965Y011372D01*
X001965Y014994D01*
X002658Y015687D01*
X016068Y015687D01*
X016603Y015151D01*
X016603Y013759D01*
X016603Y013733D01*
X016572Y013674D01*
X016554Y013642D01*
X016545Y013632D01*
X016541Y013622D01*
X016517Y013599D01*
X016517Y013572D01*
X016505Y013549D01*
X016507Y013541D01*
X016506Y013537D01*
X016506Y013434D01*
X016545Y013339D01*
X016618Y013267D01*
X016713Y013227D01*
X016816Y013227D01*
X016911Y013267D01*
X016983Y013339D01*
X017023Y013434D01*
X017023Y013537D01*
X017021Y013541D01*
X017024Y013549D01*
X017024Y013549D01*
X017024Y013549D01*
X017024Y013549D01*
X017015Y013565D01*
X017011Y013572D01*
X017011Y013599D01*
X016988Y013622D01*
X016983Y013632D01*
X016974Y013642D01*
X016973Y013643D01*
X016925Y013733D01*
X016925Y015285D01*
X016831Y015379D01*
X016201Y016009D01*
X002524Y016009D01*
X002430Y015915D01*
X001643Y015127D01*
X001643Y011505D01*
X001511Y011374D01*
X001511Y011411D01*
X001472Y011506D01*
X001399Y011579D01*
X001304Y011619D01*
X001201Y011619D01*
X001106Y011579D01*
X001033Y011506D01*
X001031Y011502D01*
X001024Y011498D01*
X001008Y011447D01*
X000994Y011411D01*
X000994Y011398D01*
X000985Y011371D01*
X000964Y011299D01*
X000945Y011280D01*
X000383Y010718D01*
X000383Y008380D01*
X000477Y008285D01*
X000803Y007959D01*
X001467Y007959D01*
X001470Y007951D01*
X001552Y007870D01*
X001470Y007789D01*
X001467Y007781D01*
X001225Y007781D01*
X001131Y007687D01*
X001131Y007687D01*
X001107Y007663D01*
X001107Y007663D01*
X001013Y007568D01*
X001013Y007041D01*
X001170Y006884D01*
X001170Y006884D01*
X001264Y006789D01*
X001157Y006897D02*
X000377Y006897D01*
X000377Y006995D02*
X001059Y006995D01*
X001013Y007094D02*
X000377Y007094D01*
X000377Y007192D02*
X001013Y007192D01*
X001013Y007291D02*
X000377Y007291D01*
X000377Y007389D02*
X001013Y007389D01*
X001013Y007488D02*
X000377Y007488D01*
X000377Y007586D02*
X001030Y007586D01*
X001129Y007685D02*
X000377Y007685D01*
X000377Y007783D02*
X001468Y007783D01*
X001540Y007882D02*
X000377Y007882D01*
X000377Y007980D02*
X000782Y007980D01*
X000684Y008079D02*
X000377Y008079D01*
X000377Y008177D02*
X000585Y008177D01*
X000487Y008276D02*
X000377Y008276D01*
X000377Y008374D02*
X000388Y008374D01*
X000377Y008473D02*
X000383Y008473D01*
X000377Y008571D02*
X000383Y008571D01*
X000377Y008670D02*
X000383Y008670D01*
X000377Y008768D02*
X000383Y008768D01*
X000377Y008867D02*
X000383Y008867D01*
X000377Y008965D02*
X000383Y008965D01*
X000377Y009064D02*
X000383Y009064D01*
X000377Y009162D02*
X000383Y009162D01*
X000377Y009261D02*
X000383Y009261D01*
X000377Y009359D02*
X000383Y009359D01*
X000377Y009458D02*
X000383Y009458D01*
X000377Y009556D02*
X000383Y009556D01*
X000377Y009655D02*
X000383Y009655D01*
X000377Y009753D02*
X000383Y009753D01*
X000377Y009852D02*
X000383Y009852D01*
X000377Y009950D02*
X000383Y009950D01*
X000377Y010049D02*
X000383Y010049D01*
X000377Y010147D02*
X000383Y010147D01*
X000377Y010246D02*
X000383Y010246D01*
X000377Y010344D02*
X000383Y010344D01*
X000377Y010443D02*
X000383Y010443D01*
X000377Y010541D02*
X000383Y010541D01*
X000377Y010640D02*
X000383Y010640D01*
X000377Y010738D02*
X000403Y010738D01*
X000377Y010837D02*
X000501Y010837D01*
X000600Y010935D02*
X000377Y010935D01*
X000377Y011034D02*
X000698Y011034D01*
X000797Y011132D02*
X000377Y011132D01*
X000377Y011231D02*
X000895Y011231D01*
X000973Y011329D02*
X000377Y011329D01*
X000377Y011428D02*
X001000Y011428D01*
X001053Y011526D02*
X000377Y011526D01*
X000377Y011625D02*
X001643Y011625D01*
X001643Y011723D02*
X000377Y011723D01*
X000377Y011822D02*
X001643Y011822D01*
X001643Y011920D02*
X000377Y011920D01*
X000377Y012019D02*
X001643Y012019D01*
X001643Y012117D02*
X000377Y012117D01*
X000377Y012216D02*
X001643Y012216D01*
X001643Y012314D02*
X000377Y012314D01*
X000377Y012413D02*
X001643Y012413D01*
X001643Y012511D02*
X000377Y012511D01*
X000377Y012610D02*
X001643Y012610D01*
X001643Y012708D02*
X000377Y012708D01*
X000377Y012807D02*
X001643Y012807D01*
X001643Y012905D02*
X000377Y012905D01*
X000377Y013004D02*
X001643Y013004D01*
X001643Y013102D02*
X000377Y013102D01*
X000377Y013201D02*
X001643Y013201D01*
X001643Y013299D02*
X000377Y013299D01*
X000377Y013398D02*
X001643Y013398D01*
X001643Y013496D02*
X000377Y013496D01*
X000377Y013595D02*
X001643Y013595D01*
X001643Y013693D02*
X000377Y013693D01*
X000377Y013792D02*
X001643Y013792D01*
X001643Y013890D02*
X000377Y013890D01*
X000377Y013989D02*
X001643Y013989D01*
X001643Y014087D02*
X000377Y014087D01*
X000377Y014186D02*
X001643Y014186D01*
X001643Y014284D02*
X000377Y014284D01*
X000377Y014383D02*
X001643Y014383D01*
X001643Y014481D02*
X000377Y014481D01*
X000377Y014580D02*
X001643Y014580D01*
X001643Y014678D02*
X000377Y014678D01*
X000377Y014777D02*
X001643Y014777D01*
X001643Y014875D02*
X000377Y014875D01*
X000377Y014974D02*
X001643Y014974D01*
X001643Y015072D02*
X000377Y015072D01*
X000377Y015171D02*
X001686Y015171D01*
X001784Y015269D02*
X000377Y015269D01*
X000377Y015368D02*
X001883Y015368D01*
X001981Y015466D02*
X000377Y015466D01*
X000377Y015565D02*
X002080Y015565D01*
X002178Y015663D02*
X000377Y015663D01*
X000377Y015762D02*
X002277Y015762D01*
X002375Y015860D02*
X000377Y015860D01*
X000377Y015959D02*
X002474Y015959D01*
X002591Y015848D02*
X016134Y015848D01*
X016764Y015218D01*
X016764Y013693D01*
X016850Y013532D01*
X016764Y013486D01*
X016678Y013532D01*
X016764Y013693D01*
X016850Y013532D01*
X016764Y013486D01*
X016678Y013532D01*
X016764Y013693D01*
X016764Y013693D01*
X016764Y013693D01*
X016764Y013693D01*
X016850Y013532D01*
X016850Y013532D01*
X016764Y013486D01*
X016678Y013532D01*
X016678Y013532D01*
X016764Y013693D01*
X016678Y013532D01*
X016678Y013532D01*
X016764Y013693D01*
X016850Y013532D01*
X016850Y013532D01*
X016764Y013486D02*
X016764Y013693D01*
X016603Y013759D02*
X016603Y013759D01*
X016603Y013792D02*
X016148Y013792D01*
X016148Y013890D02*
X016603Y013890D01*
X016603Y013989D02*
X016148Y013989D01*
X016148Y014087D02*
X016603Y014087D01*
X016603Y014186D02*
X016148Y014186D01*
X016148Y014284D02*
X016603Y014284D01*
X016603Y014383D02*
X016148Y014383D01*
X016148Y014481D02*
X016603Y014481D01*
X016603Y014580D02*
X016148Y014580D01*
X016148Y014678D02*
X016603Y014678D01*
X016603Y014777D02*
X016148Y014777D01*
X016148Y014875D02*
X016603Y014875D01*
X016603Y014974D02*
X016148Y014974D01*
X016148Y015072D02*
X016603Y015072D01*
X016584Y015171D02*
X016148Y015171D01*
X016089Y015269D02*
X016486Y015269D01*
X016387Y015368D02*
X015990Y015368D01*
X015892Y015466D02*
X016289Y015466D01*
X016190Y015565D02*
X012719Y015565D01*
X012558Y015640D02*
X012558Y015640D01*
X012335Y015565D02*
X002535Y015565D01*
X002634Y015663D02*
X016092Y015663D01*
X016350Y015860D02*
X020288Y015860D01*
X020274Y015959D02*
X016251Y015959D01*
X016448Y015762D02*
X020311Y015762D01*
X020333Y015663D02*
X016547Y015663D01*
X016645Y015565D02*
X020401Y015565D01*
X020480Y015466D02*
X016744Y015466D01*
X016842Y015368D02*
X020611Y015368D01*
X020526Y015408D02*
X020526Y015408D01*
X021289Y015368D02*
X021576Y015368D01*
X021576Y015466D02*
X021420Y015466D01*
X021499Y015565D02*
X021576Y015565D01*
X021563Y015645D02*
X021563Y015645D01*
X021567Y015663D02*
X021576Y015663D01*
X021576Y015269D02*
X016925Y015269D01*
X016925Y015171D02*
X021576Y015171D01*
X021576Y015072D02*
X016925Y015072D01*
X016925Y014974D02*
X021576Y014974D01*
X021576Y014875D02*
X016925Y014875D01*
X016925Y014777D02*
X021576Y014777D01*
X021576Y014678D02*
X016925Y014678D01*
X016925Y014580D02*
X021576Y014580D01*
X021576Y014481D02*
X016925Y014481D01*
X016925Y014383D02*
X020996Y014383D01*
X020931Y014284D02*
X016925Y014284D01*
X016925Y014186D02*
X020904Y014186D01*
X020903Y014185D02*
X020903Y014185D01*
X020925Y014087D02*
X016925Y014087D01*
X016925Y013989D02*
X020971Y013989D01*
X020983Y013909D02*
X020983Y013909D01*
X020983Y013890D02*
X016925Y013890D01*
X016925Y013792D02*
X020983Y013792D01*
X020983Y013693D02*
X016947Y013693D01*
X017011Y013595D02*
X020983Y013595D01*
X020983Y013496D02*
X020609Y013496D01*
X020011Y013496D02*
X019652Y013496D01*
X019647Y013500D02*
X019589Y013524D01*
X019528Y013536D01*
X019314Y013536D01*
X019314Y013224D01*
X019813Y013224D01*
X019813Y013251D01*
X019801Y013312D01*
X019777Y013370D01*
X019742Y013421D01*
X019698Y013465D01*
X019647Y013500D01*
X019758Y013398D02*
X019879Y013398D01*
X019833Y013299D02*
X019803Y013299D01*
X019813Y013201D02*
X019825Y013201D01*
X019849Y013102D02*
X019790Y013102D01*
X019727Y013004D02*
X019918Y013004D01*
X019887Y012905D02*
X019733Y012905D01*
X019784Y012807D02*
X019836Y012807D01*
X019825Y012708D02*
X019795Y012708D01*
X019774Y012610D02*
X019846Y012610D01*
X019910Y012511D02*
X019710Y012511D01*
X019726Y012413D02*
X019894Y012413D01*
X019839Y012314D02*
X019781Y012314D01*
X019795Y012216D02*
X019825Y012216D01*
X019843Y012117D02*
X019777Y012117D01*
X019717Y012019D02*
X019903Y012019D01*
X019902Y011920D02*
X019718Y011920D01*
X019778Y011822D02*
X019842Y011822D01*
X019825Y011723D02*
X019795Y011723D01*
X019780Y011625D02*
X019840Y011625D01*
X019895Y011526D02*
X019725Y011526D01*
X019711Y011428D02*
X019909Y011428D01*
X019846Y011329D02*
X019774Y011329D01*
X019795Y011231D02*
X019825Y011231D01*
X019837Y011132D02*
X019783Y011132D01*
X019732Y011034D02*
X019888Y011034D01*
X019917Y010935D02*
X019703Y010935D01*
X019771Y010837D02*
X019849Y010837D01*
X019825Y010738D02*
X019795Y010738D01*
X019786Y010640D02*
X019834Y010640D01*
X019880Y010541D02*
X019740Y010541D01*
X019310Y010720D02*
X018782Y010720D01*
X018617Y010642D01*
X018575Y010730D01*
X018625Y010814D01*
X018782Y010720D01*
X018585Y010720D01*
X018575Y010730D01*
X018221Y010651D02*
X018221Y010966D01*
X018475Y011220D01*
X019310Y011220D01*
X019310Y011720D02*
X018227Y011720D01*
X017945Y011439D01*
X017945Y008840D01*
X018024Y008761D01*
X018969Y008761D01*
X019063Y008856D01*
X019063Y009250D01*
X018813Y009250D02*
X018813Y010181D01*
X019008Y010376D01*
X020780Y010376D01*
X020898Y010494D01*
X020898Y011084D01*
X020762Y011220D01*
X020310Y011220D01*
X020310Y011720D02*
X020971Y011720D01*
X021134Y011557D01*
X021134Y010376D01*
X020937Y010179D01*
X019441Y010179D01*
X019313Y010051D01*
X019313Y009250D01*
X019569Y009250D02*
X019569Y008732D01*
X019402Y008565D01*
X017906Y008565D01*
X017709Y008761D01*
X017709Y011832D01*
X018097Y012220D01*
X019310Y012220D01*
X019310Y012720D02*
X018046Y012720D01*
X017473Y012147D01*
X017473Y008683D01*
X017788Y008368D01*
X019756Y008368D01*
X020069Y008681D01*
X020069Y009250D01*
X019819Y009250D02*
X019819Y009769D01*
X020032Y009982D01*
X021174Y009982D01*
X021370Y010179D01*
X021370Y012029D01*
X021180Y012220D01*
X020310Y012220D01*
X020310Y012720D02*
X021388Y012720D01*
X021567Y012541D01*
X021567Y010021D01*
X021410Y009785D01*
X020386Y009785D01*
X020319Y009718D01*
X020319Y009250D01*
X020569Y009250D02*
X020569Y008815D01*
X020622Y008761D01*
X020622Y008289D01*
X020386Y008053D01*
X017394Y008053D01*
X017079Y008368D01*
X015977Y008368D01*
X015504Y008368D01*
X015504Y008072D01*
X015793Y008079D02*
X015816Y008079D01*
X015816Y008177D02*
X015793Y008177D01*
X015793Y008207D02*
X015816Y008207D01*
X015816Y007190D01*
X014068Y007190D01*
X014062Y007195D01*
X014002Y007190D01*
X013942Y007190D01*
X013937Y007185D01*
X013929Y007185D01*
X013890Y007139D01*
X013847Y007096D01*
X013847Y007089D01*
X013513Y006699D01*
X013513Y006793D01*
X013513Y006908D01*
X013504Y006941D01*
X013499Y006950D01*
X013504Y006960D01*
X013513Y006992D01*
X013513Y007108D01*
X013513Y007223D01*
X013504Y007256D01*
X013501Y007262D01*
X013760Y007262D01*
X014169Y007671D01*
X014626Y008127D01*
X014626Y007889D01*
X014691Y007824D01*
X014706Y007824D01*
X014687Y007818D01*
X014658Y007801D01*
X014634Y007777D01*
X014617Y007748D01*
X014608Y007715D01*
X014608Y007580D01*
X014895Y007580D01*
X014895Y007542D01*
X014608Y007542D01*
X014608Y007406D01*
X014617Y007373D01*
X014634Y007344D01*
X014658Y007320D01*
X014687Y007303D01*
X014720Y007294D01*
X014895Y007294D01*
X014895Y007542D01*
X014933Y007542D01*
X014933Y007580D01*
X015485Y007580D01*
X015485Y007542D01*
X015198Y007542D01*
X014933Y007542D01*
X014933Y007294D01*
X015108Y007294D01*
X015141Y007303D01*
X015170Y007320D01*
X015194Y007344D01*
X015209Y007370D01*
X015224Y007344D01*
X015248Y007320D01*
X015277Y007303D01*
X015310Y007294D01*
X015485Y007294D01*
X015485Y007542D01*
X015523Y007542D01*
X015523Y007294D01*
X015698Y007294D01*
X015731Y007303D01*
X015761Y007320D01*
X015785Y007344D01*
X015801Y007373D01*
X015810Y007406D01*
X015810Y007542D01*
X015523Y007542D01*
X015523Y007580D01*
X015810Y007580D01*
X015810Y007715D01*
X015801Y007748D01*
X015785Y007777D01*
X015761Y007801D01*
X015731Y007818D01*
X015712Y007824D01*
X015727Y007824D01*
X015793Y007889D01*
X015793Y008207D01*
X015793Y007980D02*
X015816Y007980D01*
X015816Y007882D02*
X015785Y007882D01*
X015779Y007783D02*
X015816Y007783D01*
X015810Y007685D02*
X015816Y007685D01*
X015810Y007586D02*
X015816Y007586D01*
X015810Y007488D02*
X015816Y007488D01*
X015806Y007389D02*
X015816Y007389D01*
X015816Y007291D02*
X013789Y007291D01*
X013887Y007389D02*
X014612Y007389D01*
X014608Y007488D02*
X013986Y007488D01*
X014084Y007586D02*
X014608Y007586D01*
X014608Y007685D02*
X014183Y007685D01*
X014169Y007671D02*
X014169Y007671D01*
X014281Y007783D02*
X014639Y007783D01*
X014633Y007882D02*
X014380Y007882D01*
X014478Y007980D02*
X014626Y007980D01*
X014626Y008079D02*
X014577Y008079D01*
X014318Y008276D02*
X012919Y008276D01*
X012919Y008374D02*
X014417Y008374D01*
X014477Y008434D02*
X013942Y007899D01*
X013435Y007899D01*
X013387Y007947D01*
X013027Y007947D01*
X013027Y008026D01*
X012997Y008056D01*
X012919Y008056D01*
X012919Y008416D01*
X012810Y008524D01*
X012608Y008524D01*
X012573Y008489D01*
X012555Y008507D01*
X012555Y011947D01*
X015816Y011947D01*
X015816Y008529D01*
X014571Y008529D01*
X014477Y008434D01*
X014477Y008434D01*
X014515Y008473D02*
X012862Y008473D01*
X012555Y008571D02*
X015816Y008571D01*
X015816Y008670D02*
X012555Y008670D01*
X012555Y008768D02*
X015816Y008768D01*
X015816Y008867D02*
X012555Y008867D01*
X012555Y008965D02*
X015816Y008965D01*
X015816Y009064D02*
X012555Y009064D01*
X012555Y009162D02*
X015816Y009162D01*
X015816Y009261D02*
X012555Y009261D01*
X012555Y009359D02*
X015816Y009359D01*
X015816Y009458D02*
X012555Y009458D01*
X012555Y009556D02*
X015816Y009556D01*
X015816Y009655D02*
X012555Y009655D01*
X012555Y009753D02*
X015816Y009753D01*
X015816Y009852D02*
X012555Y009852D01*
X012555Y009950D02*
X015816Y009950D01*
X015816Y010049D02*
X012555Y010049D01*
X012555Y010147D02*
X015816Y010147D01*
X015816Y010246D02*
X012555Y010246D01*
X012555Y010344D02*
X015816Y010344D01*
X015816Y010443D02*
X012555Y010443D01*
X012555Y010541D02*
X015816Y010541D01*
X015816Y010640D02*
X012555Y010640D01*
X012555Y010738D02*
X015816Y010738D01*
X015816Y010837D02*
X012555Y010837D01*
X012555Y010935D02*
X015816Y010935D01*
X015816Y011034D02*
X012555Y011034D01*
X012555Y011132D02*
X015816Y011132D01*
X015816Y011231D02*
X012555Y011231D01*
X012555Y011329D02*
X015816Y011329D01*
X015816Y011428D02*
X012555Y011428D01*
X012555Y011526D02*
X015816Y011526D01*
X015816Y011625D02*
X012555Y011625D01*
X012555Y011723D02*
X015816Y011723D01*
X015816Y011822D02*
X012555Y011822D01*
X012555Y011920D02*
X015816Y011920D01*
X015977Y012108D02*
X012394Y012108D01*
X011174Y012108D01*
X010819Y011754D01*
X010819Y010454D01*
X010485Y010454D01*
X010524Y010415D01*
X010819Y010454D02*
X010819Y009864D01*
X010485Y009864D01*
X010235Y009655D02*
X010236Y009655D01*
X009992Y009655D02*
X009954Y009655D01*
X009954Y009753D02*
X009992Y009753D01*
X009954Y009852D02*
X008579Y009852D01*
X008579Y009950D02*
X009706Y009950D01*
X009706Y010049D02*
X008579Y010049D01*
X008579Y010147D02*
X009761Y010147D01*
X009710Y010246D02*
X008579Y010246D01*
X008579Y010344D02*
X009706Y010344D01*
X009706Y010473D02*
X009954Y010473D01*
X009954Y010760D01*
X009818Y010760D01*
X009785Y010751D01*
X009756Y010735D01*
X009732Y010711D01*
X009715Y010681D01*
X009706Y010648D01*
X009706Y010473D01*
X009706Y010541D02*
X008579Y010541D01*
X008579Y010443D02*
X009954Y010443D01*
X009954Y010541D02*
X009992Y010541D01*
X009992Y010640D02*
X009954Y010640D01*
X009954Y010738D02*
X009992Y010738D01*
X010184Y010738D02*
X010296Y010738D01*
X010658Y010837D02*
X008579Y010837D01*
X008579Y010935D02*
X010658Y010935D01*
X010658Y011034D02*
X008579Y011034D01*
X008579Y011132D02*
X010658Y011132D01*
X010658Y011231D02*
X008579Y011231D01*
X008579Y011329D02*
X010658Y011329D01*
X010658Y011428D02*
X008579Y011428D01*
X008579Y011526D02*
X010658Y011526D01*
X010658Y011625D02*
X008579Y011625D01*
X008579Y011723D02*
X010658Y011723D01*
X010660Y011822D02*
X008579Y011822D01*
X008579Y011920D02*
X010758Y011920D01*
X010857Y012019D02*
X008579Y012019D01*
X008579Y012117D02*
X010955Y012117D01*
X011054Y012216D02*
X008579Y012216D01*
X008579Y012314D02*
X015806Y012314D01*
X015806Y012413D02*
X008579Y012413D01*
X008579Y012511D02*
X015806Y012511D01*
X015806Y012610D02*
X008579Y012610D01*
X008579Y012708D02*
X015806Y012708D01*
X015806Y012807D02*
X008579Y012807D01*
X008579Y012905D02*
X015806Y012905D01*
X015806Y013004D02*
X008577Y013004D01*
X008527Y013102D02*
X015806Y013102D01*
X015806Y013201D02*
X008498Y013201D01*
X008489Y013231D02*
X008489Y013231D01*
X008489Y013231D01*
X008419Y013299D02*
X015806Y013299D01*
X015806Y013398D02*
X004970Y013398D01*
X004970Y013496D02*
X015806Y013496D01*
X015806Y013595D02*
X004783Y013595D01*
X004783Y013569D02*
X004783Y013915D01*
X004791Y013918D01*
X004805Y013956D01*
X004833Y013985D01*
X004833Y014026D01*
X004882Y014130D01*
X004895Y014157D01*
X004900Y014162D01*
X004907Y014179D01*
X004939Y014211D01*
X004939Y014252D01*
X004956Y014289D01*
X004950Y014306D01*
X004950Y014413D01*
X004900Y014534D01*
X004808Y014626D01*
X004688Y014676D01*
X004557Y014676D01*
X004437Y014626D01*
X004345Y014534D01*
X004336Y014514D01*
X004300Y014568D01*
X004252Y014616D01*
X004195Y014654D01*
X004133Y014680D01*
X004066Y014693D01*
X004051Y014693D01*
X004051Y014367D01*
X004013Y014367D01*
X004013Y014693D01*
X003998Y014693D01*
X003931Y014680D01*
X003868Y014654D01*
X003812Y014616D01*
X003764Y014568D01*
X003737Y014528D01*
X003710Y014568D01*
X003661Y014616D01*
X003605Y014654D01*
X003542Y014680D01*
X003475Y014693D01*
X003460Y014693D01*
X003460Y014367D01*
X003422Y014367D01*
X003422Y014693D01*
X003407Y014693D01*
X003341Y014680D01*
X003278Y014654D01*
X003221Y014616D01*
X003173Y014568D01*
X003137Y014514D01*
X003128Y014534D01*
X003036Y014626D01*
X002916Y014676D01*
X002786Y014676D01*
X002665Y014626D01*
X002573Y014534D01*
X002523Y014413D01*
X002523Y014306D01*
X002517Y014289D01*
X002517Y014289D01*
X002517Y014289D01*
X002517Y014289D01*
X002517Y014289D01*
X002517Y014289D01*
X002517Y014289D01*
X002549Y014219D01*
X002551Y014216D01*
X002573Y014162D01*
X002578Y014157D01*
X002583Y014148D01*
X002591Y014130D01*
X002640Y014026D01*
X002640Y013985D01*
X002668Y013956D01*
X002682Y013918D01*
X002682Y013918D01*
X002684Y013917D01*
X002690Y013915D01*
X002690Y013589D01*
X002569Y013589D01*
X002504Y013524D01*
X002504Y013038D01*
X002569Y012973D01*
X003094Y012973D01*
X003159Y013038D01*
X003159Y013524D01*
X003094Y013589D01*
X003012Y013589D01*
X003012Y013915D01*
X003019Y013918D01*
X003033Y013956D01*
X003062Y013985D01*
X003062Y014026D01*
X003111Y014130D01*
X003123Y014157D01*
X003128Y014162D01*
X003135Y014179D01*
X003137Y014181D01*
X003173Y014128D01*
X003221Y014080D01*
X003278Y014042D01*
X003341Y014016D01*
X003407Y014003D01*
X003422Y014003D01*
X003422Y014329D01*
X003460Y014329D01*
X003460Y014003D01*
X003475Y014003D01*
X003542Y014016D01*
X003605Y014042D01*
X003661Y014080D01*
X003710Y014128D01*
X003737Y014168D01*
X003764Y014128D01*
X003812Y014080D01*
X003868Y014042D01*
X003931Y014016D01*
X003998Y014003D01*
X004013Y014003D01*
X004013Y014329D01*
X004051Y014329D01*
X004051Y014003D01*
X004066Y014003D01*
X004133Y014016D01*
X004195Y014042D01*
X004252Y014080D01*
X004300Y014128D01*
X004336Y014182D01*
X004345Y014162D01*
X004350Y014157D01*
X004354Y014148D01*
X004363Y014130D01*
X004411Y014026D01*
X004411Y013985D01*
X004440Y013956D01*
X004454Y013918D01*
X004456Y013917D01*
X004461Y013915D01*
X004461Y013569D01*
X004380Y013569D01*
X004315Y013504D01*
X004315Y013019D01*
X004380Y012954D01*
X004905Y012954D01*
X004970Y013019D01*
X004970Y013504D01*
X004905Y013569D01*
X004783Y013569D01*
X004783Y013693D02*
X015806Y013693D01*
X015806Y013792D02*
X004783Y013792D01*
X004783Y013890D02*
X015806Y013890D01*
X015806Y013989D02*
X004833Y013989D01*
X004791Y013918D02*
X004791Y013918D01*
X004791Y013918D01*
X004862Y014087D02*
X015806Y014087D01*
X015806Y014186D02*
X004913Y014186D01*
X004882Y014130D02*
X004882Y014130D01*
X004954Y014284D02*
X015806Y014284D01*
X015806Y014383D02*
X004950Y014383D01*
X004956Y014289D02*
X004956Y014289D01*
X004956Y014289D01*
X004956Y014289D01*
X004956Y014289D01*
X004922Y014481D02*
X015806Y014481D01*
X015806Y014580D02*
X004854Y014580D01*
X004622Y014348D02*
X004622Y014072D01*
X004622Y013281D01*
X004642Y013261D01*
X004970Y013299D02*
X008101Y013299D01*
X008025Y013201D02*
X004970Y013201D01*
X004970Y013102D02*
X008002Y013102D01*
X008017Y013004D02*
X004955Y013004D01*
X004970Y012807D02*
X008257Y012807D01*
X008257Y012708D02*
X004970Y012708D01*
X004970Y012610D02*
X008257Y012610D01*
X008257Y012511D02*
X004970Y012511D01*
X004970Y012413D02*
X008257Y012413D01*
X008257Y012314D02*
X004934Y012314D01*
X004799Y012216D02*
X008257Y012216D01*
X008257Y012117D02*
X004799Y012117D01*
X004799Y012019D02*
X008257Y012019D01*
X008257Y011920D02*
X004799Y011920D01*
X004799Y011822D02*
X008257Y011822D01*
X008257Y011723D02*
X004799Y011723D01*
X004799Y011625D02*
X008257Y011625D01*
X008257Y011526D02*
X004799Y011526D01*
X004799Y011428D02*
X008257Y011428D01*
X008257Y011329D02*
X004799Y011329D01*
X004799Y011231D02*
X008257Y011231D01*
X008257Y011132D02*
X004799Y011132D01*
X004799Y011034D02*
X007731Y011034D01*
X007803Y011068D02*
X007803Y011068D01*
X007803Y011068D01*
X007803Y011068D01*
X007803Y011068D01*
X007803Y011068D01*
X007820Y010895D02*
X007867Y010809D01*
X007820Y010723D01*
X007867Y010809D01*
X007820Y010895D01*
X007660Y010809D01*
X007820Y010895D01*
X007820Y010895D01*
X007660Y010809D01*
X007820Y010723D01*
X007820Y010723D01*
X007660Y010809D01*
X007660Y010809D01*
X007820Y010895D01*
X007820Y010895D01*
X007867Y010809D01*
X007820Y010723D01*
X007660Y010809D01*
X007660Y010809D01*
X007867Y010809D01*
X007820Y010723D02*
X007820Y010723D01*
X007660Y010809D01*
X005268Y010809D01*
X005111Y010651D01*
X005111Y010415D01*
X004316Y009620D01*
X002910Y009620D01*
X003279Y009359D02*
X008301Y009359D01*
X008257Y009458D02*
X003352Y009458D01*
X002910Y009120D02*
X009555Y009120D01*
X009874Y008801D01*
X009874Y008137D01*
X009559Y008137D02*
X009559Y008722D01*
X009363Y008919D01*
X005504Y008919D01*
X005205Y008620D01*
X005189Y008604D01*
X005189Y007236D01*
X005275Y007075D01*
X005189Y007029D01*
X005275Y007075D01*
X005275Y007075D01*
X005189Y007029D01*
X005103Y007075D01*
X005189Y007029D01*
X005103Y007075D01*
X005103Y007075D01*
X005189Y007236D01*
X005275Y007075D01*
X005275Y007075D01*
X005189Y007236D01*
X005103Y007075D01*
X005189Y007236D01*
X005189Y007236D01*
X005103Y007075D01*
X005103Y007075D01*
X005189Y007236D01*
X005189Y007236D01*
X005189Y007236D01*
X005275Y007075D01*
X005189Y007029D02*
X005189Y007236D01*
X005028Y007291D02*
X004009Y007291D01*
X004031Y007192D02*
X004983Y007192D01*
X004930Y007094D02*
X004013Y007094D01*
X003946Y006995D02*
X004931Y006995D01*
X004964Y006897D02*
X003710Y006897D01*
X003611Y006798D02*
X005071Y006798D01*
X005307Y006798D02*
X005501Y006798D01*
X005501Y006897D02*
X005414Y006897D01*
X005448Y006995D02*
X005501Y006995D01*
X005501Y007094D02*
X005448Y007094D01*
X005449Y007093D02*
X005449Y007093D01*
X005449Y007093D01*
X005449Y007093D01*
X005501Y007192D02*
X005396Y007192D01*
X005350Y007291D02*
X005501Y007291D01*
X005501Y007389D02*
X005350Y007389D01*
X005350Y007488D02*
X005501Y007488D01*
X005501Y007586D02*
X005350Y007586D01*
X005350Y007685D02*
X005538Y007685D01*
X005557Y007703D02*
X005557Y007703D01*
X005620Y007783D02*
X005350Y007783D01*
X005350Y007882D02*
X005678Y007882D01*
X005807Y007980D02*
X005350Y007980D01*
X005350Y008079D02*
X006358Y008079D01*
X006358Y008177D02*
X005350Y008177D01*
X005350Y008276D02*
X006417Y008276D01*
X006344Y008374D02*
X005350Y008374D01*
X005350Y008473D02*
X006340Y008473D01*
X006340Y008571D02*
X005384Y008571D01*
X005483Y008670D02*
X006340Y008670D01*
X006665Y008564D02*
X007139Y008564D01*
X007139Y008526D01*
X006852Y008526D01*
X006665Y008526D01*
X006665Y008564D01*
X007177Y008564D02*
X007464Y008564D01*
X007464Y008700D01*
X007455Y008732D01*
X007440Y008758D01*
X009296Y008758D01*
X009398Y008655D01*
X009398Y008507D01*
X009393Y008502D01*
X009347Y008528D01*
X009296Y008542D01*
X009244Y008542D01*
X009193Y008542D01*
X009142Y008528D01*
X009096Y008501D01*
X009058Y008464D01*
X009031Y008417D01*
X009017Y008366D01*
X009017Y008137D01*
X009017Y008056D01*
X008956Y008056D01*
X008927Y008026D01*
X008927Y007947D01*
X008567Y007947D01*
X008518Y007899D01*
X007446Y007899D01*
X007446Y008217D01*
X007381Y008282D01*
X007365Y008282D01*
X007385Y008287D01*
X007414Y008304D01*
X007438Y008328D01*
X007455Y008357D01*
X007464Y008390D01*
X007464Y008526D01*
X007177Y008526D01*
X007177Y008564D01*
X007464Y008571D02*
X009398Y008571D01*
X009384Y008670D02*
X007464Y008670D01*
X007464Y008473D02*
X009067Y008473D01*
X009020Y008374D02*
X007459Y008374D01*
X007387Y008276D02*
X009017Y008276D01*
X009017Y008177D02*
X007446Y008177D01*
X007446Y008079D02*
X009017Y008079D01*
X009017Y008137D02*
X009244Y008137D01*
X009244Y008137D01*
X009017Y008137D01*
X008927Y007980D02*
X007446Y007980D01*
X007158Y008033D02*
X007158Y007738D01*
X006646Y007738D01*
X006646Y008033D01*
X006358Y007980D02*
X006016Y007980D01*
X005961Y007997D02*
X005961Y007997D01*
X005961Y007997D01*
X005961Y007997D01*
X005961Y007997D01*
X005961Y007997D01*
X005944Y007824D02*
X005898Y007738D01*
X005816Y007790D01*
X005718Y007636D01*
X005900Y007640D01*
X005898Y007738D01*
X005944Y007652D01*
X006105Y007738D01*
X006105Y007738D01*
X005944Y007824D01*
X005898Y007738D01*
X005944Y007652D01*
X005898Y007738D01*
X005944Y007824D01*
X005944Y007824D01*
X006105Y007738D01*
X006105Y007738D01*
X005944Y007824D01*
X005944Y007824D01*
X006105Y007738D01*
X005944Y007652D01*
X005944Y007652D01*
X005944Y007652D01*
X006105Y007738D01*
X005944Y007824D01*
X005898Y007738D02*
X005819Y007738D01*
X005718Y007636D01*
X005662Y007580D01*
X005662Y007029D01*
X005662Y004588D01*
X006567Y004588D01*
X006567Y004293D01*
X006279Y004336D02*
X005823Y004336D01*
X005823Y004237D02*
X006279Y004237D01*
X006279Y004139D02*
X005823Y004139D01*
X005823Y004040D02*
X006345Y004040D01*
X006263Y003942D02*
X005823Y003942D01*
X005823Y003843D02*
X006261Y003843D01*
X006261Y003745D02*
X005823Y003745D01*
X005823Y003646D02*
X006261Y003646D01*
X006304Y003548D02*
X005823Y003548D01*
X006548Y003548D02*
X006586Y003548D01*
X006586Y003646D02*
X006548Y003646D01*
X006548Y003745D02*
X006586Y003745D01*
X006586Y003762D02*
X006586Y003800D01*
X007139Y003800D01*
X007139Y003762D01*
X006852Y003762D01*
X006586Y003762D01*
X006831Y003548D02*
X006894Y003548D01*
X007139Y003548D02*
X007177Y003548D01*
X007177Y003646D02*
X007139Y003646D01*
X007139Y003745D02*
X007177Y003745D01*
X007158Y004588D02*
X006567Y004588D01*
X006535Y004817D02*
X006489Y004903D01*
X006535Y004989D01*
X006695Y004903D01*
X006535Y004817D01*
X006489Y004903D01*
X006535Y004817D01*
X006695Y004903D01*
X006695Y004903D01*
X006695Y004903D01*
X006535Y004989D01*
X006695Y004903D01*
X006535Y004989D01*
X006489Y004903D01*
X006535Y004989D01*
X006535Y004989D01*
X006535Y004989D01*
X006695Y004903D01*
X006535Y004817D01*
X006535Y004817D01*
X006535Y004817D01*
X006489Y004903D02*
X006695Y004903D01*
X006695Y004903D01*
X008845Y004903D01*
X008845Y005218D02*
X007050Y005218D01*
X007050Y005218D01*
X006889Y005304D01*
X006843Y005218D01*
X006889Y005132D01*
X007050Y005218D01*
X007050Y005218D01*
X006889Y005304D01*
X006889Y005304D01*
X006843Y005218D01*
X006889Y005132D01*
X006889Y005132D01*
X007050Y005218D01*
X007050Y005218D01*
X006889Y005304D01*
X006843Y005218D01*
X006889Y005132D01*
X006889Y005132D01*
X007050Y005218D01*
X006889Y005304D01*
X006889Y005304D01*
X007050Y005218D01*
X006843Y005218D01*
X006605Y005321D02*
X005823Y005321D01*
X005823Y005419D02*
X006636Y005419D01*
X006643Y005412D02*
X006663Y005404D01*
X006624Y005365D01*
X006584Y005270D01*
X006584Y005167D01*
X006591Y005150D01*
X006575Y005150D01*
X006554Y005162D01*
X006552Y005163D01*
X006544Y005160D01*
X006540Y005162D01*
X006437Y005162D01*
X006342Y005122D01*
X006269Y005050D01*
X006230Y004955D01*
X006230Y004852D01*
X006269Y004757D01*
X006277Y004749D01*
X005823Y004749D01*
X005823Y006868D01*
X007714Y006868D01*
X008099Y006418D01*
X008099Y006411D01*
X008142Y006368D01*
X008181Y006323D01*
X008188Y006322D01*
X008194Y006317D01*
X008254Y006317D01*
X008314Y006312D01*
X008320Y006317D01*
X008453Y006317D01*
X008449Y006311D01*
X008441Y006278D01*
X008441Y006163D01*
X008441Y006048D01*
X008449Y006015D01*
X008453Y006009D01*
X008305Y006009D01*
X008161Y006095D01*
X008123Y006159D01*
X008112Y006178D01*
X008098Y006201D01*
X008086Y006231D01*
X008072Y006244D01*
X008054Y006274D01*
X008038Y006278D01*
X008013Y006304D01*
X007918Y006343D01*
X007815Y006343D01*
X007720Y006304D01*
X007687Y006271D01*
X007633Y006402D01*
X007436Y006599D01*
X007179Y006706D01*
X006901Y006706D01*
X006643Y006599D01*
X006446Y006402D01*
X006340Y006145D01*
X006340Y005866D01*
X006446Y005609D01*
X006643Y005412D01*
X006538Y005518D02*
X005823Y005518D01*
X005823Y005616D02*
X006443Y005616D01*
X006403Y005715D02*
X005823Y005715D01*
X005823Y005813D02*
X006362Y005813D01*
X006340Y005912D02*
X005823Y005912D01*
X005823Y006010D02*
X006340Y006010D01*
X006340Y006109D02*
X005823Y006109D01*
X005823Y006207D02*
X006366Y006207D01*
X006406Y006306D02*
X005823Y006306D01*
X005823Y006404D02*
X006448Y006404D01*
X006547Y006503D02*
X005823Y006503D01*
X005823Y006601D02*
X006648Y006601D01*
X006886Y006700D02*
X005823Y006700D01*
X005823Y006798D02*
X007774Y006798D01*
X007858Y006700D02*
X007193Y006700D01*
X007431Y006601D02*
X007943Y006601D01*
X008027Y006503D02*
X007533Y006503D01*
X007631Y006404D02*
X008106Y006404D01*
X008008Y006306D02*
X008448Y006306D01*
X008441Y006207D02*
X008096Y006207D01*
X008054Y006274D02*
X008054Y006274D01*
X008054Y006274D01*
X008054Y006274D01*
X008054Y006274D01*
X007950Y006134D02*
X007867Y006084D01*
X007862Y005987D01*
X008044Y005978D01*
X007950Y006134D01*
X007867Y006084D01*
X008260Y005848D01*
X008845Y005848D01*
X008845Y005533D02*
X008136Y005533D01*
X007955Y005515D01*
X007945Y005612D01*
X008021Y005674D01*
X008136Y005533D01*
X008024Y005533D01*
X007945Y005612D01*
X008044Y005978D02*
X007950Y006134D01*
X008153Y006109D02*
X008441Y006109D01*
X008441Y006163D02*
X008845Y006163D01*
X008845Y006163D01*
X008441Y006163D01*
X008452Y006010D02*
X008303Y006010D01*
X007725Y006306D02*
X007673Y006306D01*
X008260Y006478D02*
X007788Y007029D01*
X005662Y007029D01*
X005823Y007190D02*
X005823Y007478D01*
X005837Y007478D01*
X005901Y007479D01*
X005949Y007479D01*
X005952Y007480D01*
X005953Y007480D01*
X005955Y007480D01*
X005961Y007478D01*
X005961Y007478D01*
X005961Y007478D01*
X005961Y007478D01*
X005961Y007478D01*
X005961Y007478D01*
X005961Y007478D01*
X005965Y007480D01*
X005970Y007481D01*
X005975Y007485D01*
X005985Y007491D01*
X006011Y007491D01*
X006034Y007514D01*
X006045Y007519D01*
X006054Y007528D01*
X006145Y007577D01*
X006171Y007577D01*
X006713Y007577D01*
X008453Y007577D01*
X008449Y007571D01*
X008441Y007538D01*
X008441Y007423D01*
X008845Y007423D01*
X008845Y007423D01*
X008441Y007423D01*
X008441Y007307D01*
X008449Y007275D01*
X008461Y007255D01*
X008458Y007252D01*
X008458Y006963D01*
X008471Y006950D01*
X008458Y006937D01*
X008458Y006649D01*
X008468Y006639D01*
X008334Y006639D01*
X007949Y007089D01*
X007949Y007096D01*
X007906Y007139D01*
X007867Y007185D01*
X007860Y007185D01*
X007854Y007190D01*
X007794Y007190D01*
X007734Y007195D01*
X007728Y007190D01*
X005823Y007190D01*
X005823Y007192D02*
X007730Y007192D01*
X007770Y007192D02*
X008458Y007192D01*
X008458Y007094D02*
X007949Y007094D01*
X008029Y006995D02*
X008458Y006995D01*
X008458Y006897D02*
X008114Y006897D01*
X008198Y006798D02*
X008458Y006798D01*
X008458Y006700D02*
X008282Y006700D01*
X008260Y006478D02*
X008845Y006478D01*
X008445Y007291D02*
X005823Y007291D01*
X005823Y007389D02*
X008441Y007389D01*
X008441Y007488D02*
X005979Y007488D01*
X006171Y007577D02*
X006171Y007577D01*
X006105Y007738D02*
X005898Y007738D01*
X006105Y007738D02*
X006105Y007738D01*
X006646Y007738D01*
X007158Y007738D02*
X008845Y007738D01*
X009244Y008137D02*
X009244Y008542D01*
X009244Y008137D01*
X009244Y008137D01*
X009244Y008177D02*
X009244Y008177D01*
X009244Y008276D02*
X009244Y008276D01*
X009244Y008374D02*
X009244Y008374D01*
X009244Y008473D02*
X009244Y008473D01*
X010189Y008137D02*
X010189Y008880D01*
X009678Y009391D01*
X008496Y009391D01*
X008418Y009470D01*
X008418Y012935D01*
X008406Y012946D01*
X008232Y012999D01*
X008260Y013092D01*
X008354Y013120D01*
X008406Y012946D01*
X008260Y013092D01*
X008082Y012905D02*
X003108Y012905D01*
X003124Y013004D02*
X004330Y013004D01*
X004315Y013102D02*
X003159Y013102D01*
X003159Y013201D02*
X004315Y013201D01*
X004315Y013299D02*
X003159Y013299D01*
X003159Y013398D02*
X004315Y013398D01*
X004315Y013496D02*
X003159Y013496D01*
X003012Y013595D02*
X004461Y013595D01*
X004461Y013693D02*
X003012Y013693D01*
X003012Y013792D02*
X004461Y013792D01*
X004461Y013890D02*
X003012Y013890D01*
X003062Y013989D02*
X004411Y013989D01*
X004454Y013918D02*
X004454Y013918D01*
X004383Y014087D02*
X004259Y014087D01*
X004051Y014087D02*
X004013Y014087D01*
X004013Y014186D02*
X004051Y014186D01*
X004051Y014284D02*
X004013Y014284D01*
X004013Y014329D02*
X003460Y014329D01*
X003460Y014367D01*
X003687Y014367D01*
X004013Y014367D01*
X004013Y014329D01*
X004013Y014383D02*
X004051Y014383D01*
X004051Y014481D02*
X004013Y014481D01*
X004013Y014580D02*
X004051Y014580D01*
X004051Y014678D02*
X004013Y014678D01*
X003926Y014678D02*
X003547Y014678D01*
X003460Y014678D02*
X003422Y014678D01*
X003336Y014678D02*
X002515Y014678D01*
X002579Y014742D02*
X002437Y014600D01*
X002437Y012158D01*
X002481Y012076D01*
X002486Y012067D01*
X002495Y012058D01*
X002499Y012047D01*
X002523Y012024D01*
X002523Y011998D01*
X002527Y011990D01*
X002535Y011974D01*
X002535Y011974D01*
X002535Y011974D01*
X002533Y011966D01*
X002535Y011962D01*
X002535Y011860D01*
X002495Y011765D01*
X002423Y011692D01*
X002327Y011652D01*
X002225Y011652D01*
X002129Y011692D01*
X002057Y011765D01*
X002017Y011860D01*
X002017Y011962D01*
X002019Y011966D01*
X002016Y011974D01*
X002016Y011974D01*
X002016Y011974D01*
X002016Y011974D01*
X002016Y011974D01*
X002016Y011974D01*
X002029Y011998D01*
X002029Y012024D01*
X002053Y012047D01*
X002057Y012058D01*
X002066Y012067D01*
X002080Y012093D01*
X002084Y012100D01*
X002115Y012158D01*
X002115Y012184D01*
X002115Y012184D01*
X002115Y014734D01*
X002209Y014828D01*
X002446Y015064D01*
X014549Y015064D01*
X014625Y015105D01*
X014640Y015113D01*
X014649Y015122D01*
X014659Y015127D01*
X014683Y015150D01*
X014709Y015150D01*
X014725Y015159D01*
X014732Y015163D01*
X014732Y015163D01*
X014732Y015163D01*
X014732Y015163D01*
X014732Y015163D01*
X014732Y015163D01*
X014740Y015160D01*
X014744Y015162D01*
X014847Y015162D01*
X014942Y015122D01*
X015015Y015050D01*
X015054Y014955D01*
X015054Y014852D01*
X015015Y014757D01*
X014942Y014684D01*
X014847Y014644D01*
X014744Y014644D01*
X014740Y014646D01*
X014732Y014644D01*
X014732Y014644D01*
X014709Y014656D01*
X014683Y014656D01*
X014659Y014680D01*
X014649Y014684D01*
X014640Y014693D01*
X014592Y014719D01*
X014549Y014742D01*
X014522Y014742D01*
X014522Y014742D01*
X002579Y014742D01*
X002619Y014580D02*
X002437Y014580D01*
X002437Y014481D02*
X002551Y014481D01*
X002523Y014383D02*
X002437Y014383D01*
X002437Y014284D02*
X002519Y014284D01*
X002564Y014186D02*
X002437Y014186D01*
X002437Y014087D02*
X002611Y014087D01*
X002591Y014130D02*
X002591Y014130D01*
X002640Y013989D02*
X002437Y013989D01*
X002437Y013890D02*
X002690Y013890D01*
X002690Y013792D02*
X002437Y013792D01*
X002437Y013693D02*
X002690Y013693D01*
X002690Y013595D02*
X002437Y013595D01*
X002437Y013496D02*
X002504Y013496D01*
X002504Y013398D02*
X002437Y013398D01*
X002437Y013299D02*
X002504Y013299D01*
X002504Y013201D02*
X002437Y013201D01*
X002437Y013102D02*
X002504Y013102D01*
X002538Y013004D02*
X002437Y013004D01*
X002437Y012905D02*
X002554Y012905D01*
X002504Y012807D02*
X002437Y012807D01*
X002437Y012708D02*
X002504Y012708D01*
X002504Y012610D02*
X002437Y012610D01*
X002437Y012511D02*
X002504Y012511D01*
X002504Y012413D02*
X002437Y012413D01*
X002437Y012314D02*
X002558Y012314D01*
X002670Y012216D02*
X002437Y012216D01*
X002459Y012117D02*
X002670Y012117D01*
X002670Y012019D02*
X002523Y012019D01*
X002535Y011974D02*
X002535Y011974D01*
X002535Y011920D02*
X002670Y011920D01*
X002670Y011822D02*
X002519Y011822D01*
X002454Y011723D02*
X002670Y011723D01*
X002670Y011625D02*
X001965Y011625D01*
X001965Y011723D02*
X002098Y011723D01*
X002033Y011822D02*
X001965Y011822D01*
X001965Y011920D02*
X002017Y011920D01*
X002029Y012019D02*
X001965Y012019D01*
X001965Y012117D02*
X002093Y012117D01*
X002115Y012216D02*
X001965Y012216D01*
X001965Y012314D02*
X002115Y012314D01*
X002115Y012413D02*
X001965Y012413D01*
X001965Y012511D02*
X002115Y012511D01*
X002115Y012610D02*
X001965Y012610D01*
X001965Y012708D02*
X002115Y012708D01*
X002115Y012807D02*
X001965Y012807D01*
X001965Y012905D02*
X002115Y012905D01*
X002115Y013004D02*
X001965Y013004D01*
X001965Y013102D02*
X002115Y013102D01*
X002115Y013201D02*
X001965Y013201D01*
X001965Y013299D02*
X002115Y013299D01*
X002115Y013398D02*
X001965Y013398D01*
X001965Y013496D02*
X002115Y013496D01*
X002115Y013595D02*
X001965Y013595D01*
X001965Y013693D02*
X002115Y013693D01*
X002115Y013792D02*
X001965Y013792D01*
X001965Y013890D02*
X002115Y013890D01*
X002115Y013989D02*
X001965Y013989D01*
X001965Y014087D02*
X002115Y014087D01*
X002115Y014186D02*
X001965Y014186D01*
X001965Y014284D02*
X002115Y014284D01*
X002115Y014383D02*
X001965Y014383D01*
X001965Y014481D02*
X002115Y014481D01*
X002115Y014580D02*
X001965Y014580D01*
X001965Y014678D02*
X002115Y014678D01*
X002158Y014777D02*
X001965Y014777D01*
X001965Y014875D02*
X002256Y014875D01*
X002355Y014974D02*
X001965Y014974D01*
X002043Y015072D02*
X014563Y015072D01*
X014589Y014903D02*
X014750Y014989D01*
X014796Y014903D01*
X014750Y014989D01*
X014750Y014989D01*
X014796Y014903D01*
X014750Y014817D01*
X014796Y014903D01*
X014750Y014817D01*
X014750Y014817D01*
X014589Y014903D01*
X014750Y014989D01*
X014750Y014989D01*
X014589Y014903D01*
X014750Y014817D01*
X014750Y014817D01*
X014589Y014903D01*
X014589Y014903D01*
X014750Y014817D01*
X014589Y014903D01*
X014589Y014903D01*
X014750Y014989D01*
X014796Y014903D02*
X014589Y014903D01*
X014589Y014903D01*
X002512Y014903D01*
X002276Y014667D01*
X002276Y012118D01*
X002362Y011957D01*
X002276Y011911D01*
X002362Y011957D01*
X002362Y011957D01*
X002276Y011911D01*
X002190Y011957D01*
X002276Y011911D01*
X002190Y011957D01*
X002190Y011957D01*
X002276Y012118D01*
X002362Y011957D01*
X002362Y011957D01*
X002276Y012118D01*
X002190Y011957D01*
X002276Y012118D01*
X002276Y012118D01*
X002276Y012118D01*
X002276Y012118D01*
X002190Y011957D01*
X002190Y011957D01*
X002276Y012118D01*
X002362Y011957D01*
X002276Y011911D02*
X002276Y012118D01*
X001965Y011526D02*
X002670Y011526D01*
X002670Y011428D02*
X001965Y011428D01*
X001922Y011329D02*
X002670Y011329D01*
X002670Y011231D02*
X001823Y011231D01*
X001725Y011132D02*
X002670Y011132D01*
X002670Y011034D02*
X001626Y011034D01*
X001528Y010935D02*
X002670Y010935D01*
X002670Y010837D02*
X001429Y010837D01*
X001331Y010738D02*
X002670Y010738D01*
X002831Y010655D02*
X002670Y010494D01*
X001331Y010494D01*
X001095Y010257D01*
X001095Y009234D01*
X001209Y009120D01*
X001910Y009120D01*
X002279Y009359D02*
X002541Y009359D01*
X002468Y009458D02*
X002352Y009458D01*
X002393Y009556D02*
X002427Y009556D01*
X002425Y009655D02*
X002395Y009655D01*
X002364Y009753D02*
X002456Y009753D01*
X002533Y009852D02*
X002287Y009852D01*
X001910Y009620D02*
X001417Y009620D01*
X001331Y009706D01*
X001331Y010179D01*
X001410Y010257D01*
X004481Y010257D01*
X004638Y010415D01*
X004638Y012588D01*
X004642Y012592D01*
X004315Y012610D02*
X003159Y012610D01*
X003159Y012708D02*
X004315Y012708D01*
X004315Y012807D02*
X003159Y012807D01*
X003159Y012511D02*
X004315Y012511D01*
X004315Y012413D02*
X003159Y012413D01*
X003104Y012314D02*
X004350Y012314D01*
X004477Y012216D02*
X002992Y012216D01*
X002992Y012117D02*
X004477Y012117D01*
X004477Y012019D02*
X002992Y012019D01*
X002992Y011920D02*
X004477Y011920D01*
X004477Y011822D02*
X002992Y011822D01*
X002992Y011723D02*
X004477Y011723D01*
X004477Y011625D02*
X002992Y011625D01*
X002992Y011526D02*
X004477Y011526D01*
X004477Y011428D02*
X002992Y011428D01*
X002992Y011329D02*
X004477Y011329D01*
X004477Y011231D02*
X002992Y011231D01*
X002992Y011132D02*
X004477Y011132D01*
X004477Y011034D02*
X002992Y011034D01*
X002992Y010935D02*
X004477Y010935D01*
X004477Y010837D02*
X002992Y010837D01*
X002992Y010738D02*
X004477Y010738D01*
X004477Y010640D02*
X002992Y010640D01*
X002945Y010541D02*
X004477Y010541D01*
X004438Y010443D02*
X002846Y010443D01*
X002831Y010655D02*
X002831Y012612D01*
X002831Y013281D02*
X002851Y013301D01*
X002851Y014072D01*
X002851Y014348D01*
X003083Y014580D02*
X003185Y014580D01*
X003422Y014580D02*
X003460Y014580D01*
X003460Y014481D02*
X003422Y014481D01*
X003422Y014383D02*
X003460Y014383D01*
X003460Y014284D02*
X003422Y014284D01*
X003422Y014186D02*
X003460Y014186D01*
X003460Y014087D02*
X003422Y014087D01*
X003214Y014087D02*
X003090Y014087D01*
X003669Y014087D02*
X003805Y014087D01*
X003775Y014580D02*
X003698Y014580D01*
X004137Y014678D02*
X014661Y014678D01*
X014732Y014644D02*
X014732Y014644D01*
X014732Y014644D01*
X014732Y014644D01*
X014732Y014644D01*
X014732Y014644D01*
X014732Y014644D01*
X014928Y014678D02*
X015806Y014678D01*
X015806Y014777D02*
X015023Y014777D01*
X015054Y014875D02*
X015806Y014875D01*
X015806Y014974D02*
X015046Y014974D01*
X014993Y015072D02*
X015802Y015072D01*
X015704Y015171D02*
X012684Y015171D01*
X012790Y015205D02*
X012790Y015205D01*
X012558Y015111D02*
X012558Y015111D01*
X012558Y015111D01*
X012558Y015111D01*
X012558Y015111D01*
X012558Y015111D01*
X012558Y015111D01*
X012351Y015171D02*
X002141Y015171D01*
X002240Y015269D02*
X012276Y015269D01*
X012254Y015368D02*
X002338Y015368D01*
X002437Y015466D02*
X012270Y015466D01*
X016148Y013693D02*
X016582Y013693D01*
X016517Y013595D02*
X016148Y013595D01*
X016148Y013496D02*
X016506Y013496D01*
X016505Y013549D02*
X016505Y013549D01*
X016505Y013549D01*
X016505Y013549D01*
X016505Y013549D01*
X016505Y013549D01*
X016521Y013398D02*
X016148Y013398D01*
X016148Y013299D02*
X016585Y013299D01*
X016943Y013299D02*
X018817Y013299D01*
X018807Y013201D02*
X016148Y013201D01*
X016148Y013102D02*
X018830Y013102D01*
X018893Y013004D02*
X016148Y013004D01*
X016148Y012905D02*
X018887Y012905D01*
X019306Y013299D02*
X019314Y013299D01*
X019306Y013398D02*
X019314Y013398D01*
X019306Y013496D02*
X019314Y013496D01*
X018968Y013496D02*
X017023Y013496D01*
X017008Y013398D02*
X018862Y013398D01*
X017904Y012807D02*
X016148Y012807D01*
X016148Y012708D02*
X017806Y012708D01*
X017707Y012610D02*
X016148Y012610D01*
X016148Y012511D02*
X017609Y012511D01*
X017510Y012413D02*
X016148Y012413D01*
X016148Y012314D02*
X017412Y012314D01*
X017406Y012308D02*
X017406Y012308D01*
X017313Y012216D02*
X016148Y012216D01*
X016148Y012117D02*
X017312Y012117D01*
X017312Y012019D02*
X016138Y012019D01*
X016138Y011920D02*
X017312Y011920D01*
X017312Y011822D02*
X016138Y011822D01*
X016138Y011723D02*
X017312Y011723D01*
X017312Y011625D02*
X016138Y011625D01*
X016138Y011526D02*
X017312Y011526D01*
X017312Y011428D02*
X016138Y011428D01*
X016138Y011329D02*
X017312Y011329D01*
X017312Y011231D02*
X016138Y011231D01*
X016138Y011132D02*
X017312Y011132D01*
X017312Y011034D02*
X016138Y011034D01*
X016138Y010935D02*
X017312Y010935D01*
X017312Y010837D02*
X016138Y010837D01*
X016138Y010738D02*
X017312Y010738D01*
X017312Y010640D02*
X016138Y010640D01*
X016138Y010541D02*
X017312Y010541D01*
X017312Y010443D02*
X016138Y010443D01*
X016138Y010344D02*
X017312Y010344D01*
X017312Y010246D02*
X016138Y010246D01*
X016138Y010147D02*
X017312Y010147D01*
X017312Y010049D02*
X016138Y010049D01*
X016138Y009950D02*
X017312Y009950D01*
X017312Y009852D02*
X016138Y009852D01*
X016138Y009753D02*
X017312Y009753D01*
X017312Y009655D02*
X016138Y009655D01*
X016138Y009556D02*
X017312Y009556D01*
X017312Y009458D02*
X016138Y009458D01*
X016138Y009359D02*
X017312Y009359D01*
X017312Y009261D02*
X016138Y009261D01*
X016138Y009162D02*
X017312Y009162D01*
X017312Y009064D02*
X016138Y009064D01*
X016138Y008965D02*
X017312Y008965D01*
X017312Y008867D02*
X016138Y008867D01*
X016138Y008768D02*
X017312Y008768D01*
X017312Y008670D02*
X016138Y008670D01*
X016138Y008571D02*
X017357Y008571D01*
X017455Y008473D02*
X017202Y008473D01*
X017301Y008374D02*
X017554Y008374D01*
X017652Y008276D02*
X017399Y008276D01*
X017141Y008079D02*
X016138Y008079D01*
X016138Y008177D02*
X017042Y008177D01*
X017239Y007980D02*
X016138Y007980D01*
X016138Y007882D02*
X020773Y007882D01*
X020773Y007783D02*
X016138Y007783D01*
X016138Y007685D02*
X021050Y007685D01*
X021147Y007685D02*
X021576Y007685D01*
X021576Y007783D02*
X021424Y007783D01*
X021424Y007882D02*
X021576Y007882D01*
X021576Y007980D02*
X021400Y007980D01*
X021392Y008079D02*
X021576Y008079D01*
X021576Y008177D02*
X021407Y008177D01*
X021407Y008276D02*
X021576Y008276D01*
X021576Y008374D02*
X021407Y008374D01*
X021407Y008473D02*
X021576Y008473D01*
X021576Y008571D02*
X021407Y008571D01*
X021356Y008670D02*
X021576Y008670D01*
X021576Y008768D02*
X021159Y008768D01*
X021060Y008867D02*
X021576Y008867D01*
X021576Y008965D02*
X020763Y008965D01*
X020763Y009064D02*
X021576Y009064D01*
X021576Y009162D02*
X020763Y009162D01*
X020763Y009261D02*
X021576Y009261D01*
X021576Y009359D02*
X020763Y009359D01*
X020763Y009458D02*
X021576Y009458D01*
X021576Y009556D02*
X020763Y009556D01*
X021516Y009655D02*
X021576Y009655D01*
X020937Y008761D02*
X020622Y008761D01*
X020783Y008571D02*
X020791Y008571D01*
X020783Y008473D02*
X020791Y008473D01*
X020783Y008374D02*
X020791Y008374D01*
X020783Y008276D02*
X020791Y008276D01*
X020791Y008177D02*
X020738Y008177D01*
X020806Y008079D02*
X020640Y008079D01*
X020541Y007980D02*
X020798Y007980D01*
X021099Y008356D02*
X021099Y008600D01*
X020937Y008761D01*
X021050Y007586D02*
X021147Y007586D01*
X021147Y007488D02*
X021050Y007488D01*
X021050Y007389D02*
X021147Y007389D01*
X021397Y007389D02*
X021576Y007389D01*
X021576Y007291D02*
X020777Y007291D01*
X020781Y007278D02*
X020772Y007311D01*
X020755Y007340D01*
X020731Y007364D01*
X020702Y007381D01*
X020669Y007390D01*
X020569Y007390D01*
X020569Y006911D01*
X020569Y006911D01*
X020569Y006432D01*
X020669Y006432D01*
X020702Y006441D01*
X020731Y006458D01*
X020755Y006482D01*
X020772Y006511D01*
X020781Y006544D01*
X020781Y006911D01*
X020569Y006911D01*
X020569Y006911D01*
X020781Y006911D01*
X020781Y007278D01*
X020781Y007192D02*
X021576Y007192D01*
X021576Y007094D02*
X020781Y007094D01*
X020781Y006995D02*
X021576Y006995D01*
X021576Y006897D02*
X020781Y006897D01*
X020781Y006798D02*
X021576Y006798D01*
X021576Y006700D02*
X020781Y006700D01*
X020781Y006601D02*
X021576Y006601D01*
X021576Y006503D02*
X020767Y006503D01*
X020569Y006503D02*
X020569Y006503D01*
X020569Y006601D02*
X020569Y006601D01*
X020569Y006700D02*
X020569Y006700D01*
X020569Y006798D02*
X020569Y006798D01*
X020569Y006897D02*
X020569Y006897D01*
X020569Y006995D02*
X020569Y006995D01*
X020569Y007094D02*
X020569Y007094D01*
X020569Y007192D02*
X020569Y007192D01*
X020569Y007291D02*
X020569Y007291D01*
X020569Y007389D02*
X020569Y007389D01*
X020465Y007389D02*
X018417Y007389D01*
X018313Y007389D02*
X018313Y007389D01*
X018313Y007291D02*
X018313Y007291D01*
X018313Y007192D02*
X018313Y007192D01*
X018313Y007094D02*
X018313Y007094D01*
X018313Y006995D02*
X018313Y006995D01*
X018102Y006995D02*
X017623Y006995D01*
X017613Y007018D02*
X017541Y007091D01*
X017446Y007130D01*
X017343Y007130D01*
X017248Y007091D01*
X017175Y007018D01*
X017135Y006923D01*
X017135Y006820D01*
X017142Y006804D01*
X017139Y006791D01*
X017163Y006753D01*
X017175Y006725D01*
X017190Y006710D01*
X017247Y006619D01*
X017247Y004869D01*
X017244Y004869D01*
X017179Y004803D01*
X017179Y003845D01*
X017244Y003780D01*
X017572Y003780D01*
X017637Y003845D01*
X017637Y004803D01*
X017572Y004869D01*
X017569Y004869D01*
X017569Y006631D01*
X017610Y006722D01*
X017613Y006725D01*
X017631Y006769D01*
X017633Y006773D01*
X017657Y006826D01*
X017653Y006838D01*
X017653Y006923D01*
X017613Y007018D01*
X017534Y007094D02*
X018102Y007094D01*
X018102Y007192D02*
X016138Y007192D01*
X016138Y007094D02*
X017254Y007094D01*
X017165Y006995D02*
X016138Y006995D01*
X016138Y006897D02*
X017135Y006897D01*
X017141Y006798D02*
X016138Y006798D01*
X016138Y006700D02*
X017197Y006700D01*
X017247Y006601D02*
X016138Y006601D01*
X016138Y006503D02*
X017247Y006503D01*
X017247Y006404D02*
X016138Y006404D01*
X016138Y006306D02*
X017247Y006306D01*
X017247Y006207D02*
X016138Y006207D01*
X016138Y006109D02*
X017247Y006109D01*
X017247Y006010D02*
X016138Y006010D01*
X016138Y005912D02*
X017247Y005912D01*
X017247Y005813D02*
X016138Y005813D01*
X016138Y005715D02*
X017247Y005715D01*
X017247Y005616D02*
X016138Y005616D01*
X016138Y005518D02*
X017247Y005518D01*
X017247Y005419D02*
X016138Y005419D01*
X016138Y005321D02*
X017247Y005321D01*
X017247Y005222D02*
X016138Y005222D01*
X016138Y005124D02*
X017247Y005124D01*
X017247Y005025D02*
X016138Y005025D01*
X016138Y004927D02*
X017247Y004927D01*
X017203Y004828D02*
X016138Y004828D01*
X016138Y004730D02*
X017179Y004730D01*
X017179Y004631D02*
X016138Y004631D01*
X016138Y004533D02*
X017179Y004533D01*
X017179Y004434D02*
X016138Y004434D01*
X016138Y004336D02*
X017179Y004336D01*
X017179Y004237D02*
X016138Y004237D01*
X016138Y004139D02*
X017179Y004139D01*
X017179Y004040D02*
X016138Y004040D01*
X016138Y003942D02*
X017179Y003942D01*
X017181Y003843D02*
X016138Y003843D01*
X016138Y003745D02*
X017747Y003745D01*
X017720Y003646D02*
X016138Y003646D01*
X016138Y003548D02*
X017666Y003548D01*
X017647Y003449D02*
X016138Y003449D01*
X016138Y003351D02*
X017666Y003351D01*
X017735Y003252D02*
X016138Y003252D01*
X016138Y003154D02*
X020747Y003154D01*
X020747Y003055D02*
X016138Y003055D01*
X016138Y002957D02*
X017222Y002957D01*
X017179Y002858D02*
X016138Y002858D01*
X016138Y002760D02*
X017179Y002760D01*
X017179Y002661D02*
X016138Y002661D01*
X016138Y002563D02*
X017179Y002563D01*
X017179Y002464D02*
X016138Y002464D01*
X016138Y002366D02*
X017179Y002366D01*
X017179Y002267D02*
X016138Y002267D01*
X016138Y002169D02*
X017179Y002169D01*
X017179Y002070D02*
X016138Y002070D01*
X016138Y001972D02*
X017179Y001972D01*
X016971Y001873D02*
X016138Y001873D01*
X016184Y001775D02*
X016941Y001775D01*
X017268Y001600D02*
X016130Y001600D01*
X016075Y001655D01*
X015977Y001557D01*
X015977Y001163D01*
X015859Y001045D01*
X013772Y001045D01*
X013681Y001135D01*
X013681Y001502D01*
X013393Y001479D02*
X013237Y001479D01*
X013237Y001381D02*
X013393Y001381D01*
X013429Y001282D02*
X013202Y001282D01*
X013237Y001578D02*
X013393Y001578D01*
X013393Y001676D02*
X013237Y001676D01*
X013182Y001775D02*
X013448Y001775D01*
X013458Y001765D02*
X013905Y001765D01*
X013970Y001830D01*
X013970Y002197D01*
X013905Y002262D01*
X013843Y002262D01*
X013843Y002537D01*
X014390Y002537D01*
X014547Y002695D01*
X014642Y002789D01*
X014642Y002845D01*
X014644Y002849D01*
X014691Y002936D01*
X014700Y002946D01*
X014704Y002956D01*
X014728Y002979D01*
X014728Y003006D01*
X014734Y003018D01*
X014740Y003029D01*
X014740Y003029D01*
X014740Y003029D01*
X014738Y003037D01*
X014739Y003041D01*
X014739Y003144D01*
X014700Y003239D01*
X014627Y003311D01*
X014532Y003351D01*
X014429Y003351D01*
X014334Y003311D01*
X014261Y003239D01*
X014222Y003144D01*
X014222Y003041D01*
X014224Y003037D01*
X014221Y003029D01*
X014221Y003029D01*
X014221Y003029D01*
X014221Y003029D01*
X014234Y003006D01*
X014234Y002979D01*
X014257Y002956D01*
X014261Y002946D01*
X014271Y002936D01*
X014293Y002896D01*
X014257Y002859D01*
X013705Y002859D01*
X013615Y002769D01*
X013615Y002769D01*
X013520Y002675D01*
X013520Y002262D01*
X013458Y002262D01*
X013393Y002197D01*
X013393Y001830D01*
X013458Y001765D01*
X013393Y001873D02*
X013237Y001873D01*
X013237Y001972D02*
X013393Y001972D01*
X013393Y002070D02*
X013237Y002070D01*
X013237Y002169D02*
X013393Y002169D01*
X013520Y002267D02*
X013110Y002267D01*
X013110Y002366D02*
X013520Y002366D01*
X013520Y002464D02*
X013110Y002464D01*
X013110Y002563D02*
X013520Y002563D01*
X013520Y002661D02*
X013110Y002661D01*
X013110Y002760D02*
X013605Y002760D01*
X013704Y002858D02*
X013110Y002858D01*
X013110Y002957D02*
X014256Y002957D01*
X014222Y003055D02*
X013092Y003055D01*
X012994Y003154D02*
X014226Y003154D01*
X014275Y003252D02*
X012895Y003252D01*
X012797Y003351D02*
X014429Y003351D01*
X014533Y003351D02*
X015816Y003351D01*
X015816Y003449D02*
X015739Y003449D01*
X015810Y003548D02*
X015816Y003548D01*
X015810Y003646D02*
X015816Y003646D01*
X015810Y003745D02*
X015816Y003745D01*
X015810Y003843D02*
X015816Y003843D01*
X015816Y003942D02*
X015762Y003942D01*
X015793Y004040D02*
X015816Y004040D01*
X015816Y004139D02*
X015793Y004139D01*
X015793Y004237D02*
X015816Y004237D01*
X015816Y004336D02*
X015793Y004336D01*
X015504Y004214D02*
X015504Y004588D01*
X014914Y004588D01*
X014914Y004214D01*
X014626Y004237D02*
X013495Y004237D01*
X013495Y004336D02*
X014626Y004336D01*
X014626Y004139D02*
X013462Y004139D01*
X013027Y004040D02*
X014626Y004040D01*
X014656Y003942D02*
X012919Y003942D01*
X012919Y003843D02*
X014608Y003843D01*
X014608Y003745D02*
X012919Y003745D01*
X012919Y003646D02*
X014608Y003646D01*
X014608Y003548D02*
X012871Y003548D01*
X012698Y003449D02*
X014679Y003449D01*
X014687Y003252D02*
X015816Y003252D01*
X015816Y003154D02*
X014735Y003154D01*
X014739Y003055D02*
X015816Y003055D01*
X015816Y002957D02*
X014705Y002957D01*
X014740Y003029D02*
X014740Y003029D01*
X014740Y003029D01*
X014740Y003029D01*
X014567Y003046D02*
X014481Y003092D01*
X014395Y003046D01*
X014481Y002885D01*
X014481Y002885D01*
X014567Y003046D01*
X014481Y002885D01*
X014567Y003046D01*
X014481Y003092D01*
X014395Y003046D01*
X014481Y002885D01*
X014481Y002885D01*
X014481Y002856D01*
X014323Y002698D01*
X013772Y002698D01*
X013681Y002608D01*
X013681Y002013D01*
X013970Y001972D02*
X015816Y001972D01*
X015816Y002070D02*
X013970Y002070D01*
X013970Y002169D02*
X015816Y002169D01*
X015816Y002267D02*
X013843Y002267D01*
X013843Y002366D02*
X015816Y002366D01*
X015816Y002464D02*
X013843Y002464D01*
X014415Y002563D02*
X015816Y002563D01*
X015816Y002661D02*
X014514Y002661D01*
X014612Y002760D02*
X015816Y002760D01*
X015816Y002858D02*
X014649Y002858D01*
X014481Y002885D02*
X014395Y003046D01*
X014481Y003092D01*
X014567Y003046D01*
X014481Y002885D01*
X014481Y002885D01*
X014567Y003046D01*
X014567Y003046D01*
X014567Y003046D01*
X014481Y003092D02*
X014481Y002885D01*
X014395Y003046D02*
X014395Y003046D01*
X014395Y003046D01*
X014895Y003449D02*
X014933Y003449D01*
X014933Y003548D02*
X014895Y003548D01*
X014895Y003646D02*
X014933Y003646D01*
X014933Y003683D02*
X014933Y003721D01*
X015485Y003721D01*
X015485Y003683D01*
X015198Y003683D01*
X014933Y003683D01*
X015148Y003449D02*
X015270Y003449D01*
X015485Y003449D02*
X015523Y003449D01*
X015523Y003548D02*
X015485Y003548D01*
X015485Y003646D02*
X015523Y003646D01*
X015504Y004588D02*
X015977Y004588D01*
X015977Y005139D01*
X014756Y005139D01*
X014048Y005848D01*
X013109Y005848D01*
X013109Y005533D02*
X013513Y005533D01*
X013109Y005533D01*
X013109Y005533D01*
X013109Y005218D02*
X014244Y005218D01*
X014335Y005128D01*
X014509Y005075D01*
X014481Y004982D01*
X014387Y004954D01*
X014335Y005128D01*
X014481Y004982D01*
X014237Y004895D02*
X014252Y004843D01*
X014260Y004839D01*
X014261Y004835D01*
X014334Y004763D01*
X014367Y004749D01*
X013501Y004749D01*
X013504Y004755D01*
X013513Y004788D01*
X013513Y004903D01*
X013109Y004903D01*
X013109Y004903D01*
X013513Y004903D01*
X013513Y005019D01*
X013504Y005051D01*
X013501Y005057D01*
X014178Y005057D01*
X014192Y005043D01*
X014214Y004971D01*
X014214Y004971D01*
X014222Y004944D01*
X014222Y004930D01*
X014237Y004895D01*
X014224Y004927D02*
X013513Y004927D01*
X013511Y005025D02*
X014197Y005025D01*
X014252Y004843D02*
X014252Y004843D01*
X014252Y004843D01*
X014269Y004828D02*
X013513Y004828D01*
X013109Y004588D02*
X014914Y004588D01*
X014823Y005300D02*
X014818Y005306D01*
X015053Y005306D01*
X015310Y005412D01*
X015507Y005609D01*
X015614Y005866D01*
X015614Y006145D01*
X015507Y006402D01*
X015310Y006599D01*
X015053Y006706D01*
X014775Y006706D01*
X014517Y006599D01*
X014320Y006402D01*
X014214Y006145D01*
X014214Y005910D01*
X014114Y006009D01*
X013501Y006009D01*
X013504Y006015D01*
X013513Y006048D01*
X013513Y006163D01*
X013513Y006278D01*
X013504Y006311D01*
X013503Y006314D01*
X013542Y006317D01*
X013603Y006317D01*
X013608Y006322D01*
X013615Y006323D01*
X013654Y006368D01*
X013697Y006411D01*
X013697Y006418D01*
X014082Y006868D01*
X015816Y006868D01*
X015816Y005300D01*
X014823Y005300D01*
X015089Y005321D02*
X015816Y005321D01*
X015816Y005419D02*
X015317Y005419D01*
X015416Y005518D02*
X015816Y005518D01*
X015816Y005616D02*
X015510Y005616D01*
X015551Y005715D02*
X015816Y005715D01*
X015816Y005813D02*
X015592Y005813D01*
X015614Y005912D02*
X015816Y005912D01*
X015816Y006010D02*
X015614Y006010D01*
X015614Y006109D02*
X015816Y006109D01*
X015816Y006207D02*
X015588Y006207D01*
X015547Y006306D02*
X015816Y006306D01*
X015816Y006404D02*
X015505Y006404D01*
X015407Y006503D02*
X015816Y006503D01*
X015816Y006601D02*
X015305Y006601D01*
X015067Y006700D02*
X015816Y006700D01*
X015816Y006798D02*
X014022Y006798D01*
X013938Y006700D02*
X014760Y006700D01*
X014522Y006601D02*
X013853Y006601D01*
X013769Y006503D02*
X014421Y006503D01*
X014322Y006404D02*
X013690Y006404D01*
X013536Y006478D02*
X014008Y007029D01*
X015977Y007029D01*
X015977Y008368D01*
X015977Y012108D01*
X018221Y010651D02*
X018563Y010309D01*
X018563Y009250D01*
X018313Y009250D02*
X018313Y009900D01*
X018189Y010033D01*
X018260Y010100D01*
X018355Y010078D01*
X018313Y009900D01*
X018313Y010047D01*
X018260Y010100D01*
X015504Y008368D02*
X014914Y008368D01*
X014914Y008072D01*
X014914Y008368D02*
X014638Y008368D01*
X014008Y007738D01*
X013693Y007423D01*
X013109Y007423D01*
X013109Y007738D02*
X014008Y007738D01*
X014023Y007980D02*
X013027Y007980D01*
X012919Y008079D02*
X014121Y008079D01*
X014220Y008177D02*
X012919Y008177D01*
X012394Y008137D02*
X012394Y012108D01*
X012233Y011947D02*
X012233Y008530D01*
X012227Y008533D01*
X012195Y008542D01*
X012079Y008542D01*
X011964Y008542D01*
X011931Y008533D01*
X011911Y008521D01*
X011909Y008524D01*
X011620Y008524D01*
X011617Y008521D01*
X011597Y008533D01*
X011565Y008542D01*
X011449Y008542D01*
X011334Y008542D01*
X011301Y008533D01*
X011295Y008530D01*
X011295Y011236D01*
X011342Y011250D01*
X011369Y011259D01*
X011383Y011259D01*
X011418Y011273D01*
X011470Y011289D01*
X011474Y011296D01*
X011478Y011298D01*
X011550Y011371D01*
X011590Y011466D01*
X011590Y011569D01*
X011550Y011664D01*
X011478Y011737D01*
X011383Y011776D01*
X011280Y011776D01*
X011185Y011737D01*
X011112Y011664D01*
X011110Y011660D01*
X011103Y011656D01*
X011087Y011604D01*
X011072Y011569D01*
X011072Y011556D01*
X011064Y011528D01*
X011042Y011456D01*
X011024Y011438D01*
X010980Y011394D01*
X010980Y011687D01*
X011240Y011947D01*
X012233Y011947D01*
X012233Y011920D02*
X011213Y011920D01*
X011115Y011822D02*
X012233Y011822D01*
X012233Y011723D02*
X011491Y011723D01*
X011567Y011625D02*
X012233Y011625D01*
X012233Y011526D02*
X011590Y011526D01*
X011574Y011428D02*
X012233Y011428D01*
X012233Y011329D02*
X011509Y011329D01*
X011359Y011424D02*
X011331Y011517D01*
X011238Y011546D01*
X011185Y011371D01*
X011359Y011424D01*
X011331Y011517D02*
X011185Y011371D01*
X011134Y011320D01*
X011134Y008137D01*
X010819Y008137D02*
X010819Y009864D01*
X010658Y009556D02*
X008579Y009556D01*
X008579Y009655D02*
X009710Y009655D01*
X009706Y009753D02*
X008579Y009753D01*
X008257Y009753D02*
X004676Y009753D01*
X004578Y009655D02*
X008257Y009655D01*
X008257Y009556D02*
X004479Y009556D01*
X004319Y009852D02*
X003287Y009852D01*
X002459Y009261D02*
X002361Y009261D01*
X002395Y009162D02*
X002425Y009162D01*
X002425Y009064D02*
X002395Y009064D01*
X002355Y008965D02*
X002465Y008965D01*
X002548Y008867D02*
X002272Y008867D01*
X002358Y008768D02*
X002462Y008768D01*
X002425Y008670D02*
X002395Y008670D01*
X002395Y008571D02*
X002425Y008571D01*
X002461Y008473D02*
X002359Y008473D01*
X002273Y008374D02*
X002547Y008374D01*
X002465Y008276D02*
X002355Y008276D01*
X002395Y008177D02*
X002425Y008177D01*
X002425Y008079D02*
X002395Y008079D01*
X002362Y007980D02*
X002458Y007980D01*
X002540Y007882D02*
X002280Y007882D01*
X002352Y007783D02*
X002468Y007783D01*
X002427Y007685D02*
X002393Y007685D01*
X002395Y007586D02*
X002425Y007586D01*
X002455Y007488D02*
X002365Y007488D01*
X002288Y007389D02*
X002532Y007389D01*
X002910Y007620D02*
X004274Y007620D01*
X004435Y007706D01*
X004481Y007620D01*
X004434Y007534D01*
X004274Y007620D01*
X004480Y007620D01*
X004481Y007620D01*
X004683Y007783D02*
X005028Y007783D01*
X005028Y007685D02*
X004734Y007685D01*
X004739Y007586D02*
X005028Y007586D01*
X005028Y007488D02*
X004706Y007488D01*
X004600Y007389D02*
X005028Y007389D01*
X005028Y007303D02*
X005028Y007303D01*
X004417Y007360D02*
X004417Y007360D01*
X004362Y007389D02*
X003935Y007389D01*
X003772Y007187D02*
X003679Y007215D01*
X003626Y007040D01*
X003800Y007093D01*
X003772Y007187D01*
X003626Y007040D01*
X003536Y006950D01*
X001331Y006950D01*
X001174Y007108D01*
X001174Y007502D01*
X001292Y007620D01*
X001910Y007620D01*
X001532Y007389D02*
X001335Y007389D01*
X001335Y007291D02*
X003533Y007291D01*
X003503Y007192D02*
X001335Y007192D01*
X000870Y008120D02*
X000544Y008446D01*
X000544Y010651D01*
X001106Y011214D01*
X001159Y011388D01*
X001252Y011360D01*
X001281Y011266D01*
X001106Y011214D01*
X001252Y011360D01*
X001452Y011526D02*
X001643Y011526D01*
X001565Y011428D02*
X001504Y011428D01*
X001804Y011439D02*
X001804Y015061D01*
X002591Y015848D01*
X004289Y014580D02*
X004391Y014580D01*
X008122Y012864D02*
X008122Y012864D01*
X008122Y012864D01*
X008000Y011034D02*
X008257Y011034D01*
X008257Y010935D02*
X008094Y010935D01*
X008125Y010837D02*
X008257Y010837D01*
X008257Y010738D02*
X008117Y010738D01*
X008063Y010640D02*
X008257Y010640D01*
X008257Y010541D02*
X006787Y010541D01*
X006787Y010443D02*
X008257Y010443D01*
X008257Y010344D02*
X006744Y010344D01*
X006605Y010246D02*
X008257Y010246D01*
X008257Y010147D02*
X005070Y010147D01*
X004972Y010049D02*
X008257Y010049D01*
X008257Y009950D02*
X004873Y009950D01*
X004775Y009852D02*
X008257Y009852D01*
X008579Y010640D02*
X009706Y010640D01*
X009762Y010738D02*
X008579Y010738D01*
X007820Y010723D02*
X007660Y010809D01*
X007660Y010809D01*
X007635Y010640D02*
X006748Y010640D01*
X006528Y010494D02*
X006482Y010580D01*
X006321Y010494D01*
X006482Y010408D01*
X006528Y010494D01*
X006482Y010580D01*
X006321Y010494D01*
X006482Y010580D01*
X006528Y010494D01*
X006482Y010408D01*
X006482Y010408D01*
X006321Y010494D01*
X006321Y010494D01*
X006321Y010494D01*
X006528Y010494D01*
X006482Y010408D01*
X006321Y010494D01*
X005947Y010494D01*
X005787Y010408D01*
X005741Y010494D01*
X005787Y010408D01*
X005947Y010494D01*
X005787Y010580D01*
X005741Y010494D01*
X005787Y010580D01*
X005947Y010494D01*
X005947Y010494D01*
X005741Y010494D01*
X005787Y010408D01*
X005787Y010408D01*
X005787Y010408D01*
X005947Y010494D01*
X005787Y010580D01*
X005787Y010580D01*
X005947Y010494D01*
X005947Y010494D01*
X005787Y010580D01*
X005741Y010494D01*
X005787Y010580D02*
X005787Y010580D01*
X005947Y010494D02*
X005947Y010494D01*
X006014Y010333D02*
X006014Y010333D01*
X005825Y010246D02*
X006443Y010246D01*
X006465Y010234D02*
X006465Y010234D01*
X006465Y010234D01*
X006465Y010234D01*
X006465Y010234D01*
X005804Y010234D02*
X005804Y010234D01*
X005804Y010234D01*
X005804Y010234D01*
X005804Y010234D01*
X005804Y010234D01*
X005804Y010234D01*
X005664Y010246D02*
X005169Y010246D01*
X005267Y010344D02*
X005524Y010344D01*
X005482Y010443D02*
X005272Y010443D01*
X005272Y010541D02*
X005482Y010541D01*
X005521Y010640D02*
X005327Y010640D01*
X005068Y010837D02*
X004799Y010837D01*
X004799Y010935D02*
X005167Y010935D01*
X004970Y010738D02*
X004799Y010738D01*
X004799Y010640D02*
X004950Y010640D01*
X004950Y010541D02*
X004799Y010541D01*
X004799Y010443D02*
X004910Y010443D01*
X004812Y010344D02*
X004795Y010344D01*
X004713Y010246D02*
X004696Y010246D01*
X004615Y010147D02*
X004598Y010147D01*
X004516Y010049D02*
X001492Y010049D01*
X001492Y009950D02*
X004418Y009950D01*
X005205Y008620D02*
X002910Y008620D01*
X003273Y008374D02*
X003594Y008374D01*
X003642Y008215D02*
X003693Y008131D01*
X003652Y008043D01*
X003487Y008120D01*
X003642Y008215D01*
X003693Y008131D02*
X003682Y008120D01*
X003487Y008120D01*
X002910Y008120D01*
X003280Y007882D02*
X003617Y007882D01*
X003524Y007925D02*
X003524Y007925D01*
X003352Y007783D02*
X004237Y007783D01*
X003908Y007980D02*
X005028Y007980D01*
X005028Y007882D02*
X003766Y007882D01*
X003951Y008079D02*
X005028Y008079D01*
X005028Y008177D02*
X003952Y008177D01*
X003914Y008276D02*
X005028Y008276D01*
X005028Y008374D02*
X003784Y008374D01*
X003609Y007389D02*
X003288Y007389D01*
X001910Y008120D02*
X000870Y008120D01*
X001236Y008620D02*
X000859Y008998D01*
X000859Y010494D01*
X001804Y011439D01*
X001249Y010640D02*
X001232Y010640D01*
X001151Y010541D02*
X001134Y010541D01*
X001052Y010443D02*
X001035Y010443D01*
X001492Y009852D02*
X001533Y009852D01*
X001236Y008620D02*
X001910Y008620D01*
X005823Y005222D02*
X006584Y005222D01*
X006552Y005163D02*
X006552Y005163D01*
X006552Y005163D01*
X006552Y005163D01*
X006552Y005163D01*
X006552Y005163D01*
X006552Y005163D01*
X006552Y005163D01*
X006345Y005124D02*
X005823Y005124D01*
X005823Y005025D02*
X006259Y005025D01*
X006230Y004927D02*
X005823Y004927D01*
X005823Y004828D02*
X006240Y004828D01*
X005662Y004588D02*
X005662Y001330D01*
X005662Y001330D01*
X005662Y001330D01*
X005662Y000917D02*
X005662Y000917D01*
X005823Y000691D02*
X008878Y000691D01*
X010103Y000658D02*
X010189Y000819D01*
X010275Y000658D01*
X010275Y000658D01*
X010189Y000612D02*
X010189Y000819D01*
X011020Y000790D02*
X021576Y000790D01*
X021576Y000888D02*
X015930Y000888D01*
X016028Y000987D02*
X021576Y000987D01*
X021576Y001085D02*
X016127Y001085D01*
X016138Y001184D02*
X021576Y001184D01*
X021576Y001282D02*
X018199Y001282D01*
X018281Y001381D02*
X021576Y001381D01*
X021576Y001479D02*
X020084Y001479D01*
X020060Y001456D02*
X020133Y001528D01*
X020172Y001623D01*
X020172Y001726D01*
X020169Y001735D01*
X020171Y001746D01*
X020146Y001789D01*
X020133Y001821D01*
X020121Y001833D01*
X020082Y001901D01*
X020137Y001956D01*
X020137Y002914D01*
X020072Y002979D01*
X019744Y002979D01*
X019679Y002914D01*
X019679Y001956D01*
X019736Y001898D01*
X019712Y001850D01*
X019701Y001828D01*
X019694Y001821D01*
X019678Y001782D01*
X019653Y001731D01*
X019653Y001731D01*
X019653Y001731D01*
X019655Y001723D01*
X019655Y001623D01*
X019694Y001528D01*
X019767Y001456D01*
X019862Y001416D01*
X019965Y001416D01*
X020060Y001456D01*
X020153Y001578D02*
X021576Y001578D01*
X021576Y001676D02*
X021481Y001676D01*
X021331Y001754D02*
X021489Y001911D01*
X021489Y005061D01*
X021252Y005297D01*
X018024Y005297D01*
X017908Y005181D01*
X017908Y004324D01*
X017908Y003653D01*
X017992Y003492D01*
X017906Y003446D01*
X017820Y003493D01*
X017908Y003653D01*
X017908Y003448D01*
X017906Y003446D01*
X018146Y003351D02*
X020889Y003351D01*
X020988Y003449D02*
X018165Y003449D01*
X018145Y003548D02*
X021086Y003548D01*
X021091Y003646D02*
X018093Y003646D01*
X018069Y003745D02*
X021091Y003745D01*
X020917Y003843D02*
X020899Y003843D01*
X020899Y003942D02*
X020917Y003942D01*
X020917Y004040D02*
X020899Y004040D01*
X020899Y004139D02*
X020917Y004139D01*
X020917Y004237D02*
X020899Y004237D01*
X020899Y004336D02*
X020917Y004336D01*
X020917Y004434D02*
X020899Y004434D01*
X020899Y004533D02*
X020917Y004533D01*
X020917Y004631D02*
X020899Y004631D01*
X020899Y004730D02*
X020917Y004730D01*
X020917Y004828D02*
X020899Y004828D01*
X020682Y004828D02*
X020634Y004828D01*
X020629Y004837D02*
X020605Y004860D01*
X020576Y004877D01*
X020543Y004886D01*
X020417Y004886D01*
X020417Y004333D01*
X020655Y004333D01*
X020655Y004774D01*
X020646Y004807D01*
X020629Y004837D01*
X020655Y004730D02*
X020661Y004730D01*
X020655Y004631D02*
X020661Y004631D01*
X020655Y004533D02*
X020661Y004533D01*
X020655Y004434D02*
X020661Y004434D01*
X020655Y004336D02*
X020661Y004336D01*
X020655Y004315D02*
X020417Y004315D01*
X020417Y003763D01*
X020543Y003763D01*
X020576Y003771D01*
X020605Y003788D01*
X020629Y003812D01*
X020646Y003842D01*
X020655Y003874D01*
X020655Y004315D01*
X020655Y004237D02*
X020661Y004237D01*
X020655Y004139D02*
X020661Y004139D01*
X020655Y004040D02*
X020661Y004040D01*
X020655Y003942D02*
X020661Y003942D01*
X020669Y003843D02*
X020646Y003843D01*
X020417Y003843D02*
X020399Y003843D01*
X020399Y003763D02*
X020399Y004315D01*
X020417Y004315D01*
X020417Y004333D01*
X020399Y004333D01*
X020399Y004315D01*
X020161Y004315D01*
X020161Y003874D01*
X020170Y003842D01*
X020187Y003812D01*
X020211Y003788D01*
X020240Y003771D01*
X020273Y003763D01*
X020399Y003763D01*
X020399Y003942D02*
X020417Y003942D01*
X020417Y004040D02*
X020399Y004040D01*
X020399Y004139D02*
X020417Y004139D01*
X020417Y004237D02*
X020399Y004237D01*
X020399Y004333D02*
X020161Y004333D01*
X020161Y004774D01*
X020170Y004807D01*
X020187Y004837D01*
X020211Y004860D01*
X020240Y004877D01*
X020273Y004886D01*
X020399Y004886D01*
X020399Y004333D01*
X020399Y004336D02*
X020417Y004336D01*
X020417Y004434D02*
X020399Y004434D01*
X020399Y004533D02*
X020417Y004533D01*
X020417Y004631D02*
X020399Y004631D01*
X020399Y004730D02*
X020417Y004730D01*
X020417Y004828D02*
X020399Y004828D01*
X020182Y004828D02*
X020112Y004828D01*
X020137Y004803D02*
X020072Y004869D01*
X019744Y004869D01*
X019679Y004803D01*
X019679Y003845D01*
X019744Y003780D01*
X020072Y003780D01*
X020137Y003845D01*
X020137Y004803D01*
X020137Y004730D02*
X020161Y004730D01*
X020161Y004631D02*
X020137Y004631D01*
X020137Y004533D02*
X020161Y004533D01*
X020161Y004434D02*
X020137Y004434D01*
X020137Y004336D02*
X020161Y004336D01*
X020161Y004237D02*
X020137Y004237D01*
X020137Y004139D02*
X020161Y004139D01*
X020161Y004040D02*
X020137Y004040D01*
X020137Y003942D02*
X020161Y003942D01*
X020169Y003843D02*
X020135Y003843D01*
X019681Y003843D02*
X019635Y003843D01*
X019637Y003845D02*
X019572Y003780D01*
X019244Y003780D01*
X019179Y003845D01*
X019179Y004803D01*
X019244Y004869D01*
X019572Y004869D01*
X019637Y004803D01*
X019637Y003845D01*
X019637Y003942D02*
X019679Y003942D01*
X019679Y004040D02*
X019637Y004040D01*
X019637Y004139D02*
X019679Y004139D01*
X019679Y004237D02*
X019637Y004237D01*
X019637Y004336D02*
X019679Y004336D01*
X019679Y004434D02*
X019637Y004434D01*
X019637Y004533D02*
X019679Y004533D01*
X019679Y004631D02*
X019637Y004631D01*
X019637Y004730D02*
X019679Y004730D01*
X019703Y004828D02*
X019612Y004828D01*
X019203Y004828D02*
X019112Y004828D01*
X019137Y004730D02*
X019179Y004730D01*
X019179Y004631D02*
X019137Y004631D01*
X019137Y004533D02*
X019179Y004533D01*
X019179Y004434D02*
X019137Y004434D01*
X019137Y004336D02*
X019179Y004336D01*
X019179Y004237D02*
X019137Y004237D01*
X019137Y004139D02*
X019179Y004139D01*
X019179Y004040D02*
X019137Y004040D01*
X019137Y003942D02*
X019179Y003942D01*
X019181Y003843D02*
X019135Y003843D01*
X018681Y003843D02*
X018635Y003843D01*
X018637Y003845D02*
X018572Y003780D01*
X018244Y003780D01*
X018179Y003845D01*
X018179Y004803D01*
X018244Y004869D01*
X018572Y004869D01*
X018637Y004803D01*
X018637Y003845D01*
X018637Y003942D02*
X018679Y003942D01*
X018679Y004040D02*
X018637Y004040D01*
X018637Y004139D02*
X018679Y004139D01*
X018679Y004237D02*
X018637Y004237D01*
X018637Y004336D02*
X018679Y004336D01*
X018679Y004434D02*
X018637Y004434D01*
X018637Y004533D02*
X018679Y004533D01*
X018679Y004631D02*
X018637Y004631D01*
X018637Y004730D02*
X018679Y004730D01*
X018703Y004828D02*
X018612Y004828D01*
X018747Y004927D02*
X018069Y004927D01*
X018069Y005025D02*
X018747Y005025D01*
X018804Y005124D02*
X018078Y005124D01*
X017820Y005321D02*
X017569Y005321D01*
X017569Y005419D02*
X017918Y005419D01*
X017747Y005222D02*
X017569Y005222D01*
X017569Y005124D02*
X017747Y005124D01*
X017747Y005025D02*
X017569Y005025D01*
X017569Y004927D02*
X017747Y004927D01*
X017703Y004828D02*
X017612Y004828D01*
X017637Y004730D02*
X017679Y004730D01*
X017679Y004631D02*
X017637Y004631D01*
X017637Y004533D02*
X017679Y004533D01*
X017679Y004434D02*
X017637Y004434D01*
X017637Y004336D02*
X017679Y004336D01*
X017679Y004237D02*
X017637Y004237D01*
X017637Y004139D02*
X017679Y004139D01*
X017679Y004040D02*
X017637Y004040D01*
X017637Y003942D02*
X017679Y003942D01*
X017681Y003843D02*
X017635Y003843D01*
X018135Y003843D02*
X018181Y003843D01*
X018179Y003942D02*
X018137Y003942D01*
X018137Y004040D02*
X018179Y004040D01*
X018179Y004139D02*
X018137Y004139D01*
X018137Y004237D02*
X018179Y004237D01*
X018179Y004336D02*
X018137Y004336D01*
X018137Y004434D02*
X018179Y004434D01*
X018179Y004533D02*
X018137Y004533D01*
X018137Y004631D02*
X018179Y004631D01*
X018179Y004730D02*
X018137Y004730D01*
X018112Y004828D02*
X018203Y004828D01*
X017408Y004324D02*
X017408Y006665D01*
X017311Y006820D01*
X017394Y006872D01*
X017483Y006831D01*
X017408Y006665D01*
X017408Y006858D01*
X017394Y006872D01*
X017653Y006897D02*
X018102Y006897D01*
X018102Y006798D02*
X017645Y006798D01*
X017657Y006826D02*
X017657Y006826D01*
X017657Y006826D01*
X017600Y006700D02*
X018102Y006700D01*
X018102Y006601D02*
X017569Y006601D01*
X017569Y006503D02*
X018116Y006503D01*
X018111Y006404D02*
X018274Y006404D01*
X018339Y006242D02*
X018073Y006242D01*
X017913Y006156D01*
X017867Y006242D01*
X017913Y006156D01*
X018073Y006242D01*
X017913Y006328D01*
X017867Y006242D01*
X017913Y006328D01*
X018073Y006242D01*
X018073Y006242D01*
X017867Y006242D01*
X017913Y006156D01*
X017913Y006156D01*
X018073Y006242D01*
X017913Y006328D01*
X017913Y006328D01*
X018073Y006242D01*
X018073Y006242D01*
X017913Y006328D01*
X017913Y006328D01*
X017867Y006242D01*
X017913Y006156D02*
X017913Y006156D01*
X018073Y006242D02*
X018073Y006242D01*
X018339Y006242D02*
X018575Y006478D01*
X018575Y006899D01*
X018563Y006911D01*
X018811Y006909D02*
X018813Y006911D01*
X018811Y006909D02*
X018811Y006320D01*
X018339Y005848D01*
X018073Y005848D01*
X017913Y005762D01*
X017867Y005848D01*
X017913Y005762D01*
X018073Y005848D01*
X017913Y005934D01*
X017867Y005848D01*
X017913Y005934D01*
X018073Y005848D01*
X018073Y005848D01*
X018073Y005848D01*
X017913Y005762D01*
X017913Y005762D01*
X017867Y005848D01*
X017913Y005934D01*
X017913Y005934D01*
X018073Y005848D01*
X017913Y005934D01*
X018073Y005848D01*
X018073Y005848D01*
X017867Y005848D01*
X017913Y005762D02*
X017913Y005762D01*
X017994Y005616D02*
X018238Y005616D01*
X018256Y005518D02*
X017569Y005518D01*
X017569Y005616D02*
X017751Y005616D01*
X017642Y005715D02*
X017569Y005715D01*
X017569Y005813D02*
X017608Y005813D01*
X017613Y005912D02*
X017569Y005912D01*
X017569Y006010D02*
X017663Y006010D01*
X017642Y006109D02*
X017569Y006109D01*
X017569Y006207D02*
X017608Y006207D01*
X017613Y006306D02*
X017569Y006306D01*
X017569Y006404D02*
X017663Y006404D01*
X017913Y005934D02*
X017913Y005934D01*
X018468Y005705D02*
X018496Y005612D01*
X018590Y005584D01*
X018643Y005758D01*
X018468Y005705D01*
X018496Y005612D02*
X018643Y005758D01*
X019063Y006179D01*
X019063Y006911D01*
X019313Y006911D02*
X019313Y005878D01*
X019194Y005758D01*
X019141Y005584D01*
X019048Y005612D01*
X019019Y005705D01*
X019194Y005758D01*
X019048Y005612D01*
X019447Y005677D02*
X019520Y005612D01*
X019615Y005636D01*
X019569Y005813D01*
X019447Y005677D01*
X019520Y005612D02*
X019569Y005661D01*
X019569Y005813D01*
X019569Y006911D01*
X019819Y006911D02*
X019819Y005864D01*
X019925Y005758D01*
X020099Y005705D01*
X020071Y005612D01*
X019978Y005584D01*
X019925Y005758D01*
X020071Y005612D01*
X020398Y005758D02*
X020572Y005705D01*
X020544Y005612D01*
X020450Y005584D01*
X020398Y005758D01*
X020069Y006086D01*
X020069Y006911D01*
X020319Y006911D02*
X020319Y006387D01*
X020915Y005792D01*
X021069Y005694D01*
X021016Y005612D01*
X020919Y005610D01*
X020915Y005792D01*
X021016Y005691D01*
X021016Y005612D01*
X021254Y005715D02*
X021576Y005715D01*
X021576Y005813D02*
X021182Y005813D01*
X021027Y005912D02*
X021576Y005912D01*
X021576Y006010D02*
X020924Y006010D01*
X020826Y006109D02*
X021576Y006109D01*
X021576Y006207D02*
X020727Y006207D01*
X020629Y006306D02*
X021576Y006306D01*
X021576Y006404D02*
X020530Y006404D01*
X020398Y005758D02*
X020544Y005612D01*
X021257Y005518D02*
X021576Y005518D01*
X021576Y005616D02*
X021275Y005616D01*
X021358Y005419D02*
X021576Y005419D01*
X021576Y005321D02*
X021456Y005321D01*
X021555Y005222D02*
X021576Y005222D01*
X021252Y004903D02*
X021252Y003486D01*
X020908Y003141D01*
X020908Y002435D01*
X020679Y002464D02*
X020637Y002464D01*
X020637Y002366D02*
X020679Y002366D01*
X020679Y002267D02*
X020637Y002267D01*
X020637Y002169D02*
X020679Y002169D01*
X020679Y002070D02*
X020637Y002070D01*
X020637Y001972D02*
X020679Y001972D01*
X020544Y001754D02*
X021331Y001754D01*
X020544Y001754D02*
X020408Y001889D01*
X020408Y002435D01*
X020179Y002464D02*
X020137Y002464D01*
X020137Y002366D02*
X020179Y002366D01*
X020179Y002267D02*
X020137Y002267D01*
X020137Y002169D02*
X020179Y002169D01*
X020179Y002070D02*
X020137Y002070D01*
X020137Y001972D02*
X020179Y001972D01*
X020247Y001873D02*
X020098Y001873D01*
X020155Y001775D02*
X020295Y001775D01*
X020171Y001746D02*
X020171Y001746D01*
X020171Y001746D01*
X020172Y001676D02*
X020394Y001676D01*
X019998Y001723D02*
X019914Y001675D01*
X019826Y001718D01*
X019908Y001881D01*
X019998Y001723D01*
X019914Y001675D02*
X019908Y001681D01*
X019908Y001881D01*
X019908Y002435D01*
X019679Y002464D02*
X019637Y002464D01*
X019637Y002366D02*
X019679Y002366D01*
X019679Y002267D02*
X019637Y002267D01*
X019637Y002169D02*
X019679Y002169D01*
X019679Y002070D02*
X019637Y002070D01*
X019637Y001972D02*
X019679Y001972D01*
X019637Y001956D02*
X019572Y001891D01*
X019244Y001891D01*
X019179Y001956D01*
X019179Y002914D01*
X019244Y002979D01*
X019572Y002979D01*
X019637Y002914D01*
X019637Y001956D01*
X019724Y001873D02*
X018259Y001873D01*
X018244Y001891D02*
X018572Y001891D01*
X018637Y001956D01*
X018637Y002914D01*
X018572Y002979D01*
X018244Y002979D01*
X018179Y002914D01*
X018179Y001956D01*
X018244Y001891D01*
X018179Y001972D02*
X018151Y001972D01*
X018155Y002070D02*
X018179Y002070D01*
X018179Y002169D02*
X018155Y002169D01*
X018155Y002267D02*
X018179Y002267D01*
X018179Y002366D02*
X018155Y002366D01*
X018155Y002464D02*
X018179Y002464D01*
X018179Y002563D02*
X018155Y002563D01*
X018155Y002661D02*
X018179Y002661D01*
X018179Y002760D02*
X018155Y002760D01*
X018155Y002858D02*
X018179Y002858D01*
X018222Y002957D02*
X018119Y002957D01*
X017917Y002957D02*
X017899Y002957D01*
X017899Y002858D02*
X017917Y002858D01*
X017917Y002760D02*
X017899Y002760D01*
X017899Y002661D02*
X017917Y002661D01*
X017917Y002563D02*
X017899Y002563D01*
X017899Y002464D02*
X017917Y002464D01*
X017917Y002426D02*
X017917Y001873D01*
X017899Y001873D01*
X017899Y002426D01*
X017917Y002426D01*
X017917Y002366D02*
X017899Y002366D01*
X017899Y002267D02*
X017917Y002267D01*
X017917Y002169D02*
X017899Y002169D01*
X017899Y002070D02*
X017917Y002070D01*
X017917Y001972D02*
X017899Y001972D01*
X017889Y001873D02*
X017899Y001873D01*
X017889Y001873D02*
X017889Y001648D01*
X017986Y001648D01*
X017986Y001873D01*
X017917Y001873D01*
X017889Y001775D02*
X017986Y001775D01*
X017986Y001676D02*
X017889Y001676D01*
X017986Y001578D02*
X019674Y001578D01*
X019655Y001676D02*
X018283Y001676D01*
X018283Y001775D02*
X019674Y001775D01*
X019712Y001850D02*
X019712Y001850D01*
X019744Y001479D02*
X018283Y001479D01*
X017986Y001479D02*
X017889Y001479D01*
X017889Y001381D02*
X017986Y001381D01*
X017986Y001282D02*
X017889Y001282D01*
X017676Y001282D02*
X016138Y001282D01*
X016138Y001381D02*
X016941Y001381D01*
X017268Y001600D02*
X017408Y001740D01*
X017408Y002435D01*
X017637Y002464D02*
X017661Y002464D01*
X017661Y002366D02*
X017637Y002366D01*
X017637Y002267D02*
X017661Y002267D01*
X017661Y002169D02*
X017637Y002169D01*
X017637Y002070D02*
X017661Y002070D01*
X017665Y001972D02*
X017637Y001972D01*
X017616Y001873D02*
X017569Y001873D01*
X017637Y002563D02*
X017661Y002563D01*
X017661Y002661D02*
X017637Y002661D01*
X017637Y002760D02*
X017661Y002760D01*
X017661Y002858D02*
X017637Y002858D01*
X017594Y002957D02*
X017696Y002957D01*
X018077Y003252D02*
X020791Y003252D01*
X020722Y002957D02*
X020594Y002957D01*
X020637Y002858D02*
X020679Y002858D01*
X020679Y002760D02*
X020637Y002760D01*
X020637Y002661D02*
X020679Y002661D01*
X020679Y002563D02*
X020637Y002563D01*
X020222Y002957D02*
X020094Y002957D01*
X020137Y002858D02*
X020179Y002858D01*
X020179Y002760D02*
X020137Y002760D01*
X020137Y002661D02*
X020179Y002661D01*
X020179Y002563D02*
X020137Y002563D01*
X019679Y002563D02*
X019637Y002563D01*
X019637Y002661D02*
X019679Y002661D01*
X019679Y002760D02*
X019637Y002760D01*
X019637Y002858D02*
X019679Y002858D01*
X019722Y002957D02*
X019594Y002957D01*
X019222Y002957D02*
X019094Y002957D01*
X019072Y002979D02*
X018744Y002979D01*
X018679Y002914D01*
X018679Y001956D01*
X018744Y001891D01*
X019072Y001891D01*
X019137Y001956D01*
X019137Y002914D01*
X019072Y002979D01*
X019137Y002858D02*
X019179Y002858D01*
X019179Y002760D02*
X019137Y002760D01*
X019137Y002661D02*
X019179Y002661D01*
X019179Y002563D02*
X019137Y002563D01*
X019137Y002464D02*
X019179Y002464D01*
X019179Y002366D02*
X019137Y002366D01*
X019137Y002267D02*
X019179Y002267D01*
X019179Y002169D02*
X019137Y002169D01*
X019137Y002070D02*
X019179Y002070D01*
X019179Y001972D02*
X019137Y001972D01*
X018679Y001972D02*
X018637Y001972D01*
X018637Y002070D02*
X018679Y002070D01*
X018679Y002169D02*
X018637Y002169D01*
X018637Y002267D02*
X018679Y002267D01*
X018679Y002366D02*
X018637Y002366D01*
X018637Y002464D02*
X018679Y002464D01*
X018679Y002563D02*
X018637Y002563D01*
X018637Y002661D02*
X018679Y002661D01*
X018679Y002760D02*
X018637Y002760D01*
X018637Y002858D02*
X018679Y002858D01*
X018722Y002957D02*
X018594Y002957D01*
X018908Y004324D02*
X018908Y005000D01*
X018969Y005061D01*
X021095Y005061D01*
X021252Y004903D01*
X020801Y007389D02*
X020673Y007389D01*
X020773Y007488D02*
X016138Y007488D01*
X016138Y007586D02*
X020773Y007586D01*
X021424Y007586D02*
X021576Y007586D01*
X021576Y007488D02*
X021424Y007488D01*
X018210Y007389D02*
X016138Y007389D01*
X016138Y007291D02*
X018105Y007291D01*
X015977Y007029D02*
X015977Y005139D01*
X015977Y004588D02*
X015977Y001754D01*
X016075Y001655D01*
X015827Y001676D02*
X013970Y001676D01*
X013970Y001578D02*
X015816Y001578D01*
X015816Y001479D02*
X013970Y001479D01*
X013970Y001381D02*
X015816Y001381D01*
X015816Y001282D02*
X013934Y001282D01*
X013772Y001045D02*
X012906Y001045D01*
X012906Y001458D01*
X012949Y001502D01*
X012661Y001479D02*
X011685Y001479D01*
X011685Y001497D02*
X011647Y001497D01*
X011647Y002050D01*
X011685Y002050D01*
X011685Y001763D01*
X011685Y001497D01*
X011685Y001578D02*
X011647Y001578D01*
X011647Y001676D02*
X011685Y001676D01*
X011685Y001775D02*
X011647Y001775D01*
X011647Y001873D02*
X011685Y001873D01*
X011685Y001972D02*
X011647Y001972D01*
X011685Y002070D02*
X012661Y002070D01*
X012661Y001972D02*
X011932Y001972D01*
X011932Y001873D02*
X012661Y001873D01*
X012716Y001775D02*
X011859Y001775D01*
X011931Y001676D02*
X012661Y001676D01*
X012661Y001578D02*
X011932Y001578D01*
X011932Y001381D02*
X012661Y001381D01*
X012697Y001282D02*
X011932Y001282D01*
X011858Y001184D02*
X012745Y001184D01*
X012745Y001085D02*
X011020Y001085D01*
X011020Y000987D02*
X012745Y000987D01*
X012835Y000888D02*
X011020Y000888D01*
X011020Y000691D02*
X021576Y000691D01*
X021576Y000593D02*
X011020Y000593D01*
X011020Y000494D02*
X021576Y000494D01*
X021576Y000396D02*
X011020Y000396D01*
X011020Y001184D02*
X011474Y001184D01*
X011647Y001184D02*
X011685Y001184D01*
X011685Y001282D02*
X011647Y001282D01*
X011647Y001381D02*
X011685Y001381D01*
X011154Y001478D02*
X010859Y001478D01*
X011647Y002169D02*
X011685Y002169D01*
X011685Y002267D02*
X011647Y002267D01*
X011647Y002366D02*
X011685Y002366D01*
X011853Y002366D02*
X012788Y002366D01*
X012788Y002267D02*
X011931Y002267D01*
X011932Y002169D02*
X012661Y002169D01*
X012949Y002013D02*
X012949Y002541D01*
X012949Y002970D02*
X012394Y003525D01*
X012394Y003874D01*
X012079Y003874D02*
X012079Y003407D01*
X012327Y003160D01*
X012501Y003107D01*
X012473Y003013D01*
X012379Y002985D01*
X012327Y003160D01*
X012473Y003013D01*
X011859Y002464D02*
X011482Y002464D01*
X011478Y002366D02*
X011383Y002366D01*
X013915Y001775D02*
X015816Y001775D01*
X015816Y001873D02*
X013970Y001873D01*
X014289Y005379D02*
X013501Y005379D01*
X013504Y005385D01*
X013513Y005418D01*
X013513Y005533D01*
X013513Y005648D01*
X013504Y005681D01*
X013501Y005687D01*
X013981Y005687D01*
X014289Y005379D01*
X014249Y005419D02*
X013513Y005419D01*
X013513Y005518D02*
X014150Y005518D01*
X014052Y005616D02*
X013513Y005616D01*
X013501Y006010D02*
X014214Y006010D01*
X014212Y005912D02*
X014214Y005912D01*
X014214Y006109D02*
X013513Y006109D01*
X013513Y006163D02*
X013109Y006163D01*
X013513Y006163D01*
X013513Y006207D02*
X014240Y006207D01*
X014280Y006306D02*
X013506Y006306D01*
X013536Y006478D02*
X013109Y006478D01*
X013109Y006793D02*
X013109Y006793D01*
X013513Y006793D01*
X013109Y006793D01*
X013109Y006793D01*
X013109Y007108D01*
X013513Y007108D01*
X013109Y007108D01*
X013109Y007108D01*
X013109Y007108D01*
X013109Y007020D01*
X013109Y006793D01*
X013109Y006798D02*
X013109Y006798D01*
X013109Y006897D02*
X013109Y006897D01*
X013109Y006995D02*
X013109Y006995D01*
X013109Y007094D02*
X013109Y007094D01*
X013513Y007094D02*
X013847Y007094D01*
X013767Y006995D02*
X013513Y006995D01*
X013513Y006897D02*
X013683Y006897D01*
X013598Y006798D02*
X013513Y006798D01*
X013513Y006700D02*
X013514Y006700D01*
X013513Y007192D02*
X014026Y007192D01*
X014066Y007192D02*
X015816Y007192D01*
X015523Y007389D02*
X015485Y007389D01*
X015485Y007488D02*
X015523Y007488D01*
X014933Y007488D02*
X014895Y007488D01*
X014895Y007389D02*
X014933Y007389D01*
X013109Y006163D02*
X013109Y006163D01*
X012079Y008137D02*
X012079Y008137D01*
X012079Y008542D01*
X012079Y008137D01*
X012079Y008177D02*
X012079Y008177D01*
X012079Y008276D02*
X012079Y008276D01*
X012079Y008374D02*
X012079Y008374D01*
X012079Y008473D02*
X012079Y008473D01*
X012233Y008571D02*
X011295Y008571D01*
X011295Y008670D02*
X012233Y008670D01*
X012233Y008768D02*
X011295Y008768D01*
X011295Y008867D02*
X012233Y008867D01*
X012233Y008965D02*
X011295Y008965D01*
X011295Y009064D02*
X012233Y009064D01*
X012233Y009162D02*
X011295Y009162D01*
X011295Y009261D02*
X012233Y009261D01*
X012233Y009359D02*
X011295Y009359D01*
X011295Y009458D02*
X012233Y009458D01*
X012233Y009556D02*
X011295Y009556D01*
X011295Y009655D02*
X012233Y009655D01*
X012233Y009753D02*
X011295Y009753D01*
X011295Y009852D02*
X012233Y009852D01*
X012233Y009950D02*
X011295Y009950D01*
X011295Y010049D02*
X012233Y010049D01*
X012233Y010147D02*
X011295Y010147D01*
X011295Y010246D02*
X012233Y010246D01*
X012233Y010344D02*
X011295Y010344D01*
X011295Y010443D02*
X012233Y010443D01*
X012233Y010541D02*
X011295Y010541D01*
X011295Y010640D02*
X012233Y010640D01*
X012233Y010738D02*
X011295Y010738D01*
X011295Y010837D02*
X012233Y010837D01*
X012233Y010935D02*
X011295Y010935D01*
X011295Y011034D02*
X012233Y011034D01*
X012233Y011132D02*
X011295Y011132D01*
X011295Y011231D02*
X012233Y011231D01*
X011171Y011723D02*
X011016Y011723D01*
X010980Y011625D02*
X011093Y011625D01*
X011064Y011526D02*
X010980Y011526D01*
X010980Y011428D02*
X011014Y011428D01*
X009992Y010344D02*
X009954Y010344D01*
X009954Y010246D02*
X009992Y010246D01*
X009992Y010147D02*
X009954Y010147D01*
X009954Y010049D02*
X009992Y010049D01*
X009992Y009950D02*
X009954Y009950D01*
X009839Y009458D02*
X010658Y009458D01*
X010658Y009359D02*
X009938Y009359D01*
X010036Y009261D02*
X010658Y009261D01*
X010658Y009162D02*
X010135Y009162D01*
X010233Y009064D02*
X010658Y009064D01*
X010658Y008965D02*
X010332Y008965D01*
X010350Y008867D02*
X010658Y008867D01*
X010658Y008768D02*
X010350Y008768D01*
X010350Y008670D02*
X010658Y008670D01*
X010658Y008571D02*
X010350Y008571D01*
X010504Y008542D02*
X010504Y008137D01*
X010504Y008137D01*
X010504Y008542D01*
X010504Y008473D02*
X010504Y008473D01*
X010504Y008374D02*
X010504Y008374D01*
X010504Y008276D02*
X010504Y008276D01*
X010504Y008177D02*
X010504Y008177D01*
X011449Y008177D02*
X011449Y008177D01*
X011449Y008137D02*
X011449Y008542D01*
X011449Y008137D01*
X011449Y008137D01*
X011449Y008276D02*
X011449Y008276D01*
X011449Y008374D02*
X011449Y008374D01*
X011449Y008473D02*
X011449Y008473D01*
X020733Y012905D02*
X021576Y012905D01*
X021576Y012807D02*
X021529Y012807D01*
X021576Y013004D02*
X020702Y013004D01*
X021139Y013102D02*
X021576Y013102D01*
X021576Y013201D02*
X021237Y013201D01*
X021336Y013299D02*
X021576Y013299D01*
X021576Y013398D02*
X021365Y013398D01*
X021365Y013496D02*
X021576Y013496D01*
X021576Y013595D02*
X021365Y013595D01*
X021365Y013693D02*
X021576Y013693D01*
X021576Y013792D02*
X021365Y013792D01*
X021365Y013890D02*
X021576Y013890D01*
X021576Y013989D02*
X021376Y013989D01*
X021380Y013976D02*
X021380Y013976D01*
X021380Y013976D01*
X021422Y014087D02*
X021576Y014087D01*
X021576Y014186D02*
X021443Y014186D01*
X021444Y014185D02*
X021444Y014185D01*
X021444Y014185D01*
X021444Y014185D01*
X021417Y014284D02*
X021576Y014284D01*
X021576Y014383D02*
X021351Y014383D01*
X020297Y016057D02*
X000377Y016057D01*
X000377Y016156D02*
X020319Y016156D01*
X020337Y016235D02*
X020337Y016235D01*
X020352Y016254D02*
X000377Y016254D01*
X000377Y016353D02*
X020431Y016353D01*
X020510Y016451D02*
X000377Y016451D01*
X000377Y016550D02*
X020688Y016550D01*
X021101Y016603D02*
X021101Y016603D01*
X021212Y016550D02*
X021576Y016550D01*
X021576Y016451D02*
X021390Y016451D01*
X021374Y016472D02*
X021374Y016472D01*
X021469Y016353D02*
X021576Y016353D01*
X021576Y016254D02*
X021548Y016254D01*
D26*
X015977Y015139D02*
X015977Y012108D01*
X015977Y015139D02*
X015741Y015376D01*
X012719Y015376D01*
X012719Y015376D01*
X012549Y015455D01*
X012512Y015376D01*
X012549Y015296D01*
X012719Y015376D01*
X012719Y015376D01*
X012719Y015376D01*
X012549Y015296D01*
X012512Y015376D01*
X012549Y015296D01*
X012549Y015296D01*
X012719Y015376D01*
X012549Y015455D01*
X012719Y015376D01*
X012512Y015376D01*
X012549Y015455D02*
X012549Y015455D01*
X012549Y015455D01*
X012549Y015455D01*
X012719Y015376D01*
D27*
X004728Y014299D02*
X004622Y014348D01*
X004517Y014299D01*
X004622Y014072D01*
X004728Y014299D01*
X004728Y014299D01*
X004622Y014348D01*
X004517Y014299D01*
X004622Y014072D01*
X004622Y014072D01*
X004728Y014299D01*
X004622Y014348D01*
X004517Y014299D01*
X004622Y014072D01*
X004728Y014299D01*
X002956Y014299D02*
X002851Y014348D01*
X002745Y014299D01*
X002851Y014072D01*
X002851Y014072D01*
X002745Y014299D01*
X002851Y014348D01*
X002956Y014299D01*
X002851Y014072D01*
X002956Y014299D01*
X002956Y014299D01*
X002851Y014348D01*
X002745Y014299D01*
X002851Y014072D01*
X002956Y014299D01*
M02*
