%
M48
M72
T01C0.0138
T02C0.0217
T03C0.0276
T04C0.0591
%
T01
X5662Y1124
X7000Y887
X8575Y2541
X9048Y887
X9559Y612
X9874Y887
X10189Y612
X10780Y2620
X11134Y3013
X11882Y2738
X12473Y3013
X14481Y3092
X14087Y4903
X14481Y4982
X13930Y5533
X14166Y6478
X14402Y7502
X15032Y9076
X16685Y9076
X18260Y10100
X18575Y10730
X16764Y13486
X14796Y14903
X12512Y15376
X8260Y13092
X5741Y13171
X7867Y10809
X6528Y10494
X5741Y10494
X3693Y8131
X4481Y7620
X3772Y7187
X5189Y7029
X6056Y7344
X5898Y7738
X7867Y6084
X7945Y5612
X6843Y5218
X6489Y4903
X6370Y5376
X1095Y6242
X1252Y11360
X2276Y11911
X1252Y13013
X11331Y11517
X11725Y10021
X16685Y7580
X17394Y6872
X17867Y6242
X17867Y5848
X18496Y5612
X19048Y5612
X19520Y5612
X20071Y5612
X20544Y5612
X21016Y5612
X17906Y3446
X19914Y1675
X19126Y1045
X21174Y14194
X19678Y15139
T02
X19310Y13220
X19310Y12720
X19310Y12220
X19310Y11720
X19310Y11220
X19310Y10720
X20310Y10720
X20310Y11220
X20310Y11720
X20310Y12220
X20310Y12720
X20310Y13220
X2910Y9620
X2910Y9120
X2910Y8620
X2910Y8120
X2910Y7620
X1910Y7620
X1910Y8120
X1910Y8620
X1910Y9120
X1910Y9620
T03
X2851Y14348
X3441Y14348
X4032Y14348
X4622Y14348
T04
X1030Y980
X7040Y6006
X14914Y6006
X20950Y15940
M30
