G75*
G70*
%OFA0B0*%
%FSLAX24Y24*%
%IPPOS*%
%LPD*%
%AMOC8*
5,1,8,0,0,1.08239X$1,22.5*
%
%ADD10C,0.0000*%
%ADD11C,0.0040*%
%ADD12C,0.0050*%
%ADD13C,0.0240*%
%ADD14C,0.0030*%
%ADD15C,0.0080*%
%ADD16C,0.0300*%
D10*
X000150Y000100D02*
X000150Y016832D01*
X021804Y016832D01*
X021804Y000100D01*
X000150Y000100D01*
X000735Y000980D02*
X000737Y001014D01*
X000743Y001048D01*
X000753Y001081D01*
X000766Y001112D01*
X000784Y001142D01*
X000804Y001170D01*
X000828Y001195D01*
X000854Y001217D01*
X000882Y001235D01*
X000913Y001251D01*
X000945Y001263D01*
X000979Y001271D01*
X001013Y001275D01*
X001047Y001275D01*
X001081Y001271D01*
X001115Y001263D01*
X001147Y001251D01*
X001177Y001235D01*
X001206Y001217D01*
X001232Y001195D01*
X001256Y001170D01*
X001276Y001142D01*
X001294Y001112D01*
X001307Y001081D01*
X001317Y001048D01*
X001323Y001014D01*
X001325Y000980D01*
X001323Y000946D01*
X001317Y000912D01*
X001307Y000879D01*
X001294Y000848D01*
X001276Y000818D01*
X001256Y000790D01*
X001232Y000765D01*
X001206Y000743D01*
X001178Y000725D01*
X001147Y000709D01*
X001115Y000697D01*
X001081Y000689D01*
X001047Y000685D01*
X001013Y000685D01*
X000979Y000689D01*
X000945Y000697D01*
X000913Y000709D01*
X000882Y000725D01*
X000854Y000743D01*
X000828Y000765D01*
X000804Y000790D01*
X000784Y000818D01*
X000766Y000848D01*
X000753Y000879D01*
X000743Y000912D01*
X000737Y000946D01*
X000735Y000980D01*
X006745Y006006D02*
X006747Y006040D01*
X006753Y006074D01*
X006763Y006107D01*
X006776Y006138D01*
X006794Y006168D01*
X006814Y006196D01*
X006838Y006221D01*
X006864Y006243D01*
X006892Y006261D01*
X006923Y006277D01*
X006955Y006289D01*
X006989Y006297D01*
X007023Y006301D01*
X007057Y006301D01*
X007091Y006297D01*
X007125Y006289D01*
X007157Y006277D01*
X007187Y006261D01*
X007216Y006243D01*
X007242Y006221D01*
X007266Y006196D01*
X007286Y006168D01*
X007304Y006138D01*
X007317Y006107D01*
X007327Y006074D01*
X007333Y006040D01*
X007335Y006006D01*
X007333Y005972D01*
X007327Y005938D01*
X007317Y005905D01*
X007304Y005874D01*
X007286Y005844D01*
X007266Y005816D01*
X007242Y005791D01*
X007216Y005769D01*
X007188Y005751D01*
X007157Y005735D01*
X007125Y005723D01*
X007091Y005715D01*
X007057Y005711D01*
X007023Y005711D01*
X006989Y005715D01*
X006955Y005723D01*
X006923Y005735D01*
X006892Y005751D01*
X006864Y005769D01*
X006838Y005791D01*
X006814Y005816D01*
X006794Y005844D01*
X006776Y005874D01*
X006763Y005905D01*
X006753Y005938D01*
X006747Y005972D01*
X006745Y006006D01*
X014619Y006006D02*
X014621Y006040D01*
X014627Y006074D01*
X014637Y006107D01*
X014650Y006138D01*
X014668Y006168D01*
X014688Y006196D01*
X014712Y006221D01*
X014738Y006243D01*
X014766Y006261D01*
X014797Y006277D01*
X014829Y006289D01*
X014863Y006297D01*
X014897Y006301D01*
X014931Y006301D01*
X014965Y006297D01*
X014999Y006289D01*
X015031Y006277D01*
X015061Y006261D01*
X015090Y006243D01*
X015116Y006221D01*
X015140Y006196D01*
X015160Y006168D01*
X015178Y006138D01*
X015191Y006107D01*
X015201Y006074D01*
X015207Y006040D01*
X015209Y006006D01*
X015207Y005972D01*
X015201Y005938D01*
X015191Y005905D01*
X015178Y005874D01*
X015160Y005844D01*
X015140Y005816D01*
X015116Y005791D01*
X015090Y005769D01*
X015062Y005751D01*
X015031Y005735D01*
X014999Y005723D01*
X014965Y005715D01*
X014931Y005711D01*
X014897Y005711D01*
X014863Y005715D01*
X014829Y005723D01*
X014797Y005735D01*
X014766Y005751D01*
X014738Y005769D01*
X014712Y005791D01*
X014688Y005816D01*
X014668Y005844D01*
X014650Y005874D01*
X014637Y005905D01*
X014627Y005938D01*
X014621Y005972D01*
X014619Y006006D01*
X020655Y015940D02*
X020657Y015974D01*
X020663Y016008D01*
X020673Y016041D01*
X020686Y016072D01*
X020704Y016102D01*
X020724Y016130D01*
X020748Y016155D01*
X020774Y016177D01*
X020802Y016195D01*
X020833Y016211D01*
X020865Y016223D01*
X020899Y016231D01*
X020933Y016235D01*
X020967Y016235D01*
X021001Y016231D01*
X021035Y016223D01*
X021067Y016211D01*
X021097Y016195D01*
X021126Y016177D01*
X021152Y016155D01*
X021176Y016130D01*
X021196Y016102D01*
X021214Y016072D01*
X021227Y016041D01*
X021237Y016008D01*
X021243Y015974D01*
X021245Y015940D01*
X021243Y015906D01*
X021237Y015872D01*
X021227Y015839D01*
X021214Y015808D01*
X021196Y015778D01*
X021176Y015750D01*
X021152Y015725D01*
X021126Y015703D01*
X021098Y015685D01*
X021067Y015669D01*
X021035Y015657D01*
X021001Y015649D01*
X020967Y015645D01*
X020933Y015645D01*
X020899Y015649D01*
X020865Y015657D01*
X020833Y015669D01*
X020802Y015685D01*
X020774Y015703D01*
X020748Y015725D01*
X020724Y015750D01*
X020704Y015778D01*
X020686Y015808D01*
X020673Y015839D01*
X020663Y015872D01*
X020657Y015906D01*
X020655Y015940D01*
D11*
X012374Y006250D02*
X012221Y006096D01*
X012067Y006250D01*
X012067Y005789D01*
X011760Y005789D02*
X011760Y006250D01*
X011607Y006250D02*
X011914Y006250D01*
X012374Y006250D02*
X012374Y005789D01*
X011453Y005866D02*
X011377Y005789D01*
X011223Y005789D01*
X011146Y005866D01*
X011146Y006173D01*
X011223Y006250D01*
X011377Y006250D01*
X011453Y006173D01*
X011453Y006096D01*
X011377Y006019D01*
X011146Y006019D01*
X010993Y005789D02*
X010993Y006250D01*
X010839Y006096D01*
X010686Y006250D01*
X010686Y005789D01*
X010533Y005789D02*
X010226Y005789D01*
X010379Y005789D02*
X010379Y006250D01*
X010533Y006096D01*
X010072Y006173D02*
X009995Y006250D01*
X009842Y006250D01*
X009765Y006173D01*
X009765Y006096D01*
X009842Y006019D01*
X009765Y005943D01*
X009765Y005866D01*
X009842Y005789D01*
X009995Y005789D01*
X010072Y005866D01*
X009919Y006019D02*
X009842Y006019D01*
X009612Y006096D02*
X009458Y006250D01*
X009458Y005789D01*
X009305Y005789D02*
X009612Y005789D01*
X004461Y001761D02*
X004154Y001761D01*
X004307Y001761D02*
X004307Y001301D01*
X004000Y001301D02*
X004000Y001761D01*
X003693Y001761D01*
X003540Y001761D02*
X003233Y001301D01*
X003080Y001301D02*
X002773Y001761D01*
X002619Y001608D02*
X002542Y001608D01*
X002542Y001301D01*
X002466Y001301D02*
X002619Y001301D01*
X002773Y001301D02*
X003080Y001761D01*
X003233Y001761D02*
X003540Y001301D01*
X003463Y000974D02*
X003540Y000897D01*
X003540Y000590D01*
X003463Y000514D01*
X003310Y000514D01*
X003233Y000590D01*
X003233Y000897D02*
X003310Y000974D01*
X003463Y000974D01*
X003693Y000897D02*
X003770Y000974D01*
X003924Y000974D01*
X004000Y000897D01*
X004000Y000590D01*
X003924Y000514D01*
X003770Y000514D01*
X003693Y000590D01*
X003693Y000897D01*
X004154Y000897D02*
X004231Y000974D01*
X004384Y000974D01*
X004461Y000897D01*
X004461Y000821D01*
X004384Y000744D01*
X004231Y000744D01*
X004154Y000667D01*
X004154Y000590D01*
X004231Y000514D01*
X004384Y000514D01*
X004461Y000590D01*
X004000Y001531D02*
X003847Y001531D01*
X002542Y001761D02*
X002542Y001838D01*
D12*
X008727Y003756D02*
X009077Y003756D01*
X008727Y003756D02*
X008727Y004106D01*
X012877Y003756D02*
X013227Y003756D01*
X013227Y004106D01*
X013227Y007906D02*
X013227Y008256D01*
X012877Y008256D01*
X009077Y008256D02*
X008727Y008256D01*
X008727Y007906D01*
X018162Y007350D02*
X020721Y007350D01*
X020721Y008810D01*
X018162Y008810D01*
X018162Y007350D01*
D13*
X020441Y007580D03*
D14*
X020878Y007238D02*
X020878Y006991D01*
X020878Y007115D02*
X021248Y007115D01*
X021124Y006991D01*
X021248Y006870D02*
X020939Y006870D01*
X020878Y006808D01*
X020878Y006685D01*
X020939Y006623D01*
X021248Y006623D01*
X021245Y008652D02*
X020998Y008652D01*
X020936Y008714D01*
X020936Y008837D01*
X020998Y008899D01*
X020936Y009020D02*
X020936Y009267D01*
X020936Y009144D02*
X021307Y009144D01*
X021183Y009020D01*
X021245Y008899D02*
X021307Y008837D01*
X021307Y008714D01*
X021245Y008652D01*
X015712Y008728D02*
X015589Y008605D01*
X015650Y008483D02*
X015712Y008422D01*
X015712Y008298D01*
X015650Y008236D01*
X015403Y008236D01*
X015342Y008298D01*
X015342Y008422D01*
X015403Y008483D01*
X015342Y008605D02*
X015342Y008852D01*
X015342Y008728D02*
X015712Y008728D01*
X015712Y008973D02*
X015527Y008973D01*
X015589Y009097D01*
X015589Y009158D01*
X015527Y009220D01*
X015403Y009220D01*
X015342Y009158D01*
X015342Y009035D01*
X015403Y008973D01*
X015712Y008973D02*
X015712Y009220D01*
X015122Y009158D02*
X014936Y008973D01*
X014936Y009220D01*
X014751Y009158D02*
X015122Y009158D01*
X014751Y008852D02*
X014751Y008605D01*
X014751Y008728D02*
X015122Y008728D01*
X014998Y008605D01*
X015060Y008483D02*
X015122Y008422D01*
X015122Y008298D01*
X015060Y008236D01*
X014813Y008236D01*
X014751Y008298D01*
X014751Y008422D01*
X014813Y008483D01*
X014078Y009321D02*
X013954Y009321D01*
X013892Y009383D01*
X013892Y009692D01*
X013771Y009506D02*
X013524Y009506D01*
X013586Y009321D02*
X013586Y009692D01*
X013771Y009506D01*
X014078Y009321D02*
X014139Y009383D01*
X014139Y009692D01*
X009676Y009797D02*
X009615Y009735D01*
X009491Y009735D01*
X009429Y009797D01*
X009308Y009735D02*
X009061Y009735D01*
X008940Y009735D02*
X008940Y009797D01*
X008693Y010044D01*
X008693Y010105D01*
X008940Y010105D01*
X008878Y010326D02*
X008755Y010326D01*
X008693Y010387D01*
X008693Y010449D01*
X008755Y010511D01*
X008940Y010511D01*
X008940Y010387D01*
X008878Y010326D01*
X009061Y010326D02*
X009308Y010326D01*
X009185Y010326D02*
X009185Y010696D01*
X009308Y010573D01*
X009429Y010634D02*
X009491Y010696D01*
X009615Y010696D01*
X009676Y010634D01*
X009676Y010387D01*
X009615Y010326D01*
X009491Y010326D01*
X009429Y010387D01*
X009491Y010105D02*
X009429Y010044D01*
X009491Y010105D02*
X009615Y010105D01*
X009676Y010044D01*
X009676Y009797D01*
X009308Y009982D02*
X009185Y010105D01*
X009185Y009735D01*
X008940Y010511D02*
X008816Y010634D01*
X008693Y010696D01*
X007321Y009378D02*
X007259Y009378D01*
X007012Y009131D01*
X006950Y009131D01*
X007012Y009010D02*
X006950Y008948D01*
X006950Y008824D01*
X007012Y008763D01*
X007259Y008763D01*
X007321Y008824D01*
X007321Y008948D01*
X007259Y009010D01*
X007321Y009131D02*
X007321Y009378D01*
X006809Y009378D02*
X006747Y009254D01*
X006624Y009131D01*
X006624Y009316D01*
X006562Y009378D01*
X006500Y009378D01*
X006439Y009316D01*
X006439Y009193D01*
X006500Y009131D01*
X006624Y009131D01*
X006747Y009010D02*
X006809Y008948D01*
X006809Y008824D01*
X006747Y008763D01*
X006500Y008763D01*
X006439Y008824D01*
X006439Y008948D01*
X006500Y009010D01*
X005356Y012456D02*
X004986Y012456D01*
X005109Y012456D02*
X005109Y012641D01*
X005171Y012702D01*
X005294Y012702D01*
X005356Y012641D01*
X005356Y012456D01*
X005109Y012579D02*
X004986Y012702D01*
X004986Y012824D02*
X004986Y013071D01*
X004986Y012947D02*
X005356Y012947D01*
X005233Y012824D01*
X005171Y013192D02*
X005048Y013192D01*
X004986Y013254D01*
X004986Y013377D01*
X005048Y013439D01*
X005109Y013439D01*
X005171Y013377D01*
X005171Y013192D01*
X005294Y013316D01*
X005356Y013439D01*
X003545Y013459D02*
X003545Y013212D01*
X003545Y012967D02*
X003175Y012967D01*
X003175Y012844D02*
X003175Y013090D01*
X003175Y013212D02*
X003237Y013212D01*
X003483Y013459D01*
X003545Y013459D01*
X003545Y012967D02*
X003422Y012844D01*
X003483Y012722D02*
X003360Y012722D01*
X003298Y012660D01*
X003298Y012475D01*
X003175Y012475D02*
X003545Y012475D01*
X003545Y012660D01*
X003483Y012722D01*
X003298Y012599D02*
X003175Y012722D01*
X006388Y003472D02*
X006326Y003410D01*
X006326Y003287D01*
X006388Y003225D01*
X006449Y003225D01*
X006511Y003287D01*
X006511Y003410D01*
X006449Y003472D01*
X006388Y003472D01*
X006511Y003410D02*
X006573Y003472D01*
X006635Y003472D01*
X006696Y003410D01*
X006696Y003287D01*
X006635Y003225D01*
X006573Y003225D01*
X006511Y003287D01*
X006388Y003104D02*
X006326Y003042D01*
X006326Y002918D01*
X006388Y002857D01*
X006635Y002857D01*
X006696Y002918D01*
X006696Y003042D01*
X006635Y003104D01*
X006995Y003042D02*
X007057Y003104D01*
X006995Y003042D02*
X006995Y002918D01*
X007057Y002857D01*
X007304Y002857D01*
X007366Y002918D01*
X007366Y003042D01*
X007304Y003104D01*
X007304Y003225D02*
X007242Y003225D01*
X007180Y003287D01*
X007180Y003472D01*
X007057Y003472D02*
X007304Y003472D01*
X007366Y003410D01*
X007366Y003287D01*
X007304Y003225D01*
X007057Y003225D02*
X006995Y003287D01*
X006995Y003410D01*
X007057Y003472D01*
X011109Y002608D02*
X011109Y002547D01*
X011171Y002485D01*
X011109Y002423D01*
X011109Y002361D01*
X011171Y002300D01*
X011294Y002300D01*
X011356Y002361D01*
X011477Y002300D02*
X011724Y002300D01*
X011601Y002300D02*
X011601Y002670D01*
X011724Y002547D01*
X011845Y002608D02*
X011907Y002670D01*
X012031Y002670D01*
X012092Y002608D01*
X012092Y002361D01*
X012031Y002300D01*
X011907Y002300D01*
X011845Y002361D01*
X011356Y002608D02*
X011294Y002670D01*
X011171Y002670D01*
X011109Y002608D01*
X011171Y002485D02*
X011232Y002485D01*
X012314Y002216D02*
X012314Y001969D01*
X012561Y002216D01*
X012623Y002216D01*
X012685Y002154D01*
X012685Y002031D01*
X012623Y001969D01*
X012685Y001724D02*
X012314Y001724D01*
X012314Y001601D02*
X012314Y001848D01*
X012561Y001601D02*
X012685Y001724D01*
X012623Y001479D02*
X012499Y001479D01*
X012438Y001418D01*
X012438Y001232D01*
X012314Y001232D02*
X012685Y001232D01*
X012685Y001418D01*
X012623Y001479D01*
X012438Y001356D02*
X012314Y001479D01*
X012031Y001213D02*
X012092Y001152D01*
X012092Y000905D01*
X012031Y000843D01*
X011907Y000843D01*
X011845Y000905D01*
X011724Y000843D02*
X011477Y000843D01*
X011356Y000843D02*
X011109Y001090D01*
X011109Y001152D01*
X011171Y001213D01*
X011294Y001213D01*
X011356Y001152D01*
X011601Y001213D02*
X011601Y000843D01*
X011356Y000843D02*
X011109Y000843D01*
X011601Y001213D02*
X011724Y001090D01*
X011845Y001152D02*
X011907Y001213D01*
X012031Y001213D01*
X013991Y001232D02*
X014362Y001232D01*
X014362Y001418D01*
X014300Y001479D01*
X014177Y001479D01*
X014115Y001418D01*
X014115Y001232D01*
X014115Y001356D02*
X013991Y001479D01*
X013991Y001601D02*
X013991Y001848D01*
X013991Y001969D02*
X013991Y002216D01*
X013991Y002093D02*
X014362Y002093D01*
X014238Y001969D01*
X014362Y001724D02*
X013991Y001724D01*
X014238Y001601D02*
X014362Y001724D01*
X014813Y002410D02*
X014751Y002471D01*
X014751Y002595D01*
X014813Y002657D01*
X014751Y002778D02*
X014751Y003025D01*
X014751Y002901D02*
X015122Y002901D01*
X014998Y002778D01*
X015060Y002657D02*
X015122Y002595D01*
X015122Y002471D01*
X015060Y002410D01*
X014813Y002410D01*
X015342Y002471D02*
X015342Y002595D01*
X015403Y002657D01*
X015342Y002778D02*
X015342Y003025D01*
X015342Y003146D02*
X015342Y003393D01*
X015342Y003270D02*
X015712Y003270D01*
X015589Y003146D01*
X015712Y002901D02*
X015342Y002901D01*
X015060Y003146D02*
X015122Y003208D01*
X015122Y003331D01*
X015060Y003393D01*
X014813Y003146D01*
X014751Y003208D01*
X014751Y003331D01*
X014813Y003393D01*
X015060Y003393D01*
X015060Y003146D02*
X014813Y003146D01*
X015342Y002471D02*
X015403Y002410D01*
X015650Y002410D01*
X015712Y002471D01*
X015712Y002595D01*
X015650Y002657D01*
X015589Y002778D02*
X015712Y002901D01*
X016476Y003562D02*
X016476Y003686D01*
X016537Y003747D01*
X016846Y003747D01*
X016784Y003869D02*
X016846Y003930D01*
X016846Y004054D01*
X016784Y004116D01*
X016723Y004116D01*
X016476Y003869D01*
X016476Y004116D01*
X016476Y003562D02*
X016537Y003500D01*
X016846Y003500D01*
X017521Y001257D02*
X017644Y001257D01*
X017706Y001195D01*
X017828Y001195D02*
X017889Y001257D01*
X018013Y001257D01*
X018074Y001195D01*
X018074Y000948D01*
X018013Y000886D01*
X017889Y000886D01*
X017828Y000948D01*
X017706Y000886D02*
X017459Y001133D01*
X017459Y001195D01*
X017521Y001257D01*
X017459Y000886D02*
X017706Y000886D01*
D15*
X017708Y002595D02*
X017618Y002595D01*
X017188Y002595D02*
X017058Y002595D01*
X017058Y004165D01*
X017188Y004165D01*
X017618Y004165D02*
X017708Y004165D01*
X018118Y004165D02*
X018208Y004165D01*
X018618Y004165D02*
X018708Y004165D01*
X019118Y004165D02*
X019208Y004165D01*
X019618Y004165D02*
X019708Y004165D01*
X020118Y004165D02*
X020208Y004165D01*
X020618Y004165D02*
X020708Y004165D01*
X021128Y004165D02*
X021258Y004165D01*
X021258Y002595D01*
X021128Y002595D01*
X020708Y002595D02*
X020618Y002595D01*
X020208Y002595D02*
X020118Y002595D01*
X019708Y002595D02*
X019618Y002595D01*
X019208Y002595D02*
X019118Y002595D01*
X018708Y002595D02*
X018618Y002595D01*
X018208Y002595D02*
X018118Y002595D01*
X015504Y005317D02*
X015504Y006694D01*
X014126Y006694D01*
X014126Y009155D01*
X007827Y009155D01*
X007827Y006694D01*
X006449Y006694D01*
X006449Y005317D01*
X007827Y005317D01*
X007827Y002856D01*
X014126Y002856D01*
X014126Y005317D01*
X015504Y005317D01*
X014464Y006006D02*
X014466Y006048D01*
X014472Y006090D01*
X014482Y006131D01*
X014495Y006171D01*
X014513Y006209D01*
X014533Y006246D01*
X014558Y006281D01*
X014585Y006313D01*
X014615Y006342D01*
X014648Y006369D01*
X014683Y006392D01*
X014720Y006412D01*
X014759Y006428D01*
X014799Y006441D01*
X014840Y006450D01*
X014882Y006455D01*
X014925Y006456D01*
X014967Y006453D01*
X015008Y006446D01*
X015049Y006435D01*
X015089Y006421D01*
X015127Y006403D01*
X015163Y006381D01*
X015197Y006356D01*
X015228Y006328D01*
X015257Y006297D01*
X015283Y006264D01*
X015305Y006228D01*
X015325Y006190D01*
X015340Y006151D01*
X015352Y006111D01*
X015360Y006069D01*
X015364Y006027D01*
X015364Y005985D01*
X015360Y005943D01*
X015352Y005901D01*
X015340Y005861D01*
X015325Y005822D01*
X015305Y005784D01*
X015283Y005748D01*
X015257Y005715D01*
X015228Y005684D01*
X015197Y005656D01*
X015163Y005631D01*
X015127Y005609D01*
X015089Y005591D01*
X015049Y005577D01*
X015008Y005566D01*
X014967Y005559D01*
X014925Y005556D01*
X014882Y005557D01*
X014840Y005562D01*
X014799Y005571D01*
X014759Y005584D01*
X014720Y005600D01*
X014683Y005620D01*
X014648Y005643D01*
X014615Y005670D01*
X014585Y005699D01*
X014558Y005731D01*
X014533Y005766D01*
X014513Y005803D01*
X014495Y005841D01*
X014482Y005881D01*
X014472Y005922D01*
X014466Y005964D01*
X014464Y006006D01*
X006590Y006006D02*
X006592Y006048D01*
X006598Y006090D01*
X006608Y006131D01*
X006621Y006171D01*
X006639Y006209D01*
X006659Y006246D01*
X006684Y006281D01*
X006711Y006313D01*
X006741Y006342D01*
X006774Y006369D01*
X006809Y006392D01*
X006846Y006412D01*
X006885Y006428D01*
X006925Y006441D01*
X006966Y006450D01*
X007008Y006455D01*
X007051Y006456D01*
X007093Y006453D01*
X007134Y006446D01*
X007175Y006435D01*
X007215Y006421D01*
X007253Y006403D01*
X007289Y006381D01*
X007323Y006356D01*
X007354Y006328D01*
X007383Y006297D01*
X007409Y006264D01*
X007431Y006228D01*
X007451Y006190D01*
X007466Y006151D01*
X007478Y006111D01*
X007486Y006069D01*
X007490Y006027D01*
X007490Y005985D01*
X007486Y005943D01*
X007478Y005901D01*
X007466Y005861D01*
X007451Y005822D01*
X007431Y005784D01*
X007409Y005748D01*
X007383Y005715D01*
X007354Y005684D01*
X007323Y005656D01*
X007289Y005631D01*
X007253Y005609D01*
X007215Y005591D01*
X007175Y005577D01*
X007134Y005566D01*
X007093Y005559D01*
X007051Y005556D01*
X007008Y005557D01*
X006966Y005562D01*
X006925Y005571D01*
X006885Y005584D01*
X006846Y005600D01*
X006809Y005620D01*
X006774Y005643D01*
X006741Y005670D01*
X006711Y005699D01*
X006684Y005731D01*
X006659Y005766D01*
X006639Y005803D01*
X006621Y005841D01*
X006608Y005881D01*
X006598Y005922D01*
X006592Y005964D01*
X006590Y006006D01*
D16*
X017408Y003630D03*
M02*
