*
G04 Mass Parameters ***
*
G04 Image ***
*
%INC:\USERS\RAFEL\DOCUMENTS\PROJECTES\SOC\T3\DISENO\HARDWARE\VERSION1_0\LAYOUT\CAMERABOARD\CAMERABOARD.SSB*%
%ICAS*%
%MOIN*%
%IPPOS*%
%ASAXBY*%
G74*%FSLAN2X34Y34*%
*
G04 Aperture Definitions ***
*
%ADD10C,0.1100*%
%ADD11C,0.1378*%
%ADD12R,0.0748X0.0315*%
%ADD13R,0.0866X0.0315*%
%ADD14R,0.0320X0.0380*%
%ADD15R,0.0380X0.0320*%
%ADD16R,0.0480X0.0760*%
%ADD17C,0.0620*%
%ADD18R,0.0620X0.0620*%
%ADD19O,0.0787X0.0472*%
%ADD20R,0.0504X0.0504*%
%ADD21R,0.0504X0.0779*%
%ADD22R,0.0220X0.0220*%
%ADD23R,0.1181X0.0866*%
%ADD24R,0.0394X0.0866*%
%ADD25R,0.0118X0.0630*%
%ADD26C,0.0300*%
%ADD27C,0.0020*%
%ADD28C,0.0004*%
%ADD29C,0.0000*%
%ADD30C,0.0300*%
%ADD31C,0.0100*%
%ADD32C,0.0300*%
%ADD33C,0.0138*%
%ADD34C,0.0098*%
%ADD35C,0.0059*%
%ADD36C,0.0079*%
%ADD37C,0.1000*%
%ADD38C,0.0551*%
%ADD39R,0.0138X0.0630*%
%ADD40R,0.0197X0.0787*%
%ADD41O,0.0197X0.0590*%
%ADD42O,0.0590X0.0197*%
%ADD43R,0.0590X0.0197*%
%ADD44R,0.0197X0.0590*%
%ADD45C,0.1050*%
%ADD46C,0.0670*%
%ADD47R,0.0670X0.0670*%
%ADD48R,0.0512X0.0512*%
%ADD49R,0.0512X0.0787*%
%ADD50C,0.0350*%
%ADD51C,0.0350*%
%ADD52C,0.0630*%
%ADD53C,0.0060*%
%ADD54C,0.0039*%
%ADD55C,0.0197*%
%ADD56C,0.0118*%
%ADD57C,0.0010*%
*
G04 Plot Data ***
*
G54D31*
G01X0015191Y0003239D02*
X0009695D01*
Y0008718D01*
X0015191D01*
Y0003239D01*
G54D35*
G01X0016278Y0000588D02*
X0016305Y0000533D01*
X0016472D01*
X0016500Y0000588D01*
Y0000810D01*
X0016472Y0000866D01*
X0016305D01*
X0016278Y0000810D01*
X0016840Y0000533D02*
X0016868Y0000588D01*
Y0000810D01*
X0016840Y0000866D01*
X0016673D01*
X0016646Y0000810D01*
Y0000588D01*
X0016673Y0000533D01*
X0016840D01*
X0017014Y0000810D02*
X0017042Y0000866D01*
X0017208D01*
X0017236Y0000810D01*
Y0000755D01*
X0017208Y0000699D01*
X0017042D01*
X0017014Y0000644D01*
Y0000588D01*
X0017042Y0000533D01*
X0017208D01*
X0017236Y0000588D01*
X0015652Y0001103D02*
X0015764D01*
X0015708D02*
Y0001437D01*
X0015652D02*
X0015764D01*
X0015965Y0001103D02*
X0016132Y0001437D01*
X0015965D02*
X0016132Y0001103D01*
X0016305D02*
X0016472Y0001437D01*
X0016305D02*
X0016472Y0001103D01*
X0016701Y0001270D02*
X0016868D01*
Y0001103D02*
Y0001437D01*
X0016646D01*
X0017125Y0001103D02*
Y0001437D01*
X0017014D02*
X0017236D01*
X0011911Y0006950D02*
X0011999D01*
X0011911Y0006863D02*
Y0006994D01*
X0011944Y0007125D01*
X0011966D01*
X0011999Y0006994D01*
Y0006863D01*
X0012127Y0007125D02*
Y0006863D01*
X0012149Y0006906D01*
X0012193Y0007081D01*
X0012215Y0007125D01*
Y0006863D01*
X0012344D02*
X0012388D01*
X0012366D02*
Y0007125D01*
X0012344D02*
X0012388D01*
X0012582Y0006863D02*
Y0007125D01*
X0012538D02*
X0012626D01*
X0012842Y0006994D02*
X0012777D01*
X0012755Y0007038D01*
Y0007081D01*
X0012777Y0007125D01*
X0012842D01*
Y0006863D01*
X0012971Y0006950D02*
X0013059D01*
X0012971Y0006863D02*
Y0006994D01*
X0013004Y0007125D01*
X0013026D01*
X0013059Y0006994D01*
Y0006863D01*
X0011485Y0004205D02*
X0011573D01*
X0011529D02*
Y0004468D01*
X0011573Y0004424D01*
X0011931Y0004249D02*
X0011887Y0004205D01*
X0011800D01*
X0011756Y0004249D01*
Y0004293D01*
X0011844Y0004380D01*
X0011756Y0004468D01*
X0011931D01*
X0012071Y0004205D02*
X0012158D01*
X0012115D02*
Y0004468D01*
X0012158Y0004424D01*
X0012342Y0004205D02*
Y0004468D01*
X0012386Y0004424D01*
X0012430Y0004337D01*
X0012473Y0004424D01*
X0012517Y0004468D01*
Y0004205D01*
X0012679Y0004337D02*
X0012810D01*
X0012832Y0004380D01*
Y0004424D01*
X0012810Y0004468D01*
X0012679D01*
X0012657Y0004424D01*
Y0004380D01*
X0012744Y0004205D01*
X0013059D02*
Y0004468D01*
X0012972D02*
X0013147D01*
X0013287Y0004205D02*
Y0004468D01*
X0013330Y0004424D01*
X0013374Y0004337D01*
X0013418Y0004424D01*
X0013461Y0004468D01*
Y0004205D01*
X0015401Y0002217D02*
X0015235D01*
X0015207Y0002161D01*
Y0002106D01*
X0015235Y0002050D01*
X0015401D01*
X0015429Y0002106D01*
Y0002161D01*
X0015318Y0002384D01*
X0015575D02*
Y0002106D01*
X0015603Y0002050D01*
X0015769D01*
X0015797Y0002106D01*
Y0002384D01*
X0003620Y0006592D02*
X0003592Y0006537D01*
X0003425D01*
X0003398Y0006592D01*
Y0006703D01*
X0003453Y0006759D01*
X0003620D01*
Y0006870D01*
X0003398D01*
X0003766D02*
Y0006592D01*
X0003794Y0006537D01*
X0003960D01*
X0003988Y0006592D01*
Y0006870D01*
X0003551Y0005063D02*
X0003518Y0004932D01*
X0003606Y0005063D02*
X0003540D01*
X0003518Y0005107D01*
Y0005151D01*
X0003540Y0005194D01*
X0003606D01*
Y0004932D01*
X0003734Y0005194D02*
Y0004976D01*
X0003745Y0004932D01*
X0003778Y0005063D01*
Y0005107D02*
Y0005063D01*
X0003811Y0004932D01*
X0003822Y0004976D01*
Y0005194D01*
X0004038Y0005063D02*
X0003973D01*
X0003951Y0005107D01*
Y0005151D01*
X0003973Y0005194D01*
X0004038D01*
Y0004932D01*
X0004167Y0005019D02*
X0004255D01*
X0004211Y0005194D01*
X0004189D01*
Y0004932D01*
X0004438D02*
X0004460Y0004976D01*
X0004471Y0005019D01*
Y0005107D01*
X0004460Y0005151D01*
X0004438Y0005194D01*
X0004416D01*
X0004395Y0005151D01*
X0004384Y0005107D01*
Y0005019D01*
X0004395Y0004976D01*
X0004416Y0004932D01*
X0004438D01*
X0004600D02*
X0004644D01*
X0004622D02*
Y0005194D01*
X0004644Y0005151D01*
X0004849Y0004932D02*
X0004871Y0004976D01*
X0004882Y0005019D01*
Y0005107D01*
X0004871Y0005151D01*
X0004849Y0005194D01*
X0004827D01*
X0004806Y0005151D01*
X0004795Y0005107D01*
Y0005019D01*
X0004806Y0004976D01*
X0004827Y0004932D01*
X0004849D01*
X0005088D02*
Y0005194D01*
X0005099Y0004932D02*
X0005033D01*
X0005011Y0004976D01*
Y0005019D01*
X0005022Y0005063D01*
X0005088D02*
X0005022D01*
X0005011Y0005107D01*
Y0005151D01*
X0005033Y0005194D01*
X0005099D01*
X0005227Y0004932D02*
X0005293Y0005194D01*
X0005227D02*
X0005293Y0004932D01*
X0005477D02*
Y0005194D01*
X0005433D02*
X0005520D01*
G54D53*
G01X0002224Y0002476D02*
X0002446D01*
X0002335Y0002698D01*
X0002279D01*
Y0002364D01*
X0002594Y0002420D02*
X0002621Y0002364D01*
X0002788D01*
X0002816Y0002420D01*
Y0002642D01*
X0002788Y0002698D01*
X0002621D01*
X0002594Y0002642D01*
X0004883Y0007532D02*
X0004856Y0007477D01*
X0004689D01*
X0004661Y0007532D01*
Y0007644D01*
X0004717Y0007699D01*
X0004883D01*
Y0007810D01*
X0004661D01*
X0005031Y0007532D02*
X0005059Y0007477D01*
X0005226D01*
X0005253Y0007532D01*
Y0007755D01*
X0005226Y0007810D01*
X0005059D01*
X0005031Y0007755D01*
X0010262Y0009284D02*
X0010234Y0009339D01*
Y0009395D01*
X0010262Y0009450D01*
X0010428D01*
X0010456Y0009395D01*
Y0009339D01*
X0010428Y0009284D01*
X0010262D01*
X0010234Y0009228D01*
Y0009172D01*
X0010262Y0009117D01*
X0010428D01*
X0010456Y0009172D01*
Y0009228D01*
X0010428Y0009284D01*
X0010604Y0009117D02*
X0010826D01*
X0010604Y0009339D01*
Y0009395D01*
X0010632Y0009450D01*
X0010798D01*
X0010826Y0009395D01*
X0010974Y0009172D02*
X0011002Y0009117D01*
X0011168D01*
X0011196Y0009172D01*
Y0009395D01*
X0011168Y0009450D01*
X0011002D01*
X0010974Y0009395D01*
X0016456Y0003633D02*
Y0003466D01*
X0016512Y0003439D01*
X0016567D01*
X0016623Y0003466D01*
Y0003633D01*
X0016567Y0003661D01*
X0016512D01*
X0016290Y0003550D01*
Y0003291D02*
Y0003180D01*
Y0003235D02*
X0016623D01*
X0016567Y0003180D01*
X0016345Y0002976D02*
X0016290Y0002949D01*
Y0002782D01*
X0016345Y0002754D01*
X0016567D01*
X0016623Y0002782D01*
Y0002949D01*
X0016567Y0002976D01*
X0017766Y0004691D02*
X0017821Y0004635D01*
X0017877Y0004607D01*
X0017988D01*
X0018044Y0004635D01*
X0018099Y0004691D01*
Y0004746D01*
X0018044Y0004802D01*
X0017988Y0004830D01*
X0017877D01*
X0017821Y0004802D01*
X0017766Y0004746D01*
Y0004691D01*
Y0004460D02*
Y0004237D01*
X0017988Y0004460D01*
X0018044D01*
X0018099Y0004432D01*
Y0004265D01*
X0018044Y0004237D01*
X0017821Y0004090D02*
X0017766Y0004062D01*
Y0003895D01*
X0017821Y0003867D01*
X0018044D01*
X0018099Y0003895D01*
Y0004062D01*
X0018044Y0004090D01*
X0012999Y0000871D02*
X0012943Y0000899D01*
Y0001065D01*
X0012999Y0001093D01*
X0013110D01*
X0013165Y0001037D01*
Y0000871D01*
X0013276D01*
Y0001093D01*
X0012943Y0000723D02*
Y0000612D01*
Y0000667D02*
X0013276D01*
X0013221Y0000612D01*
X0012999Y0000409D02*
X0012943Y0000381D01*
Y0000214D01*
X0012999Y0000186D01*
X0013221D01*
X0013276Y0000214D01*
Y0000381D01*
X0013221Y0000409D01*
X0010479Y0002131D02*
X0010423Y0002186D01*
Y0002297D01*
X0010479Y0002353D01*
X0010535D01*
X0010646Y0002242D01*
X0010757Y0002353D01*
Y0002131D01*
X0010423Y0001983D02*
Y0001872D01*
Y0001927D02*
X0010757D01*
X0010701Y0001872D01*
X0010479Y0001668D02*
X0010423Y0001641D01*
Y0001474D01*
X0010479Y0001446D01*
X0010701D01*
X0010757Y0001474D01*
Y0001641D01*
X0010701Y0001668D01*
X0017798Y0008058D02*
Y0007836D01*
X0018021Y0007947D01*
Y0008002D01*
X0017687D01*
Y0007688D02*
Y0007466D01*
X0017909Y0007688D01*
X0017965D01*
X0018021Y0007660D01*
Y0007494D01*
X0017965Y0007466D01*
X0017743Y0007318D02*
X0017687Y0007290D01*
Y0007124D01*
X0017743Y0007096D01*
X0017965D01*
X0018021Y0007124D01*
Y0007290D01*
X0017965Y0007318D01*
X0009685Y0011088D02*
X0010018Y0011255D01*
Y0011033D01*
X0009685Y0010885D02*
Y0010663D01*
X0009907Y0010885D01*
X0009963D01*
X0010018Y0010857D01*
Y0010690D01*
X0009963Y0010663D01*
X0009741Y0010515D02*
X0009685Y0010487D01*
Y0010320D01*
X0009741Y0010293D01*
X0009963D01*
X0010018Y0010320D01*
Y0010487D01*
X0009963Y0010515D01*
X0016306Y0008997D02*
X0016250Y0009053D01*
Y0009164D01*
X0016306Y0009219D01*
X0016361D01*
X0016472Y0009108D01*
X0016584Y0009219D01*
Y0008997D01*
X0016250Y0008849D02*
Y0008627D01*
X0016472Y0008849D01*
X0016528D01*
X0016584Y0008822D01*
Y0008655D01*
X0016528Y0008627D01*
X0016306Y0008479D02*
X0016250Y0008452D01*
Y0008285D01*
X0016306Y0008257D01*
X0016528D01*
X0016584Y0008285D01*
Y0008452D01*
X0016528Y0008479D01*
X0007127Y0007531D02*
X0007183Y0007559D01*
X0007238D01*
X0007294Y0007531D01*
Y0007364D01*
X0007238Y0007337D01*
X0007183D01*
X0007127Y0007364D01*
Y0007531D01*
X0007072Y0007559D01*
X0007016D01*
X0006961Y0007531D01*
Y0007364D01*
X0007016Y0007337D01*
X0007072D01*
X0007127Y0007364D01*
X0007016Y0007189D02*
X0006961Y0007161D01*
Y0006994D01*
X0007016Y0006967D01*
X0007238D01*
X0007294Y0006994D01*
Y0007161D01*
X0007238Y0007189D01*
X0006959Y0004624D02*
X0007014Y0004569D01*
X0007070Y0004541D01*
X0007181D01*
X0007237Y0004569D01*
X0007292Y0004624D01*
Y0004680D01*
X0007237Y0004735D01*
X0007181Y0004763D01*
X0007070D01*
X0007014Y0004735D01*
X0006959Y0004680D01*
Y0004624D01*
Y0004393D02*
Y0004282D01*
Y0004338D02*
X0007292D01*
X0007237Y0004282D01*
X0007014Y0004079D02*
X0006959Y0004051D01*
Y0003884D01*
X0007014Y0003857D01*
X0007237D01*
X0007292Y0003884D01*
Y0004051D01*
X0007237Y0004079D01*
X0014586Y0002080D02*
Y0002246D01*
X0014531Y0002274D01*
X0014475D01*
X0014419Y0002246D01*
Y0002080D01*
X0014475Y0002052D01*
X0014531D01*
X0014753Y0002163D01*
X0014419Y0001904D02*
Y0001793D01*
Y0001849D02*
X0014753D01*
X0014697Y0001793D01*
X0014475Y0001590D02*
X0014419Y0001562D01*
Y0001395D01*
X0014475Y0001367D01*
X0014697D01*
X0014753Y0001395D01*
Y0001562D01*
X0014697Y0001590D01*
X0011912Y0001191D02*
Y0000969D01*
X0012135Y0001080D01*
Y0001136D01*
X0011801D01*
Y0000821D02*
Y0000710D01*
Y0000766D02*
X0012135D01*
X0012079Y0000710D01*
X0011857Y0000507D02*
X0011801Y0000479D01*
Y0000313D01*
X0011857Y0000285D01*
X0012079D01*
X0012135Y0000313D01*
Y0000479D01*
X0012079Y0000507D01*
X0008295Y0003485D02*
X0008461D01*
X0008489Y0003540D01*
Y0003596D01*
X0008461Y0003651D01*
X0008295D01*
X0008267Y0003596D01*
Y0003540D01*
X0008378Y0003318D01*
X0008637Y0003374D02*
X0008665Y0003318D01*
X0008831D01*
X0008859Y0003374D01*
Y0003596D01*
X0008831Y0003651D01*
X0008665D01*
X0008637Y0003596D01*
X0008337Y0008239D02*
X0008170Y0008573D01*
X0008393D01*
X0008540Y0008295D02*
X0008568Y0008239D01*
X0008735D01*
X0008763Y0008295D01*
Y0008517D01*
X0008735Y0008573D01*
X0008568D01*
X0008540Y0008517D01*
X0008081Y0004969D02*
Y0003819D01*
X0007436D01*
Y0004969D01*
X0008081D01*
X0008218Y0006940D02*
Y0008090D01*
X0008863D01*
Y0006940D01*
X0008218D01*
X0011545Y0002382D02*
Y0001232D01*
X0010900D01*
Y0002382D01*
X0011545D01*
X0016821Y0004910D02*
Y0003760D01*
X0016176D01*
Y0004910D01*
X0016821D01*
X0008888Y0004949D02*
Y0003799D01*
X0008243D01*
Y0004949D01*
X0008888D01*
X0012333Y0002382D02*
Y0001232D01*
X0011688D01*
Y0002382D01*
X0012333D01*
X0017628Y0004921D02*
Y0003771D01*
X0016983D01*
Y0004921D01*
X0017628D01*
X0017549Y0008130D02*
Y0006980D01*
X0016904D01*
Y0008130D01*
X0017549D01*
X0002864Y0003917D02*
Y0002767D01*
X0002219D01*
Y0003917D01*
X0002864D01*
X0016723Y0008130D02*
Y0006980D01*
X0016078D01*
Y0008130D01*
X0016723D01*
X0006008Y0006727D02*
X0004858D01*
Y0007372D01*
X0006008D01*
Y0006727D01*
X0013435Y0002382D02*
Y0001232D01*
X0012790D01*
Y0002382D01*
X0013435D01*
X0010158Y0011034D02*
X0011308D01*
Y0010389D01*
X0010158D01*
Y0011034D01*
X0010197Y0010187D02*
X0011347D01*
Y0009542D01*
X0010197D01*
Y0010187D01*
X0014242Y0002382D02*
Y0001232D01*
X0013597D01*
Y0002382D01*
X0014242D01*
X0007431Y0006940D02*
Y0008090D01*
X0008076D01*
Y0006940D01*
X0007431D01*
G54D56*
G01X0005649Y0003249D02*
X0003366Y0003248D01*
Y0006437D01*
X0005531Y0006435D01*
X0005649D01*
Y0003249D01*
G54D57*
G01X0015902Y0002503D02*
Y0005099D01*
X0017279D01*
Y0006791D01*
X0015902D01*
Y0009387D01*
X0009019D01*
Y0006791D01*
X0007642D01*
Y0005099D01*
X0009019D01*
Y0002503D01*
X0015902D01*
G54D38*
X0016358Y0005965D03*
X0008524D03*
M02*
