*
G04 Mass Parameters ***
*
G04 Image ***
*
%INC:\USERS\RAFEL\DOCUMENTS\PROJECTES\SOC\T3\DISENO\HARDWARE\VERSION1_0\LAYOUT\CAMERABOARD\CAMERABOARD.SST*%
%ICAS*%
%MOIN*%
%IPPOS*%
%ASAXBY*%
G74*%FSLAN2X34Y34*%
*
G04 Aperture Definitions ***
*
%ADD10C,0.1100*%
%ADD11C,0.1378*%
%ADD12R,0.0748X0.0315*%
%ADD13R,0.0866X0.0315*%
%ADD14R,0.0320X0.0380*%
%ADD15R,0.0380X0.0320*%
%ADD16R,0.0480X0.0760*%
%ADD17C,0.0620*%
%ADD18R,0.0620X0.0620*%
%ADD19O,0.0787X0.0472*%
%ADD20R,0.0504X0.0504*%
%ADD21R,0.0504X0.0779*%
%ADD22R,0.0220X0.0220*%
%ADD23R,0.1181X0.0866*%
%ADD24R,0.0394X0.0866*%
%ADD25R,0.0118X0.0630*%
%ADD26C,0.0300*%
%ADD27C,0.0020*%
%ADD28C,0.0004*%
%ADD29C,0.0000*%
%ADD30C,0.0300*%
%ADD31C,0.0100*%
%ADD32C,0.0300*%
%ADD33C,0.0138*%
%ADD34C,0.0098*%
%ADD35C,0.0059*%
%ADD36C,0.0079*%
%ADD37C,0.1000*%
%ADD38C,0.0551*%
%ADD39R,0.0138X0.0630*%
%ADD40R,0.0197X0.0787*%
%ADD41O,0.0197X0.0590*%
%ADD42O,0.0590X0.0197*%
%ADD43R,0.0590X0.0197*%
%ADD44R,0.0197X0.0590*%
%ADD45C,0.1050*%
%ADD46C,0.0670*%
%ADD47R,0.0670X0.0670*%
%ADD48R,0.0512X0.0512*%
%ADD49R,0.0512X0.0787*%
%ADD50C,0.0350*%
%ADD51C,0.0350*%
%ADD52C,0.0630*%
%ADD53C,0.0060*%
%ADD54C,0.0039*%
%ADD55C,0.0197*%
%ADD56C,0.0118*%
*
G04 Plot Data ***
*
G54D31*
G01X0018596Y0004884D02*
X0018788D01*
X0018692Y0004980D02*
Y0004788D01*
X0017827Y0005019D02*
Y0004827D01*
X0012928Y0001989D02*
Y0001656D01*
X0013784Y0001822D02*
X0014117D01*
X0013951Y0001989D02*
Y0001656D01*
G54D35*
G01X0018680Y0005280D02*
X0018569D01*
X0018625D02*
Y0005613D01*
X0018569Y0005558D01*
X0018368Y0005336D02*
X0018340Y0005280D01*
X0018173D01*
X0018145Y0005336D01*
Y0005558D01*
X0018173Y0005613D01*
X0018340D01*
X0018368Y0005558D01*
X0012487Y0001015D02*
Y0000793D01*
X0012264Y0001015D01*
X0012209D01*
X0012153Y0000988D01*
Y0000821D01*
X0012209Y0000793D01*
X0012431Y0000647D02*
X0012487Y0000619D01*
Y0000453D01*
X0012431Y0000425D01*
X0012209D01*
X0012153Y0000453D01*
Y0000619D01*
X0012209Y0000647D01*
X0017889Y0009533D02*
X0017758D01*
X0017736Y0009576D01*
Y0009620D01*
X0017758Y0009664D01*
X0017889D01*
X0017911Y0009620D01*
Y0009576D01*
X0017823Y0009401D01*
X0017596D02*
X0017509D01*
X0017552D02*
Y0009664D01*
X0017509Y0009620D01*
X0017172Y0009489D02*
Y0009445D01*
X0017194Y0009401D01*
X0017281D01*
X0017303Y0009445D01*
Y0009664D01*
X0017325D02*
X0017237D01*
X0016981Y0001471D02*
X0017138Y0001786D01*
X0016928D01*
X0016784Y0001471D02*
X0016679D01*
X0016732D02*
Y0001786D01*
X0016679Y0001734D01*
X0016482Y0001471D02*
X0016377D01*
X0016430D02*
Y0001786D01*
X0016377Y0001734D01*
X0016181Y0001471D02*
X0016076D01*
X0016128D02*
Y0001786D01*
X0016076Y0001734D01*
X0015879Y0001786D02*
Y0001681D01*
X0015774Y0001471D01*
X0015669Y0001681D01*
Y0001786D01*
X0015525Y0001471D02*
X0015341D01*
Y0001786D01*
X0015092Y0001471D02*
Y0001786D01*
X0015197D02*
X0014987D01*
X0009932Y0011311D02*
X0009888Y0011355D01*
X0009866Y0011398D01*
Y0011486D01*
X0009888Y0011530D01*
X0009932Y0011573D01*
X0009976D01*
X0010019Y0011530D01*
X0010041Y0011486D01*
Y0011398D01*
X0010019Y0011355D01*
X0009976Y0011311D01*
X0009932D01*
X0009726D02*
X0009551D01*
X0009726Y0011486D01*
Y0011530D01*
X0009704Y0011573D01*
X0009573D01*
X0009551Y0011530D01*
X0009258Y0011398D02*
Y0011355D01*
X0009280Y0011311D01*
X0009368D01*
X0009390Y0011355D01*
Y0011573D01*
X0009411D02*
X0009324D01*
X0005013Y0002322D02*
X0004838D01*
X0004926Y0002497D01*
X0004970D01*
Y0002235D01*
X0004698Y0002322D02*
X0004523D01*
X0004611Y0002497D01*
X0004655D01*
Y0002235D01*
X0004230Y0002322D02*
Y0002278D01*
X0004252Y0002235D01*
X0004340D01*
X0004362Y0002278D01*
Y0002497D01*
X0004383D02*
X0004296D01*
X0001831Y0001271D02*
X0001656D01*
X0001831Y0001446D01*
Y0001489D01*
X0001809Y0001533D01*
X0001678D01*
X0001656Y0001489D01*
X0001341Y0001402D02*
X0001472D01*
X0001516Y0001446D01*
Y0001489D01*
X0001472Y0001533D01*
X0001341D01*
Y0001271D01*
X0004252Y0005177D02*
Y0005002D01*
X0004077Y0005090D01*
Y0005133D01*
X0004340D01*
X0004077Y0004862D02*
X0004296D01*
X0004340Y0004840D01*
Y0004709D01*
X0004296Y0004687D01*
X0004077D01*
X0002781Y0004548D02*
Y0004443D01*
Y0004496D02*
X0002466D01*
X0002518Y0004443D01*
X0002623Y0004036D02*
Y0004194D01*
X0002571Y0004246D01*
X0002518D01*
X0002466Y0004194D01*
Y0004036D01*
X0002781D01*
X0002676Y0003708D02*
X0002728D01*
X0002781Y0003735D01*
Y0003840D01*
X0002728Y0003866D01*
X0002466D01*
Y0003892D02*
Y0003787D01*
X0001708Y0010346D02*
X0001621D01*
X0001665D02*
Y0010608D01*
X0001621Y0010564D01*
X0001262Y0010477D02*
X0001394D01*
X0001437Y0010521D01*
Y0010564D01*
X0001394Y0010608D01*
X0001262D01*
Y0010346D01*
X0017373Y0000336D02*
X0017262D01*
X0017318D02*
Y0000669D01*
X0017262Y0000614D01*
X0017061Y0000669D02*
Y0000391D01*
X0017033Y0000336D01*
X0016866D01*
X0016839Y0000391D01*
Y0000669D01*
X0004330Y0003806D02*
X0004386Y0003862D01*
Y0003973D01*
X0004330Y0004028D01*
X0004275D01*
X0004163Y0003917D01*
X0004052Y0004028D01*
Y0003806D01*
X0004219Y0003577D02*
X0004386Y0003660D01*
X0004219Y0003438D02*
Y0003605D01*
X0004163Y0003660D01*
X0004108D01*
X0004052Y0003605D01*
Y0003438D01*
X0004386D01*
X0002264Y0007832D02*
X0002263Y0003584D01*
X0000061D01*
Y0008264D01*
X0002264D01*
Y0007832D01*
G54D36*
G01X0010828Y0011337D02*
Y0009213D01*
X0018105D01*
Y0011731D01*
X0010828D01*
Y0011337D01*
X0003348D02*
Y0009213D01*
X0010625D01*
Y0011731D01*
X0003348D01*
Y0011337D01*
X0011416Y0000513D02*
Y0002637D01*
X0004139D01*
Y0000120D01*
X0011416D01*
Y0000513D01*
G54D53*
G01X0006387Y0008657D02*
X0006554D01*
X0006582Y0008601D01*
Y0008545D01*
X0006554Y0008490D01*
X0006387D01*
X0006359Y0008545D01*
Y0008601D01*
X0006470Y0008823D01*
X0006128Y0008657D02*
X0006212Y0008490D01*
X0005989Y0008657D02*
X0006156D01*
X0006212Y0008712D01*
Y0008768D01*
X0006156Y0008823D01*
X0005989D01*
Y0008490D01*
X0018248Y0001132D02*
X0018136D01*
X0018192D02*
Y0001466D01*
X0018136Y0001410D01*
X0017739Y0001132D02*
Y0001466D01*
X0017711Y0001132D02*
X0017878D01*
X0017933Y0001243D01*
Y0001354D01*
X0017878Y0001466D01*
X0017711D01*
X0007301Y0007642D02*
X0007635Y0007475D01*
Y0007697D01*
X0007468Y0007928D02*
X0007301Y0007845D01*
X0007468Y0008067D02*
Y0007901D01*
X0007523Y0007845D01*
X0007579D01*
X0007635Y0007901D01*
Y0008067D01*
X0007301D01*
X0003584Y0007622D02*
X0003639Y0007649D01*
Y0007816D01*
X0003584Y0007844D01*
X0003473D01*
X0003417Y0007788D01*
Y0007622D01*
X0003306D01*
Y0007844D01*
X0003473Y0007391D02*
X0003639Y0007474D01*
X0003473Y0007252D02*
Y0007418D01*
X0003417Y0007474D01*
X0003361D01*
X0003306Y0007418D01*
Y0007252D01*
X0003639D01*
X0015202Y0004947D02*
X0015258Y0004892D01*
X0015369D01*
X0015424Y0004947D01*
Y0005003D01*
X0015313Y0005114D01*
X0015424Y0005225D01*
X0015202D01*
X0015054Y0004947D02*
X0015026Y0004892D01*
X0014860D01*
X0014832Y0004947D01*
Y0005170D01*
X0014860Y0005225D01*
X0015026D01*
X0015054Y0005170D01*
X0017805Y0003386D02*
X0017750Y0003414D01*
X0017694D01*
X0017638Y0003386D01*
Y0003219D01*
X0017694Y0003192D01*
X0017750D01*
X0017805Y0003219D01*
Y0003386D01*
X0017861Y0003414D01*
X0017916D01*
X0017972Y0003386D01*
Y0003219D01*
X0017916Y0003192D01*
X0017861D01*
X0017805Y0003219D01*
Y0002960D02*
X0017972Y0003044D01*
X0017805Y0002822D02*
Y0002988D01*
X0017750Y0003044D01*
X0017694D01*
X0017638Y0002988D01*
Y0002822D01*
X0017972D01*
X0014105Y0002618D02*
X0013882D01*
X0014105Y0002840D01*
Y0002896D01*
X0014077Y0002951D01*
X0013910D01*
X0013882Y0002896D01*
X0013651Y0002784D02*
X0013735Y0002618D01*
X0013512Y0002784D02*
X0013679D01*
X0013735Y0002840D01*
Y0002896D01*
X0013679Y0002951D01*
X0013512D01*
Y0002618D01*
X0002666Y0000062D02*
X0002444D01*
X0002666Y0000284D01*
Y0000339D01*
X0002638Y0000395D01*
X0002472D01*
X0002444Y0000339D01*
X0002296Y0000062D02*
X0002185D01*
X0002241D02*
Y0000395D01*
X0002185Y0000339D01*
X0001898Y0000228D02*
X0001982Y0000062D01*
X0001760Y0000228D02*
X0001926D01*
X0001982Y0000284D01*
Y0000339D01*
X0001926Y0000395D01*
X0001760D01*
Y0000062D01*
X0004964Y0008692D02*
X0005131D01*
X0005158Y0008637D01*
Y0008581D01*
X0005131Y0008526D01*
X0004964D01*
X0004936Y0008581D01*
Y0008637D01*
X0005047Y0008859D01*
X0004788Y0008581D02*
X0004761Y0008526D01*
X0004594D01*
X0004566Y0008581D01*
Y0008804D01*
X0004594Y0008859D01*
X0004761D01*
X0004788Y0008804D01*
X0005442Y0004041D02*
Y0003818D01*
X0005220Y0003929D01*
Y0003985D01*
X0005553D01*
X0005386Y0003587D02*
X0005553Y0003671D01*
X0005386Y0003448D02*
Y0003615D01*
X0005331Y0003671D01*
X0005275D01*
X0005220Y0003615D01*
Y0003448D01*
X0005553D01*
X0013517Y0004865D02*
X0013406D01*
X0013461D02*
Y0005198D01*
X0013406Y0005143D01*
X0013119Y0005031D02*
X0013202Y0004865D01*
X0012980Y0005031D02*
X0013147D01*
X0013202Y0005087D01*
Y0005143D01*
X0013147Y0005198D01*
X0012980D01*
Y0004865D01*
X0002724Y0011380D02*
X0002669Y0011436D01*
X0002641Y0011492D01*
Y0011603D01*
X0002669Y0011658D01*
X0002724Y0011714D01*
X0002780D01*
X0002835Y0011658D01*
X0002863Y0011603D01*
Y0011492D01*
X0002835Y0011436D01*
X0002780Y0011380D01*
X0002724D01*
X0002493D02*
X0002382D01*
X0002438D02*
Y0011714D01*
X0002382Y0011658D01*
X0002095Y0011547D02*
X0002179Y0011380D01*
X0001956Y0011547D02*
X0002123D01*
X0002179Y0011603D01*
Y0011658D01*
X0002123Y0011714D01*
X0001956D01*
Y0011380D01*
X0018111Y0002805D02*
X0019261D01*
Y0003450D01*
X0018111D01*
Y0002805D01*
X0003789Y0008425D02*
Y0007275D01*
X0004434D01*
Y0008425D01*
X0003789D01*
X0015925Y0004754D02*
X0014775D01*
Y0004109D01*
X0015925D01*
Y0004754D01*
X0006443Y0007480D02*
X0005961D01*
Y0008390D01*
X0006443D01*
Y0007480D01*
X0005644Y0004016D02*
X0006126D01*
Y0003106D01*
X0005644D01*
Y0004016D01*
X0007210Y0007480D02*
X0006729D01*
Y0008390D01*
X0007210D01*
Y0007480D01*
X0017819Y0002621D02*
Y0001591D01*
X0019399D01*
Y0002021D01*
X0019484Y0002106D01*
X0019399Y0002191D01*
Y0002621D01*
X0017819D01*
X0002874Y0001171D02*
X0001724D01*
Y0000526D01*
X0002874D01*
Y0001171D01*
X0004966Y0003129D02*
X0004484D01*
Y0004039D01*
X0004966D01*
Y0003129D01*
X0004537Y0008425D02*
Y0007275D01*
X0005182D01*
Y0008425D01*
X0004537D01*
X0002992Y0011231D02*
X0001842D01*
Y0010586D01*
X0002992D01*
Y0011231D01*
X0014114Y0004754D02*
X0012964D01*
Y0004109D01*
X0014114D01*
Y0004754D01*
X0012992Y0003081D02*
X0014142D01*
Y0003726D01*
X0012992D01*
Y0003081D01*
G54D54*
G01X0006047Y0005621D02*
Y0005883D01*
X0006082D02*
X0006012D01*
X0005925Y0005665D02*
X0005916Y0005621D01*
X0005863D01*
X0005855Y0005665D01*
Y0005840D01*
X0005863Y0005883D01*
X0005916D01*
X0005925Y0005840D01*
X0005706Y0005621D02*
Y0005883D01*
X0005697Y0005621D02*
X0005750D01*
X0005767Y0005709D01*
Y0005796D01*
X0005750Y0005883D01*
X0005697D01*
X0005549Y0005752D02*
X0005601D01*
X0005610Y0005709D01*
Y0005665D01*
X0005601Y0005621D01*
X0005549D01*
X0005540Y0005665D01*
Y0005709D01*
X0005575Y0005883D01*
X0005409Y0005621D02*
X0005391Y0005665D01*
X0005382Y0005709D01*
Y0005796D01*
X0005391Y0005840D01*
X0005409Y0005883D01*
X0005426D01*
X0005444Y0005840D01*
X0005452Y0005796D01*
Y0005709D01*
X0005444Y0005665D01*
X0005426Y0005621D01*
X0005409D01*
X0005225Y0005665D02*
X0005243Y0005621D01*
X0005278D01*
X0005295Y0005665D01*
Y0005709D01*
X0005260Y0005796D01*
X0005295Y0005883D01*
X0005225D01*
X0005129Y0005752D02*
X0005076D01*
X0005068Y0005796D01*
Y0005840D01*
X0005076Y0005883D01*
X0005129D01*
X0005138Y0005840D01*
Y0005796D01*
X0005103Y0005621D01*
X0004980Y0005709D02*
X0004910D01*
X0004980Y0005621D02*
Y0005752D01*
X0004954Y0005883D01*
X0004937D01*
X0004910Y0005752D01*
Y0005621D01*
X0004823Y0005665D02*
X0004814Y0005621D01*
X0004762D01*
X0004753Y0005665D01*
Y0005840D01*
X0004762Y0005883D01*
X0004814D01*
X0004823Y0005840D01*
X0004596Y0005752D02*
X0004648D01*
X0004666Y0005796D01*
Y0005840D01*
X0004648Y0005883D01*
X0004596D01*
Y0005621D01*
X0014291Y0000591D02*
Y0001929D01*
X0014094Y0002125D01*
X0012600D01*
Y0000395D01*
X0014094D01*
X0014291Y0000591D01*
X0002520Y0003404D02*
Y0001634D01*
X0000750D01*
Y0003404D01*
X0002520D01*
X0002677Y0010196D02*
Y0008426D01*
X0000907D01*
Y0010196D01*
X0002677D01*
X0018721Y0003820D02*
X0018957Y0004016D01*
Y0004960D01*
X0018721Y0005157D01*
X0017580D01*
Y0003820D01*
X0018721D01*
G54D55*
G01X0017362Y0003012D02*
X0014803D01*
Y0000847D01*
X0017362D01*
Y0003012D01*
G54D56*
G01X0004508Y0004488D02*
X0006161D01*
Y0006929D01*
X0004508D01*
Y0004488D01*
G54D11*
X0016358Y0005965D03*
X0008524D03*
M02*
